/* XPM */
static char *_68e11066d8e49d0f5b98186d73d20089SB9XydBjRRSd76w[] = {
/* columns rows colors chars-per-pixel */
"40 40 46 1 ",
"  c #3E3E3E",
". c gray26",
"X c gray28",
"o c #4B4B4B",
"O c gray31",
"+ c gray32",
"@ c #565656",
"# c #585858",
"$ c gray37",
"% c gray38",
"& c gray40",
"* c #6A6A6A",
"= c gray43",
"- c #727272",
"; c gray46",
": c gray47",
"> c #7E7E7E",
", c #808080",
"< c #868686",
"1 c #898989",
"2 c gray56",
"3 c #939393",
"4 c gray58",
"5 c #9A9A9A",
"6 c gray62",
"7 c gray64",
"8 c gray65",
"9 c gray66",
"0 c #AFAFAF",
"q c #B1B1B1",
"w c #B4B4B4",
"e c gray72",
"r c gray74",
"t c #C0C0C0",
"y c #C5C5C5",
"u c #C8C8C8",
"i c gray80",
"p c LightGray",
"a c #D5D5D5",
"s c #DADADA",
"d c #DFDFDF",
"f c #E1E1E1",
"g c #E6E6E6",
"h c gray92",
"j c #ECECEC",
"k c #F8F8F8",
/* pixels */
"-1%#>2:;;=->,o+%,>:,,134<--9<1$+;$,:;===",
":2*&<1:&***:>@&;6311->14<;:q17;&1<63,,,;",
"=:-=43:;;-;,2%;,7624,57631101q1-68fu04,=",
"&=,>99>-=&=-;#,2q932-,3<;:>81w5>92rw86,*",
"@*22e9<<--;;*%12w9>;:,<:**&2:9739-3874<;",
"@=1<w4=&%=><>=4378*#$-12,1>-&597t=3551>;",
"@$=*2;#$%-25<$;>,,$o o@@+@oOO*,<7=<65633",
"&*%&>2&#+$57-&40ee02##&;=%X=><147-:11wrq",
"<>*&*=+$@=57>*36094-=*=;&%o<2,<,2=:>:906",
"1;%%%@o&&>7e6*28905--=-*$&o=:-*&*$,:;42<",
">;*%$#O=-29yr%-<7euw,::*%=O;,,,38,2-&>--",
"eq3;**#-,78uf->>,12>357<=:#11<,>,*3*#=*&",
"yw5>&%+>184ykwaw4:-%8ey5>2=ir83;%$6&@=%=",
":<-+%+O-;>>401w<*-1<-141>3-65763;%;*&&&@",
"405*<;&:>,<34:4;%184=>1547,0qtuie7qq087<",
"164*<:=432,>>$,=*206%-<579>4377etqw83,:*",
",11&,>&,1,:;=+===384#=:137:43516qttq634>",
"11<&,>%&*=>35%=-=42,;360ra4867,<3<31>162",
"<1,#;>%$##$->#::-1>&*:150e<77q:::>2>:151",
";>-O-,-<>->38#-;%=@X&=;,11&1<2%%&=-&%=*$",
"34:%&*#4-=466*,%#$%#-#%#+@#112<>=:-&*=O+",
",4:%#$#6>1tqr6w3>1311%&##%&78752:>>,21%%",
"<63;:>*4>4ewt<6<:><<,$$$&-&652>-&;;<55;-",
",64,<,&3;100e192:-=%=@$*:1=<541>;:;137,<",
"qt0558<5<1225,6,:=%O$O$:25:25884,><23847",
"7e8227,31<;&:$:->>;$@O$,66:,3661;,377yey",
">,-%%@X;-=%#%o###+O.  O%:;%15854,*;>5w80",
"y62;4&X2;&%&&$=<=#+@o#&;<<:747=:&O3rshjf",
"8<<=<:+;*$$->-,,=&$%=>--=*%618,1:$360941",
"3,3;<,+=&*:23<5<-;--;3:==*%54w593;wtyq6>",
"228;11OoO%2qa781>1,;:1:=-,:24y9rw,633<*+",
"210;28#++*19u56>>52:#%$#%%@;5prdp33;=&@O",
",>8-<r=:**>23-2;:06,$==-==$#1iydf68<<1,:",
"*=>-:5&%+O@$&#>;<73;Oo&Oo# O$&*--+*&&7:%",
"-;:1<<&**&*$=,0yiyw4>-6-*<%776412&474h82",
",:-=%#o>>>:%;=38wq6<3,95,4&1551,,&0r8ge4",
"451<:*$3422*;%<5575,2,8976-0973,;%uuwa04",
"9q95,;%6445-:$:3884<3>6805:siw5:&&etqe31",
"*12::*@5,15:1O#*=;&#2,,7q3*453:=&%4943><",
"<67688;4**,&>%=,2<,;4>*38=#333124*>1***:"
};
