/* XPM */
static char *_285c4c7d7154603b069d43feeda2726_8[] = {
/* columns rows colors chars-per-pixel */
"107 74 36 1 ",
"  c None",
". c #050404",
"X c #0C0C0C",
"o c #1A120B",
"O c #101010",
"+ c #161616",
"@ c gray11",
"# c #251B0F",
"$ c #332614",
"% c #3B301D",
"& c #262525",
"* c #2C2C2C",
"= c #48341D",
"- c #543D1C",
"; c #5A4327",
": c #694623",
"> c #764F2A",
", c #8A5A33",
"< c #825C3D",
"1 c #996138",
"2 c #A2693C",
"3 c #AA6D41",
"4 c #AF6D42",
"5 c #AC7244",
"6 c #B27145",
"7 c #B57548",
"8 c #BE7949",
"9 c #BD7D51",
"0 c #CA7D4D",
"q c #CF8251",
"w c #D78A59",
"e c #DF9261",
"r c #E79A69",
"t c #F1A473",
"y c #FDB484",
"u c white",
/* pixels */
"                                                                             ;;>>;>                        ",
"                                                                          -,6qwwwe8,;-&-                   ",
"                                                          %%$$o@@@&&&&;=->,2qew8662,>:;==                  ",
"                                                        $$$%%$$$oo@$%>,,27qwq883121,,>>----                ",
"                                                      =$%-,,:;=$$$$=>26wqqq8862,,,>;-;--%&&-               ",
"                                                     $$;21,1,>;-=&-,6ereq88331,>;;&&&&&&&&@&&&-            ",
"                                                   -$%15,1,,;--&&-;qttew862,;=&&&&&&&&&-;->,;;&&-;         ",
"                                                  -$=11,>>;--&&;,2wrewq02>-@@&;2,36ww8wwwerree2,,;-&       ",
"                                                 -$-2,,:>:-&=,60w063382>=&@&;3qr0wrrttyyyyytrrewww4>-&     ",
"                                                ==;32,>>-=-,88888222,>=&&;10wwqee8tytytttrrrewwere1>:-;    ",
"                                               -=;,,,>;--:38888621,,-&&;6w8etwerr8errewq0800866661>;:&&&   ",
"                                              $=-:,>:;;;,888883,>;=+$-1qeertttttrrww061111,,,,,,,>>:;-=+   ",
"                                             $-;:>:--;>3888861,:=@#-,qwertyyytre80311,,>::;;;;;::;---$+@   ",
"                                           &%=:;;;-;:29636621>;$o$,8wertyyttrew062,,>;;--=$@@@&&%==$OXX    ",
"uuuuuuuuuuuuuuuuuuuuuuuuuuuuuuuuuuuuuuuuuu==;;-;;;;,88322221>;$$;1qeerttrrreeq61,:$&@@++&&&&&+Xo++         ",
"uuuuuuuuuuuuuuuuuuuuuuuuuuuuuuuuuuuuuuuuuu=:;==-;138w83111,>;==>18qwwewwwwww03,:%#X+@@&                    ",
"uuuuuuuuuuuuuuuuuuuuuuuuuuuuuuuuuuuuuuuuu=:;===>3688w83,,1>%==,1280qq0q86663,:%+.o@&                       ",
"uuuuuuuuuuuuuuuuuuuuuuuuuuuuuuuuuuuuuuuu-:-%%->3688qw82,,:%%-,270wwwq0322,>>-@.X$                          ",
"uuuuuuuuuuuuuuuuuuuuuuuuuuuuuuuuuuuuuu%-:-%%-,268wwwq6,,>:;;,28qwwwqq821,:;%@XX&                           ",
"uuuuuuuuuuuuuuuuuuuuuuuuuuuuuuuuuuuuu%-:;%%;,178eee0621>;;>26886686232,>-%$o..X.X+&--&&&&&&==%&$&$&$o++++  ",
"uuuuuuuuuuuuuuuuuuuuuuuuuuuuuuuuuuu$%-;;%%:,13qeee8632,:>2qwq83222111,=$$ooX.+@%-&$&$&:--::::;---:111>>-$- ",
"uuuuuuuuuuuuuuuuuuuuuuuuuuuuuuuuuu$%=;;-=>113qee888862,,3weew621,,11,-#oO+@=-;:;;;;-->,,,,3388888q8q8q63,; ",
"uuuuuuuuuuuuuuuuuuuuuuuuuuuuuuuuu%$->;-->113qre8688631,18wrre61,,,1>%o+O$-;>,,,,1222,,263,268qwweeee38871--",
"uuuuuuuuuuuuuuuuuuuuuuuuuuuuuuuu%=-,;-->122qrw8668663223etrrw3,,,,>$@$%->,12213568qq080q086888www8qq0088>--",
"uuuuuuuuuuuuuuuuuuuuuuuuuuuuuuu%=,5>--,1230rw868q886666wttre03,,>:%$$=>2236668qwwww06880qq00680w628q11,,;=-",
"uuuuuuuuuuuuuuuuuuuuuuuuuuuuu-$=18,--<1238ew868w08888qertteq61,>>;%%>1376880qwwwwewqq86128688883211,1,>--= ",
"uuuuuuuuuuuuuuuuuuuuuuuuuuuu-$%>83;-,2226wq86qqqq880qwttrw83,,>:;-;2800866888qwwwwq086663,12221,,1>;--===  ",
"uuuuuuuuuuuuuuuuuuuuuuuuuuu-$#:83,->5323wq88qqqq8q8wrttw831,>::;;18qqq86336668qqq86111,,1,,,,,>;-=&&&&     ",
"uuuuuuuuuuuuuuuuuuuuuuuuuu=o$=862>:36338888qqqq8qqqetrw31,,,>>>,10were62,123363321>:>,1,>>>;--%&&&&&       ",
"uuuuuuuuuuuuuuuuuuuuuuuu;$o$=3q2,;276366888q8qwqqqwew82,,1,,,,,2qwette61>1,22,,>>;;;>;;;;;%$@&&&$          ",
"uuuuuuuuuuuuuuuuuuuuuuuu#$%=>q31>,36366688000qwwqww862,1,1>,,,,6qwtttq2,>,>,>,:==%=-$@@@$@@                ",
"uuuuuuuuuuuuuuuuuuuuuuu$$=->861,>6633668880q8qq8q862111,1,,1,136qryte8,>>:::;=@@@@@@@                      ",
"uuuuuuuuuuuuuuuuuuuuuuu%-;>,633>286336688888qq886321122221113338ttr061>:;;;=@@@@@                          ",
"uuuuuuuuuuuuuuuuuuuuuu==;>,163,,666336668888qqq632122363222336wew6321>>;--@@@$@$                           ",
"uuuuuuuuuuuuuuuuuu$$=$-:>,,262,38666668880888q86623388883368qww61,1,1>:;-$@@@@u                            ",
"uuuuuuuuuuuuuuuuu$%==%=,111562,0q8866688q000qw8866888886680ww82,,1111,;=%@@@@uu                            ",
"uuuuuuuuuuuuuuuu=;,,>;-:,16383000886880qqqq0qq88688888880qq86,,11211,;=$@@@@uuu                            ",
"uuuuuuuuuuuu$$$$$;173,>;>,3338wq0800qq00qq000866688888800832,111111>:-&&&@uuuuu                            ",
"uuuuuuuuuuu=$:,$o%>3662,::,238qwqewq80q0qq000886888888886211,121,1>:-=&&$uuuuuu                            ",
"uuuuuuuuuu$$133>#%;,26882>:,308qwwew0qqqqqq008886888886333223311,>;-=%&%uuuuuuu                            ",
"uuuuuu-%$$$$321>o=>,238q03,>18080weewqq80qqww886688086688333211>:;-=$++uuuuuuuu                            ",
"uuuuu;$-==$$>36,#;:43260q82,>66qqqwewqqqqqwww888888080q8663211,;;-%@+X&uuuuuuuu                            ",
"uuuuu@;->1%=;8q6$%:362260q82,1680qweeq08qwqwq080080w0qq886631>:;-&%+X++uuuuuuuu                            ",
"uuu,$$,>37;%-6q8-$>1322280q61,388qwwww8800qq0q0qq0qq00888862>>:;;-+++@+uuuuuuuu                            ",
"uuu%%%;137>%-,8q2$>>3322660032160qweww0088880q000qe0qwq08622>>;;:$ooo&&&uuuuuuu                            ",
"$$%%%$&1268-->68q$=>36322368833260weww0q8888qq00qwwqeew0862,:;;>%+%%$$&&%uuuuuu                            ",
"%=-,=$o,228>$>18q;$>162212668632380wwq008886q0qqqwwqwwqw63,>:;>-o$-$&%$&&uuuuuu                            ",
"-;;>:=$o>236%:,682$;,66212366682260ewq08888830qqqwwqq0www2,>:>-#$=$$$#$$@+wuuuu          &&&&;-;           ",
">>>>:$$#-238>=1,60$$>18212233383138qq8800088>000qqqqq8wew2>>>=oo%%$$@o@oo@@&uuu       &===;>,,2,,>;-       ",
">1,>>=$o%,26q;>>18-$;,621213336823680q088888;00qw860qqwq81>,;$$&&$#%=-====%&&-u   ;&&->1,,,4600778,&-      ",
">,;;,>=$o-26q1;>,7>$=,6212223336333880888888:0qwq82888888,1,%=-$$&o+ooooo+XXX@&&&&&-;,66678qqq8687>;&;     ",
">>;,>,-%o#>2q8->:,7$%>7613222212223688880q88;8qwq6,8638681,:=-=$#Oooo$#@#@$@@=---;>3128wwwwq06632,;;&&     ",
"7;>,,,>-=$-18w3,;:6%$,3812122112126888800w87;8qw01,31,2601>>:;;-%$#o#oooo$$=;;;>,,2868wwwwwqqq6,;-;-&&     ",
"1;>1,>,>;-$>7eq1:-7>=1,82111232226q00260qw83;8q88,,3,,,88>>;-;----;;;--;;>,>>;,,,,80wqwqwwq00,;-;;-&&      ",
",;>88>3>:;$-1ew1,-1>;,,62,,,2823www68,1qww61%1881:,3>:,63,:--->::>::;;>;,;>;;,119860q0808862,-===;&&       ",
"388w2,2:::%o,8e6,::,;>111,>1,623eww63,,ww82,=266>:12>-,66>>:;>,,>>>,>,>,,,,,,,10688688082,:;=%$            ",
"q6866,22;;=$:2ew1>;>=,1>1>,12813w0w61>>qw8,>%362-:21--,62>1,16222322,,,1122230083688081>;==$&              ",
"3wt6wr2w,--$=,ee6,;;-32,3,>123,1w68,,;-9q6>-=13,->6,%&,51>8688888868800q8800q6333386,>;=$@@@               ",
"6errw8e89>;-o,qe01:-=38>81>>66:,q27>>==382>$:,,--:3>$@36;;160q000q00qq6668wwqq8662>:-=$@++                 ",
"wet8w8q6q>--#-8ew3>-;2w>31,>62;>766::==18,-$;,>==>,-&:1>$$3666822233320qqqq6862,:--=$@@+                   ",
"rwee8w8e3:>;#$3ew71;,,w1,11:62==223::$-,3-%$;>-$=;:=@;>:o-,,,>,>>>>>,,112,2123,-=$@@+                      ",
"6qte8w88w3,;$+1ee61;;>e8>13;36=-22,;;&-,,=$#--%%&:=$&%&+o%----:>,>>>>>,,21>111:@@++                        ",
"0rwe6e2e,31>$o%ee82>--ew;,3;12=$131--=$>:=o$$$$$&=&&$@+XXXX&%=--;;:>::::;-;>:%@+                           ",
"ett76rwq126>=oXeeq2>-=q0::6;,,$$12>-=#*;=$X$&$@@&&&&&&@+++X+&$$$$$%---;;>>:;=@++                           ",
"ree88e66w03>=oX8eq2,-%,8,:3:,-O@,1:-&$@%%@+&&@@&@@+@+++++o+o@@@@@@$$&=-;;;;-@+u                            ",
"wqwqqw,8q82>-$X>rw8,-$>8,>3::-o&>1-$X+@$&+@&@@$%uuuuuuuuuuuuuuuuuuuuuuuuuuuuuuu                            ",
"08eq;,866,1>=$#%rr8,=$>9,=2>%%+@:>=@+@@@+&&&uuuuuuuuuuuuuuuuuuuuuuuuuuuuuuuuuuu                            ",
"8w6we86>,,>:%$#o3tq>-$:8,%1>%%o+%$$X@@@@&%uuuuuuuuuuuuuuuuuuuuuuuuuuuuuuuuuuuuu                            ",
"qewwwq,,1,>:%$$#;tq>-o;81%>;$o++o@+@@@&&=uuuuuuuuuuuuuuuuuuuuuuuuuuuuuuuuuuuuuu                            ",
"qq336q1,;>-=%$$o$ww,-#-8,%=$$OXX$O@$.&uuuuuuuuuuuuuuuuuuuuuuuuuuuuuuuuuuuuuuuuu                            ",
"w3,3363:;:-=#$$$o2e2-#;0>%$$o+X+&@%X&uuuuuuuuuuuuuuuuuuuuuuuuuuuuuuuuuuuuuuuuuu                            ",
"63,716,>;:;:$$$$#>q6$+:8;$$$O+X&X@o&uuuuuuuuuuuuuuuuuuuuuuuuuuuuuuuuuuuuuuuuuuu                            ",
"6>,,1>,,:,;;%#$%#-11%o;,-o$O++@X@ouuuuuuuuuuuuuuuuuuuuuuuuuuuuuuuuuuuuuuuuuuuuu                            ",
",>>,1:>::>;-$$$%o%>;=o$:=$O@o&&=;uuuuuuuuuuuuuuuuuuuuuuuuuuuuuuuuuuuuuuuuuuuuuu                            "
};
