/* XPM */
static char *_285c4c7d7154603b069d43feeda2726_11[] = {
/* columns rows colors chars-per-pixel */
"167 112 39 1 ",
"  c None",
". c #050404",
"X c #0C0C0C",
"o c #1A120B",
"O c #101010",
"+ c #161616",
"@ c gray11",
"# c #251B0F",
"$ c #332614",
"% c #3B301D",
"& c #262525",
"* c #2C2C2C",
"= c #48341D",
"- c #543D1C",
"; c #5A4327",
": c #694623",
"> c #764F2A",
", c #8A5A33",
"< c #825C3D",
"1 c #996138",
"2 c #A2693C",
"3 c #AA6D41",
"4 c #AF6D42",
"5 c #AC7244",
"6 c #B27145",
"7 c #B57548",
"8 c #BE7949",
"9 c #BD7D51",
"0 c #CA7D4D",
"q c #CF8251",
"w c #D38350",
"e c #D78A59",
"r c #DB8E5D",
"t c #DF9261",
"y c #E79A69",
"u c #F1A473",
"i c #FDB484",
"p c #FDDB9C",
"a c white",
/* pixels */
"                                                                                                                                         ;;>>;>                        ",
"                                                                                                                                      -,6qeeet8,;-&-                   ",
"                                                                                                                      %%$$o@@@&&&&;=->,2qte8662,>:;==                  ",
"                                                                                                                    $$$%%$$$oo@$%>,,27qeq883121,,>>----                ",
"                                                                                                                  =$%-,,:;=$$$$=>26eqqq8862,,,>;-;--%&&-               ",
"                                                                                                                 $$;21,1,>;-=&-,6tytq88331,>;;&&&&&&&&@&&&-            ",
"                                                                                                               -$%15,1,,;--&&-;quute862,;=&&&&&&&&&-;->,;;&&-;         ",
"                                                                                                              -$=11,>>;--&&;,2eyteq02>-@@&;2,36ee8eeetyytt2,,;-&       ",
"                                                                                                             -$-2,,:>:-&=,60e063382>=&@&;3qy0eyyuuiiiiiuyyteee4>-&     ",
"                                                                                                            ==;32,>>-=-,88888222,>=&&;10eeqtt8uiuiuuuyyyteetyt1>:-;    ",
"                                                                                                           -=;,,,>;--:38888621,,-&&;6e8tuetyy8tyyteq0800866661>;:&&    ",
"                                                                                                          $=-:,>:;;;,888883,>;=+$-1qttyuuuuuyyee061111,,,,,,,>>:;-=+   ",
"                                                                                                         $-;:>:--;>3888861,:=@#-,qetyuiiiuyt80311,,>::;;;;;::;---$     ",
"                                                                                                       &%=:;;;-;:29636621>;$o$,8etyuiiuuyte062,,>;;--=$@@@&&%==$OXX    ",
"                                                                                                      ==;;-;;;;,88322221>;$$;1qttyuuyyyttq61,:$&@@++&&&&&+Xo++         ",
"                                                                                                      =:;==-;138e83111,>;==>18qeeteeeeee03,:%#X+@@&                    ",
"aaaaaaaaaaaaaaaaaaaaaaaaaaaaaaaaaaaaaaaaaaaaaaaaaaaaaaaaaaaaaaaaaaaaaaaaaaaaaaaaaaaaaaaaaaaaaaaaaaaaa=:;===>3688e83,,1>%==,1280qq0q86663,:%+.o@&                       ",
"aaaaaaaaaaaaaaaaaaaaaaaaaaaaaaaaaaaaaaaaaaaaaaaaaaaaaaaaaaaaaaaaaaaaaaaaaaaaaaaaaaaaaaaaaaaaaaaaaaaa-:-%%->3688qe82,,:%%-,270eeeq0322,>>-@.X$                          ",
"aaaaaaaaaaaaaaaaaaaaaaaaaaaaaaaaaaaaaaaaaaaaaaaaaaaaaaaaaaaaaaaaaaaaaaaaaaaaaaaaaaaaaaaaaaaaaaaaaa%-:-%%-,268eeeq6,,>:;;,28qeeeqq821,:;%@XX&a                          ",
"aaaaaaaaaaaaaaaaaaaaaaaaaaaaaaaaaaaaaaaaaaaaaaaaaaaaaaaaaaaaaaaaaaaaaaaaaaaaaaaaaaaaaaaaaaaaaaaaa%-:;%%;,178ttt0621>;;>26886686232,>-%$o..X.X+&--&&&&&&==%&$&$&$o+++   ",
"aaaaaaaaaaaaaaaaaaaaaaaaaaaaaaaaaaaaaaaaaaaaaaaaaaaaaaaaaaaaaaaaaaaaaaaaaaaaaaaaaaaaaaaaaaaaaaa$%-;;%%:,13qttt8632,:>2qeq83222111,=$$ooX.+@%-&$&$&:--::::;---:111>>-$- ",
"aaaaaaaaaaaaaaaaaaaaaaaaaaaaaaaaaaaaaaaaaaaaaaaaaaaaaaaaaaaaaaaaaaaaaaaaaaaaaaaaaaaaaaaaaaaaaa$%=;;-=>113qtt888862,,3ette621,,11,-#oO+@=-;:;;;;-->,,,,3388888q8q8q63,; ",
"aaaaaaaaaaaaaaaaaaaaaaaaaaaaaaaaaaaaaaaaaaaaaaaaaaaaaaaaaaaaaaaaaaaaaaaaaaaaaaaaaaaaaaaaaaaaa%$->;-->113qyt8688631,18eyyt61,,,1>%o+O$-;>,,,,1222,,263,268qeetttt38871--",
"aaaaaaaaaaaaaaaaaaaaaaaaaaaaaaaaaaaaaaaaaaaaaaaaaaaaaaaaaaaaaaaaaaaaaaaaaaaaaaaaaaaaaaaaaaaa%=-,;-->122qye8668663223tuyye3,,,,>$@$%->,12213568qq080q086888eee8qq0088>--",
"aaaaaaaaaaaaaaaaaaaaaaaaaaaaaaaaaaaaaaaaaaaaaaaaaaaaaaaaaaaaaaaaaaaaaaaaaaaaaaaaaaaaaaaaaaa%=,5>--,1230ye868q886666euuyt03,,>:%$$=>2236668qeeee06880qq00680e628q11,,;=-",
"aaaaaaaaaaaaaaaaaaaaaaaaaaaaaaaaaaaaaaaaaaaaaaaaaaaaaaaaaaaaaaaaaaaaaaaaaaaaaaaaaaaaaaaaa-$=18,--<1238te868e08888qtyuutq61,>>;%%>1376880qeeeeteqq86128688883211,1,>--= ",
"aaaaaaaaaaaaaaaaaaaaaaaaaaaaaaaaaaaaaaaaaaaaaaaaaaaaaaaaaaaaaaaaaaaaaaaaaaaaaaaaaaaaaaaa-$%>83;-,2226eq86qqqq880qeuuye83,,>:;-;2800866888qeeeeq086663,12221,,1>;--===  ",
"aaaaaaaaaaaaaaaaaaaaaaaaaaaaaaaaaaaaaaaaaaaaaaaaaaaaaaaaaaaaaaaaaaaaaaaaaaaaaaaaaaaaaaa-$#:83,->5323eq88qqqq8q8eyuue831,>::;;18qqq86336668qqq86111,,1,,,,,>;-=&&&&     ",
"aaaaaaaaaaaaaaaaaaaaaaaaaaaaaaaaaaaaaaaaaaaaaaaaaaaaaaaaaaaaaaaaaaaaaaaaaaaaaaaaaaaaaa=o$=862>:36338888qqqq8qqqtuye31,,,>>>,10etyt62,123363321>:>,1,>>>;--%&&&&&       ",
"aaaaaaaaaaaaaaaaaaaaaaaaaaaaaaaaaaaaaaaaaaaaaaaaaaaaaaaaaaaaaaaaaaaaaaaaaaaaaaaaaaaa;$o$=3q2,;276366888q8qeqqqete82,,1,,,,,2qetuut61>1,22,,>>;;;>;;;;;%$@&&&$          ",
"aaaaaaaaaaaaaaaaaaaaaaaaaaaaaaaaaaaaaaaaaaaaaaaaaaaaaaaaaaaaaaaaaaaaaaaaaaaaaaaaaaaa#$%=>q31>,36366688000qeeqee862,1,1>,,,,6qeuuuq2,>,>,>,:==%=-$@@@$@@                ",
"aaaaaaaaaaaaaaaaaaaaaaaaaaaaaaaaaaaaaaaaaaaaaaaaaaaaaaaaaaaaaaaaaaaaaaaaaaaaaaaaaaa$$=->861,>6633668880q8qq8q862111,1,,1,136qyiut8,>>:::;=@@@@@@@                      ",
"aaaaaaaaaaaaaaaaaaaaaaaaaaaaaaaaaaaaaaaaaaaaaaaaaaaaaaaaaaaaaaaaaaaaaaaaaaaaaaaaaaa%-;>,633>286336688888qq886321122221113338uuy061>:;;;=@@@@@                          ",
"aaaaaaaaaaaaaaaaaaaaaaaaaaaaaaaaaaaaaaaaaaaaaaaaaaaaaaaaaaaaaaaaaaaaaaaaaaaaaaaaaa==;>,163,,666336668888qqq632122363222336ete6321>>;--@@@$@$a                          ",
"aaaaaaaaaaaaaaaaaaaaaaaaaaaaaaaaaaaaaaaaaaaaaaaaaaaaaaaaaaaaaaaaaaaaaaaaaaaaaa$$=$-:>,,262,38666668880888q86623388883368qee61,1,1>:;-$@@@@aaa                          ",
"aaaaaaaaaaaaaaaaaaaaaaaaaaaaaaaaaaaaaaaaaaaaaaaaaaaaaaaaaaaaaaaaaaaaaaaaaaaaa$%==%=,111562,0q8866688q000qe8866888886680ee82,,1111,;=%@@@@aaaa                          ",
"aaaaaaaaaaaaaaaaaaaaaaaaaaaaaaaaaaaaaaaaaaaaaaaaaaaaaaaaaaaaaaaaaaaaaaaaaaaa=;,,>;-:,16383000886880qqqq0qq88688888880qq86,,11211,;=$@@@@aaaaa                          ",
"aaaaaaaaaaaaaaaaaaaaaaaaaaaaaaaaaaaaaaaaaaaaaaaaaaaaaaaaaaaaaaaaaaaaaaaa$$$$$;173,>;>,3338eq0800qq00qq000866688888800832,111111>:-&&&@aaaaaaa                          ",
"aaaaaaaaaaaaaaaaaaaaaaaaaaaaaaaaaaaaaaaaaaaaaaaaaaaaaaaaaaaaaaaaaaaaaaa=$:,$o%>3662,::,238qeqteq80q0qq000886888888886211,121,1>:-=&&$aaaaaaaa                          ",
"aaaaaaaaaaaaaaaaaaaaaaaaaaaaaaaaaaaaaaaaaaaaaaaaaaaaaaaaaaaaaaaaaaaaaa$$133>#%;,26882>:,308qeete0qqqqqq008886888886333223311,>;-=%&%aaaaaaaaa                          ",
"aaaaaaaaaaaaaaaaaaaaaaaaaaaaaaaaaaaaaaaaaaaaaaaaaaaaaaaaaaaaaaaaaa-%$$$$321>o=>,238q03,>18080etteqq80qqee886688086688333211>:;-=$++aaaaaaaaaa                          ",
"aaaaaaaaaaaaaaaaaaaaaaaaaaaaaaaaaaaaaaaaaaaaaaaaaaaaaaaaaaaaaaaaa;$-==$$>36,#;:43260q82,>66qqqeteqqqqqeee888888080q8663211,;;-%@+X&aaaaaaaaaa                          ",
"aaaaaaaaaaaaaaaaaaaaaaaaaaaaaaaaaaaaaaaaaaaaaaaaaaaaaaaaaaaaaaaaa@;->1%=;8q6$%:362260q82,1680qettq08qeqeq080080e0qq886631>:;-&%+X++aaaaaaaaaa                          ",
"aaaaaaaaaaaaaaaaaaaaaaaaaaaaaaaaaaaaaaaaaaaaaaaaaaaaaaaaaaaaaaa,$$,>37;%-6q8-$>1322280q61,388qeeee8800qq0q0qq0qq00888862>>:;;-+++@+aaaaaaaaaa                          ",
"aaaaaaaaaaaaaaaaaaaaaaaaaaaaaaaaaaaaaaaaaaaaaaaaaaaaaaaaaaaaaaa%%%;137>%-,8q2$>>3322660032160qetee0088880q000qt0qeq08622>>;;:$ooo&&&aaaaaaaaa                          ",
"aaaaaaaaaaaaaaaaaaaaaaaaaaaaaaaaaaaaaaaaaaaaaaaaaaaaaaaaaaa-$$%%%$&1268-->68q$=>36322368833260etee0q8888qq00qeeqtte0862,:;;>%+%%$$&&%aaaaaaaa                          ",
"aaaaaaaaaaaaaaaaaaaaaaaaaaaaaaaaaaaaaaaaaaaaaaaaaaaaaaaaa-%%%=-,=$o,228>$>18q;$>162212668632380eeq008886q0qqqeeqeeqe63,>:;>-o$-$&%$&&aaaaaaaa                          ",
"aaaaaaaaaaaaaaaaaaaaaaaaaaaaaaaaaaaaaaaaaaaaaaaaaaaaaaa-=%=:-;;>:=$o>236%:,682$;,66212366682260teq08888830qqqeeqq0eee2,>:>-#$=$$$#$$@+eaaaaaa        &&&&;-;           ",
"aaaaaaaaaaaaaaaaaaaaaaaaaaaaaaaaaaaaaaaaaaaaaaaaaaaa,;==---->>>>:$$#-238>=1,60$$>18212233383138qq8800088>000qqqqq8ete2>>>=oo%%$$@o@oo@@&aaaaa     &===;>,,2,,>;-       ",
"aaaaaaaaaaaaaaaaaaaaaaaaaaaaaaaaaaaaaaaaaaaaaaaaa;==%%-;=->3>1,>>=$o%,26q;>>18-$;,621213336823680q088888;00qe860qqeq81>,;$$&&$#%=-====%&&-aaa ;&&->1,,,4600778,&-      ",
"aaaaaaaaaaaaaaaaaaaaaaaaaaaaaaaaaaaaaaaaaaaaa-$========;=,2>>,;;,>=$o-26q1;>,7>$=,6212223336333880888888:0qeq82888888,1,%=-$$&o+ooooo+XXX@&&&&&-;,66678qqq8687>;&;     ",
"aaaaaaaaaaaaaaaaaaaaaaaaaaaaaaaaaaaaaaaaaaa%%=---===>>;%-1>;>>;,>,-%o#>2q8->:,7$%>7613222212223688880q88;8qeq6,8638681,:=-=$#Oooo$#@#@$@@=---;>3128eeeeq06632,;;&&     ",
"aaaaaaaaaaaaaaaaaaaaaaaaaaaaaaaaaaaaaaa%$$-;-:>=%==;>;=>:;:>7;>,,,>-=$-18e3,;:6%$,3812122112126888800e87;8qe01,31,2601>>:;;-%$#o#oooo$$=;;;>,,2868eeeeeqqq6,;-;-&&     ",
"aaaaaaaaaaaaaaaaaaaaaaaaaaaaaaaaaaaaa%$$=--=--=-;:>,2>>,,,:>1;>1,>,>;-$>7tq1:-7>=1,82111232226q00260qe83;8q88,,3,,,88>>;-;----;;;--;;>,>>;,,,,80eqeqeeq00,;-;;-&&      ",
"aaaaaaaaaaaaaaaaaaaaaaaaaaaaaaaaaa%$%%=;;==:>23>,,122,8>85,,,;>88>3>:;$-1te1,-1>;,,62,,,2823eee68,1qee61%1881:,3>:,63,:--->::>::;;>;,;>;;,119860q0808862,-===;&&       ",
"aaaaaaaaaaaaaaaaaaaaaaaaaaaaaaa%$$%--;==:%,22>4;,22;:1,3,,1,388e2,2:::%o,8t6,::,;>111,>1,623tee63,,ee82,=266>:12>-,66>>:;>,,>>>,>,>,,,,,,,10688688082,:;=%$            ",
"aaaaaaaaaaaaaaaaaaaaaaaaaaa-==-%$=-%=->-%=,>>>;:,:2,62,1,,03q6866,22;;=$:2te1>;>=,1>1>,12813e0e61>>qe8,>%362-:21--,62>1,16222322,,,1122230083688081>;==$&              ",
"aaaaaaaaaaaaaaaaaaaaaaaa%$%=-==%===;>:-=,;;;>1,7,>>,,,w6120q3eu6ey2e,--$=,tt6,;;-32,3,>123,1e68,,;-9q6>-=13,->6,%&,51>8688888868800q8800q6333386,>;=$@@@               ",
"aaaaaaaaaaaaaaaaaaaaa%%%=---===,:>=:8y,1,,1,,1>66,81,q68qeyq6tyye8t89>;-o,qt01:-=38>81>>66:,q27>>==382>$:,,--:3>$@36;;160q000q00qq6668eeqq8662>:-=$@++                 ",
"aaaaaaaaaaaaaaaaaaaa$-;->>=%==;>>;=>11:e,w2,66>:,2,2qe8ytte6etu8e8q6q>--#-8te3>-;2e>31,>62;>766::==18,-$;,>==>,-&:1>$$3666822233320qqqq6862,:--=$@@+                   ",
"aaaaaaaaaaaaaaa-%$$=--=;-==;>>>:;-;:>,e,623283683322tt0yt8eeyett8e8t3:>;#$3te71;,,e1,11:62==223::$-,3-%$;>-$=;:=@;>:o-,,,>,>>>>>,,112,2123,-=$@@+                      ",
"aaaaaaaaaa;>;=%%==;;==:>36>1123221;,3yq,,,,e63083668qe8q6q0e6qut8e88e3,;$+1tt61;;>t8>13;36=-22,;;&-,,=$#--%%&:=$&%&+o%----:>,>>>>>,,21>111:@@++                        ",
"aaaa%=--;;---;;;;=->=,23>3;,36;;;>,:11,q718683q38e8633tee0qt0yet6t2t,31>$o%tt82>--te;,3;12=$131--=$>:=o$$$$$&=&&$@+XXXX&%=--;;:>::::;-;>:%@+a                          ",
"%$$-;;>>====;;-==>-=-,>>>-;1>3>,>4602,e68e82160880623yyuq0ettuu76yeq126>=oXttq2>-=q0::6;,,$$12>-=#*;=$X$&$@@&&&&&&@+++X+&$$$$$%---;;>>:;=@++a                          ",
"$=--=;-==;;;;;;>:;=,:;;,,16,>>111q62>qt8te636q86q8yqtwuytyeeytt88t66e03>=oX8tq2,-%,8,:3:,-O@,1:-&$@%%@+&&@@&@@+@+++++o+o@@@@@@$$&=-;;;;-@+aaa                          ",
";;==:>33:,1,1>,6q,21,1,,1>66,8,,86q2,et8q88ety88ueeqtquttururqeqqe,8q82>-$X>ye8,-$>8,>3::-o&>1-$X+@$&+@&@@$%aaaaaaaaaaaaaaaaaaaaaaaaaaaaaaaaa                          ",
"=:%,23>3;,12;;>,1:q,02,86,:,21w8860eeq8qq8tetqy0tt826rueuuye08tq;,866,1>=$#%yy8,=$>9,=2>%%+@:>=@+@@@+&&&aaaaaaaaaaaaaaaaaaaaaaaaaaaaaaaaaaaaa                          ",
"-%=,>>>::,:,>>,11e,523383802263e86et8q8qeetteu6t0t0teyuyuure8e6et86>,,>:%$#o3uq>-$:8,%1>%%o+%$$X@@@@&%aaaaaaaaaaaaaaaaaaaaaaaaaaaaaaaaaaaaaaa                          ",
"=,;;;,,161>,1,,680,121862606628,13y6qt88qt083286eu6eitiuyteqqteeeq,,1,>:%$$#;uq>-o;81%>;$o++o@+@@@&&=aaaaaaaaaaaaaaaaaaaaaaaaaaaaaaaaaaaaaaaa                          ",
"1,11,,1>62>2,133332823622113683222806828t6et2qqq08qeqqqu9te0qq336q1,;>-=%$$o$ee,-#-8,%=$$OXX$O@$.&aaaaaaaaaaaaaaaaaaaaaaaaaaaaaaaaaaaaaaaaaaa                          ",
"r,q2,87>>,1,68386686862112eeeq3266q0t7uyytyyye8808888tu0e808e3,3363:;:-=#$$$o2t2-#;0>%$$o+X+&@%X&aaaaaaaaaaaaaaaaaaaaaaaaaaaaaaaaaaaaaaaaaaaa                          ",
",723383682128661888686q1,,6>e30et08tt8yt0yuuit88quw0tiuu833q63,716,>;:;:$$$$#>q6$+:8;$$$O+X&X@o&aaaaaaaaaaaaaaaaaaaaaaaaaaaaaaaaaaaaaaaaaaaaa                          ",
",,,,e8388236686138688381,,7138qe3qqty3830ttututequeeuuyt62286>,,1>,,:,;;%#$%#-11%o;,-o$O++@X@oaaaaaaaaaaaaaaaaaaaaaaaaaaaaaaaaaaaaaaaaaaaaaaa                          ",
"q619783q38q663232663,,e1,7y1t812666ue1teequiutiqyeeyuwy86eqq,>>,1:>::>;-$$$%o%>;=o$:=$O@o&&=;aaaaaaaaaaaaaaaaaaaaaaaaaaaaaaaaaaaaaaaaaaaaaaaa                          ",
"68e821608806220qq8666681,28,e8213et31u00euipe08ttyee0eu6ye8,1,,>:-;;>;;=$%$%o$;%$#$;O+@+aaaaaaaaaaaaaaaaaaaaaaaaaaaaaaaaaaaaaaaaaaaaaaaaaaaaa                          ",
"8te636q86q6eq8eq8686e238,u0y123881682i8ttteeq6qtt8euquu9e8>32,;;;-;->:-=$$$$$$-=@$;$&$-aaaaaaaaaaaaaaaaaaaaaaaaaaaaaaaaaaaaaaaaaaaaaaaaaaaaaa                          ",
"8q88ety88y0qqq002808q1q8q1ty38yt286u6y86i3qeuuuuq8etye6e>::1,->>=;;->:-=$@$#o$@&aaaaaaaaaaaaaaaaaaaaaaaaaaaaaaaaaaaaaaaaaaaaaaaaaaaaaaaaaaaaa                          ",
"qq8tetqt0ee828123688388eu,uue83qeqqq6utyt80tiytq68et68,01,,,-=:=%;==-=%$$oooaaaaaaaaaaaaaaaaaaaaaaaaaaaaaaaaaaaaaaaaaaaaaaaaaaaaaaaaaaaaaaaaa                          ",
"qeetteu6t0e88802366q8e8ty1q6q02etu06ueuieiqtyq386q360,82>2>-$=-==-%=%#$#o@aaaaaaaaaaaaaaaaaaaaaaaaaaaaaaaaaaaaaaaaaaaaaaaaaaaaaaaaaaaaaaaaaaa                          ",
"8qt0832860y368688888eqtyy6ieyu7ety86equui86t3,113,1q111,-,=--;==-%$$$$oaaaaaaaaaaaaaaaaaaaaaaaaaaaaaaaaaaaaaaaaaaaaaaaaaaaaaaaaaaaaaaaaaaaaaa                          ",
"8t6et20088686688e688e80yei3tu66yt86qeuuu668qq31,3>4>,:;;;---=$-;-%$$oaaaaaaaaaaaaaaaaaaaaaaaaaaaaaaaaaaaaaaaaaaaaaaaaaaaaaaaaaaaaaaaaaaaaaaaa                          ",
"yytyyye886363e8e88et3etque68etue08tueqyque8e01,1,,22>-:;--;;-%;;=$o#aaaaaaaaaaaaaaaaaaaaaaaaaaaaaaaaaaaaaaaaaaaaaaaaaaaaaaaaaaaaaaaaaaaaaaaaa                          ",
"t0yuuue8868388eyqutee3rute8tuuu6ruuyee8e6q3y126>>,,,;;;-;:-=%=-=$@aaaaaaaaaaaaaaaaaaaaaaaaaaaaaaaaaaaaaaaaaaaaaaaaaaaaaaaaaaaaaaaaaaaaaaaaaaa                          ",
"30ttutte86eet0yurte8t80ure8yuy83iyyeeet83186311;,;>;-:=--:=%==$@&aaaaaaaaaaaaaaaaaaaaaaaaaaaaaaaaaaaaaaaaaaaaaaaaaaaaaaaaaaaaaaaaaaaaaaaaaaaa                          ",
"eeqyutey6t0eeuytt638t3utu35iy88e3e8qeee61204>>>;-;:-;-%%;;&%&@aaaaaaaaaaaaaaaaaaaaaaaaaaaaaaaaaaaaaaaaaaaaaaaaaaaaaaaaaaaaaaaaaaaaaaaaaaaaaaa                          ",
"0eyuuq0qeeeeyeyqeyeqeyuu88q8i2y312388q66ee0,,:>-=-;;=;$$--&$aaaaaaaaaaaaaaaaaaaaaaaaaaaaaaaaaaaaaaaaaaaaaaaaaaaaaaaaaaaaaaaaaaaaaaaaaaaaaaaaa                          ",
"eteeq868e86eqyteyuetyuuiutut2uqee6638e6ye8,,>:;--;>==-&&&&@aaaaaaaaaaaaaaaaaaaaaaaaaaaaaaaaaaaaaaaaaaaaaaaaaaaaaaaaaaaaaaaaaaaaaaaaaaaaaaaaaa                          ",
"6u7qqetee038t0tqi6yiyy6ut2t22t0te,,,qt8t6>61:---=;=$===&@aaaaaaaaaaaaaaaaaaaaaaaaaaaaaaaaaaaaaaaaaaaaaaaaaaaaaaaaaaaaaaaaaaaaaaaaaaaaaaaaaaaa                          ",
"te6qeueq0q6yq08yy8uutiiuy3,t6e6u515886e>>>1>-;;-;=$=-&&@aaaaaaaaaaaaaaaaaaaaaaaaaaaaaaaaaaaaaaaaaaaaaaaaaaaaaaaaaaaaaaaaaaaaaaaaaaaaaaaaaaaaa                          ",
"uqueqe0306ty00eu98etiuutt36122q826816,02,1,--:==-$$&&@aaaaaaaaaaaaaaaaaaaaaaaaaaaaaaaaaaaaaaaaaaaaaaaaaaaaaaaaaaaaaaaaaaaaaaaaaaaaaaaaaaaaaaa                          ",
"yu88e3,286tqtuii63euuy0tte8826e61134>62,;,-=;-==%$-aaaaaaaaaaaaaaaaaaaaaaaaaaaaaaaaaaaaaaaaaaaaaaaaaaaaaaaaaaaaaaaaaaaaaaaaaaaaaaaaaaaaaaaaaa                          ",
"u8860q666eutiuiuiiuu03208q88tte31,6,>,,-;;:;:===&&aaaaaaaaaaaaaaaaaaaaaaaaaaaaaaaaaaaaaaaaaaaaaaaaaaaaaaaaaaaaaaaaaaaaaaaaaaaaaaaaaaaaaaaaaaa                          ",
"8yq6eq68qyuuiuuiiueyyq26et9ute221,,;-;--:>:-=--&aaaaaaaaaaaaaaaaaaaaaaaaaaaaaaaaaaaaaaaaaaaaaaaaaaaaaaaaaaaaaaaaaaaaaaaaaaaaaaaaaaaaaaaaaaaaa                          ",
"q383u3qyettureutiueut818,uqyq,82,,;>--:;:>>---aaaaaaaaaaaaaaaaaaaaaaaaaaaaaaaaaaaaaaaaaaaaaaaaaaaaaaaaaaaaaaaaaaaaaaaaaaaaaaaaaaaaaaaaaaaaaaa                          ",
"6320qqetquyuyueuqtqi8qtq88y,,,1,:;,;--;>>;-=aaaaaaaaaaaaaaaaaaaaaaaaaaaaaaaaaaaaaaaaaaaaaaaaaaaaaaaaaaaaaaaaaaaaaaaaaaaaaaaaaaaaaaaaaaaaaaaaa                          ",
"316e08qeutuyuuur06teq0e3q3e621>>---;>-;:>-aaaaaaaaaaaaaaaaaaaaaaaaaaaaaaaaaaaaaaaaaaaaaaaaaaaaaaaaaaaaaaaaaaaaaaaaaaaaaaaaaaaaaaaaaaaaaaaaaaa                          ",
"6ety8eytytqyuuuq60yq3388186,1,;----::-=:aaaaaaaaaaaaaaaaaaaaaaaaaaaaaaaaaaaaaaaaaaaaaaaaaaaaaaaaaaaaaaaaaaaaaaaaaaaaaaaaaaaaaaaaaaaaaaaaaaaaa                          ",
"tqe8tett868teueeuuy8320213,:,-;=--=-:-aaaaaaaaaaaaaaaaaaaaaaaaaaaaaaaaaaaaaaaaaaaaaaaaaaaaaaaaaaaaaaaaaaaaaaaaaaaaaaaaaaaaaaaaaaaaaaaaaaaaaaa                          ",
"qq8tet8etq00turiut6823,1>>::;-=;;>--aaaaaaaaaaaaaaaaaaaaaaaaaaaaaaaaaaaaaaaaaaaaaaaaaaaaaaaaaaaaaaaaaaaaaaaaaaaaaaaaaaaaaaaaaaaaaaaaaaaaaaaaa                          ",
"2286tq8tt8qeuitut1q8212>:>:---;-;-=aaaaaaaaaaaaaaaaaaaaaaaaaaaaaaaaaaaaaaaaaaaaaaaaaaaaaaaaaaaaaaaaaaaaaaaaaaaaaaaaaaaaaaaaaaaaaaaaaaaaaaaaaa                          ",
"6828309u6eyetei22361,,1:::;--;;--=aaaaaaaaaaaaaaaaaaaaaaaaaaaaaaaaaaaaaaaaaaaaaaaaaaaaaaaaaaaaaaaaaaaaaaaaaaaaaaaaaaaaaaaaaaaaaaaaaaaaaaaaaaa                          ",
"e8q332qqqqt6e8y068,,>1:;>;;-;;;-aaaaaaaaaaaaaaaaaaaaaaaaaaaaaaaaaaaaaaaaaaaaaaaaaaaaaaaaaaaaaaaaaaaaaaaaaaaaaaaaaaaaaaaaaaaaaaaaaaaaaaaaaaaaa                          ",
"e80316eq638q3eq262,;:>::----;-aaaaaaaaaaaaaaaaaaaaaaaaaaaaaaaaaaaaaaaaaaaaaaaaaaaaaaaaaaaaaaaaaaaaaaaaaaaaaaaaaaaaaaaaaaaaaaaaaaaaaaaaaaaaaaa                          ",
"aaaaaaaaaaaaaaaaaaaaaaaaaaaaaaaaaaaaaaaaaaaaaaaaaaaaaaaaaaaaaaaaaaaaaaaaaaaaaaaaaaaaaaaaaaaaaaaaaaaaaaaaaaaaaaaaaaaaaaaaaaaaaaaaaaaaaaaaaaaaa                          ",
"aaaaaaaaaaaaaaaaaaaaaaaaaaaaaaaaaaaaaaaaaaaaaaaaaaaaaaaaaaaaaaaaaaaaaaaaaaaaaaaaaaaaaaaaaaaaaaaaaaaaaaaaaaaaaaaaaaaaaaaaaaaaaaaaaaaaaaaaaaaaa                          ",
"aaaaaaaaaaaaaaaaaaaaaaaaaaaaaaaaaaaaaaaaaaaaaaaaaaaaaaaaaaaaaaaaaaaaaaaaaaaaaaaaaaaaaaaaaaaaaaaaaaaaaaaaaaaaaaaaaaaaaaaaaaaaaaaaaaaaaaaaaaaaa                          ",
"aaaaaaaaaaaaaaaaaaaaaaaaaaaaaaaaaaaaaaaaaaaaaaaaaaaaaaaaaaaaaaaaaaaaaaaaaaaaaaaaaaaaaaaaaaaaaaaaaaaaaaaaaaaaaaaaaaaaaaaaaaaaaaaaaaaaaaaaaaaaa                          ",
"aaaaaaaaaaaaaaaaaaaaaaaaaaaaaaaaaaaaaaaaaaaaaaaaaaaaaaaaaaaaaaaaaaaaaaaaaaaaaaaaaaaaaaaaaaaaaaaaaaaaaaaaaaaaaaaaaaaaaaaaaaaaaaaaaaaaaaaaaaaaa                          ",
"aaaaaaaaaaaaaaaaaaaaaaaaaaaaaaaaaaaaaaaaaaaaaaaaaaaaaaaaaaaaaaaaaaaaaaaaaaaaaaaaaaaaaaaaaaaaaaaaaaaaaaaaaaaaaaaaaaaaaaaaaaaaaaaaaaaaaaaaaaaaa                          ",
"aaaaaaaaaaaaaaaaaaaaaaaaaaaaaaaaaaaaaaaaaaaaaaaaaaaaaaaaaaaaaaaaaaaaaaaaaaaaaaaaaaaaaaaaaaaaaaaaaaaaaaaaaaaaaaaaaaaaaaaaaaaaaaaaaaaaaaaaaaaaa                          ",
"aaaaaaaaaaaaaaaaaaaaaaaaaaaaaaaaaaaaaaaaaaaaaaaaaaaaaaaaaaaaaaaaaaaaaaaaaaaaaaaaaaaaaaaaaaaaaaaaaaaaaaaaaaaaaaaaaaaaaaaaaaaaaaaaaaaaaaaaaaaaa                          ",
"aaaaaaaaaaaaaaaaaaaaaaaaaaaaaaaaaaaaaaaaaaaaaaaaaaaaaaaaaaaaaaaaaaaaaaaaaaaaaaaaaaaaaaaaaaaaaaaaaaaaaaaaaaaaaaaaaaaaaaaaaaaaaaaaaaaaaaaaaaaaa                          "
};
