/* XPM */
static char *_285c4c7d7154603b069d43feeda2726_17[] = {
/* columns rows colors chars-per-pixel */
"184 66 58 1 ",
"  c None",
". c #0F0A07",
"X c #0C0C0C",
"o c #100C0C",
"O c #0F100B",
"+ c #1A120B",
"@ c #101010",
"# c #161616",
"$ c #1F1E19",
"% c gray11",
"& c #251B0F",
"* c #332614",
"= c #3B2B1C",
"- c #3B301D",
"; c #202020",
": c #262525",
"> c #322D2F",
", c gray19",
"< c #3C3C3C",
"1 c #48341D",
"2 c #543D1C",
"3 c #5A4327",
"4 c #694623",
"5 c #764F2A",
"6 c #414141",
"7 c #514D51",
"8 c gray34",
"9 c #5D5D5D",
"0 c #605953",
"q c #676767",
"w c #6F6B6B",
"e c #6C706C",
"r c #8A5A33",
"t c #996138",
"y c #A2693C",
"u c #AA6D41",
"i c #AF6D42",
"p c #AC7244",
"a c #B27145",
"s c #B57548",
"d c #BE7949",
"f c #BD7D51",
"g c #CA7D4D",
"h c #CF8251",
"j c #D78A59",
"k c #DB8E5D",
"l c #DF9261",
"z c #E79A69",
"x c #F1A473",
"c c #908C8C",
"v c #8E928E",
"b c #9E9E9D",
"n c #FDB484",
"m c #FDDB9C",
"M c #DFDFDF",
"N c #E9E9E8",
"B c #F1F2F1",
"V c white",
/* pixels */
"                                                                                                                                           VVVVVVVVVVVVV                                ",
"                                                                                                                                         VVVVVVVVVVVVVVVMv                              ",
"                                                                                                                                        VVVVVVVVVVVVVVVVVBc             X               ",
"                                                                                                                                       VVVVVVVVVVVVVVVVVVV                X             ",
"                                                                                                                                       VVVVVVVVVVVVVVVVVV                #              ",
"                                                                                                                                       VVVVVVVVVVVVVVVVVV                #@             ",
"                                                                                                                                      VVVVVVVVVVVVVVVVVV      ;          #              ",
"                                                                                                                                    VVVVVVVVVVVVVVVVVVVV 9        <<     #              ",
"                                                                                                                                   VVVVVVVVVVVVVVVVVVVVV e   %     <           #        ",
"                                                                                                                                   VVVVVVVVVVVVVVVVVVVVV  #                  :6,#       ",
"                                                                                                                                  VVVVVVVVVVVVVVVVVVVVVV     #               686%       ",
"                                                                                                                                 VVVVVVVVVVVVVVVVVVVVVVV;    o ;            678  #      ",
"                                                                                                                                VVVVVVVVVVVVVVVVVVVVVVVVV    o#            7            ",
"                                                                                                                               VVVVVVVVVVVVVVVVVVVVVVVVVVV    o                  6      ",
"                                                                                                                              VVVVVVVVVVVVVVVVVVVVVVVVVVVV    o                 b       ",
"                                                                                                                            VVVVVVVVVVVVVVVVVVVVVVVVVVVVVV:   .#                 0      ",
"                                                                                                                           VVVVVVVVVVVVVVVVVVVVVVVVVVVVVVVV    @             v   >      ",
"                                                                                                                          VVVVVVVVVVVVVVVVVVVVVVVVVVVVVVVVV@   X                    X   ",
"                                                                                                                        VVVVVVVVVVVVVVVVVVVVVVVVVVVVVVVVVVVV                     .  o   ",
"                                                                                                                      VVVVVVVVVVVVVVVVVVVVVVVVVVVVVVVVVVVVVVw                       O   ",
"                                                                                                                     VVVVVVVVVVVVVVVVVVVVVVVVVVVVVVVVVVVVVVVV%                    * @O  ",
"                                                                                                                    VVVVVVVVVVVVVVVVVVVVVVVVVVVVVVVVVVVVVVVVVV                          ",
"                                                                                                                   VVVVVVVVVVVVVVVVVVVVVVVVVVu  xxy5t552*tn5ryt.                        ",
"                                                                                                                   VVVVVVVVVVVVVVVVVVVVVVVVradhdddgjzhhhysfkghlll                       ",
"                                                                                                                  VVVVVVVVVVVVVVVVVVVVVVVV*addddddjlzzjjjljjjjhhhad                     ",
"                                                                                                                 VVVVVVVVVVVVVVVVVVVVVVVV*5f dadhjllljjjjdddddduauu                     ",
"                                                                                                             VVVVVVVVVVVVVVVVVVVVVVVVVVVV2yd ddhjzlljhhdauyuytyytyaa                    ",
"                                                                                                          VVVVVVVVVVVVVVVVVVVVVVVVVVVVVVV5uddagjllllhdduyttrtrrrrtrr                    ",
"                                                                                                        VVVVVVVVVVVVVVVVVVVVVVVVVVVVVVVV55rayddzlljhauaaaayyttttrr53                    ",
"                                                                                                        VVVVVVVVVVVVVVVVVVVVVVVVVVVVVV25555t yjljjdautudadayytt5431*                    ",
"                                                                                                      VVVVVVVVVVVVVVVVVVVVVVVVVVVVVVV355rttrrdjhaautrrrryrr55422**+#8                   ",
"                                                                                                  VVVVVVVVVVVVVVVVVVVVVVVVVVVVVVVVVVV5ryuauujjgaytrrttt542-** *%#####                   ",
"                                                                                              VVVVVVVVVVVVVVVVVVVVVVVVVVVVVVVVVVVVVV5tya hghjd tttt rtr1*+++XXXX %++#q                  ",
"                                                                                          VVVVVVVVVVVVVVVVVVVVVVVVVVVVVVVVVVVVVVVVV5iadhhjjduyytttttyy5*++XXXX++++++++                  ",
"                                                                                      VVVVVVVVVVVVVVVVVVVVVVVVVVVVVVVVVVVVVVVVVVVVryadhhh y yyy y tty 3*+XXXX++++++X++                  ",
"                                                                                  VVVVVVVVVVVVVVVVVVVVVVVVVVVVVVVVVVVVVVVVVVVVVVVrysdguayy yuuuu y ytr3+##XX#++++++XXX$                 ",
"                                                                              VVVVVVVVVVVVVVVVVVVVVVVVVVVVVVVVVVVVVVVVVVVVVVVVVVr ddayyuuaaduaaau ryr4*+X#X+#%#+++#+#XV                 ",
"                                                                           VVVVVVVVVVVVVVVVVVVVVVVVVVVVVVVVVVVVVVVVVVVVVVVVVVV2tyahddddjjhhhdaadayytr2*@#XX###:#+++++#X                 ",
"                                                                       VVVVVVVVVVVVVVVVVVVVVVVVVVVVVVVVVVVVVVVVVVVVVVVVVVVVVV3auadddhhhjjhhhdaaaa urr2*XXX#%%+%++++++++ O               ",
"                                                                   VVVVVVVVVVVVVVVVVVVVVVVVVVVVVVVVVVVVVVVVVVVVVVVVVVVVVVVVV4duadddghhhjjhhgdaaaauuy42*XX##%##%###++++## @              ",
"                                                               VVVVVVVVVVVVVVVVVVVVVVVVVVVVVVVVVVVVVVVVVVVVVVVVVVVVVVVVVVV2t5dhjjhhhhhjjjhgddaaaauyt44+XX##%%%%%##%#++#% @              ",
"                                                           VVVVVVVVVVVVVVVVVVVVVVVVVVVVVVVVVVVVVVVVVVVVVVVVVVVVVVVVVVVVV13tydhhjhjjjjjjjjhhgdaaayaur34+XX##%#%%##X#%#+%%%%+VVVVVa%++++++",
"                                                        VVVVVVVVVVVVVVVVVVVVVVVVVVVVVVVVVVVVVVVVVVVVVVVVVVVVVVVVVVVVVVV25ttagghhhjjjjjljjhdgdddduuur13+XXX#%%#:%%%XX#%%%%%#VVVVVm: #++++",
"                                                   VVVVVVVVVVVVVVVVVVVVVVVVVVVVVVVVVVVVVVVVVVVVVVVVVVVVVVVVVVVVVVVVVVV3yuyyaghhhghhhjjjjjhhjgddaatt522&X#X#%%##2VVV:X%%%%%##VVVVN3::%##N",
"                                               VVVVVVVVVVVVVVVVVVVVVVVVVVVVVVVVVVVVVVVVVVVVVVVVVVVVVVVVVVVVVVVVVVVVVV-5aduyadghgghhhhjjjjjjhggdauyr432+X#X# %%  VVVV#X%%%%##VVVVVN32::aB",
"                                           VVVVVVVVVVVVVVVVVVVVVVVVVVVVVVVVVVVVVVVVVVVVVVVVVVVVVVVVVVVVVVVVVVVVVVVVVV*5 aayuadggghjjgjjjjjjhdggayur243&X#X#%%%#X:    X#%%%%Xa           ",
"                                         VVVVVVVVVVVVVVVVVVVVVVVVVVVVVVVVVVVVVVVVVVVVVVVVVVVVVVVVVVVVVVVVVVVVVVVVVVV5*5raauuuadddhhhjhhjjjjgddgatyr132+XXX%%%%%%#2   3X#%%%#X           ",
"                                      VVVVVVVVVVVVVVVVVVVVVVVVVVVVVVVVVVVVVVVVVVVVVVVVVVVVVVVVVVVVVVVVVVVVVVVVVVVVVat115iduuuaaddhhhjhhhjjhhaddart5121*XXX%%%%%%##    XX%%%#X%          ",
"                                   VVVVVVVVVVVVVVVVVVVVVVVVVVVVVVVVVVVVVVVVVVVVVVVVVVVVVVVVVVVVVVVVVVVVVVVVVVVV33rraa22ryduuuaaaddghjghhjhhhdadptr5-*-*+XX%%%%%%%X%   XX#%%%X#3         ",
"                                 VVVVVVVVVVVVVVVVVVVVVVVVVVVVVVVVVVVVVVVVVVVVVVVVVVVVVVVVVVVVVVVVVVVVVVVVVVVrty545ryd525tdayruuuadddjhghhjhhdyuuytr**2*&X#%##%%%%##    XX%%%XX:         ",
"                               VVVVVVVVVVVVVVVVVVVVVVVVVVVVVVVVVVVVVVVVVVVVVVVVVVVVVVVVVVVVVVVVVVVVVVVVVVV*+4tyt35rysy34rygt4auuudddhhdhhjhhdrtyuut**--+++:#+#%%%##    #X%%%#X%N        ",
"                            VVVVVVVVVVVVVVVVVVVVVVVVVVVVVVVVVVVVVVVVVVVVVVVVVVVVVVVVVVVVVVVVVVVVVVVVVVVVVV &25tu54ryuu435rdy*ttuaadghhgadjjhdrruuuyr4*2*2*+:*@###+#     XX%%XX%B        ",
"                         VVVVVVVVVVVVVVVVVVVVVVVVVVVVVVVVVVVVVVVVVVVVVVVVVVVVVVVVVVVVVVVVVVVVVVVVVVVVVVVt52&*2rau35yuur33rdu21ryaaugdddyrhjhd33uuuurr--4-12***++++X#    #X%%#X%         ",
"                      VVVVVVVVVVVVVVVVVVVVVVVVVVVVVVVVVVVVVVVVVVVVVVVVVVVVVVVVVVVVVVVVVVVVVVVVVVVVVVr5ydrr2-**4rg53ryar325ddr*35iauagduu1ajhd52tuuuyt444121*&+#+#+X%     X%%#X:         ",
"                   VVVVVVVVVVVVVVVVVVVVVVVVVVVVVVVVVVVVVVVVVVVVVVVVVVVVVVVVVVVVVVVVVVVVVVVVVVVVVdrytraauur521*25au35yur323ady=*3uuuuddyy1rgdd52ruuuuyt554332-21*%*#X3    :X##X3         ",
"                VVVVVVVVVVVVVVVVVVVVVVVVVVVVVVVVVVVVVVVVVVVVVVVVVVVVVVVVVVVVVVVVVVVVVVVVVVVVdytyuy5sr3ruy5r532*4ra44ytt412rdu2**taauadar22ddar15uuyuuyr33422444521:%:      %%#r         ",
"              VVVVVVVVVVVVVVVVVVVVVVVVVVVVVVVVVVVVVVVVVVVVVVVVVVVVVVVVVVVVVVVVVVVVVVVVVVrrtya5hujduyt5rhh5i543-24ur3tyu5113dy3-*5aaauapr1*yauy*-uyuyuuprrrr5r5r4553221::                ",
"          VVVVVVVVVVVVVVVVVVVVVVVVVVVVVVVVVVVVVVVVVVVVVVVVVVVVVVVVVVVVVVVVVVVVVVVVVVrry5uhhrryuutttdgdujarht44-+3ry3ryy5212rt4-*1uaauut5**rtyr*+ryytttuuuyyuyrr543543421:-#             ",
"       VVVVVVVVVVVVVVVVVVVVVVVVVVVVVVVVVVVVVVVVVVVVVVVVVVVVVVVVVVVVVVVVVVVVVVVVV13ytttrtayg5drti5radjhhhsraa331&23y44rrt4223rr2--tuauyu5-+5rrr-&2tyyt5yuuuuadsutr4t5rr5553225:3         ",
"     VVVVVVVVVVVVVVVVVVVVVVVVVVVVVVVVVVVVVVVVVVVVVVVVVVVVVVVVVVVVVVVVVVVVVVVV533trrr5tshuyyus5srydlljlxdjzyjr22*&2y525ttr422tr4--2tyatur1+14r41*+rutt51adahgaggayyruuyriaurttt411       ",
"   VVVVVVVVVVVVVVVVVVVVVVVVVVVVVVVVVVVVVVVVVVVVVVVVVVVVVVVVVVVVVVVVVVVVVV515dzyautuyudyhhatruydjxzllhzzzjdldf531#2rr225rrr11r551-*4turrr2#*4r352#2uy511aurydjhjhdgagahuhhaaahat522      ",
"VVVVVVVVVVVVVVVVVVVVVVVVVVVVVVVVVVVVVVVVVVVVVVVVVVVVVVVVVVVVVVVVVVVVV135533yua luayrdhaudhajlzlxzzzjjdxgjdhah521+*5r314ttr2*44r2-*-5yr253#*3r3t3#3t5&+tar5araddhhudaaddghhhjjjdat514    ",
"VVVVVVVVVVVVVVVVVVVVVVVVVVVVVVVVVVVVVVVVVVVVVVVVVVVVVVVVVVVVVVVVV1135555555 uylugddfryjjgjjjhzxzjhzljddlgjdlu452*&3t523rur3*12441**244242O*24341#254&-r5435trtudddaaaddaggjjjjjhaur2r   ",
"                                                             145ya5ttyuuaurydzjuaddljdljdjjljlzxadlhdjxlgjddjur3*O2r5225ir5-*12r1**-35232+*2141*+*:#+-2235335tuutyyaugdgdhdgjjjjguur3   ",
"                                                          251ryu5u3radrrrruraaaljhjjhdlhjlljjkxxjudahzllalylrut5*O*4t215rtr1*-252*+*35*13#+-:1::###XXXX:234455t533355ytudhhgghhhjauy:   ",
"                                                     32115212r55523t5autttdjddldjlhjdhlljlhdjxxxzljjzxxsazjhtya51+X3r--35ur3**323*&+25**3#+*::::#:%###X#*23321*:%%:*4dggddhhhhhhhdtr2   "
};
