/* XPM */
static char *_285c4c7d7154603b069d43feeda2726_20[] = {
/* columns rows colors chars-per-pixel */
"152 96 83 1 ",
"  c None",
". c #050404",
"X c #0F0A07",
"o c #0C0C0C",
"O c #100C0C",
"+ c #0F100B",
"@ c #1A120B",
"# c #101010",
"$ c #161616",
"% c #1F1E19",
"& c gray11",
"* c #251B0F",
"= c #231E1C",
"- c #332614",
"; c #3B2B1C",
": c #3B301D",
"> c #202020",
", c #262525",
"< c #2C2C2C",
"1 c #2F302C",
"2 c gray19",
"3 c #3C3C3C",
"4 c #48341D",
"5 c #543D1C",
"6 c #433E3D",
"7 c #3E413A",
"8 c #5A4327",
"9 c #694623",
"0 c #764F2A",
"q c #7E6128",
"w c #414141",
"e c #474746",
"r c #4D4D4C",
"t c #58514B",
"y c #605953",
"u c #676767",
"i c #777777",
"p c #8A5A33",
"a c #825C3D",
"s c #996138",
"d c #917138",
"f c #A2693C",
"g c #AA6D41",
"h c #AF6D42",
"j c #AC7244",
"k c #A4794C",
"l c #B27145",
"z c #B57548",
"x c #BE7949",
"c c #BD7D51",
"v c #CA7D4D",
"b c #AA8737",
"n c #BE9343",
"m c #A18F56",
"M c #BA9A57",
"N c #C68252",
"B c #CF8251",
"V c #D38350",
"C c #D78A59",
"Z c #DB8E5D",
"A c #C6AB4A",
"S c #ECB84F",
"D c #DF9261",
"F c #E79A69",
"G c #F1A473",
"H c #FACD70",
"J c gray51",
"K c #989898",
"L c #9E9E9D",
"P c #AFAFAF",
"I c #BBBCBC",
"U c #FDB484",
"Y c #FDDB9C",
"T c #C7C0BF",
"R c #CFCFCE",
"E c #DADED8",
"W c #DFDFDF",
"Q c #E2D9D3",
"! c #E9E9E8",
"~ c #F4ECE8",
"^ c #F1F2F1",
"/ c #FCFBF8",
"( c white",
/* pixels */
"                                                                                                                                                        ",
"                                                                                                                              pppppppppppa              ",
"                                                                                                                       fppspssssfffglxBZClp88           ",
"                                                                                                                      00szvxCDDDDCvxxxxCDFFx00          ",
"                                                                                                                     0pfBCDFFDDDDBxxxvBBBCDDDB88        ",
"                                                                                                                   p0slBCCCCCCCBBBBBBBBxlggglxCs88      ",
"                                                                                                                 00sxCCCCCBvCCBxxxvBBlfp09000pfxgpa     ",
"                                                                                                                0pBCCCCBBBvxxxlxxgfsp0854;:59p0ppggpa/  ",
"                                                                                                              0pfDDBBvvvxxxlglgsss0854:-**---45580pfsT  ",
"                                                                                                           000gCDCxllllggfssfspp9084--&%@@@@**-*;480ps/ ",
"                                                                                                      088889pCCBBxgfffspppppsp084--@****@*:45804;40app  ",
"                                                                                                    ::5pxDDDCBBxlfsssppsssssp054:-@*@**-5:qqqdq04-;amQ  ",
"                                                                                                   -4gCxCDDDCvxxgffssssssss084--@@*@$@*449;;:8qdq5--P^  ",
"                                                                                                   5CBxvDDDCBlllglllgfffsp05--@*@*@@@-;90$ed94;dk0:-    ",
"                                                                                                  48xxxDDDDCxgglxxxxlfs008:@*@*@$OOO;4q8=1Abd5;-Mq5-*   ",
"                                                                                                  5pxxCFDDCxlfsgllgsp0855-@*@@@#OOO*99q8#mHbq94*dd5-*   ",
"(((((((((((((((((((((((((((((((((((((((((((((((((((((((((((((((((((((((((((((((((((((((((((((((((48llxDFCBxgfsppppp085-&-@*@#+OOOOO*90q0$mSdq84*dd5-&   ",
"((((((((((((((((((((((((((((((((((((((((((((((((((((((((((((((((((((((((((((((((((((((((((((((((85szlxDCxxlfppssp0984-@**>$+#@@@OOO-09qq-8Adq4;;bq5=$/  ",
"((((((((((((((((((((((((((((((((((((((((((((((((((((((((((((((((((((((((((((((((((((((((((((((((-plglCCxgfspssppp985-*@-@*+@5984*OO*95d09-0d94;km0-=$/  ",
"(((((((((((((((((((((((((((((((((((((((((((((((((((((((((((((((((((((((((((((((((((((((((((((((55zglCDBlfspsppss054-,@=@**4qqq05:*O@55059q989aMMq8=*$W  ",
"((((((((((((((((((((((((((((((((((((((((((((((((((((((((((((((((((((((((((((((((((((((((((((((05fllFFvlfspsspp05::-4&@#**0qqdqq9;4@@555q00qqdnkq8-*@-   ",
"((((((((((((((((((((((((((((((((((((((((((((((((((((((((((((((((((((((((((((((((((((((((((((((0zlxCFBgfsssp98985::::##*-9::48qdq5;;*;455q00qq098-*@--   ",
"(((((((((((((((((((((((((((((((((((((((((((((((((((((((((((((((((((((((((((((((((((((((((((((plxBDCxffffffsps08-45-&,*;9*yAd9;db0:--5;5459090:4-*@;-4   ",
"((((((((((((((((((((((((((((((((((((((((((((((((((((((((((((((((((((((((((((((((((((((((((((pzxCFDxffllgfffssp:-84-&**5-7YAdq5;mq5-*54-;;5584:-*.-*-:   ",
"(((((((((((((((((((((((((((((((((((((((((((((((((((((((((((((((((((((((((((((((((((((((((((0lxCDvfflllgffffssp445-@,*49#mHbq95-dd5-*554;-;@@@XX;----: / ",
"((((((((((((((((((((((((((((((((((((((((((((((((((((((((((((((((((((((((((((((((((((((((((plxCCBggllgglllgffs0454*-**q9$mSdq84*dd5-*454:4:--******--;   ",
"(((((((((((((((((((((((((((((((((((((((((((((((((((((((((((((((((((((((((((((((((((((((((0lxBxxlllglllllllgff059:--*-q0-7Ad05;;bq5-*554:--***=------;   ",
"((((((((((((((((((((((((((((((((((((((((((((((((((((((((((((((((((((((((((((((((((((((((0zxxlglllvvBxlllxlgfg0004-,%:d09-0d94;km0-=@99***-4855558444*P^ ",
"(((((((((((((((((((((((((((((((((((((((((((((((((((((((((((((((((((((((((((((((((((((((0lxxgglvBBBBBBxlllllggpp0:-4*4989q980aMMq8=*@9-**:580pssfs09899I/",
"((((((((((((((((((((((((((((((((((((((((((((((((((((((((((((((((((((((((((((((((((((((pzxxxlxBCCCBvvxxllllllfgs05-:*45q0qqqdnkq8-*@=;-580pfzxxBCCCBg00a/",
"(((((((((((((((((((((((((((((((((((((((((((((((((((((((((((((((((((((((((((((((((((((gflBBxxBCDDDBvvxxxllllggfs98:-*-55000qq098-*@-,*499sgxBCCCCCxxp080 ",
"((((((((((((((((((((((((((((((((((((((((((((((((((((((((((((((((((((((((((((((((((((pglxvvvBCDDDCxxvxxxlllgglgf054-*@;459090:4-*@,,=5pfglxBDDCBvxs0844y ",
"(((((((((((((((((((((((((((((((((((((((((((((((((((((((((((((((((((((((((((((((((((pxgxvBBBBCDDDCxxvxxxxlxlggglp4:--$*-;5554:-*+=%&80glxxBCDBlss05:<-;  ",
"((((((((((((((((((((((((((((((((((((((((((((((((((((((((((((((((((((((((((((((((((pgllvBBCCCDDDDCxxvvxxxxxlgffgs84-@*$*--@@@#$$%$=*fgzxxvBCxgp885<=>=   ",
"(((((((((((((((((((((((((((((((((((((((((((((((((((((((((((((((((((((((((((((((((ppxxBCCCCDDDDDDCxxxxxvxxxxlfsssp84@$#@&@$@@@**=;49jxBxxvxfp885:,>*X@   ",
"((((((((((((((((((((((((((((((((((((((((((((((((((((((((((((((((((((((((((((((((lpsxBCCCDDDDDDDDCxxxvvvxxllgfsppp84-@&@$@&--:55580fNvxgsffp5554><@@@@/  ",
"(((((((((((((((((((((((((((((((((((((((((((((((((((((((((((((((((((((((((((((((8pflBBBCCDDDDDDDDCxxxvvvvvxlgfgss084:4-*-:454445pslCCBxs0ps058:>,@*@@@   ",
"((((((((((((((((((((((((((((((((((((((((((((((((((((((((((((((((((((((((((((((0sglBBBBCCDDDDFFDDCxxxvxxxvxlgfsssp5--@--5880ppsgzxCDDCBs59p8:-,=@@**@@/  ",
"(((((((((((((((((((((((((((((((((((((((((((((((((((((((((((((((((((((((((((((40sfxvBCCCCCDFFFFDDCvxxxxxxxxlfp09904:-:5559psfglxCCDFDCls9:55@&@@*@**@X   ",
"((((((((((((((((((((((((((((((((((((((((((((((((((((((((((((((((((((((((((((5pssflvCCCCCCDFFFFDDDBxxxxxxxxllgfp95445000psggglxCCDFFDBfp5----=@@*@@*@@/  ",
"((((((((((((((((((((((((((((((((((((((((((((((((((((((((((((((((((((((((((((plgfflvCDDDDDFFFFDDDCvvxxxxxxBBxlgfffp98590pssgglBBDDDFxh0554&,-;@*@@*@@@   ",
"(((((((((((((((((((((((((((((((((((((((((((((((((((((((((((((((((((((((((((RgvxgflvCCDDDDFFFFDDDCvxvxxxvBBBBxlgffgfppsssflglvBCCCDls0854,&,&@*@@**@@@/  ",
"((((((((((((((((((((((((((((((((((((((((((((((((((((((((((((((((((((((((((^8fxxlglxCCDDDDDFDFDDDCBxxxxxBvxBBBxlfflxgxggxlvvxxBCCBlp085:-&,=**@*@@*@@@   ",
"((((((((((((((((((((((((((((((((((((((((((((((((((((((((((((((((((((((((((-9sfllglxCCDDDDDDDDDDCCCvxxxxvxlxxBBxllvBCCBBBBvxxxBxCxp085:&&&&=**@@@@@@@@/  ",
"((((((((((((((((((((((((((((((((((((((((((((((((((((((((((((((((((((((((((-0fpgllglvCDDDDDDDDDDCCCBxxxxxxllxxBBBCCCDDCCBxxllllBlfp95--&&*@****@*@*@@@   ",
"((((((((((((((((((((((((((((((((((((((((((((((((((((((((((((((((((((((((((:4fpsxxgglvCCCDDDDDDDDCBBvxxxxxxxxxvBCCCDDDCCBxlffglggs05---&=*****@*@@@@*@/  ",
"(((((((((((((((((((((((((((((((((((((((((((((((((((((((((((((((((((((((fgp5-9gslxlgsgvBCCDDDDDDDCvllxxxvBlllxxxCCCDDDCCCxgspsfgs05-,,&****@@*@@*@*@@@   ",
"((((((((((((((((((((((((((((((((((((((((((((((((((((((((((((((((((((((pfllf4:spfxxgpplvvBCCCDDDCBxfpsvxvBxlflgxBCCCDDDDCxfp00sgp5,&&,<**@-*@@@*@@@@@/   ",
"(((((((((((((((((((((((((((((((((((((((((((((((((((((((((((((((((((WQ(0xBBz049spgxcp5pxgxvBBCDCvxlg98xBvCxlgsplvCCCCCCDDBz088998&&$$6K~********@@**     ",
"((((((((((((((((((((((((((((((((((((((((((((((((((((((((((((((((((W089pxvCBf0:5pplBx05pslxvBvBBvxglp4pBBBBllf0sgxxBvvCDDBf08454-&&%rE  /944-;=@@**/     ",
"(((((((((((((((((((((((((((((((((((((((((((((((((((((((((((((((((8lzf9psgxCxp8-80fvvg050plxxxxxvxggf84lCxfxxf08pppfllxDDlp84::-,&%&^    ////            ",
"((((((((((((((((((((((((((((((((((((((((((((((((((((((((((((((((5pxxx900pxCCf05-4pxBxf558sxxxlgxxxgf0-8Cvpxxlp8400pffxlfp95:-:-,=**(                    ",
"(((((((((((((((((((((((((((((((((((((((((((((((((((((((((((((((-4sfllp880lBCxf04-8gxxxp4:8gxllglxxlfp:-xBpfxlfp4800ppps085:-:-&=*@*(                    ",
"((((((((((((((((((((((((((((((((((((((((((((((((((((((((((((((5-:80sBxs88pxxBgp0::sxvxx9--0gxlggglgsp8@0C00flsp5588000854::--&==**/(                    ",
"(((((((((((((((((((((((((((((((((((((((((((((((((((((((((((((z8:-:50xvB058sxBzpg959gCCll5--0xxlggffsp0-4vg50gff0:55889544,,,&=****((                    ",
"(((((((((((((((((((((((((((((((((((((((((((((((((((((((((((C0p95:--50gBl940lxxpps90hvCxlf4-4fxllffggpp5-gB8:pxf0-4444554,,---=*@-*/(                    ",
"((((((((((((((((((((((((((((((((((((((((((((((((((((((((p0pp8p054::48plCf45pxxx58pplxxlflp:-0xllgfglpp0-0vp-0xf8:5----,,--,=*****(((                    ",
"(((((((((((((((((((((((((((((((((((((((((((((((((((((48550090000885448plx959gxxf559ffglxxlf--9fflfpgsp0-4lf-8fs8-:--:-,,-&=*****/(((                    ",
"(((((((((((((((((((((((((((((((((((((((((((((((((((-:5458980ppppp085:58pvf85pxxzs4-8p9flxxj8-&0plfp80s04@pg44pp9--*@&&,&,&*;-;*((/((                    ",
"(((((((((((((((((((((((((((((((((((((((((((((((((54-4440ll0gpjpsf0005:-9fx049sxllf5-44pglxg0:@-9slp:5p04-5l5-p05@-&&&,5w(((////(((((                    ",
"((((((((((((((((((((((((((((((((((((((((((((/((444498940sp0lffpfgppp8-*58gz859sflxs5--5psxlp85&40p055005--p4&05:-$$,&&((((((((((((((                    ",
"((((((((((((((((((((((((((((((((((((((((((((-:554459858p00zpgspzxfp094-::0xp548sflls5-*9pgls05-&5909:894:@94&594&&&,2(((((((((((((((                    ",
"(((((((((((((((((((((((((((((((((((((((((((:4954555899psszlffspfxlf098:*-5fz8:-0fglfs:--8sgg085&-5sp&-95-*-4&48,&&&$((((((((((((((((                    ",
"(((((((((((((((((((((((((((((((((((((((((:85994580ppsfs00f0fspBxlxBsp98-*40zp4-5fgxgs9---9sf0p54$-pp-&85-@-5&&&$$$((((((((((((((((((                    ",
"(((((((((((((((((((((((((((((((((((((/(!45555880pgl8psg9gfsfpfBClCDvs084$&5pg8::pfxlfp:-@:0p9p85$-0p4$58-*@,&&&$$(((((((((((((((((((                    ",
"((((((((((((((((((((((((((((((((((((84-:5559psspfp05p8ppspBllvFCxCCCg095-+-0lp5:4fllgs9-#-59:894-#8p5#:8--@-,57(((((((((((((((((((((                    ",
"(((((((((((((((((((((((((((((((((IJ54:49840pp8090p0gs00f9lxxDDDxBDCCgsp9:@$5pg05-pgggf04@@58-494-&505@-5:-*&,,((((((((((((((((((((((                    ",
"(((((((((((((((((((((((((((((((^54:4454594p080890ppfCphsfCBBGDxCDBCFvff05@o-8fl9-5sslgp8-o:8&-95&&-5:&::@$&&/(((((((((((((((((((((((                    ",
"(((((((((((((((((((((((((((((5:4::45550848850s0s0fs44sppgFDxClBvClDCClzp9-@o-pxp::0pflp9-@-9&-09&&--*-:-,,((((((((((((((((((((((((((                    ",
"((((((((((((((((((((((((((/R:::458895894ppp0gsxppCgsxfgjxCBvBBvBDCFGlgxg04@.$8xg4-50pxs8---8-&55&@-**&-53(((((((((((((((((((((((((((                    ",
"((((((((((((((((((((((((((---:5440958ffplsxpvgxjgBgBCfxxxgfDDDxBCDFDxxvlp5-oo-ff9-:50lg8:*-5-$-4&*&@&=((((((((((((((((((((((((((((((                    ",
"((((((((((((((((((((((((444-:54588580ss0xsfBpfp0DBfBllCxfsBFGDDDCGCBCxxlp84-+$0fp4-:8sl8--*44&-:-#$&%(((((((((((((((((((((((((((((((                    ",
"(((((((((((((((((((((---:54-4440xxsf0psC0fgxffppllfxxxvxCBCDGDFGDFvxDBlgp84-@$8lj0:-:pf9**--:@-:-&%(((((((((((((((((((((((((((((((((                    ",
"(((((((((((((((((((8-:444440904pgf9ppfxC0sf0zvgClpfvxxCBDCCCGZGGDCxCxBxfp94--@:lsg5--8p0-&@*-@*(((((((((((((((((((((((((((((((((((((                    ",
"(((((((((((((((((!p:4:454:50084000h0sllgflgsCgDClgvFlvGCBflZGDFGCCvCClss08:--@-psx9-@400--*@@*((((((((((((((((((((((((((((((((((((((                    ",
"((((((((((((((((::44:45445898588sxlpzflflxfBDxDxlCDCDBCDvBCFGGGDDBBClspp95:--*-8sxp-*-55-*@**(((((((((((((((((((((((((((((((((((((((                    ",
"((((((((((((((P5:5-:554450ppfg00pf0xBgflxlgBCxvlDCCFCCBDCxGFDGFvCvvBfpp084:*--@48gz4@----&,1((((((((((((((((((((((((((((((((((((((((                    ",
"((((((((((((^5--:-495:4590s998psfpgxflfgvlxglBBCDDvBglxDBBCvBFvBlxBxf0095:--*-@-:px8*@*--=((((((((((((((((((((((((((((((((((((((((((                    ",
"((((((((((5:44-:5899:480pff9ppllgslggBfxxlxxxxvCDxxpvvBxlxxBGGDxgfvz0p984:---@*@@400-@-=((((((((((((((((((((((((((((((((((((((((((((                    ",
"(((((///R844445555590pfgz0ppfsxgglxpxCxCxxvCClBDlDDvCxxxCvvDUGFxglBfp0854---@*@*$-90:-8t((((((((((((((((((((((((((((((((((((((((((((                    ",
"(((((((-:554458549pxl8fxf8pggglgxxf9vDvBxCBBCxCDCFGGDxxvGDBFGFClBCz0s055:--@*@*@*@:94-*(((((((((((((((((((((((((((((((((((((((((((((                    ",
"((((p8:495:458849sf004p8spsjfffxlBxxBxxCCCCBBDCCCGGUFDCBFCDGCDCvFlppp844---@*@*@*$@554((((((((((((((((((((((((((((((((((((((((((((((                    ",
"(/IP:5599:59p098p0909fp0pgfgllxxlxDDxvxBCCxxxBxvCDGGFGGCDDCCvGGlBs0f944--**@*@*@*(((((((/(((((((((((((((((((((((((((((((((((((((((((                    ",
"88045555900sgf09000splvsxlfllxBCxxFxCClxClDDvlDvCDGUCBBDDCDGVFBBp0pp44:---@*@**(((((((((((((((((((((((((((((((((((((((((((((((((((((                    ",
":445549plz9gxg8ppfpfp0pgllxvllxssgCxlllCFCFGFxDBBGGFvxBDDxCDDBsxf0084:--*-@*@*((((((((((((((((((((((((((((((((((((((((((((((((((((((                    ",
"555549pf004p8fpsfgfxslvlxxDvxllfffxvClGGCDFGFFCCBFBBCFGFxlvCllss09844:--*-@**(((((((((((((((((((((((((((((((((((((((((((((((((((((((                    ",
"49845p0009fp90f0lgxxlvxxBBvxxBlflxxBDBCClCDFFDFFFDBFDFBxgllsxpp09844:---*--*((((((((((((((((((((((((((((((((((((((((((((((((((((((((                    ",
"59590p00splBpxfzxgxBxlllxlBCBBlvDBxCFCgvBCDGUBCBGFFxCDxgffssgf058544:-*-*=((((((((((((((((((((((((((((((((((((((((((((((((((((((((((                    ",
"pspgpsspfp90sslxClxCxllslgggfxxDBlxcGvlDBCGUGxlBFFBxBxxfps0ppp855:::--*-*/((((((((((((((((((((((((((((((((((((((((((((((((((((((((((                    ",
"ps0xsgpsBgfxsflxfgxxxsslDfxxsxxfglxCxsUxCDDCBCDGGCBCxxxsgp0009554----@*I((((((((((((((((((((((((((((((((((((((((((((((((((((((((((((                    ",
"0fxpsffglgxBlfgxglppCfpgvpxFpDvssgvBlsGBxGvxZGGDCxxxgxfss098854::---@*T(((((((((((((((((((((((((((((((((((((((((((((((((((((((((((((                    ",
"sxCpsfsxlfffflllggfgxf0vCBgxfBlflxsgCBCDxGBxCGFxgllsfgp0008554:---@**R((((((((((((((((((((((((((((((((((((((((((((((((((((((((((((((                    ",
"sgpglfflgfslBBBxllvxsxfxgCBCDlsBFxxxCxCGGGCGxDlssffpspp9885444---@*i^(((((((((((((((((((((((((((((((((((((((((((((((((((((((((((((((                    ",
"xgfBlxxgfspfgxBxlxBxsBCCsGCxDCxBxCDDxxGCGGGzlCxgspspp098544:----*rL(((((((((((((((((((((((((((((((((((((((((((((((((((((((((((((((((                    ",
"lfxBxxxlxsfgxBvsxBxfxxDFpBxzGDBxfCFGxlCCGUxlxBCgps0p09854::----*tR((((((((((((((((((((((((((((((((((((((((((((((((((((((((((((((((((                    ",
"lsxBxxvlvfgxCsfflxxxCxDGfGDvClCFxCDDlxCFFFDDxCvsgp998554:-----%u^(((((((((((((((((((((((((((((((((((((((((((((((((((((((((((((((((((                    "
};
