/* XPM */
static char *_285c4c7d7154603b069d43feeda2726_4[] = {
/* columns rows colors chars-per-pixel */
"106 116 74 1 ",
"  c None",
". c #050404",
"X c #0F0A07",
"o c #0C0C0C",
"O c #100C0C",
"+ c #0F100B",
"@ c #1A120B",
"# c #101010",
"$ c #161616",
"% c #1F1E19",
"& c gray11",
"* c #251B0F",
"= c #231E1C",
"- c #332614",
"; c #3B2B1C",
": c #3B301D",
"> c #202020",
", c #262525",
"< c #2C2C2C",
"1 c #322D2F",
"2 c #2F302C",
"3 c gray19",
"4 c #373636",
"5 c #3C3C3C",
"6 c #48341D",
"7 c #543D1C",
"8 c #433E3D",
"9 c #3E413A",
"0 c #5A4327",
"q c #694623",
"w c #764F2A",
"e c #414141",
"r c #474746",
"t c #4D4D4C",
"y c #4C504C",
"u c #58514B",
"i c #514D51",
"p c #515151",
"a c gray34",
"s c #5D5D5D",
"d c #5E615D",
"f c gray38",
"g c #676767",
"h c #6F6B6B",
"j c #6C6D6D",
"k c #6C706C",
"l c #726E72",
"z c #717171",
"x c #777777",
"c c gray49",
"v c #7D7F7C",
"b c #8A5A33",
"n c #825C3D",
"m c gray51",
"M c #888887",
"N c #8D8E8E",
"B c #908C8C",
"V c #929292",
"C c #989898",
"Z c #9E9E9D",
"A c #A2A2A2",
"S c #A6A6A4",
"D c #AFAFAF",
"F c #BBBCBC",
"G c #C7C0BF",
"H c #C4C5C4",
"J c #CFCFCE",
"K c #DADED8",
"L c #DFDFDF",
"P c #E2D9D3",
"I c #E9E9E8",
"U c #F1F2F1",
"Y c #FCFBF8",
"T c white",
/* pixels */
"                                     T                                                                    ",
"                                                                                                          ",
"                                                                                                          ",
"                                                                                                          ",
"                                      TT                                                                  ",
"                            TTTT     TTTT  TT TTTTT                                                       ",
"                           TTTTTTT   TTTT TTTT TTTTT                                                      ",
"                          TTTTTTTTTT TTTT TTTT TTTTTT                                                     ",
"                         TTTTTTTTTTTTTTTTTTTTTT TTTTT                                                     ",
"                         TTTTTTTTTTTTTTTTTTTTTTTTTTTTTT                                                   ",
"                        TTTTTTTTTTTTTTTTTTTTTTTTTTTTTTT                                                   ",
"                         TTTTTTTTTTTTTTTTTTTTTTTTTTTTTTT                                                  ",
"                         TTTTTTTTTTTTTTTTTTTTTTTTTTTTTTTT                                                 ",
"                        TTTTTTTTTTTTTTTTTTTTTTTTTTTTTTTTTT                                                ",
"                        TTTTTTTTTTTTTTTTTTTTTTTTTTTTTTTTTT                                                ",
"                          TTTTTTTTTTTTTTTTTTTTTTTTTTTTTTTTT                                               ",
"                          TTTTTTTTTTTTTTTTTTTTTTTTTTTTTTTTTT                                              ",
"                          TTTTTTTTTTTTTTTTTTTTTTTTTTTTTTTTTTT                                             ",
"                          TTTTTTTTTTTTTTTTTTTTTTTTTTTTTTTTTTT                                             ",
"                          TTTTTTTTTTTTTTTTTTTTTTTTTTTT TTTTTTT                                            ",
"                          TTTTTTTTTTTTTTTTTTTTTTTTTTTTT TTTTTTT                                           ",
"                           TTTTTTTTTTTTTTTTTTTTTTTTTTTTT TTTTTTT                                          ",
"               Y           TTTTTTTTTTTTTTTTTTTTTTTTTTTTT TTTTTTT                                          ",
"               U#          TTTTTTTTTTTTTTTTTTTTTTTTTTTTTT TTTTTTTTT                                       ",
"     >tSMf     &o3     mDCg3TTTTTTTTTTTTTTTTTTTTTTTTTTTTTTTTTTTTTT                                        ",
"Y   o&jDCjpe   $o4   ,3tVFBa<TTTTTTTTTTTTTTTTTTTTTTTTTTTTTTTTTTTTTT                                       ",
" L  .,pADvse<z <o5  &><4aAGMa,.TTTTTTTTTTTTTTTTTTTTTTTTTTTTTTTTTTTTTT                                     ",
"   .o,5vFVgt4,#..o..#$><5sDFvp,.TTTTTTTTTTTTTTTTTTTTTTTTTTTTTTTTTTTTT                                     ",
"   ..><sDDvae3&o.#o..$$><5jFDxr>.TTTTTTTTTTTTTTTTTTTTTTTTTTTTTTTTTTTT                                     ",
"   #.$,evFCgr4,#ooo...#&,<5zHDje&oTTTTTTTTTTTTTTTTTTTTTTTTTTTTTTTTTTTT                                    ",
"   <.$>3aDDmae<$ooo....$&,3evFZs4$.TTTTTTTTTTTTTTTTTTTTTTTTTTTTTTTTTTTT                                   ",
"    .o&<evFAzt4&oo.o....$&,4tVGMt<$o TTTTTTTTTTTTTTTTTTTTTTTTTTTTTTTTTTT                                  ",
"    ..$,3iCFVse<#ooo.....$><4aCDvr,&$TTTTTTTTTTTTTTTTTTTTTTTTTTTTTTTTTTTT                                 ",
"    $.#&<5fDDxt4&oooo....o$,15sCDxe,,#TTTTTTTTTTTTTTTTTTTTTTTTTTTTTTTTTTT                                 ",
"     ..$,3rMHCae<$oooo....o&,35sADve,$$UTTTTTTTTTTTTTTTTTTTTTTTTTTTTTTTTTT                                ",
"     ..$><4sFFzt4,#oooo....o$,15gSFx4$#$TTTTTTTTTTTTTTTTTTTTTTTTTTTTTTTTTTT                               ",
"     ..o&,3tNHMae3&oo.#o....O&><5zDDz5#$&TTTTTTTTTTTTTTTTTTTTTTTTTTTTTTTTTTT                              ",
"      ..$><5gFDjr4<$ooo$o....#&><ejDDz5$&>TTTTTTTTTTTTTTTTTTTTTTTTTTTTTTTTTT                              ",
"      o.#&,3iZJMpe4>#oo#$.....$&,3ezF z4$,&TTTTTTTTTTTTTTTTTTTTTTTTTTTTTTTTTT                             ",
"      4.o$><exJSgr5<$ooo$$.... $&,3rvHDf3,>&TTTTTTTTTTTTTTTTTTTTTTTTTTTTTTTTTT                            ",
"       #.o&,4sDHvie3,#.o#$#.. . $><4tmFZs<$&$TTTTTTTTTTTTTTTTTTTTTTTTTTTTTTTTTT                           ",
"       $.o$,3rMKAdr5<&ooo$$o....    5tMFCa,$$&YTTTTTTTTTTTTTTTTTTTTTT TTTTTTTTT                           ",
"       3o.#><4gHHvpe3,$.oo$$... . $><4pNH i,$ $YTTTTTTTTTTTTTTTTTTTTTTTTTTTTTTTTT                         ",
"        $.o&,3tCKCsr4<&o.o#&#.. ..#&,35aVHM ,#o TTTTTTTTTTTTTTTTTTTTTTTTTTTTTTTTT                         ",
"        >..$><5zJFzt53,$.oo$&o  ...$&,35sZFz5&#o TTTTTTTTTTTTTTTTTTTTTTTTTTTTTTTTT                        ",
"        &..$><4aDLMpe4<&o.o$&$  ....$><4egSFf3$#o.TTTTTTTTTTTTTTTTTTTTTTTTTTTTTTTTT                       ",
"        ,..#&,3emKSfr53,$.oo$&o .....$><4tkSZa<$ ooTTTTTTTTTTTTTTTTTTTTTTTTTTTTTTTTT                      ",
"         ..o$><4sDHxte4<&o.o#$$  ....o$,35yzANi3&oooTTTTTTTTTTTTTTTTTTTTTTTTTTTTTTTT                      ",
"         o..$&,3rmKVse53,$ooo#&$......o&,35ixSN  $o .TTTTTTTTTTTTTTTTTTTTTTTTTTTTTTTT                     ",
"         >..#$><4fDDzte4<&#.oo$&o......o&,35aMSM <$ o.TTTTTTTTTTTTTTTTTTTTTTTTTTTTTTTT                    ",
"         3..o$>,3tMFmar43,$ooo$&$.......#&,3edVDvr<$oooTTTTTTTTTTTTTTTTTTTTTTTTTTTTTTTT                   ",
"          ..o$&,<5fDCfi53<>$ooo$& .......#&<4rgZZzt3$#o#TTTTTTTTTTTTTTTTTTTTTTTTTTTTTTT                   ",
"          $..#$><4tNSzee4<,&$oo$>$.o..o...$&<4rzDVr,$oo..TTTTTTTTTTTTTTTTTTTTTTTTTTTTTTT                  ",
"          ,..o$&,3eas<$$#oo$$o#,ee5553>#...$&,15,$###o&&..TTTTTTTTTTTTTTTTTTTTTTTTTTTTTTT                 ",
"           ..o#$>3<$#$#o##o..o.$4reee53,o..o$$###2CBxa4<,o.TTTTTTTTTTTTTTTTTTTTTTTTTTTTTTT                ",
"           o.o#$>,>#$<sSMgr4>o.o,a e554,>o...o+#<sZADmzt,,.#TTTTTTTTTTTTTTTTTTTTTTTTTTTTTTT               ",
"           <..o$$$$#yCSUISvgp<$oorpreee4,&..o+$5rijvSFDNt3<o#TTTTTTTTTTTTTTTTTTTTTTTTTTTTTTT              ",
"            ..o##+$rzZDKYHCxgr<$o&spree53,#o#$<5ep vAFJJCg <o#TTTTTTTTTTTTTTTTTTTTTTTTTTTTTT              ",
"            ....o,rajNASYISvja3>$o fteeee3,$+>3eepdfMCFKLSgr3o$TTTTTTTTTTTTTTTTTTTTTTTTTTTTTT             ",
"            $..o,rpagvVZJYFVxgt3$o$s rrrre<&#<&&35ypsjCGIHCfr<o,TTTTTTTTTTTTTTTTTTTTTTTTTTTTTT            ",
"            >.o&3eragzMVAUISMmzp4 o4fprr3rfagzvvxa15 sjNHJFMfe<#eTTTTTTTTTTTTTTTTTTTTTTTTTTTTTT           ",
"             ..&,3eagjvMCJYFVMMxf5>$ atr&eMvxMMmmxe15tsjCHJDNgr3o$TTTTTTTTTTTTTTTTTTTTTTTTTTTTTT          ",
"             o.$&<eagjxMCDYIAMmmxf3&< a5o4CFxBMMMMg5<5pazAHHFVg 3o<TTTTTTTTTTTTTTTTTTTTTTTTTTTTT          ",
"              .#><5idgxMVZLYFVMmvxr>$5i<#<5FCBNMMNva315isxAFJFNft3orTTTTTTTTTTTTTTTTTTTTTTTTTTTTT         ",
"              .#><3rdjzvmMDYJZNMmvg3>,e$&34aJvVN NMj <15tszCGJFMfr3ozTTTTTTTTTTTTTTTTTTTTTTTTTTTTT        ",
"              o#>,3eszzlxNAIUDCNmzxa>,&o<444HFZCAZmxd4,3epsxAHJDmft<>rTTTTTTTTTTTTTTTTTTTTTTTTTTTTT       ",
"              #$>><eaffzMZSHYJDCmzxvr>oo3rr5jGDDSZAZMg5,4tpdmSHHDvfr<.eTTTTTTTTTTTTTTTTTTTTTTTTTTTT       ",
"            UYI&&><5iagmNMvmHDMxjsfxg,o#<rt5eSFSSSAZVMf4,5rpgMSZNs3,,&OrTTTTTTTTTTTTTTTTTTTTTTTTTTTT      ",
"             IU>&,<4rgvmjr3,11>&&&,egr$$<5t44zFHJ LLKFVx3,5ise ...o#$34$5TTTTTTTTTTTTTTTTTTTTTTTTTTT      ",
"              U,&,<3izxa3#4alMSFFZeO<5>$$3e3,3sgsttrr5<3>$<3#.$tSJTULHZso<TTTTTTTTTTTTTTTTTTTTTTTTTTT     ",
"               >&<<3age$#sAHJHHHHGDg&. .#,3,&3asairrre<,>#,O#5hZJHHHFDDSBapTTTTTTTTTTTTTTTTTTTTTTTTTTT    ",
"               ,,,<5p4o,BDHFFDDDDCVmMp<o.$>,$5fzgxpe54<,>##&4ivZDFHJFSMMCVfpTTTTTTTTTTTTTTTTTTTTTTTTTT    ",
"               &,>3e3O#hKFSANzfassrergje$o#&#ezvaptree5<,##<5vACVx5 435e5ee4sTTTTTTTTTTTTTTTTTTTTTTTTTT   ",
"               $,&33$ogJSMvi,$ooooo #$3gp..$#tzz xxzjss5< O1eae4e5,$&&#o##,5>TTTTTTTTTTTTTTTTTTTTTTTTTTT  ",
"               +,><&osLDmde>o.....o.....#.>#>rrrpaaptreer #45444 o$$&%##$o.o oTTTTTTTTTTTTTTTTTTTTTTTTTT  ",
"               X>>>#$Vmzt4$o.o$$X#e<oo..#o.o3sragjgfsptid5,>4,#.oo&>,,$&&$o$$o$TTTTTTTTTTTTTTTTTTTTTTTTTT ",
"               X$,$#zsgr4ooo>33,o&r>$$$oo$..,<,eo.......oz5$o..##o&  ,>>&$$$$o.TTTTTTTTTTTTTTTTTTTTTTTTTT ",
"                #>$,tfr5.o#,3532o><$ $$oo...,p,ooo#oooo.#3e....#$#&,<< >&$$ $ .>TTTTTTTTTTTTTTTTTTTTTTTTTT",
"                X&$3tie..#&>3933$>&$$$$oo...$g,3rxSSZCze4>e....o&&&<<<,,&$$$$o..TTTTTTTTTTTTTTTTTTTTTTTTTT",
"                .>#err&.#>>,39433,>$$$$#o...oxfzfVHJHvp,>#3.....&&&<2<,,$$$$$ooo,TTTTTTTTTTTTTTTTTTTTTTTTT",
"                .,$45e...$,,<5533<>$$$$  ...ozo#o###......3o....&%&<2,,,$$$$#.  oTTTTTTTTTTTTTTTTTTTTTTTTT",
"                .$$<4,.oo.$<<493<2>$$$#o...Xot<#o#$#......& . ..#>%<<,,>$$     $.TTTTTTTTTTTTTTTTTTTTTTTTT",
"                .o&>4oo#o#.&<<54,<>$$#.....##5f<3rNDSCxe,,<$  ...>><< ,>$$$ ..o#.TTTTTTTTTTTTTTTTTTTTTTTTT",
"                ..&$<.ooo.#o&>543<&$o....$#3$ DVBVHUILHNpr3, o ..%>,<,,&$$o...#ooTTTTTTTTTTTTTTTTTTTTTTTTT",
"                ..>&&.#o...#$#>24>#o...#35t4>&z$##$$o......<.#...$>,<,>$$o....o#.TTTTTTTTTTTTTTTTTTTTTTTTT",
"                X.#,&.#o....$$+$hr,oo.35eee5 $f3##$$#......4#> $o#$,e4$#o....  $.TTTTTTTTTTTTTTTTTTTTTTTTT",
"                X..,#.#o......#iSl4>#5e55rrr<$tvaazDHDSMe<>e$ ,,>ooils$o..... >#.TTTTTTTTTTTTTTTTTTTTTTTT ",
"                o.X&O.oo......#lSh54$5eripsf3 4CggvDKJFDs4><&&,, >$evz3......&2  TTTTTTTTTTTTTTTTTTTTTTTT ",
"                $.X$#.o#......#sMse5<etasgjz5>>M.$.oo......o,>,<3 ,3ir1....o$<<.,TTTTTTTTTTTTTTTTTTTTTTTT ",
"                $..o#o.#o......3se5<easgjjxzp,#Nooooo.......4><343<,35$...o#33$.TTTTTTTTTTTTTTTTTTTTTTTTT ",
"                >...#o..#......<,35ifgjzvvjjj5$pzvNSLTLHVs4,r34rrtr4<3>o..#,<<.>TTTTTTTTTTTTTTTTTTTTTTTT  ",
"                 ....$o..o...o345isgjzxmmzgvZz&eNgreazsxvgart34eiasa4<<$oo$$, .TTTTTTTTTTTTTTTTTTTTTTTTT  ",
"                 #...X#......4eiaggjzvMmxMDJHB,4>ooo#$$$$$$$oogxaidfat4,$o$,$.TTTTTTTTTTTTTTTTTTTTTTTTT   ",
"                 $....$ooo.o4ipsggjzxMMBDJKSf<%< o..oo.o#$#.o.r Nmfpdap5,$o..4TTTTTTTTTTTTTTTTTTTTTTTT    ",
"                 &.XX.X#oo.rpagggjzvmVDKLSzt,OO@0o..ooo##$&..o-5axBmppapr<$o,TTTTTTTTTTTTTTTTTTTTTTTTT    ",
"                 >.XoX.#o.zgafggjzvvCGJGht,@OOO*0X.o$oo.oo$...@#=agzvgpite4,TTTTTTTTTTTTTTTTTTTTTTTTT     ",
"                 5.X#O..#,ZsggjzxvxVHJxr4=OX@@+*66Ooo$#>,#$...@#XX<pszzspee5TTTTTTTTTTTTTTTTTTTTTTTTT     ",
"                 U#X#$$#&eDsgzzzxxAKDi4,@@+.*-O@-0ooo$$<33#o.X@@X+XO5sgxjpr4TTTTTTTTTTTTTTTTTTTTTTTTT     ",
"                  $o#$&&43SjgzxxvDPDr<*O*;*.*;@O*0,Xo$<5rp&o..-=OXoXX#pdvvaerTTTTTTTTTTTTTTTTTTTTTTTT     ",
"                  $o#&=<4ejvszvmHHAu,O@X-6-.O;*O*7q..#<exD,$..-=$#$XoXX<adgfiTTTTTTTTTTTTTTTTTTTTTTTT     ",
"                  #o#&><38pCsxZHHCr+O**.*66X.--O*6wo.#24aa&$..-, =$oXOoX#4sjgTTTTTTTTTTTTTTTTTTTTTTTT     ",
"                  OX$&>,45aNfmFSz8+@*;*.+7:@.-;O@67-.o$#, $$..;:;:@X#oX.#+$pxTTTTTTTTTTTTTTTTTTTTTTTT     ",
"                 Y O$&><34pgvSSt2OO@--*..6;*.-;@@;;w..#$   #o.=6,:=.*#O.o##$<iTTTTTTTTTTTTTTTTTTTTTTT     ",
"                   ##&&<34tsDFr*@@O*-;*..66-.@;*@-6w..#,,,,>#.o6,6 .@*O..+$,$=TTTTTTTTTTTTTTTTTTTTTTT     ",
"                   O#&><<58rCa@@@OX-660o.6;*..:-O-;00.$$&&>>&# 7-: .X- #OX=$+ TTTTTTTTTTTTTTTTTTTTTTTT    ",
"                   XO&,<<4rrN,@,%+.6666.o66*o.-;**;6n.#$$$#Oo..6;=;+.;*OX.*@O+3TTTTTTTTTTTTTTTTTTTTTTT    ",
"                   Xo&=<35erv*@%$@o*;6;..;7*..--**=6b+. .......=;@ *.;**XX@+@X=TTTTTTTTTTTTTTTTTTTTTTT    ",
"                   >O$&<45erj@+@$*.*;6*..;;@@.*-** :n;.. ......X6@: .@**XXO@@X#TTTTTTTTTTTTTTTTTTTTTTT    ",
"                    o$&<44erg@@%@-X**-;&o-;**.o-*@*-qn.#o.......0* ;..**XXO@*XO=TTTTTTTTTTTTTTTTTTTTTT    ",
"                    o$&<348eg@$,@;$-@*06.-;**..--**=qn..$&,>>> .6;%;@.--@XO@=XX#TTTTTTTTTTTTTTTTTTTTTTT   ",
"                    X#&<345ej@<>*6:*@*7*.*6--.. ;**=7q... .... .*6@: .*=*.X+-@X+TTTTTTTTTTTTTTTTTTTTTTT   ",
"                    oO&,3455z*,#*70*+*6@ %6-6...*-@*-7#..$####$.X0 ;:oX*;.XX*-.OTTTTTTTTTTTTTTTTTTTTTTT   ",
"                    4o&,<455x*&#*77oX-;*..;-;...  @*,q-....... ..0*=;@.=*+.X*;XX@TTTTTTTTTTTTTTTTTTTTTT   ",
"                     X&,<4e5z*&$-6=o+-;*..-;;O..;;*@-w6...o.XoO..;: ;*.*-;.X@;*X+TTTTTTTTTTTTTTTTTTTTTT   ",
"                     X$,<454z$%$-;6.@*;;.o*;-@+. ;*@-0-.X>,>>>&o.*6 ; .@;6.X@;;XOTTTTTTTTTTTTTTTTTTTTTTT  ",
"                     X#><344j*=$*60o@*60oo$--*$o*6-+-6=...........0*;;..66 o$;;OXTTTTTTTTTTTTTTTTTTTTTTT  "
};
