/* XPM */
static char *_285c4c7d7154603b069d43feeda2726_18[] = {
/* columns rows colors chars-per-pixel */
"194 58 70 1 ",
"  c None",
". c #0F0A07",
"X c #0C0C0C",
"o c #100C0C",
"O c #0F100B",
"+ c #1A120B",
"@ c #101010",
"# c #161616",
"$ c #1F1E19",
"% c gray11",
"& c #251B0F",
"* c #231E1C",
"= c #332614",
"- c #3B2B1C",
"; c #3B301D",
": c #202020",
"> c #262525",
", c #2C2C2C",
"< c #322D2F",
"1 c #2F302C",
"2 c #3C3C3C",
"3 c #48341D",
"4 c #543D1C",
"5 c #3E413A",
"6 c #5A4327",
"7 c #694623",
"8 c #764F2A",
"9 c #7E6128",
"0 c #4D4D4C",
"q c #605953",
"w c #726E72",
"e c #717171",
"r c #8A5A33",
"t c #825C3D",
"y c #996138",
"u c #917138",
"i c #A2693C",
"p c #AA6D41",
"a c #AF6D42",
"s c #AC7244",
"d c #A4794C",
"f c #B27145",
"g c #B57548",
"h c #BE7949",
"j c #BD7D51",
"k c #CA7D4D",
"l c #AA8737",
"z c #BE9343",
"x c #A18F56",
"c c #BA9A57",
"v c #CF8251",
"b c #D78A59",
"n c #C6AB4A",
"m c #ECB84F",
"M c #DF9261",
"N c #E79A69",
"B c #FACD70",
"V c #9E9E9D",
"C c #AFAFAF",
"Z c #BBBCBC",
"A c #FDDB9C",
"S c #C7C0BF",
"D c #CFCFCE",
"F c #DADED8",
"G c #DFDFDF",
"H c #E2D9D3",
"J c #E9E9E8",
"K c #F1F2F1",
"L c #FCFBF8",
"P c white",
/* pixels */
"                                                                           rrrrrrrrrryt                                                                                                           ",
"                                                                    irryryyrypiipfhvbbfr66                                                                                                        ",
"                                                                   88yfkhbMMMMbkhhhhbMNNh88                                                                                                       ",
"                                                                  8rpvbMNNMMMMvhhhkvvvbMMMv66                                                                                                     ",
"                                                                rrrfvbbbbbbbvvvvvvvvhfpppghby66                                                                                                   ",
"                                                              88yhbbbbbvkbbvhhhkvvfir87888yihprt                                                                                                  ",
"                                                             8rvbbbbvvvkhhhfhhpiyr8643-34788rrpprtL                                                                                               ",
"                                                           8riMMvvkkkhhhfpfpyyy8643;=$&===34468riiSL                                                                                              ",
"                                                        888ibMbhffffppiyyiyrr7863==$$++++&&=&-368ry                                                                                               ",
"                                                   866667rbbvvhpiiiyrrrrryr863==+&&&&+&;34783;38rrr                                                                                               ",
"                                                 ;;4rhMMMbvvhfiyyyrryyyyyr843;=+&+&#=4;9999983=-txH                                                                                               ",
"                                                =3pbhbMMMbkhhpiiyyyyyyyr863==++&+#+&337--;69u94==CL                                                                                               ",
"                                                4bvhkMMMbvfffpfffpiiiyr84==&+&++++=;78&5u73-ul8;=                                                                                                 ",
"                                               36hhhMMMMbhppfhhhhfir886;+&+++#ooo-3u4=1nlu4--x94=&                                                                                                ",
"                                               4rhhbNMMbhfiypffpyrr644=&+&++@ooo&7796@xBl973&uu4=&                                                     PPPPPPPPPPPPPPPPPPX                        ",
"                                              36gfhMNbvhpiyrrrrr864=%=+++@Oooooo&7898#xmu963&uu4=%                                                   PPPPPPPPPPPPPPPPPPPPPP                       ",
"                                             64yffhMbhhfirryyr8763=&+&:#O@+++oo.=8798=5nu84--l94=#L                                                 PPPPPPPPPPPPPPPPPPPPPPPPP                     ",
"                                             =rfpfbbhpiyryyrrr764=++=&+O&3763&oo&74u87=8u73-dx8=*#L                                                PPPPPPPPPPPPPPPPPPPPPPPPPP                     ",
"                                            44fpfbMvfiyryryyr843=>&*+&&399984;&o+467679768tcc96*&#J                                                PPPPPPPPPPPPPPPPPPPPPPPPPPP                    ",
"                                           84igfNNkfiyryyrr84;;=3%+@&&899u996-3++44498999uzd96=&+=                                                 PPPPPPPPPPPPPPPPPPPPPPPPPPP                    ",
"                                           8gfhbNvpiyyyr76764;;;;#+&=7;;36tu94--&-34488899876=&+==                                                PPPPPPPPPPPPPPPPPPPPPPPPPPPP                    ",
"                                          rghvMbhiiiiiiyrr86=34=%>&=7$qnu7-ud8;==4-4347878;3=&+-=3                                              PPPPPPPPPPPPPPPPPPPPPPPPPPPPPP     &              ",
"                                         rfhbNMhiiffpiiiyyy;=63=%&&4=5Anu94-c94=&43=--4443;=&.=&=;                                             PPPPPPPPPPPPPPPPPPPPPPPPPPPPPPPw                   ",
"                                        8ghbMkiifffpiiiiyyr334=+>&37@xBl974=uu4=&443-=-+++..-====; L                                           PPPPPPPPPPPPPPPPPPPPPPPPPPPPPPPP                   ",
"                                       rfhbbvppffppfffpiiy8;43&=&&98#xmu963&uu4=&343;3;===&&&&&==-                                            PPPPPPPPPPPPPPPPPPPPPPPPPPPPPPPPPe                  ",
"                                      8ghvhhfffpfffffffpii847;==&=98=6nu93--l94*&473;==&&&===*===-                                           PPPPPPPPPPPPPPPPPPPPPPPPPPPPPPPPPPP                  ",
"                                     8fhhfpfffkkvhfffhfpia8883=>&;u87=8u73-dx8=*+77&&&-3644346333&CK                                        PPPPPPPPPPPPPPPPPPPPPPPPPPPPPPPPPPPP                  ",
"                                    8ghhppfkvvvvvvhfffffpprr83=;&38479767tcc96*&+7=&&;468ryyiy87677ZL                                      PPPPPPPPPPPPPPPPPPPPPPPPPPPPPPPPPPPPP                  ",
"                                   rfhhhfhvbbbvkkhhffffffipy84=3&3498899uzd96=&+*-=468rifhhvbbbvp88tL                                     PPPPPPPPPPPPPPPPPPPPPPPPPPPPPPPPPPPPPP                  ",
"                                  pifvvhhvbMMMvkkhhhffffppiy763&&=4498899876=&+>>&377yphvbbbbbhhr868                                    PPPPPPPPPPPPPPPPPPPPPPPPPPPPPPPPPPPPPPPPP                 ",
"                                 rpfhkkkvbMMMbhhkhhhfffppfpi843=&+-347878;3=&+=>*4ripfhvMMbvkhy8633q                                   PPPPPPPPPPPPPPPPPPPPPPPPPPPPPPPPPPPPPPPPPPO                ",
"                                rhphkvvvvbMMMbhhkhhhhfhfpppfr33=*#&=-4463;=&O*%%68afhhvbMvfyr84;==<                                   PPPPPPPPPPPPPPPPPPPPPPPPPPPPPPPPPPPPPPPPPPPP                ",
"                               rpffkvvbbbMMMMbhhkkhhhhhfpiipy63=+&#&==+++O##$#*&ipfhhkvbhpr664=*:*                                  PPPPPPPPPPPPPPPPPPPPPPPPPPPPPPPPPPPPPPPPPPPPPP :              ",
"                              rrhhvbbbbMMMMMMbhhhhhkhhhhfiyyyr63+#@+%+#+++&$*-37shvhhkhir664;>:%+.                                PPPPPPPPPPPPPPPPPPPPPPPPPPPPPPPPPPPPPPPPPPPPPPPPPPP     PPPPPPPP",
"                             fryhvbbbMMMMMMMMbhhhkkkhhffpiyrrr63=+%+#+%==-44468ikkhpyiir4443*,++++                               PPPPPPPPPPPPPPPPPPPPPPPPPPPPPPPPPPPPPPPPPPPPPPPPPPPP     PPPPPPPP",
"                            6rifvvvbbMMMMMMMMbhhhkkkkkhfpipry863;3=+-;343334rygbbvhy8ry846;:>++&++L                             PPPPPPPPPPPPPPPPPPPPPPPPPPPPPPPPPPPPPPPPPP   PPPPPPPPP    PPPPPPPP",
"                           8rpfvvvvbbMMMMNNMMbhhhkhhhkhfpiyyyr4==+==4668rrypghbMMbvy47r6;=>*++&++.                             PPPPPPPPPPPPPPPPPPPPPPPPPPPPPPPPPPPPPPPPPPP    PPPPPPPP     PPPPPPP",
"                          38iihkvbbbbbMNNNNMMbkhhhhhhhhfir87783;=;4447ryipfhbbMNMbfy7;44+%++&+&&++L                            PPPPPPPPPPPPPPPPPPPPPPPPPPPPPPPPPPPPPPPPPPPP    PPPPPPPP           ",
"                         4ryyifkbbbbbbMNNNNMMMvhhhhhhhhffpir74334888rypppfhbbMNNMvir4====&&+++&+++                            PPPPPPPPPPPPPPPPPPPPPPPPPPPPPPPPPPPPPPPPPPPPPP   PPPPPPPP           ",
"                         rgpiifkbMMMMMNNNNMMMbkkhhhhhhvvhfpiiir76478ryyppfvvMMMNhp844;%>=-++&+&&++L                          PPPPPPPPPPPPPPPPPPPPPPPPPPPPPPPPPPPPPPPPPPPPPPP    PPPPPPPP          ",
"                        DpkhpifkbbMMMMNNNNMMMbkhkhhhkvvvvhfpiipirryyyifpfkvbbbMfy8643>%>&+&+++&+++                       PPPPPPPPPPPPPPPPPPPPPPPPPPPPPPPPPPPPPPPPPPPPPPPPPPPP   PPPPPPPPP         ",
"                       K6ihhfpfhbbMMMMMNMNMMMbvhhhhhvkhvvvhfiifhphpphfkkhhvbbvfr864;=%>$&&+&+&++++L                   PPPPPPPPPPPPPPPPPPPPPPPPPPPPPPPPPPPPPPPPPPPPPPPPPPPPPPP    PPPPPPPP         ",
"                       =7yiffpfhbbMMMMMMMMMMbbbkhhhhkhfhhvvhffkvbbvvvvkhhhvhbhr864;%%%*&&&&+++&+++                  PPPPPPPPPPPPPPPPPPPPPPPPPPPPPPPPPPPPPPPPPPPPPPPPPPPPPPPPP    PPPPPPPPP        ",
"                       =8irpffpfkbMMMMMMMMMMbbbvhhhhhhffhhvvvbbbMMbbvhhffffvfir74==%%$+&&&++&+++++L                 PPPPPPPPPPPPPPPPPPPPPPPPPPPPPPPPPPPPPPPPPPPPPPPPPPPPPPPPP     PPPPPPPP        ",
"                       ;3iryhhppfkbbbMMMMMMMMbvvkhhhhhhhhhkvbbbMMMbbvhfiipfppy84===%&&&&&&&+&+&+++                PPPPPPPPPPPPPPPPPPPPPPPPPPPPPPPPPPPPPPPPPPPPPPPPPPPPPPPPPPPP    PPPPPPP         ",
"                    ipr4=7pyfhfpypkvbbMMMMMMMbkffhhhkvfffhhhbbbMMMbbbhpyryipy84=>>%$&&&+++++++++++L           PPPPPPPPPPPPPPPPPPPPPPPPPPPPPPPPPPPPPPPPPPPPPPPPPPPPPPPPPPPPPPPP     PPPPPP         ",
"                   rifgi3;yrihhprrfkkvbbbMMMbvhirykhkvhfifphvbbbMMMMbhiy88ypr4>%%>>&&+=&+&+&+++++         PPPPPPPPPPPPPPPPPPPPPPPPPPPPPPPPPPPPPPPPPPPPPPPPPPPPPPPPPPPPPPPPPPPPP    PPPPPP         ",
"                GH 8hvvf837ryphhr4rhphkvvbMbkhfp76hvkbhfpyrfkbbbbbbMMvf866776%%##2VJ+&&&&&&+++&&L     PPPPPPPPPPPPPPPPPPPPPPPPPPPPPPPPPPPPPPPPPPPPPPPPPPPPPPPPPPPPPPPPPPPPPPPPP      PPPP         ",
"               G867rhkbvi8;4rrfvj84ryfhkvkvvkhpfr3rvvvvffi8yphhvkkbMMvi86343=%%$0F  L733=<&&+&&   PPPPPPPPPPPPPPPPPPPPPPPPPPPPPPPPPPPPPPPPPPPPPPPPPPPPPPPPPPPPPPPPPPPPPPPPPPPPPPPP                ",
"              6ffi7ryphbhr6=68ikka848rfhhhhhkhppi63fbhihhi86rrriffhMMfr63;;=>%$%K     LLLL  L PPPPPPPPPPPPPPPPPPPPPPPPPPPPPPPPPPPPPPPPPPPPPPPPPPPPPPPPPPPPPPPPPPPPPPPPPPPPPPPPPPPPPPP             ",
"             4rhhh788rhbbp84=3rhvhi446rhhhfphhhpi8=6bkrhhgr6388riihfir74;=;=>*&&          PPPPPPPPPPPPPPPPPPPPPPPPPPPPPPPPPPPPPPPPPPPPPPPPPPPPPPPPPPPPPPPPPPPPPPPPPPPPPPPPPPPPPPPPPPPPPPP         ",
"            =3yiffr668gvbhi83=6phhhr3;6shffpfhhfir;=hvrihfyr3688rrrr864;=;=%$&&&       PPPPPPPPPPPPPPPPPPPPPPPPPPPPPPPPPPPPPPPPPPPPPPPPPPPPPPPPPPPPPPPPPPPPPPPPPPPPPPPPPPPPPPPPPPPPPPPPPPPP       ",
"           4=;68yvhy66rhhvpr8;;rhkhh7==8phfpppfpyy6+8b88ifyy44668r8643;;==%*&&+    PPPPPPPPPPPPPPPPPPPPPPPPPPPPPPPPPPPPPPPPPPPPPPPPPPPPPPPPPPPPPPPPPPPPPPPPPPPPPPPPPPPPPPPPPPPPPPPPPPPPPPPPP      ",
"          f6;=;48hkv846yhvfrs747pbbff4&=8hhfppiiyr8=3kp48piy8;44667433>>>%$&&&&LPPPPPPPPPPPPPPPPPPPPPPPPPPPPPPPPPPPPPPPPPPPPPPPPPPPPPPPPPPPPPPPPPPPPPPPPPPPPPPPPPPPPPPPPPPPPPPPPPPPPPPPPPPPPPP    ",
"        b8r74;==48pvg738fhjrry78pkbhgi3=3ihffiipprr4=pv6;rhi8=3333443>>====&+=&PPPPPPPPPPPPPPPPPPPPPPPPPPPPPPPPPPPPPPPPPPPPPPPPPPPPPPPPPPPPPPPPPPPPPPPPPPPPPPPPPPPPPPPPPPPPPPPPPPPPPPPPPPPPPPPP   ",
"     r8yr6r843;;36rfbi34rhhh46rrfhhfifr3=8hffpipfrr8=8kr=8hi6;4====>>==>**&+&=LPPPPPPPPPPPPPPPPPPPPPPPPPPPPPPPPPPPPPPPPPPPPPPPPPPPPPPPPPPPPPPPPPPPPPPPPPPPPPPPPPPPPPPPPPPPPPPPPPPPPPPPPPPPPPPPP   ",
"  36448878888664336rfh747phhi447iipfhhfi==7iifirsyr8=3fi=6iy6=;;===>>=%*&&&&&LPPPPPPPPPPPPPPPPPPPPPPPPPPPPPPPPPPPPPPPPPPPPPPPPPPPPPPPPPPPPPPPPPPPPPPPPPPPPPPPPPPPPPPPPPPPPPPPPPPPPPPPPPPPPPPPPP   ",
"=;4346768yrrrr864;46rki64rhhfy3=6r7ifhhp6=%8rfir68rr3+rp33rr7==+&%%>%>%&-=-&LPLPPPPPPPPPPPPPPPPPPPPPPPPPPPPPPPPPPPPPPPPPPPPPPPPPPPPPPPPPPPPPPPPPPPPPPPPPPPPPPPPPPPPPPPPPPPPPPPPPPPPPPPPPPPPPPPP   "
};
