/* XPM */
static char *_285c4c7d7154603b069d43feeda2726_28[] = {
/* columns rows colors chars-per-pixel */
"170 90 58 1 ",
"  c None",
". c #050404",
"X c #0F0A07",
"o c #0C0C0C",
"O c #100C0C",
"+ c #0F100B",
"@ c #1A120B",
"# c #101010",
"$ c #161616",
"% c #1F1E19",
"& c gray11",
"* c #251B0F",
"= c #231E1C",
"- c #332614",
"; c #3B2B1C",
": c #3B301D",
"> c #202020",
", c #262525",
"< c #2F302C",
"1 c #48341D",
"2 c #543D1C",
"3 c #5A4327",
"4 c #694623",
"5 c #764F2A",
"6 c #58514B",
"7 c #78716B",
"8 c #8A5A33",
"9 c #825C3D",
"0 c #996138",
"q c #A2693C",
"w c #AA6D41",
"e c #AF6D42",
"r c #AC7244",
"t c #B27145",
"y c #BB7444",
"u c #B57548",
"i c #BA7549",
"p c #B5794D",
"a c #BE7949",
"s c #BD7D51",
"d c #CA7D4D",
"f c #C68252",
"g c #CF8251",
"h c #D38350",
"j c #D78A59",
"k c #DB8E5D",
"l c #DF9261",
"z c #E79A69",
"x c #AFAFAF",
"c c #C7C0BF",
"v c #CFCFCE",
"b c #E2D9D3",
"n c #E9E9E8",
"m c #F4ECE8",
"M c #FEF7E9",
"N c #F1F2F1",
"B c #FCFBF8",
"V c white",
/* pixels */
"                                                                                                                                              VVVVVVVVVVVV                ",
"                                                                                                                                       VVVVVVVVVVVVVVVVVVVVVV             ",
"                                                                                                                                      VVVVVVVVVVVVVVVVVVVVVVVV            ",
"                                                                                                                                     VVVVVVVVVVVVVVVVVVVVVVVVVVV          ",
"                                                                                                                                   VVVVVVVVVVVVVVVVVVVVVVVVVVVVVVV        ",
"                                                                                                                                 VVVVVVVVVVVVVVVVVVVVVVVVVVVVVVVVVV       ",
"                                                                                                                                VVVVVVVVVVVVVVVVVVVVVVVVVVVVVVVVVVVVVV    ",
"                                                                                                                              VVVVVVVVVVVVVVVVVVVVVVVVVVVVVVVVVVVVVVVVV   ",
"                                                                                                                           VVVVVVVVVVVVVVVVVVVVVVVVVVVVVVVVVVVVVVVVVVV    ",
"                                                                                                                      VVVVVVVVVVVVVVVVVVVVVVVVVVVVVVVVVVVVVVVVVVVVVVVV    ",
"                                                                                                                    VVVVVVVVVVVVVVVVVVVVVVVVVVVVVVVVVVVVVVVVVVVVVVVVV     ",
"                                                                                                                   VVVVVVVVVVVVVVVVVVVVVVVVVVVVVVVVVVVVVVVVVVVVV          ",
"                                                                                                                   VVVVVVVVVVVVVVVVVVVVVVVVVVVVVVVVVVVVVVVVVVVVV          ",
"                                                                                                                  VVVVVVVVVVVVVVVVVVVVVVVVVVVVVVVVVVVVVVVVVVVVVV          ",
"                                                                                                                  VVVVVVVVVVVVVVVVVVVVVVVVVVVVVVVVVVVVVVVVVVVVVV          ",
"                                                                                                                 VVVVVVVVVVVVVVVVVVVVVVVVVVVVVVVVVVVVVVV   VVVV           ",
"                                                                                                                VVVVVVVVVVVVVVVVVVVVVVVVVVVVVVVVVVVVVVVVV                 ",
"                                                                                                                VVVVVVVVVVVVVVVVVVVVVVVVVVVVVVVVVVVVVVVVVV                ",
"                                                                                                               VVVVVVVVVVVVVVVVVVVVVVVVVVVVVVVVVVVVVVVVVVVVV              ",
"                                                                                                              VVVVVVVVVVVVVVVVVVVVVVVVVVV  VVVVVVVVVVVVVVVVVV             ",
"                                                                                                              VVVVVVVVVVVVVVVVVVVVVVVVVVVV V VVVVVVVVVVVVVVVV             ",
"                                                                                                             VVVVVVVVVVVVVVVVVVVVVVVVVVVVV     VVVVVVVVVVVVVV             ",
"                                                                                                            VVVVVVVVVVVVVVVVVVVVVVVVVVVVVVV       VVVVVVVVVV              ",
"                                                                                                           VVVVVVVVVVVVVVVVVVVVVVVVVVVVVVVVV        VVVVVV            V   ",
"                                                                                                          VVVVVVVVVVVVVVVVVVVVVVVVVVVVVVVVVVV                             ",
"                                                                                                         VVVVVVVVVVVVVVVVVVVVVVVVVVVVVVVVVVVV                             ",
"                                                                                                        VVVVVVVVVVVVVVVVVVVVVVVVVVVVVVVVVVVVVV              VVVVVVVVV     ",
"                                                                                                       VVVVVVVVVVVVVVVVVVVVVVVVVVVVVVVVVVVVVVVV        VVVVVVVVVVVVVVV    ",
"                                                                                                      VVVVVVVVVVVVVVVVVVVVVVVVVVVVVV   VVVVVVVV        VVVVVVVVVVVVVVVVV  ",
"                                                                                                     VVVVVVVVVVVVVVVVVVVVVVVVVVVVVVV   VVVVVVVVV     VVVVVVVVVVVVVVVVVV   ",
"                                                                                                    VVVVVVVVVVVVVVVVVVVVVVVVVVVVVVVVV   VBNNNN0335  VVVVVVVVVVVVVVVVVVV   ",
"                                                                                                   VVVVVVVVVVVVVVVVVVVVVVVVVVVVVVVVVV  BNmbvw5955218q0q0qtbMVVVVVVVVVV    ",
"                                                                                                  VVVVVVVVVVVVVVVVVVVVVVVVVVVVVVVVVVVBBmb8558qwq953120qwwq0yvMVVVVVVV     ",
"                                                                                                 VVVVVVVVVVVVVVVVVVVVVVVVVVVVVVVVVVVVNm8835qwtuw0851:280wtwqwwVVVVVV      ",
"                                                                                                VVVVVVVVVVVVVVVVVVVVVVVVVVVVVVVVVVMmbt88358etuw00092:158500qqraVVV        ",
"                                                                                               VVVVVVVVVVVVVVVVVVVVVVVVVVVVVVVBmbctw940155qteq00 091;-242888q8waV         ",
"                                                                                              VVVVVVVVVVVVVVVVVVVVVVVVVVVVVVmcswtq808318wwrwwq088851*--12288080ra         ",
"                                                                                             VVVVVVVVVVVVVVVVVVVVVVVVVVVVVV0qqqwwqq0215qtqwwq0988832---- 138850wisi       ",
"                                                                                            VVVVVVVVVVVVVVVVVVVVVVVVVVVVV000 utqq84 :30tua 000009442-:--  248880uidi      ",
"                                                                                            VVVVVVVVVVVVVVVVVVVVVVVVVVVVq9qufsw0851:18qaaaaq0889335:---- --11588ttadiB    ",
"                                                                                           VVVVVVVVVVVVVVVVVVVVVVVVVVVV90waffw854111 quaaaaa0585455--*:--:--:;158uwadg    ",
"                                                                                          VVVVVVVVVVVVVVVVVVVVVVVVVVVV5qu spq5541::8qtt  ttdtq08092---- :*:-:-:448wwaa    ",
"                                                                                          VVVVVVVVVVVVVVVVVVVVVVVVVVV30awpu05432;-50tuiuat   tt083-%*#-*-*-*-@-3458qqaa   ",
"                                                                                          VVVVVVVVVVVVVVVVVVVVVVVVVV4wuuuq055421-580aaaitt aaw0541%-*#$ @*@-@--:35980tiim ",
"                                                                                          VVVVVVVVVVVVVVVVVVVVVVVVV4tupw8854431-588aaaauiwww q852*-  :-@$@o$@*--:4428wrtt ",
"                                                                                       VVVVVVVVVVVVVVVVVVVVVVVVVVV5wru0985432:-380taattt twq 052;=::11232-@o@o@:-12125qw0 ",
"                                                                                      VVVVVVVVVVVVVVVVVVVVVVVVVVV4tqq8895232--580tttaata uq0842;*&-:11233441@$$#--2-144055",
"                                                                                   VV VVVVVVVVVVVVVVVVVVVVVVVVV54a 08854332-:280tttttttttw08 1;*$*&--343335531@@$&-111:223",
"                                                                                  VVVVVVVVVVVVVVVVVVVVVVVVVVVV13wt0 854331-:3 8qutqwqeq00 842:*$  &-,--33335542--&$*--@&:5",
"                                                                                 VVVVVVVVVVVVVVVVVVVVVVVVVVVV34qw8885543:-220q0rfq0q08888 421-$O$oo&&$$-133455431:$@*&&@, ",
"                                                                                VVVVVVVVVVVVVVVVVVVVVVVVVVVV250q8888444:-335qqwsfgur455853 1;*&$.....$$#--23485543@$$&@-  ",
"                                                                               VVVVVVVVVVVVVVVVVVVVVVVVVVV525w00883344::558qqqtuggfa52444 1 =&-$@@@o...o@-:22348431,,3    ",
"                                                                              VVVVVVVVVVVVVVVVVVVVVVVVV22315000893343:;35008wafkhjgsr411  ;==*-&*$@@@@X.@@-122233432      ",
"                                                                              VVVVVVVVVVVVVVVVVVVVVVV323430sq8594322--33808wasllllfiu03,=-=-*,*---*@@$@@.@@1:::221313     ",
"                                                                            VVVVVVVVVVVVVVVVVVVVVVVV223435fs085322:-13880qwtalllzjsiw83-=%%  @--1::;-**,@o+---:::11338    ",
"                                                                          VVVVVVVVVVVVVVVVVVVVVVVV333454ufr085541--23 80staglllljjfuw5:-=&*&@*@-:111223xv&..$----:2553    ",
"                                                                        VVVVVVVVVVVVVVVVVVVVVVVVB533348sfw005531-*-88 qqhjjllzllhfsr93;%$*&o$@&$@-1:1222N &..o@*-135835   ",
"                                                                     VVVVVVVVVVVVVVVVVVVVVVVVVVB535458pjr84533--$2 800shkjllzlkkgfqq53;%@$ooo$o$$&--:1312  &oo$-2123853   ",
"                                                                   VVVVVVVVVVVVVVVVVVVVVVVVVVVV448558tgtq583 *+*48 8qafjgkzzljkjds4931-*@oo...o$$$@&&-2225  ,o.&11234833  ",
"                                                                 VVVVVVVVVVVVVVVVVVVVVVVVVVVVV235880rkt0522--+*58 0waajjklzljkkdtq352;%$$o.O++oo$$$@&&-221   ,o&-1134852  ",
"                                                              VVVVVVVVVVVVVVVVVVVVVVVVVVVVVVV: 558qwrw0823--**38w0wadfjklzzlkkhtw841;%&#++++@+@+.oo$&@**112   &$$:134552  ",
"                                                           VVVVVVVVVVVVVVVVVVVVVVVVVVVVVVVVV-2588qa8 882-**1=148qtaddjklllljkgtwq41;;&+##++@+@@@@Ooo,$@-:113   $#@:22241  ",
"                                                         VVVVVVVVVVVVVVVVVVVVVVVVVVVVVVVVVV:1480  008831 -43140qataddklzllkkfq8q82-@&$o$@@@+++@@@@+oo$&&@232   ,o$-122-,  ",
"                                                     V VVVVVVVVVVVVVVVVVVVVVVVVVVVVVVVVVVV :40rtq08852:--5043 qataddjlzllgaaw03551*$oOo   B     <@@@o$,$$:222   $$$11--   ",
"                                                    VVVVVVVVVVVVVVVVVVVVVVVVVVVVVVVVVVVVV3248wqw088332-158023wtaadjklzllgattq0323-@$oX@           $@@$$&#::211  n$&&@--   ",
"                                                 VVVVVVVVVVVVVVVVVVVVVVVVVVVVVVVVVVVVVVV-338wqwq853:-*1500040aaadgjlllljuttq8841:-@ooO@*<7         ,$@@&@-12112  n,&o-@   ",
"                                               VVVVVVVVVVVVVVVVVVVVVVVVVVVVVVVVVVVVVVVV- 50qqwq851-;*-58q000wtaagjlllkkswwq0852--@-o.$*@@*@=:       ,>*$#-:3222           ",
"                                             VVVVVVVVVVVVVVVVVVVVVVVVVVVVVVVVVVVVVVVV--: 90uw085--1:-8 000w0wtadgglkkkfaqq044541--*oo#******-,        1oo--33323          ",
"                                          VVVVVVVVVVVVVVVVVVVVVVVVVVVVVVVVVVVVVVVVVV--35q4qq0841:43158 00qt8wdggghkkjjawq0082-1-*-o.o**-------&        +o$123333          ",
"                                          VVVVVVVVVVVVVVVVVVVVVVVVVVVVVVVVVVVVVVVVV-1445 0808322554580qqqww0wgjjghkjjgaq000843-o*+..#-------:--,,      $o$123223          ",
"                                        VVVVVVVVVVVVVVVVVVVVVVVVVVVVVVVVVVVVVVV11--:3140wqq8423808508wtttaaqwgggggjkjaw0088412-@@@.o&,,&&@-:::11-&     -,o-23123          ",
"                                     VVVVVVVVVVVVVVVVVVVVVVVVVVVVVVVVVVVVVVVVN:--*--:80qwq05235q 0qaaaaadggjiggggfsgsq008802-@@-*oo$$&,&&@&-::111:-    ;$o--2333          ",
"                                   VVVVVVVVVVVVVVVVVVVVVVVVVVVVVVVVVVVVVVVVVV132-1*-50q ww05280qa waaadgkkjgidggdgjtw000848-1*-@o.oo$$$$&*@&*-:1111:&   &o-*1231          ",
"                                 VVVVVVVVVVVVVVVVVVVVVVVVVVVVVVVVVVVVVVVVVVVB288881-10tq0q00qrwtaiwddjklkkhgsagddsw00808512-:-**$$o$$o.oooo$@*-112:1,3  ,$@--,::          ",
"                                VVVVVVVVVVVVVVVVVVVVVVVVVVVVVVVVVVVVVVVVVVVV1180808::8tt8q0wqwtadgwggkllzzkjjiddat8880883:---@-&o$$$$$$.oooo$#*-:22222   $&@&,--          ",
"                              VVVVVVVVVVVVVVVVVVVVVVVVVVVVVVVVVVVVVVVVVVVVV:118qqq08:2waqwwq0wadgjsfklzzzzjjgudga080888511@@-@$2&,,21,&,&&o,oo-@-123233  $,$$,&           ",
"                            VVVVVVVVVVVVVVVVVVVVVVVVVVVVVVVVVVVVVVVVVVVVVVV:1;20wwqq818ttwttaggjjjjklzzzzljjdagaa0088881--*@@$2          $&&$o#*@::1--2    21-            ",
"                          VVVVVVVVVVVVVVVVVVVVVVVVVVVVVVVVVVVVVVVVVVVVVVVV1385-3qw0wq55qatwfhgjjkllfzzzzlgjgaaata888085----$$$            &&$$$$@*-#-*2                   ",
"                     VVVVVVVVVVVVVVVVVVVVVVVVVVVVVVVVVVVVVVVVVVVVVVVVB2-V68q003-5 q wq58dashjjkllkjkzzlkgddaataaq858842--:-$$              o$o$$$@o$$@=                   ",
"                       VVVVVVVVVVVVVVVVVVVVVVVVVVVVVVVVVVVVVVVVVVVVVM:23-4qw0q5-:8wqtw08sjfjkkllllzzzljjddat0tdw0350311-:&#$                $oo$$$o$$:-                   ",
"                    VVVVVVVVVVVVVVVVVVVVVVVVVVVVVVVVVVVVVVVVVVVVVVVV45q0-0wwqq8:@2wqttqqsjshjklzzzzzlggdaaaatqa001152-1-@$$                  $$$@ooo-21:                  ",
"                  VVVVVVVVVVVVVVVVVVVVVVVVVVVVVVVVVVVVVVVVVVVVVVVVVV549883wrqwq3-:8rwtqwsfghklllzzklfaaaaaattq8081:21@:@@$&                   &$$$$--21-                  ",
"              VVVVVVVVVVVVVVVVVVVVVVVVVVVVVVVVVVVVVVVVVVVVVVVVVVVVVV*2qft18wqtt82-1wpwwupahhkkllzjsfttattttqq31081-1-@-*.o                     3,&*--21-                  ",
"             VVVVVVVVVVVVVVVVVVVVVVVVVVVVVVVVVVVVVVVVVVVVVVVVVVVVVVV@:8qgt10iiat81:5wwasffgjlllljfwtwwttqtq852-88-@@@*@oo                       &&--:3:=:                 ",
"           VVVVVVVVVVVVVVVVVVVVVVVVVVVVVVVVVVVVVVVVVVVVVVVVVVVVVVVV-*-89wa315 aaq 1:8tffffgjlkkjhftwq00q8we52--35-@oo@$.$                       &$*-:3:=1                 ",
"         VVVVVVVVVVVVVVVVVVVVVVVVVVVVVVVVVVVVVVVVVVVVVVVVVVVVVVV1--$*-398aw1- auu82-3qfsfsgkkgfffpwq8q8858q81-+-1@o..-..                        ,$-#-31=&                 ",
"      VVVVVVVVVVVVVVVVVVVVVVVVVVVVVVVVVVVVVVVVVVVVVVVVVVVVVVVVV-;;;=*-;24tj5:2qffw5  5shssjkgfssftw0888234q0:-+--$$....o                        ,o$@-:;=&                 ",
"     VVVVVVVVVVVVVVVVVVVVVVVVVVVVVVVVVVVVVVVVVVVVVVVVVVVVVVVV---,:-12*-*18aa3-5dktw3 2qgpflkfutwqqq85804-2082-+-$$oo..&                          $$&&-@&                  ",
"   VVVVVVVVVVVVVVVVVVVVVVVVVVVVVVVVVVVVVVVVVVVVVVVVVVVVVVVVB-*11***--1**@:wk81 rlfw5:-5rsglkiwqqw0854585@-881@@@o.ooo,                           $$&-&$$                  ",
" VVVVVVVVVVVVVVVVVVVVVVVVVVVVVVVVVVVVVVVVVVVVVVVVVVVVVVVVB----;:-*;-;4--@@5gs4-5jku54-28sflfw00080533884@*552@*o.o$                               $$2-                    "
};
