/* XPM */
static char *_285c4c7d7154603b069d43feeda2726_6[] = {
/* columns rows colors chars-per-pixel */
"87 129 73 1 ",
"  c None",
". c #050404",
"X c #0F0A07",
"o c #0C0C0C",
"O c #100C0C",
"+ c #0F100B",
"@ c #1A120B",
"# c #101010",
"$ c #161616",
"% c #1F1E19",
"& c gray11",
"* c #251B0F",
"= c #231E1C",
"- c #332614",
"; c #3B2B1C",
": c #3B301D",
"> c #202020",
", c #262525",
"< c #2C2C2C",
"1 c #322D2F",
"2 c #2F302C",
"3 c gray19",
"4 c #373636",
"5 c #3C3C3C",
"6 c #48341D",
"7 c #543D1C",
"8 c #433E3D",
"9 c #3E413A",
"0 c #5A4327",
"q c #414141",
"w c #474746",
"e c #4D4D4C",
"r c #4C504C",
"t c #514D51",
"y c #515151",
"u c gray34",
"i c #5D5D5D",
"p c #605953",
"a c #5E615D",
"s c gray38",
"d c #676767",
"f c #6F6B6B",
"g c #6C6D6D",
"h c #6C706C",
"j c #726E72",
"k c #717171",
"l c #777777",
"z c gray49",
"x c #7D7F7C",
"c c gray51",
"v c #888887",
"b c #8D8E8E",
"n c #908C8C",
"m c #8E928E",
"M c #938F93",
"N c #929292",
"B c #989898",
"V c #9E9E9D",
"C c #9DA09D",
"Z c #A2A2A2",
"A c #A6A6A4",
"S c #AFAFAF",
"D c #BBBCBC",
"F c #C7C0BF",
"G c #C4C5C4",
"H c #CFCFCE",
"J c #DADED8",
"K c #DFDFDF",
"L c #E2D9D3",
"P c #E9E9E8",
"I c #F1F2F1",
"U c #FCFBF8",
"Y c white",
/* pixels */
"                    U                                                                  ",
"                                                                                       ",
"                                                                                       ",
"                                                                                       ",
"U                                                                                      ",
"                                                                                       ",
"                   i                                                                   ",
"                 cht3<                                                                 ",
"                elga5,&                                                                ",
"           &    3ulgy<,&                                                               ",
"           &&   ,5skdq<>>                                                              ",
"     K     ,&  o$<qlzi4,&>                                                             ",
"    NSSvi   >o#.#>3uvzt3,&$                                                            ",
"   VBSDmdq..>$##o$,4jBkq<>&#                                                           ",
"  zlzVGVkq$o$$o#.#><wMVg4,&#                                                           ",
"  wsdNDAzu$$$o.##.$>4iBVi<>&o                                                          ",
"  4uucSSnd4$#o.o#.o&,5kZNw<>$o                                                         ",
"  <qegVDBgy##ooo#..#><qvSv5,>$$                                                        ",
"  $35aNGBle$ooo.oo..$>3uADk3,&$#                                                       ",
"  #,4yvSAci3$o$oo##.#&<5lFDi3,&$                                                       ",
"  .,3wlADbd5##$#o.#.o$>3eSJSe3,>$                                                      ",
"  .>1qdCGBky##o.oo#.#o$,5dGKBq<>$#                                                     ",
"  #>34uBGZlu<o#oooo$ooo$<qnPDzq<&$#                                                    ",
"  &.,3yvDScu3#ooooo$$o.o$3uHJDjq<$$o                                                   ",
"   .#3wlSDndq#o..ooo#o..o>5gHDAi5,$#o                                                  ",
"   .#<wdAGNfq,#o.#oo$#...$<wNDDvt3>$o                                                  ",
"   #o,5iBGBlt3$o.o#o##...o&3uASDk8,&$o                                                 ",
"   #o>4uzDScu4$o.o#oo#o...#>4kSDVs4<$#o                                                ",
"   $o>3ejSDbdq>#..o#oo#...o$<wbAGcy1&$#.                                               ",
"   &$&3qsZGBkw,$o.o#oo#o...#&3iVDSge,&#o.                                              ",
"    $$<4uvHSly3$o..##oo#....$,5dBDNa4,&#o                                              ",
"    &#,4ezDDva4&#..o$o.#o...o&<qlSFlr2,$#.                                             ",
"    &#,38sSGBgq>$o.o$#.o#....#>3ucDAsw,&$o.    U                                       ",
"    &#><4iCHVke<$o..o$oo#....o$,4dBHvu5<&#o.    U                                      ",
"     &$,3yvGAcu4&o..o$#.o.....#><elSGkr<>$o..                                          ",
"     &$,2wkDDvs5,#o..#$.o#.....$>4ucGVi4<&$o..   I                                     ",
"     &#><5dSHBhq,$o..o$#.o#....o&,qiBGzu4<&#..                                         ",
"     &#&<4uNHZle<&#...$$.o#.....#><wgSSd5<>$o..                                        ",
"     &o&,2ezHScu4,$...#$o.##.....$>4uzHbu4<>#o..                                       ",
"      &$,<qgDDNd5,$o..o$#.o#.....#&<5iZGlw2,$#...                                      ",
"      &#=<4aVHBkw1>#...$$o ##.....#><wdDAs9<>$o...                                     ",
"      &o&,3ybHAcy4,$...o$#.o#o....o$,3ylGzy4,&#o...                                    ",
"      &o$,<wlGDvi4,$o..     ##.....#&,4uVDdq2>$o...                                    ",
"      &o$,,5dSGmd5<&#.. #&o.o$o....o$><qsHNi5,>$o...                                   ",
"      $&$&,4iBJVkw3,$o..o$#oo##.....# >3wzHke3,&#oooo                                  ",
"       &#>,3ecLSct4<$o...$$o o#o.....$&<4tVSsq3,$$##oo                                 ",
"       &o$><qkHDba5,&#...#&$o ##.....o$,<4iSvy4#oooooo.                                ",
"       &o$>,9sAHBfw3>$o..o$$#.o$o....o$$,1qgZ<&53,<<>&$                                ",
"       &o$&,3unKVle3,$o...$&$o $# ....#$><$&3Vgsueq54<>$                               ",
"       o&#&>3elHScu4,&o...o&$o.#&+ ...#$&oo<sBNvzseq54<>$                              ",
"       #&#&>,5fDFns4 >$o..o&$$$<<$  ..o...$5inSAngw5543<,$                             ",
"        &o$&,4sVLBkq<>$o...$<5543>#. ...o#5ukbSDVzyq5543<,#                            ",
"        &o$&,3ucKAlr2,$o...$5q554<&$  ..&4iccnADSNsw55543<&#                           ",
"        &o$$><wkHDvu4 &#o..o q4443,> . $<wgczcBSDZzuq5554<,$                           ",
"        &o#$,<9dAHBd5<>$o...,q5554<,&  &3wdzczvVDDVke55543<>#                          ",
"        .&o$%,3ubJZlw4 $o...$5q5q53<>$.$35ukczzvADSnaw55543,$o                         ",
"         &o$&,<yzJAcu4,&#o..#3q5qq4<,$o$<3wszzzzbADZzu54444<,$o                        ",
"         &o#&>,qkDD5<& ##oo$o, 55q53,>$#><4ygllllbSSBdw44433<>##                       ",
"         &o#$>,5seiqcfkkdwq4$&4q55543,$ $,3qsgkddlVSSviq44444<&o                       ",
"         &.#$&>#3B GABZVBlyw3$,w55553,&oo,1qusddaszVDVdq54433<&o.                      ",
"         .&o#oo9zS IGSSSVvaw $$qqqq54,&#.&<4wissiudcZVs5# ###&.o..                     ",
"         o&o#o1dNDIPJGSAZbktw,#3wq543>&$# ,35ysiuyyugy#######$#$>#                     ",
"          &.o<ykvZHKKHSAABzuw4$$44334,45<o$<4wuiuw4,###e4334qwwwq<                     ",
"          ..&4uakNDKKJDAAVvsew,o<55wyullt$o,35esy4&##4kvksutuauauw<o                   ",
"          .#,5eudcALKJDAAVblue3#5ddz NVZl4X&14eu5 ##>ynABdt845wyyuy5,                  ",
"          .$,5wuslBGKJDACBbciw5&enBADSVBBi&.>4q5$o&<qdzvze3$o#&3<9tsy,                 ",
"          o$<4wyakbFKJDABNnc yq,4VDZDSVBZz<.$<3&.&5wuy3>oo.....oO$,5ue,                ",
"           $<4qyidcSKKFANvvvliw3&zSVZSZNbBy&.>&.#quaq2oo.ooO$$##&...#55>               ",
"           &35qyislZJKGAbvvvz w4&yBABBBNcAv5o...,ss5&..o&,,>,,&&# o..o ,               ",
"           &<4qtuskBGKHAbcczzgu5,<zABvvnbZBl4..>y q#oo.$&,,<3,>&&$oo...#Y              ",
"           &<4qeyadvSKHSBzlczzdw<$sS bvnBBVHl4.4s5,ooo#&><<<3,> $$#o....$Y             ",
"           ><35wyuszAJJDbgdaiuue4#4NSSVASGFIlq#qe<o..#$$&<<<3<,&&$$#.....YY            ",
"            ,<5wtuikBDHBdq4,oo#>&o#gBSGFYHSs $, >o...$$$&,<<1<,&$$$$.....YYY           ",
"            ,<4wwyigzvz3o... o&o#..qkVHGSl& $$> .....o$$$&,<<1,&$$#$oo...<YYY          ",
"            ,,4qweiiu<.o#qqyik uy5q>yVNl $&&&$$$.....o#$$&><<<,&##  #o...3YYYY         ",
"            >>3qeet>o.,vvzllzzzzzkiw ii $ >&$$&&oo.. O##$&>,,<<&# #$oo...<YYYYY        ",
"            ,&3qw4...sADZvlsi yyuuyw>,$>>>&&$o3q#....o##o$& ><33$ oooo....YYYYYY       ",
"            ,&,q$..#dBAvki<$oo..o$wq,>>&, &$<sldq#...oo##o#$&ew5&#oooo....YYYYYY       ",
"             $&>..$dclsq,o..o4....o##&>>>,eSIciwq5.....##oo#esuq,#ooooo...YYYYYYY      ",
"             #...,lzd5$....$o5 ......&><4GGPDw# 5i4.###$>,,<esyq$##o......YYYYYYY      ",
"              ...gvg<..##$oo,io ....o, lckut ..oqlu$#$,3444quuq>o#$$......YYYYYYYY     ",
"              o.kzlq..$&<3o>b&$#o...$,de3 ...>ddekg4>34555qwww33<qq5$o...oYYYYYYYY   Y ",
"               wkzd+.&,334<u,&$$oo...$y<...5cKDd44ye, 4555q9wqqqqqwqqw#..>YYYYYYYY     ",
"               izk5.$,344433,>$$#o ..$5q&wNGKvy,..qy4,4q9qqqqwetyewuuuie> YYYYYYYY     ",
"              5wli.o><344443<>$$$o  . >kezlay>...,ski,4qqqqqqweeettuuissssYYYYYYYY     ",
"              3iz,.$,<345543<>$$$o  .o&zd<&  .otvswdl<3wjzdvcvBVZzvsgddsddYYYYYYYY     ",
"              <hg.o&,<<34544<> $$oo .$$y o..>lGBq..5dy3eydgfvzcAZSSSVBzkdddYYYYYYY     ",
"              ,y$.o$>,<33454<> $$+#,q3$&iq4vGn3...&tkc4><,O%@X=@> wfZDVZvgdYYYYYY      ",
"              >,o..$&,<<34541,  $$$quq&#uvzs&..o bkicBqX.XX..X.X..XX>8ydBzdgYYYYY      ",
"              >$o..O$>,<34443,$ &<qtut<$3z,..$gHJSi<5gi$.X.XX +@@@X..O.=yckgYYYY       ",
"               ....O$&>,<33554$$,teyyie>.sa>dzPSk4#.#yl, O@@++*-:-@@--@O.wszYYYY       ",
"                .#..O$&>,<qdq3&&euyyudkq. Cvnaw<...&evj1X@**@O*;:; @;;;*@X=tlYY        ",
"                .$..O#$&&>ucy4<&eeyugvVi##kNq#...<sau8w;*@@*@X@-:;*O*;****@#5Y         ",
"                ,$$.X$$$$,avu5e<weufNDHp&.4g3oo5cNi,.O**-*@@@X@*;;*O@;*@@--*@@         ",
"                 .&..#$$$&ezliq3eydmHSl1Oo&dzglnp8XXX.X@*-@*@O+*--*+@;;@@---*,         ",
"                 #$#.o#$$#<ulu4wtsbJAi%XXXowNcd5OX....XO-;***@X@-;-@X-6*@*--*5         ",
"                  .$..o$&#o<uwwydcKSt#.X@@O=w8,...XOX..O=:-**@X+-;;@X*:*@@-;**         ",
"                  f>>..#$o.<yyuazKHu#.X@**+@-6 ..X$,>$.X@;;***XO-;;@O@;:@X*-=*Y        ",
"                   &$o.ooo$tusagDKuX.XO@-*#+ 76O.+,4<<#.X=:---OX@;:*@O-7*.*--*$Y       ",
"                    .$o#.o4yuddVPf$.@+X@**@ @60@.&3q54&..*6;-*@X+-:- X*6-  --*$Y    U  ",
"                     o&&>ouiddcIb,X*-@X@*** @ 0-.&ehg9&..@;;-**OX*:;*O@;;@X*;*@=    UU ",
"                       ..&idsdFP8X@--@XX*-**@*06@#evc5$..X=7---O.@;:-@ *7*.@;*$@Y      ",
"                         iddizUjX@-;-*XX@-*=*@:0=.,tq>X..X@6;-*@.O*;:*X@7-XO*-*@Y      ",
"                         dddgZZ,.@*-;*OX@---*@=06@.#o .X..O-:--*O.@-6-@O:; X@-*@*      ",
"                          gsnSiX+*+*;-@X@=--*@*60-....XX...@:;-*@.O*-:*O*6@XO-**@      ",
"                          dgAS:+**@@::@XX*-;- @-06X..X X...X;6-*@X.@-6- O6*OX*-*@YP    ",
"                          dzAc@@=*O+;:*OX@-;-*@*80*... ...oX*;--*O.O*-:*O;-@OO-=@*     ",
"                          gzFe.*-*XX;6-@.@*;;=@*;0 .....o##o+;:;*@XX@*6;* 6@ X*=*@Y    ",
"                          jlA4X@**@X*66*XX* ;-*@=00@...+$#o.X=7--*@.O*:6-@:*+X@** Y    ",
"                           jv%@O*-*O@;7*OX@--- @ 60;.o$##X.XX*6--*@@X*;7: *6@OO*=@tYU  ",
"                           kl=XO@--OX=7;@.O*-- * =07@o# XXX#o+-6--*@ @*76* 6@ O@-*&Y   ",
"                            t$@OO*-@X@;6*XX*----@*60&...o#$##o*0;--*XX*:6*O-*+X ***YY  ",
"                            @X##O$-*OX-7-OX@*-- **-0 X.+#$#+XX$66--** @-6 O@6@OO*-@,Y  ",
"                            %OO@O@*-@.*66@XX*---- =66%.$#++#O.O-6;-**OO*6:@ ;*O@ -$@YY ",
"                             OX@OO*-@.@66*OX@  *--*;0 oX##$#o..*6;--*@X*;7@X ; O+=**4Y ",
"                             OO#@O@**XO*6-+XO***---- :$o#+OOOoo ;:;-**OO*6*O@;*XO@-@$YU",
"                             ++X@#O**@X*6;@XX@***--=60-oXXO@##.X;66-**@X*;6@@--X@O-** U",
"                              O##@O@-*X@-6*OXO***--*;0;XXo##OXoO;06-***X@-7*X*;@O+*=$  ",
"                              O&o@@O*=+X-;;@XX@-**-*=66*o##OOO#$;06--**@X*6-O@;*XO@-** ",
"                               IU                                                      ",
"                                                                                       ",
"                                                                                       ",
"                                                                                       ",
"                                                                                       ",
"                                                                                       ",
"                                                                                       ",
"                                                                                       ",
"                                                                      UUU              ",
"                                                                   U U U               "
};
