/* XPM */
static char *_285c4c7d7154603b069d43feeda2726_37[] = {
/* columns rows colors chars-per-pixel */
"146 82 58 1 ",
"  c None",
". c #050404",
"X c #0F0A07",
"o c #0C0C0C",
"O c #100C0C",
"+ c #0F100B",
"@ c #1A120B",
"# c #101010",
"$ c #161616",
"% c #1F1E19",
"& c gray11",
"* c #251B0F",
"= c #231E1C",
"- c #332614",
"; c #3B2B1C",
": c #3B301D",
"> c #202020",
", c #262525",
"< c #2F302C",
"1 c #48341D",
"2 c #543D1C",
"3 c #5A4327",
"4 c #694623",
"5 c #764F2A",
"6 c #58514B",
"7 c #78716B",
"8 c #8A5A33",
"9 c #825C3D",
"0 c #996138",
"q c #A2693C",
"w c #AA6D41",
"e c #AF6D42",
"r c #AC7244",
"t c #B27145",
"y c #BB7444",
"u c #B57548",
"i c #BA7549",
"p c #B5794D",
"a c #BE7949",
"s c #BD7D51",
"d c #CA7D4D",
"f c #C68252",
"g c #CF8251",
"h c #D38350",
"j c #D78A59",
"k c #DB8E5D",
"l c #DF9261",
"z c #E79A69",
"x c #AFAFAF",
"c c #C7C0BF",
"v c #CFCFCE",
"b c #E2D9D3",
"n c #E9E9E8",
"m c #F4ECE8",
"M c #FEF7E9",
"N c #F1F2F1",
"B c #FCFBF8",
"V c white",
/* pixels */
"                                                                                                                 VVVVVVVVV                        ",
"                                                                                                               VVVVVVVVVVVVVVVVVVVVV              ",
"                                                                                                             VVVVVVVVVVVVVVVVVVVVVVVVV            ",
"                                                                                                             VVVVVVVVVVVVVVVVVVVVVVVVV            ",
"                                                                                                          VVVVVVVVVVVVVVVVVVVVVVVVVVVVV           ",
"                                                                                                      VVVVVVVVVVVVVVVVVVVVVVVVVVVVVVVVVV          ",
"                                                                                                    VVVVVVVVVVVVVVVVVVVVVVVVVVVVVVVVVVVVV         ",
"                                                                                                   VVVVVVVVVVVVVVVVVVVVVVVVVVVVVVVVVVVVVVVV       ",
"                                                                                                 VVVVVVVVVVVVVVVVVVVVVVVVVVVVVVVVVVVVVVVVVVV      ",
"                                                                                                VVVVVVVVVVVVVVVVVVVVVVVVVVVVVVVVVVVVVVVVVVVVVV    ",
"                                                                                               VVVVVVVVVVVVVVVVVVVVVVVVVVVVVVVVVVVVVVVVVVVVVVV    ",
"                                                                                              VVVVVVVVVVVVVVVVVVVVVVVVVVVVVVVVVVVVVVVVVVVVVVVV    ",
"                                                                                             VVVVVVVVVVVVVVVVVVVVVVVVVVVVVVVVVVVVVVVVVVVVVVVVVV   ",
"                                                                                            VVVVVVVVVVVVVVVVVVVVVVVVVVVVVVVVVVVVVVVVVVVVVVVVVVVVV ",
"                                                                                           VVVVVVVVVVVVVVVVVVVVVVVVVVVVVVVVVVVVVVVVVVVVVVVVVVVVVV ",
"                                                                                          VVVVVVVVVVVVVVVVVVVVVVVVVVVVVVVVVVVVVVVVVVVVVVVVVVVVVVV ",
"                                                                                         VVVVVVVVBNNNN0335VVVVVVVVVVVVVVVVVVVVVVVVVVVVVVVVVVVVVVVV",
"                                                                                       VVVVVVVVBNmbvw5955218q0q0qtbMVVVVVVVVVVVVVVVVVVVVVVVVVVVVVV",
"                                                                                      VVVVVVVBBmb8558qw 953120 ww 0yvMVVVVVVVVVVVVVVVVVVVVVVVVVVVV",
"                                                                                     VVVVVVVVNm8835qwtuw0851:2 0wtwqwwVVVVVVVVVVVVVVVVVVVVVVVVVVV ",
"                                                                                    VVVVVVMmbt88358etu 00092:1   00qqraVVVVVVVVVVVVVVVVVVVVVVVVV  ",
"                                                                                  VVVVBmbctw9 01  qte 000091;-2 2888q0waVVVVVVVVVVVVVVVVVVVVVV    ",
"                                                                               VVVVVmcswtq808318wwrw q088851*-- 2288880raVVVVVVVVVVVVVVVVVVV      ",
"                                                                             VVVVVV0 qqwwqq0215qtqw q0988832----:138850wisiVVVVVVVVVVVVVVVVVV     ",
"                                                                            VVVVV000wutqq842: 0tua 000009442-:- --248880uidiVVVVVVVVVVVVVVVVVV    ",
"                                                                          VVVVVVq9qufsw0851:1 qaaa q0889335:--- :--11588ttadiBVVVVVVVVVVVVVVVV    ",
"                                                                        VVVVVVV90 affw854111 quaaaaa0585455--*:--:--:;158uwadgVVV VVVVVVVVVVVVV   ",
"                                                                       VVVVVVV5quaspq5541:: qttatttdtq08092-----:*:-:-:448wwaaVVV  VVVVVVVVVVVV   ",
"                                                                       VVVVVV30awpu05432;-50tuiuataaatt083-%*#  -*-*-@-3458qqaaVVV  VVVVVVVVVVVV  ",
"                                                                      VVVVVV4wuuuq055421-580  aitttaaw0541%-*#$&@*@-@--:35980tiamV   VVVVVVVVVVV  ",
"                                                                     VVVVVV4tupw8854431-588 aaauiwwwwq852*---:-@$@o$ *--:4428wrttVV   VVVVVVVVVV  ",
"                                                                    VVVVVV5wru0985432:-380taatttatwq0052;=::11232-@o@o :-12125qw0VVV   VVVVVVVVV  ",
"                                                                   VVVVVV4tqq 895232--580 ttaataauq0842;*& :11233441@$$#--2-144055VV   VVVVVVVVV  ",
"                                                                  VVVVV54aw08854332-:280 ttttttttw0831;*$*&--343335531@@$&-111:223VVV   VVVVVVV   ",
"                                                                 VVVVV13wt08854331-: 58qutqwqeq00q842:*$&&&-,--33335542--& *--@ :5VVVV  VVVVVVV   ",
"                                                                VVVVV34 w8885543:-22 q0rfq0q088888421-$O$oo&&$$-133455431:$@*&&@,VVVVVV  VVVVVV   ",
"                                                               VVVVV250q8888444:-335qqwsfgur45585321;*&$....  $#--23485543@$$&@-VVVVVVV           ",
"                                                             VVVVV525w00883344::558qqqtu  fa5244421-=&-$@@@ ...o@-:22348431,,3VVVVVVVVVV          ",
"                                                            VVV22315 00893 43:;3500  afkhjgsr4111:;==*-& $@@@@X.@@ 122233432   VVVVVVVVV          ",
"                                                           VV323430sq8594322--33808wasllllfiu03,=-=-*,*---*@@$@@.@@1 ::221313  VVVVVVVVV          ",
"                                                       VVVVV223435fs085322:-13880qwtalllzjsiw83-=%%--@ -1::;-**,@o+---:::11338 VVVVVVVVV          ",
"                                                     VVVVV333454ufr085 41--23880staglllljjfuw5:-=&*&@*  :111223xv&..$---- 2553 VVVVVVVVV          ",
"                                                     VVVB533348sf  05531-*-888qqhj llzllhfsr93;%$*&o$@&$@-1:1222NV&..o@*- 35835 VVVVVVVV          ",
"                                                    VVVB535458pjr84533--$28800sh jllzlkkgfqq53;%@$ooo$o$ &--:1312VV&oo$-2123853 VVVVVVVV          ",
"                                                    VVV448558tg q583:*+*4888qafjgkzzljkjds4931-*@oo...o$$ @&&-2225VV,o.&11 34833 VVVVVVV          ",
"                                                   VVV235880rkt0522--+*5880waajjklzljkkdtq352;%$$o.O++oo$$$@&&-221VVV,o&  1 4852 VVVVVV           ",
"                                                   VV:3558 wrw0823--**38w0wadfjklzzlkkhtw841;%&#++++ +@+.oo$&@**112VVV&$$ 134552   VVV            ",
"                                                  VV-2588qa80882-**1=148qtaddjkl lljkgtwq41;;&+##++@+@@@@Ooo,$@-:113VVV #@:22241                  ",
"                                             VVV VV:1480qw008831--43140qataddk zllkkfq8q82-@&$o$@@@+++@@@@+oo$&&@232VVV,o$-122-,                  ",
"                                            VVVVVV2:40rtq08852:--50438qataddj zllg aw03551*$oOoVVVBV    <@@@o$,$$:222VVV  $11-                    ",
"                                            VVVVV3248wqw088332-158023wtaadjk zllg ttq0323-@$oX@VVVV       $@@$$&#::211VVn$&&@--V                  ",
"                                            VVVV- 38wqwq853:-*1500040aaadgj llljuttq8841:-@ooO@*<7V        ,$@@&@-12112VVn,&o-@V                  ",
"                                            VVV-250q wq 51-;*-58q000wtaag lllkkswwq0852--@ o.$*@@*@=:       ,>*$#-:3222VVVVVVVVV                  ",
"                                            V--:490uw085--1:-88000w0wtadgglkkkfa q044541- *oo#******-,        1oo--33323VVVVVVVVV                 ",
"                                           V- 35q4qq0841: 3158000qt8wdggghkkjjawq008  1-* o. **-------&        +o$123333VVVVVVVVV                 ",
"                                        VVV-1445 0808322554580qqqww0w jjghkjjgaq000 43-o*+. # ------:--,,      $o$123223VVVVVVVVV                 ",
"                                       11--:3140wqq84 3808 08wtttaaqwgggggjkjaw0088412-@@@.o&,,&&@-:::11-&     -,o-23123VVVVVVVVV                 ",
"                                     N: -* -:80qwq0523 qw0qaaaaadggjiggggfsgsq 088 2-@@ *o $$&,&&@&-::111:-    ;$o--2333 VVVVVVV                  ",
"                                   VV132-1  50qqww05280qaw aaadgkkjg dggdgjtw00084 - *-     $$$$&*@&*-:1111:&   &o-*1231 VVVVVVV                  ",
"                                 VVVB288881 10tq0q00qrwtaiwddjklkkhgsagddsw00 08512-:- *$$o$$o.oooo$@*-112:1,3  ,$@--,::  VVVV                    ",
"                                VVVV118080 ::8tt8q0wqwtadgwggkllzzkjjiddat8880883:---@-&o$$$$$$.oooo$#*-:22222   $&@&,--                          ",
"                              VVVVV:1 8qqq08:2waqwwq0wadgjsfklzzzzjjgudga080888511@ -@$2&,,21,&,&&o,oo-@-123233  $,$$,&                           ",
"                             VVVVVV:1;2 w  q  8ttwttaggjjjjklzzzzljjdagaa0088881  *@@$2V         $&&$o#*@::1--2    21-                            ",
"                           VVVVVVV1385-3qw0wq55qatwfhgjjkl fzzzzlgjgaaata888085- --$$ VV          &&$$$$@*-#-*2                                   ",
"                          VVVB2-V68q003-5tqqwq58dashjjkllkjkzzlkgddaataaq858842  :-$ V             o$o$$$@o$$@=                                   ",
"                         VVVM:23-4 w0q5-:8wqtw08sjfjkkllllzzzljjddat0tdw0350311-:&# V               $oo$$$o$$:-                                   ",
"                        VVVV45q0-0wwqq8:@2wqttqqsjshjklzzzzzlggdaaaatqa001152-1-@ $                  $$$@ooo-21:                                  ",
"                      VVVVVV549883wrqwq3-:8rwtqwsfghklllzzklfaaaaaattq8081:21 :@@$&                   &$$$$--21-                                  ",
"                    VVVVVVVV*2qft1 w tt82-1wpwwupahhkkllzjsfttattttqq31081-1  -*.o                     3,&*--21-                                  ",
"                   VVVVVVVVV@:8qgt10iiat81:5wwasffgjlllljfwtwwt qtq852-88 @@ *@oo                       &&--:3:=:                                 ",
"                 VVVVVVVVVV-*-89w 315taaq41:8tffffgjlkkjhftwq00q8we52  35  oo@$.$                       &$*-:3:=1                                 ",
"             VVVVVVVVVVV1--$*-398aw1-8auu82-3qf fsgkkgfffpwq8q8858q81 + 1@o..-..                        ,$-#-31=&                                 ",
"             VVVVVVVVVV-;;;=*-;24tj5:2qffw51:5shssjkgfssftw0888234q0:-+--$$....o                        ,o$@-:;=&                                 ",
"            VVVVVVVVV---,:-12*-*18aa3-5dktw3-2qgpflkfutwqqq85804-2082-+-$$oo..&                          $$&&-@&                                  ",
"          VVVVVVVVVB-*11***--1**@:wk812rlfw5:-5rsglkiwqqw0854585@-881 @ o.ooo,                           $$&-&$$                                  ",
"        VVVVVVVVVB----;:-*;-;4--@@5gs4-5jku54-28 flfw00080533884@*552@*o.o$                               $$2-                                    ",
"      VVVVVVVVVV ---*2423185-24;-X-0h012ulfq9--4rtspw08828532553-@133*@..                                                                         ",
"     VVVVVVVVVn-*-32-124;3 q41;1;X@1ii5;5kku8:-10uiawq8514421231@ 1@$o.o                                                                          ",
"     VVVVVVVV1--114550500w 381-1;*o*9 r11flf05--3wrrtw84::52::22--@o..oo                                                                          ",
"   VVVVVVVVv:--1255pp8qqugws44115-@@3us8-8lkrq2*;qqwtw852-21- :1- $oo$&o                                                                          ",
"  VVVVVVVV;;;-;132wrsusrt 8r84413;-@@9fw-1gliw8--9qwwr842 -: +----@o$$                                                                            ",
"VVVVVVVVV-;--;18udquqpgqww55883211-*@:ua-*8jg w1@30qwq842- :-  **#o$,                                                                             "
};
