/* XPM */
static char *_285c4c7d7154603b069d43feeda2726_2[] = {
/* columns rows colors chars-per-pixel */
"109 123 74 1 ",
"  c None",
". c #050404",
"X c #0F0A07",
"o c #0C0C0C",
"O c #100C0C",
"+ c #0F100B",
"@ c #1A120B",
"# c #101010",
"$ c #161616",
"% c #1F1E19",
"& c gray11",
"* c #251B0F",
"= c #231E1C",
"- c #332614",
"; c #3B2B1C",
": c #3B301D",
"> c #202020",
", c #262525",
"< c #2C2C2C",
"1 c #322D2F",
"2 c #2F302C",
"3 c gray19",
"4 c #373636",
"5 c #3C3C3C",
"6 c #48341D",
"7 c #543D1C",
"8 c #433E3D",
"9 c #3E413A",
"0 c #5A4327",
"q c #694623",
"w c #764F2A",
"e c #414141",
"r c #474746",
"t c #4D4D4C",
"y c #4C504C",
"u c #58514B",
"i c #514D51",
"p c #515151",
"a c gray34",
"s c #5D5D5D",
"d c #5E615D",
"f c gray38",
"g c #676767",
"h c #6F6B6B",
"j c #6C6D6D",
"k c #6C706C",
"l c #726E72",
"z c #717171",
"x c #777777",
"c c gray49",
"v c #7D7F7C",
"b c #8A5A33",
"n c #825C3D",
"m c gray51",
"M c #888887",
"N c #8D8E8E",
"B c #908C8C",
"V c #929292",
"C c #989898",
"Z c #9E9E9D",
"A c #A2A2A2",
"S c #A6A6A4",
"D c #AFAFAF",
"F c #BBBCBC",
"G c #C7C0BF",
"H c #C4C5C4",
"J c #CFCFCE",
"K c #DADED8",
"L c #DFDFDF",
"P c #E2D9D3",
"I c #E9E9E8",
"U c #F1F2F1",
"Y c #FCFBF8",
"T c white",
/* pixels */
"TTTTTTTTTTTTTTTTTTTTTTTTTTTTTTTTTTTTTTTTTTTTTTTTTTTTTTTTTTTTTTTTTTTTTTTTTTTTTTTTTTTTTTTTTTTTTTTTTTTTTT       ",
"TTTTTTTTTTTTTTTTTTTTTTTTTTTTTTTTTTTTTTTTTTTTTTTTTTTTTTTTTTTTTTTTTTTTTTTTTTTTTTTTTTTTTTTTTTTTTTTTTTTTTT       ",
"TTTTTTTTTTTTTTTTTTTTTTTTTTTTTTTTTTTTTTTTTTTTTTTTTTTTTTTTTTTTTTTTTTTTTTTTTTTTTTTTTTTTTTTTTTTTTTTTTTTTTT       ",
"TTTTTTTTTTTTTTTTTTTTTTTTTTTTTTTTTTTTTTTTTTTTTTTTTTTTTTTTTTTTTTTTTTTTTTTTTTTTTTTTTTTTTTTTTTTTTTTTTTTTTT       ",
"TTTTTTTTTTTTTTTTTTTTTTTTTTTTTTTTTTTTTTTTTTTTTTTTTTTTTTTTTTTTTTTTTTTTTTTTTTTTTTTTTTTTTTTTTTTTTTTTTTTTTT       ",
"TTTTTTTTTTTTTTTTTTTTTTTTTTTTTTTTTTTTTTTTTTTTTTTTTTTTTTTTTTTTTTTTTTTTTTTTTTTTTTTTTTTTTTTTTTTTTTTTTTTTTT       ",
"TTTTTTTTTTTTTTTTTTTTTTTTTTTTTTTTTTTTTTTTTTTTTTTTTTTTTTTTTTTTTTTTTTTTTTTTTTTTTTTTTTTTTTTTTTTTTTTTTTTTTT       ",
"TTTTTTTTTTTTTTTTTTTTTTTTTTTTTTTTTTTTTTTTTTTTTTTTTTTTTTTTTTTTTTTTTTTTTTTTTTTTTTTTTTTTTTTTTTTTTTTTTTTTTT       ",
"TTTTTTTTTTTTTTTTTTTTTTTTTTTTTTTTTTTTTTTTTTTTTTTTTTTTTTTTTTTTTTTTTTTTTTTTTTTTTTTTTTTTTTTTTTTTTTTTTTTTTT       ",
"TTTTTTTTTTTTTTTTTTTTTTTTTTTTTTTTTTTTTTTTTTTTTTTTTTTTTTTTTTTTTTTTTTTTTTTTTTTTTTTTTTTTTTTTTTTTTTTTTTTTTT       ",
"TTTTTTTTTTTTTTTTTTTTTTTTTTTTTTTTTTTTTTTTTTTTTTTTTTTTTTTTTTTTTTTTTTTTTTTTTTTTTTTTTTTTTTTTTTTTTTTTTTTTTT       ",
"TTTTTTTTTTTTTTTTTTTTTTTTTTTTTTTTTTTTTTTTTTTTTTTTTTTTTTTTTTTTTTTTTTTTTTTTTTTTTTTTTTTTTTTTTTTTTTTTTTTTTT       ",
"TTTTTTTTTTTTTTTTTTTTTTTTTTTTTTTTTTTTTTTTTTTTTTTTTTTTTTTTTTTTTTTTTTTTTTTTTTTTTTTTTTTTTTTTTTTTTTTTTTTTTT       ",
"TTTTTTTTTTTTTTTTTTTTTTTTTTTTTTTTTTTTTTTTTTTTTTTTTTTTTTTTTTTTTTTTTTTTTTTTTTTTTTTTTTTTTTTTTTTTTTTTTTTTTT       ",
"TTTTTTTTTTTTTTTTTTTTTTTTTTTTTTTTTTTTTTTTTTTTTTTTTTTTTTTTTTTTTTTTTTTTTTTTTTTTTTTTTTTTTTTTTTTTTTTTTTTTTT       ",
"TTTTTTTTTTTTTTTTTTTTTTTTTTTTTTTTTTTTTTTTTTTTTTTTTTTTTTTTTTTTTTTTTTTTTTTTTTTTTTTTTTTTTTTTTTTTTTTTTTTTTT       ",
"TTTTTTTTTTTTTTTTTTTTTTTTTTTTTTTTTTTTTTTTTTTTTTTTTTTTTTTTTTTTTTTTTTTTTTTTTTTTTTTTTTTTTTTTTTTTTTTTTTTTTT       ",
"TTTTTTTTTTTTTTTTTTTTTTTTTTTTTTTTTTTTTTTTTTTTTTTTTTTTTTTTTTTTTTTTTTTTTTTTTTTTTTTTTTTTTTTTTTTTTTTTTTTTTT       ",
"TTTTTTTTTTTTTTTTTTTTTTTTTTTTTTTTTTTTTTTTTTTTTTTTTTTTTTTTTTTTTTTTTTTTTTTTTTTTTTTTTTTTTTTTTTTTTTTTTTTTTT       ",
"TTTTTTTTTTTTTTTTTTTTTTTTTTTTTTTTTTTTTTTTTTTTTTTTTTTTTTTTTTTTTTTTTTTTTTTTTTTTTTTTTTTTTTTTTTTTTTTTTTTTTT       ",
"TTTTTTTTTTTTTTTTTTTTTTTTTTTTTTTTTTTTTTTTTTTYTTTTTTTTTTTTTTTTTTTTTTTTTTTTTTTTTTTTTTTTTTTTTTTTTTTTTTTTTT       ",
"TTTTTTTTTTTTTTTTTTTTTTTTTTTTTTTTTTTTTTTTTTTU#TTTTTTTTTTTTTTTTTTTTTTTTTTTTTTTTTTTTTTTTTTTTTTTTTTTTTTTTT       ",
"TTTTTTTTTTTTTTTTTTTTTTTTTTTTTTTTT>tSMfTTTTT&o3TTTTTmDCg3TTTTTTTTTTTTTTTTTTTTTTTTTTTTTTTTTTTTTTTTTTTTTT       ",
"TTTTTTTTTTTTTTTTTTTTTTTTTTTTYTTTo&jDCjpeTTT$o4TTT,3tVFBa<TTTTTTTTTTTTTTTTTTTTTTTTTTTTTTTTTTTTTTTTTTTTT       ",
"TTTTTTTTTTTTTTTTTTTTTTTTTTTTTLTT.,pADcse<zT<o5TT&><4aAGMa,.TTTTTTTTTTTTTTTTTTTTTTTTTTTTTTTTTTTTTTTTTTT       ",
"TTTTTTTTTTTTTTTTTTTTTTTTTTTTTTT.o,5cFVgt4,#..o..#$><5sDFcp,.TTTTTTTTTTTTTTTTTTTTTTTTTTTTTTTTTTTTTTTTTT       ",
"TTTTTTTTTTTTTTTTTTTTTTTTTTTTTTT..><sDDcae3&o.#o..$$><5jFDxr>.TTTTTTTTTTTTTTTTTTTTTTTTTTTTTTTTTTTTTTTTT       ",
"TTTTTTTTTTTTTTTTTTTTTTTTTTTTTTT#.$,ecFCgr4,#ooo...#&,<5zHDje&oTTTTTTTTTTTTTTTTTTTTTTTTTTTTTTTTTTTTTTTT       ",
"TTTTTTTTTTTTTTTTTTTTTTTTTTTTTTT<.$>3aDDmae<$ooo....$&,3ecFZs4$.TTTTTTTTTTTTTTTTTTTTTTTTTTTTTTTTTTTTTTT       ",
"TTTTTTTTTTTTTTTTTTTTTTTTTTTTTTTT.o&<ecFAzt4&oo.o....$&,4tVGMt<$oTTTTTTTTTTTTTTTTTTTTTTTTTTTTTTTTTTTTTT       ",
"TTTTTTTTTTTTTTTTTTTTTTTTTTTTTTTT..$,3iCFVse<#ooo.....$><4aCDcr,&$TTTTTTTTTTTTTTTTTTTTTTTTTTTTTTTTTTTTT       ",
"TTTTTTTTTTTTTTTTTTTTTTTTTTTTTTTT$.#&<5fDDxt4&oooo....o$,15sCDxe,,#TTTTTTTTTTTTTTTTTTTTTTTTTTTTTTTTTTTT       ",
"TTTTTTTTTTTTTTTTTTTTTTTTTTTTTTTTT..$,3rMHCae<$oooo....o&,35sADce,$$UTTTTTTTTTTTTTTTTTTTTTTTTTTTTTTTTTT       ",
"TTTTTTTTTTTTTTTTTTTTTTTTTTTTTTTTT..$><4sFFzt4,#oooo....o$,15gSFx4$#$TTTTTTTTTTTTTTTTTTTTTTTTTTTTTTTTTT       ",
"TTTTTTTTTTTTTTTTTTTTTTTTTTTTTTTTT..o&,3tNHMae3&oo.#o....O&><5zDDz5#$&TTTTTTTTTTTTTTTTTTTTTTTTTTTTTTTTT       ",
"TTTTTTTTTTTTTTTTTTTTTTTTTTTTTTTTTT..$><5gFDjr4<$ooo$o....#&><ejDDz5$&>TTTTTTTTTTTTTTTTTTTTTTTTTTTTTTTT       ",
"TTTTTTTTTTTTTTTTTTTTTTTTTTTTTTTTTTo.#&,3iZJMpe4>#oo#$.....$&,3ezFDz4$,&TTTTTTTTTTTTTTTTTTTTTTTTTTTTTTT       ",
"TTTTTTTTTTTTTTTTTTTTTTTTTTTTTTTTTT4.o$><exJSgr5<$ooo$$....o$&,3rcHDf3,>&TTTTTTTTTTTTTTTTTTTTTTTTTTTTTT       ",
"TTTTTTTTTTTTTTTTTTTTTTTTTTTTTTTTTTT#.o&,4sDHcie3,#.o#$#....o$><4tmFZs<$&$TTTTTTTTTTTTTTTTTTTTTTTTTTTTT       ",
"TTTTTTTTTTTTTTTTTTTTTTTTTTTTTTTTTTT$.o$,3rMKAdr5<&ooo$$o....#$><5tMFCa,$$&YTTTTTTTTTTTTTTTTTTTTTTTTTTT       ",
"TTTTTTTTTTTTTTTTTTTTTTTTTTTTTTTTTTT3o.#><4gHHcpe3,$.oo$$.....$$><4pNHCi,$&$YTTTTTTTTTTTTTTTTTTTTTTTTTT       ",
"TTTTTTTTTTTTTTTTTTTTTTTTTTTTTTTTTTTT$.o&,3tCKCsr4<&o.o#&#.....#&,35aVHMr,#o.TTTTTTTTTTTTTTTTTTTTTTTTTT       ",
"TTTTTTTTTTTTTTTTTTTTTTTTTTTTTTTTTTTT>..$><5zJFzt53,$.oo$&o.....$&,35sZFz5&#ooTTTTTTTTTTTTTTTTTTTTTTTTT       ",
"TTTTTTTTTTTTTTTTTTTTTTTTTTTTTTTTTTTT&..$><4aDLMpe4<&o.o$&$......$><4egSFf3$#o.TTTTTTTTTTTTTTTTTTTTTTTT       ",
"TTTTTTTTTTTTTTTTTTTTTTTTTTTTTTTTTTTT,..#&,3emKSfr53,$.oo$&o......$><4tkSZa<$#ooTTTTTTTTTTTTTTTTTTTTTTT       ",
"TTTTTTTTTTTTTTTTTTTTTTTTTTTTTTTTTTTTT..o$><4sDHxte4<&o.o#$$o.....o$,35yzANi3&oooTTTTTTTTTTTTTTTTTTTTTT       ",
"TTTTTTTTTTTTTTTTTTTTTTTTTTTTTTTTTTTTTo..$&,3rmKVse53,$ooo#&$......o&,35ixSNp3$o#.TTTTTTTTTTTTTTTTTTTTT       ",
"TTTTTTTTTTTTTTTTTTTTTTTTTTTTTTTTTTTTT>..#$><4fDDzte4<&#.oo$&o......o&,35aMSMt<$#o.TTTTTTTTTTTTTTTTTTTT       ",
"TTTTTTTTTTTTTTTTTTTTTTTTTTTTTTTTTTTTT3..o$>,3tMFmar43,$ooo$&$.......#&,3edVDcr<$oooTTTTTTTTTTTTTTTTTTT       ",
"TTTTTTTTTTTTTTTTTTTTTTTTTTTTTTTTTTTTTT..o$&,<5fDCfi53<>$ooo$&o.......#&<4rgZZzt3$#o#TTTTTTTTTTTTTTTTTT       ",
"TTTTTTTTTTTTTTTTTTTTTTTTTTTTTTTTTTTTTT$..#$><4tNSzee4<,&$oo$>$.o..o...$&<4rzDVr,$oo..TTTTTTTTTTTTTTTTT       ",
"TTTTTTTTTTTTTTTTTTTTTTTTTTTTTTTTTTTTTT,..o$&,3eas<$$#oo$$o#,ee5553>#...$&,15,$###o&&..TTTTTTTTTTTTTTTT       ",
"TTTTTTTTTTTTTTTTTTTTTTTTTTTTTTTTTTTTTTT..o#$>3<$#$#o##o..o.$4reee53,o..o$$###2CBxa4<,o.TTTTTTTTTTTTTTT       ",
"TTTTTTTTTTTTTTTTTTTTTTTTTTTTTTTTTTTTTTTo.o#$>,>#$<sSMgr4>o.o,are554,>o...o+#<sZADmzt,,.#TTTTTTTTTTTTTT       ",
"TTTTTTTTTTTTTTTTTTTTTTTTTTTTTTTTTTTTTTT<..o$$$$#yCSUIScgp<$oorpreee4,&..o+$5rijcSFDNt3<o#TTTTTTTTTTTTT       ",
"TTTTTTTTTTTTTTTTTTTTTTTTTTTTTTTTTTTTTTTT..o##+$rzZDKYHCxgr<$o&spree53,#o#$<5epscAFJJCgr<o#TTTTTTTTTTTT       ",
"TTTTTTTTTTTTTTTTTTTTTTTTTTTTTTTTTTTTTTTT....o,rajNASYIScja3>$oefteeee3,$+>3eepdfMCFKLSgr3o$TTTTTTTTTTT       ",
"TTTTTTTTTTTTTTTTTTTTTTTTTTTTTTTTTTTTTTTT$..o,rpagcVZJYFVxgt3$o$sarrrre<&#<&&35ypsjCGIHCfr<o,TTTTTTTTTT       ",
"TTTTTTTTTTTTTTTTTTTTTTTTTTTTTTTTTTTTTTTT>.o&3eragzMVAUISMmzp4$o4fprr3rfagzccxa15psjNHJFMfe<#eTTTTTTTTT       ",
"TTTTTTTTTTTTTTTTTTTTTTTTTTTTTTTTTTTTTTTTT..&,3eagjcMCJYFVMMxf5>$patr&eMcxMMmmxe15tsjCHJDNgr3o$TTTTTTTT       ",
"TTTTTTTTTTTTTTTTTTTTTTTTTTTTTTTTTTTTTTTTTo.$&<eagjxMCDYIAMmmxf3&<aa5o4CFxBMMMMg5<5pazAHHFVgr3o<TTTTTTT       ",
"TTTTTTTTTTTTTTTTTTTTTTTTTTTTTTTTTTTTTTTTTT.#><5idgxMVZLYFVMmcxr>$5i<#<5FCBNMMNca315isxAFJFNft3orTTTTTT       ",
"TTTTTTTTTTTTTTTTTTTTTTTTTTTTTTTTTTTTTTTTTT.#><3rdjzcmMDYJZNMmcg3>,e$&34aJcVNNNMjr<15tszCGJFMfr3ozTTTTT       ",
"TTTTTTTTTTTTTTTTTTTTTTTTTTTTTTTTTTTTTTTTTTo#>,3eszzlxNAIUDCNmzxa>,&o<444HFZCAZmxd4,3epsxAHJDmft<>rTTTT       ",
"TTTTTTTTTTTTTTTTTTTTTTTTTTTTTTTTTTTTTTTTTT#$>><eaffzMZSHYJDCmzxcr>oo3rr5jGDDSZAZMg5,4tpdmSHHDcfr<.eTTT       ",
"TTTTTTTTTTTTTTTTTTTTTTTTTTTTTTTTTTTTTTTTUYI&&><5iagmNMcmHDMxjsfxg,o#<rt5eSFSSSAZVMf4,5rpgMSZNs3,,&OrTT       ",
"TTTTTTTTTTTTTTTTTTTTTTTTTTTTTTTTTTTTTTTTTIU>&,<4rgcmjr3,11>&&&,egr$$<5t44zFHJKLLKFVx3,5iseo...o#$34$5T       ",
"TTTTTTTTTTTTTTTTTTTTTTTTTTTTTTTTTTTTTTTTTTU,&,<3izxa3#4alMSFFZeO<5>$$3e3,3sgsttrr5<3>$<3#.$tSJTULHZso<       ",
"TTTTTTTTTTTTTTTTTTTTTTTTTTTTTTTTTTTTTTTTTTT>&<<3age$#sAHJHHHHGDg&.o.#,3,&3asairrre<,>#,O#5hZJHHHFDDSBap      ",
"TTTTTTTTTTTTTTTTTTTTTTTTTTTTTTTTTTTTTTTTTTT,,,<5p4o,BDHFFDDDDCVmMp<o.$>,$5fzgxpe54<,>##&4icZDFHJFSMMCVfp     ",
"TTTTTTTTTTTTTTTTTTTTTTTTTTTTTTTTTTTTTTTTTTT&,>3e3O#hKFSANzfassrergje$o#&#ezcaptree5<,##<5cACVx54435e5ee4s    ",
"TTTTTTTTTTTTTTTTTTTTTTTTTTTTTTTTTTTTTTTTTTT$,&33$ogJSMci,$oooooo#$3gp..$#tzzzxxzjss5<#O1eae4e5,$&&#o##,5>    ",
"TTTTTTTTTTTTTTTTTTTTTTTTTTTTTTTTTTTTTTTTTTT+,><&osLDmde>o.....o.....#.>#>rrrpaaptreer$#45444&o$$&%##$o.o$o   ",
"TTTTTTTTTTTTTTTTTTTTTTTTTTTTTTTTTTTTTTTTTTTX>>>#$Vmzt4$o.o$$X#e<oo..#o.o3sragjgfsptid5,>4,#.oo&>,,$&&$o$$o$  ",
"TTTTTTTTTTTTTTTTTTTTTTTTTTTTTTTTTTTTTTTTTTTX$,$#zsgr4ooo>33,o&r>$$$oo$..,<,eo.......oz5$o..##o&,,,>>&$$$$o.  ",
"TTTTTTTTTTTTTTTTTTTTTTTTTTTTTTTTTTTTTTTTTTTT#>$,tfr5.o#,3532o><$$$$oo...,p,ooo#oooo.#3e....#$#&,<<,>&$$$$o.> ",
"TTTTTTTTTTTTTTTTTTTTTTTTTTTTTTTTTTTTTTTTTTTTX&$3tie..#&>3933$>&$$$$oo...$g,3rxSSZCze4>e....o&&&<<<,,&$$$$o.. ",
"TTTTTTTTTTTTTTTTTTTTTTTTTTTTTTTTTTTTTTTTTTTT.>#err&.#>>,39433,>$$$$#o...oxfzfVHJHcp,>#3.....&&&<2<,,$$$$$ooo,",
"TTTTTTTTTTTTTTTTTTTTTTTTTTTTTTTTTTTTTTTTTTTT.,$45e...$,,<5533<>$$$$oo...ozo#o###......3o....&%&<2,,,$$$$#.o$o",
"TTTTTTTTTTTTTTTTTTTTTTTTTTTTTTTTTTTTTTTTTTTT.$$<4,.oo.$<<493<2>$$$#o...Xot<#o#$#......&o....#>%<<,,>$$$#o.o$.",
"TTTTTTTTTTTTTTTTTTTTTTTTTTTTTTTTTTTTTTTTTTTT.o&>4oo#o#.&<<54,<>$$#.....##5f<3rNDSCxe,,<$.....>><<,,>$$$o..o#.",
"TTTTTTTTTTTTTTTTTTTTTTTTTTTTTTTTTTTTTTTTTTTT..&$<.ooo.#o&>543<&$o....$#3$<DVBVHUILHNpr3,.oo..%>,<,,&$$o...#oo",
"TTTTTTTTTTTTTTTTTTTTTTTTTTTTTTTTTTTTTTTTTTTT..>&&.#o...#$#>24>#o...#35t4>&z$##$$o......<.#...$>,<,>$$o....o#.",
"TTTTTTTTTTTTTTTTTTTTTTTTTTTTTTTTTTTTTTTTTTTTX.#,&.#o....$$+$hr,oo.35eee5,$f3##$$#......4#>>$o#$,e4$#o.....o$.",
"TTTTTTTTTTTTTTTTTTTTTTTTTTTTTTTTTTTTTTTTTTTTX..,#.#o......#iSl4>#5e55rrr<$tcaazDHDSMe<>e$&,,>ooils$o.....o>#.",
"TTTTTTTTTTTTTTTTTTTTTTTTTTTTTTTTTTTTTTTTTTTTo.X&O.oo......#lSh54$5eripsf3&4CggcDKJFDs4><&&,,,>$ecz3......&2oo",
"TTTTTTTTTTTTTTTTTTTTTTTTTTTTTTTTTTTTTTTTTTTT$.X$#.o#......#sMse5<etasgjz5>>M.$.oo......o,>,<3,,3ir1....o$<<.,",
"TTTTTTTTTTTTTTTTTTTTTTTTTTTTTTTTTTTTTTTTTTTT$..o#o.#o......3se5<easgjjxzp,#Nooooo.......4><343<,35$...o#33$. ",
"TTTTTTTTTTTTTTTTTTTTTTTTTTTTTTTTTTTTTTTTTTTT>...#o..#......<,35ifgjzccjjj5$pzcNSLTLHVs4,r34rrtr4<3>o..#,<<.> ",
"TTTTTTTTTTTTTTTTTTTTTTTTTTTTTTTTTTTTTTTTTTTTT....$o..o...o345isgjzxmmzgcZz&eNgreazsxcgart34eiasa4<<$oo$$,o.  ",
"TTTTTTTTTTTTTTTTTTTTTTTTTTTTTTTTTTTTTTTTTTTTT#...X#......4eiaggjzcMmxMDJHB,4>ooo#$$$$$$$oogxaidfat4,$o$,$.   ",
"TTTTTTTTTTTTTTTTTTTTTTTTTTTTTTTTTTTTTTTTTTTTT$....$ooo.o4ipsggjzxMMBDJKSf<%<>o..oo.o#$#.o.rjNmfpdap5,$o..4   ",
"TTTTTTTTTTTTTTTTTTTTTTTTTTTTTTTTTTTTTTTTTTTTT&.XX.X#oo.rpagggjzcmVDKLSzt,OO@0o..ooo##$&..o-5axBmppapr<$o,    ",
"TTTTTTTTTTTTTTTTTTTTTTTTTTTTTTTTTTTTTTTTTTTTT>.XoX.#o.zgafggjzccCGJGht,@OOO*0X.o$oo.oo$...@#=agzcgpite4,     ",
"TTTTTTTTTTTTTTTTTTTTTTTTTTTTTTTTTTTTTTTTTTTTT5.X#O..#,ZsggjzxcxVHJxr4=OX@@+*66Ooo$#>,#$...@#XX<pszzspee5     ",
"TTTTTTTTTTTTTTTTTTTTTTTTTTTTTTTTTTTTTTTTTTTTTU#X#$$#&eDsgzzzxxAKDi4,@@+.*-O@-0ooo$$<33#o.X@@X+XO5sgxjpr4     ",
"TTTTTTTTTTTTTTTTTTTTTTTTTTTTTTTTTTTTTTTTTTTTTT$o#$&&43SjgzxxcDPDr<*O*;*.*;@O*0,Xo$<5rp&o..-=OXoXX#pdccaer    ",
"TTTTTTTTTTTTTTTTTTTTTTTTTTTTTTTTTTTTTTTTTTTTTT$o#&=<4ejcszcmHHAu,O@X-6-.O;*O*7q..#<exD,$..-=$#$XoXX<adgfi    ",
"TTTTTTTTTTTTTTTTTTTTTTTTTTTTTTTTTTTTTTTTTTTTTT#o#&><38pCsxZHHCr+O**.*66X.--O*6wo.#24aa&$..-,==$oXOoX#4sjg    ",
"TTTTTTTTTTTTTTTTTTTTTTTTTTTTTTTTTTTTTTTTTTTTTTOX$&>,45aNfmFSz8+@*;*.+7:@.-;O@67-.o$#,>$$..;:;:@X#oX.#+$px    ",
"TTTTTTTTTTTTTTTTTTTTTTTTTTTTTTTTTTTTTTTTTTTTTYTO$&><34pgcSSt2OO@--*..6;*.-;@@;;w..#$$$&#o.=6,:=.*#O.o##$<i   ",
"TTTTTTTTTTTTTTTTTTTTTTTTTTTTTTTTTTTTTTTTTTTTTTT##&&<34tsDFr*@@O*-;*..66-.@;*@-6w..#,,,,>#.o6,6;.@*O..+$,$=   ",
"TTTTTTTTTTTTTTTTTTTTTTTTTTTTTTTTTTTTTTTTTTTTTTTO#&><<58rCa@@@OX-660o.6;*..:-O-;00.$$&&>>&#o7-:;.X-$#OX=$+$   ",
"TTTTTTTTTTTTTTTTTTTTTTTTTTTTTTTTTTTTTTTTTTTTTTTXO&,<<4rrN,@,%+.6666.o66*o.-;**;6n.#$$$#Oo..6;=;+.;*OX.*@O+3  ",
"TTTTTTTTTTTTTTTTTTTTTTTTTTTTTTTTTTTTTTTTTTTTTTTXo&=<35erc*@%$@o*;6;..;7*..--**=6b+.........=;@;*.;**XX@+@X=  ",
"TTTTTTTTTTTTTTTTTTTTTTTTTTTTTTTTTTTTTTTTTTTTTTT>O$&<45erj@+@$*.*;6*..;;@@.*-***:n;.........X6@:-.@**XXO@@X#  ",
"TTTTTTTTTTTTTTTTTTTTTTTTTTTTTTTTTTTTTTTTTTTTTTTTo$&<44erg@@%@-X**-;&o-;**.o-*@*-qn.#o.......0*-;..**XXO@*XO= ",
"TTTTTTTTTTTTTTTTTTTTTTTTTTTTTTTTTTTTTTTTTTTTTTTTo$&<348eg@$,@;$-@*06.-;**..--**=qn..$&,>>>o.6;%;@.--@XO@=XX# ",
"TTTTTTTTTTTTTTTTTTTTTTTTTTTTTTTTTTTTTTTTTTTTTTTTX#&<345ej@<>*6:*@*7*.*6--..*;**=7q...o......*6@:-.*=*.X+-@X+ ",
"TTTTTTTTTTTTTTTTTTTTTTTTTTTTTTTTTTTTTTTTTTTTTTTToO&,3455z*,#*70*+*6@$%6-6...*-@*-7#..$####$.X0@;:oX*;.XX*-.O ",
"TTTTTTTTTTTTTTTTTTTTTTTTTTTTTTTTTTTTTTTTTTTTTTTT4o&,<455x*&#*77oX-;*..;-;...:-@*,q-..........0*=;@.=*+.X*;XX@",
"TTTTTTTTTTTTTTTTTTTTTTTTTTTTTTTTTTTTTTTTTTTTTTTTTX&,<4e5z*&$-6=o+-;*..-;;O..;;*@-w6...o.XoO..;:*;*.*-;.X@;*X+",
"TTTTTTTTTTTTTTTTTTTTTTTTTTTTTTTTTTTTTTTTTTTTTTTTTX$,<454z$%$-;6.@*;;.o*;-@+.-;*@-0-.X>,>>>&o.*6*;-.@;6.X@;;XO",
"TTTTTTTTTTTTTTTTTTTTTTTTTTTTTTTTTTTTTTTTTTTTTTTTTX#><344j*=$*60o@*60oo$--*$o*6-+-6=...........0*;;..66oo$;;OX",
"TTTTTTTTTTTTTTTTTTTTTTTTTTTTTTTTTTTTTTTTTTTTTTTTTTTTTTTTTTTTTTTTTTTTTTTTTTTTTTTTTTTTTTTTTTTTTTTTTTTTTT       ",
"TTTTTTTTTTTTTTTTTTTTTTTTTTTTTTTTTTTTTTTTTTTTTTTTTTTTTTTTTTTTTTTTTTTTTTTTTTTTTTTTTTTTTTTTTTTTTTTTTTTTTT       ",
"TTTTTTTTTTTTTTTTTTTTTTTTTTTTTTTTTTTTTTTTTTTTTTTTTTTTTTTTTTTTTTTTTTTTTTTTTTTTTTTTTTTTTTTTTTTTTTTTTTTTTT       ",
"TTTTTTTTTTTTTTTTTTTTTTTTTTTTTTTTTTTTTTTTTTTTTTTTTTTTTTTTTTTTTTTTTTTTTTTTTTTTTTTTTTTTTTTTTTTTTTTTTTTTTT       ",
"TTTTTTTTTTTTTTTTTTTTTTTTTTTTTTTTTTTTTTTTTTTTTTTTTTTTTTTTTTTTTTTTTTTTTTTTTTTTTTTTTTTTTTTTTTTTTTTTTTTTTT       ",
"TTTTTTTTTTTTTTTTTTTTTTTTTTTTTTTTTTTTTTTTTTTTTTTTTTTTTTTTTTTTTTTTTTTTTTTTTTTTTTTTTTTTTTTTTTTTTTTTTTTTTT       ",
"TTTTTTTTTTTTTTTTTTTTTTTTTTTTTTTTTTTTTTTTTTTTTTTTTTTTTTTTTTTTTTTTTTTTTTTTTTTTTTTTTTTTTTTTTTTTTTTTTTTTTT       ",
"TTTTTTTTTTTTTTTTTTTTTTTTTTTTTTTTTTTTTTTTTTTTTTTTTTTTTTTTTTTTTTTTTTTTTTTTTTTTTTTTTTTTTTTTTTTTTTTTTTTTTT       ",
"TTTTTTTTTTTTTTTTTTTTTTTTTTTTTTTTTTTTTTTTTTTTTTTTTTTTTTTTTTTTTTTTTTTTTTTTTTTTTTTTTTTTTTTTTTTTTTTTTTTTTT       "
};
