/* XPM */
static char *_285c4c7d7154603b069d43feeda2726_30[] = {
/* columns rows colors chars-per-pixel */
"107 78 62 1 ",
"  c None",
". c #0F0A07",
"X c #0C0C0C",
"o c #100C0C",
"O c #0F100B",
"+ c #1A120B",
"@ c #101010",
"# c #161616",
"$ c #1F1E19",
"% c gray11",
"& c #251B0F",
"* c #231E1C",
"= c #332614",
"- c #3B2B1C",
"; c #3B301D",
": c #202020",
"> c #262525",
", c #2C2C2C",
"< c #322D2F",
"1 c #373636",
"2 c #3C3C3C",
"3 c #48341D",
"4 c #543D1C",
"5 c #5A4327",
"6 c #694623",
"7 c #764F2A",
"8 c #4D4D4C",
"9 c #5D5D5D",
"0 c #6C706C",
"q c #8A5A33",
"w c #825C3D",
"e c #996138",
"r c #A2693C",
"t c #AA6D41",
"y c #AF6D42",
"u c #AC7244",
"i c #A4794C",
"p c #B27145",
"a c #B57548",
"s c #BA7549",
"d c #B5794D",
"f c #BE7949",
"g c #BD7D51",
"h c #CA7D4D",
"j c #C68252",
"k c #CF8251",
"l c #D78A59",
"z c #DB8E5D",
"x c #DF9261",
"c c #E79A69",
"v c #908C8C",
"b c #AFAFAF",
"n c #C4C5C4",
"m c #CFCFCE",
"M c #DADED8",
"N c #DFDFDF",
"B c #E2D9D3",
"V c #E9E9E8",
"C c #FEF7E9",
"Z c #F1F2F1",
"A c #FCFBF8",
"S c white",
/* pixels */
"                                       SSSSS                                                               ",
"                                       SSSSSSS                                                             ",
"                                      SSSSSSSS                                                             ",
"                                      SSSSSSSSS                                                            ",
"                                      SSSSSSSSS                                                            ",
"                                     SSSSSSSSSS                                                            ",
"                                     SSSSSSSSSSS                                                           ",
"                                     SSSSSSSSSSS                                                           ",
"                                     SSSSSSSSSSS                                                           ",
"                                     SSSSSSSSSSS      ==-;                                                 ",
"                                    SSSSSSSSSSSS     3=333;A                                               ",
"                                    SSSSSSSSSSSS    ;547644V                                               ",
"                                   SSSSSSSSSSSSS   A36erq54=                                               ",
"                                   SSSSSSSSSSSSS   34wre755=                                  #            ",
"                                  SSSSSSSSSSSSSS  A36eew754=                                           X   ",
"                                  SSSSSSSSSSSSSS  537rq7654=                                               ",
"                                 SSSSSSSSSSSSSSS  75ruw7553=                                               ",
"                                 SSSSSSSSSSSSSS  55wtte745;=                                               ",
"                                SSSSSSSSSSSSSSS  57utuw644==                                               ",
"                               SSSSSSSSSSSSSSSS 64qutuq543=     SZv                                        ",
"                               SSSSSSSSSSSSSSS  54rutue53==   SSSS                                         ",
"                               SSSSSSSSSSSSSS   47auute63== SSSSS                #                         ",
"                              SSSSSSSSSSSSSSS  43rattue63==SSSSSS                #@                        ",
"                              SSSSSSSSSSSSSSS >;5uutute75==ASSSS      :          @                         ",
"                             SSSSSSSSSSSSSSSS >3qyptupq75==VSSSS 9        22     @                         ",
"                            SSSSSSSSSSSSSSSSS ;4qusaatq75=&mASSS 0   %     2           @                   ",
"                            SSSSSSSSSSSSSSSSS>57effdaae763==VSSS  #                   1                    ",
"                            SSSSSSSSSSSSSSSS 3pfrgfggpe764-==ZSS     #               182#                  ",
"                           SSSSSSSSSSSSSSSSS>rptthkgkfe7643===SS:      %                                   ",
"                           SSSSSSSSSSSSSSSSS3qpffhkgxfr 753;==#=3    X@                                    ",
"                          SSSSSSSSSSSSSSSSS 36hfffklxfr 7643;==#==    X                                    ",
"                         SSSSSSSSSSSSSSSSS  35frtphlxftq77533 =&-3                                         ",
"                        SSSSSSSSSSSSSSSSSS  >5rqrthxxhteqq74333=&-.                                        ",
"                        SSSSSSSSSSSSSSSSSSSS>377erlxxxtree76443;=#;                                        ",
"                        SSSSSSSSSSSSSSSSSSSS>>45qpllxxtfreq76 43;=#                                        ",
"                       SSSSSSSSSSSSSSSSSSSSN>>37efxxxxplprq776543-%#                                       ",
"                       SSSSSSSSSSSSSSSSSSSS;;345rhxcclpxspqq766553-*@                                      ",
"                      SSSSSSSSSSSSSSSSSSSSS33447plxxczlzjfeq766564;;>#                  X   o              ",
"                     SSSSSSSSSSSSSSSSSSSSSS3355eklxxclzzhfree7666 4;==                                     ",
"                     SSSSSSSSSSSSSSSSSSSSSS;357tllxxzlljfatutq766653===                                    ",
"                    SSSSSSSSSSSSSSSSSSSSSSb>467pklzzllljapuapqq767663==%                                   ",
"                   SSSSSSSSSSSSSSSSSSSSSSS% 47qtkzzlllzjaaadp  w777 63; 33=                                ",
"                   SSSSSSSSSSSSSSSSSSSSSSS> 57eplxllljljggaatq q777774;;=33                                ",
"                  SSSSSSSSSSSSSSSSSSSSSSSS3 7qqklxzljljjgdpprqyeq777q63;;543                               ",
"                  SSSSSSSSSSSSSSSSSSSSSSSS=;7etllxlzlljgdppteqtr 777qq5;=573                               ",
"                 SSSSSSSSSSSSSSSSSSSSSSSSS>3qefllxlzljjgaputtetre 7qqq73;377                               ",
"                 SSSSSSSSSSSSSSSSSSSSSSSS >4qefllzlzljjgpuuttt   qeqqqq5;377                               ",
"                SSSSSSSSSSSSSSSSSSSSSSSSS==5qtklxzlzljjduutrrr    eqqqq74357                               ",
"                SSSSSSSSSSSSSSSSSSSSSSSSM=36qpklxllzljjautttrrr  q wq7qw64567                              ",
"               SSSSSSSSSSSSSSSSSSSSSSSSS==  ttklxlllljgduttrrreeeqqq77wq7 567                              ",
"               SSSSSSSSSSSSSSSSSSSSSSSSS =5eppflxllljjgattrrreeeewqq77777655                               ",
"               SSSSSSSSSSSSSSSSSSSSSSSSS= 4qqrflllljjjgautrrreeq 77777777665 6                             ",
"               SSSSSSSSSSSSSSSSSSSSSSSS==;5q4pdlljjljjguttreeeqqw 77 666666566+                            ",
"               SSSSSSSSSSSSSSSSSSSSSSSA== 536fhlzjjjjjguteeeewqww  6766666  665                            ",
"               SSSSSSSSSSSSSSSSSSSSSSS===; 3efjlzljjjjduueeeqqq77 7 766655 6554                            ",
"               SSSSSSSSSSSSSSSSSSSSSSS==& 57thllljjjjjduteew qq7w77766655555554                            ",
"              SSSSSSSSSSSSSSSSSSSSSSSC&==47rdlkljlllgdutreq  w77q 77756655555543 o                         ",
"              SSSSSSSSSSSSSSSSSSSSSSS===;5ttflklljjjdutteew   77 777766655455533 +                         ",
"              SSSSSSSSSSSSSSSSSSSSSSA=&=5qrtdjjkjjjgdtrreqqwqw 7ww677656554454-=567667 333=+&+++&@=SSSSSSSS",
"             SSSSSSSSSSSSSSSSSSSSSSS===33445qtfjjjjgatrewqqqq7 77 w67656 55445-=467 6764;3&+#O+&@=SSSSSSSS ",
"             SSSSSSSSSSSSSSSSSSSSSS+%&==346qrakllkjgar eqqqqqw7w7qe76666655 44 &=667776333&#XX&#=SSSSSSSS  ",
"             SSSSSSSSSSSSSSSSSSSSSZ=%=;336efffjzlljgdt reqq w w77ee7656655 4455&=577776;;$#OX+%% SSSSSS    ",
"             SSSSSSSSSSSSSSSSSSSSS%%==357qrdkklljjjjdutrrrew7qwwqwww6555565 544-&367765=$#OXX+%$SSSSS      ",
"            SSSSSSSSSSSSSSSSSSSSS===%>457qetflzljjdgauureeew7w 57q7 7545665 5543&=5773=$#+OoX+=ASSSS       ",
"            SSSSSSSSSSSSSSSSSSSSS>35;=347eeedlzlljgdduirre e77 577w w63455555553&=3 3==#+&+o# ASSS         ",
"           SSSSSSSSSSSSSSSSSSSSSS=5  4%= qerfklljjggdiiqww qw76 5777765356556554&&;===&&#&O%AAASS          ",
"          SSSSSSSSSSSSSSSSSSSSSSB=5eae6>;47etajjljgddu7434457777 655 7734656555 =&-&&&&##O#ZAAS A          ",
"         SSSSSSSSSSSSSSSSSSSSSSS#=4qppt 4  7etajjjjgdte753;;3477744567753 665543-&=*$$##<#ZAAA             ",
"        SSSSSSSSSSSSSSSSSSSSSSSS%>;6etptq76447r aggdtr r77533;457 -445753;66554; &=&$$,VVZZAAA             ",
"       SSSSSSSSSSSSSSSSSSSSSSSX+>=%>5qrtrtpq556qq trq r q  54;=;443=45553=56553-;&=$$NNVZZAA               ",
"       SSSSSSSSSSSSSSSSSSSSSSS%;;33;=4 qrrtpr64567q735 7w77 653>=;3-=3444= 665-==*  MNVVZZAA               ",
"      SSSSSSSSSSSSSSSSSSSSSSS+=>;455>>4  qqere754577>>;3577766643;-==&3 4==564;&**>BNVVZZAAA               ",
"     SSSSSSSSSSSSSSSSSSSSSSS%;==;346763347qqqeeq655643=>;566666643=*===3;-&45;&& *nNVVZZAA                 ",
"    SSSSSSSSSSSSSSSSSSSSSSS#%3454;347qq 4>56  qrq7676653=>*>445544;>==&--===-=*##mNVVZZZAAA                ",
"   SSSSSSSSSSSSSSSSSSSSSSSV#37qqq54>3 rt 7533447  qw 7754==*=>34443;=&-==$==> $#NVVVZZZAA A                ",
" SSSSSSSSSSSSSSSSSSSSSSSSS%+;7earee7335qpfrq753477qe777643; ==*;4443;=>3=&&*>$>NVVVZZAAAAA                 ",
"SSSSSSSSSSSSSSSSSSSSSSSSSS;#+%=7tpfpp7447pfftr 77667  755 3 ;==#=;553=$$=-=$$>VVVZZZAAAA                   ",
"SSSSSSSSSSSSSSSSSSSSSSSSSA-+==&#>6qrrtr 657ykhhfpe 46ere   333==%$; 3==&>>=$>>VZZZZAAAAA                   "
};
