/* XPM */
static char *_285c4c7d7154603b069d43feeda2726_19[] = {
/* columns rows colors chars-per-pixel */
"132 80 76 1 ",
"  c None",
". c #050404",
"X c #0F0A07",
"o c #0C0C0C",
"O c #100C0C",
"+ c #0F100B",
"@ c #1A120B",
"# c #101010",
"$ c #161616",
"% c #1F1E19",
"& c gray11",
"* c #251B0F",
"= c #231E1C",
"- c #332614",
"; c #3B2B1C",
": c #3B301D",
"> c #202020",
", c #262525",
"< c #2C2C2C",
"1 c #322D2F",
"2 c #2F302C",
"3 c gray19",
"4 c #3C3C3C",
"5 c #48341D",
"6 c #543D1C",
"7 c #3E413A",
"8 c #5A4327",
"9 c #694623",
"0 c #764F2A",
"q c #7E6128",
"w c #414141",
"e c #4D4D4C",
"r c #58514B",
"t c #605953",
"y c #8A5A33",
"u c #825C3D",
"i c #996138",
"p c #917138",
"a c #A2693C",
"s c #AA6D41",
"d c #AF6D42",
"f c #AC7244",
"g c #A4794C",
"h c #B27145",
"j c #B57548",
"k c #BE7949",
"l c #BD7D51",
"z c #CA7D4D",
"x c #AA8737",
"c c #BE9343",
"v c #A18F56",
"b c #BA9A57",
"n c #CF8251",
"m c #D78A59",
"M c #DB8E5D",
"N c #C6AB4A",
"B c #ECB84F",
"V c #DF9261",
"C c #E79A69",
"Z c #F1A473",
"A c #FACD70",
"S c gray51",
"D c #9E9E9D",
"F c #AFAFAF",
"G c #BBBCBC",
"H c #FDB484",
"J c #FDDB9C",
"K c #C7C0BF",
"L c #CFCFCE",
"P c #DADED8",
"I c #DFDFDF",
"U c #E2D9D3",
"Y c #E9E9E8",
"T c #F1F2F1",
"R c #FCFBF8",
"E c white",
/* pixels */
"                                                                                                          yyyyyyyyyyiu              ",
"                                                                                                   ayyiyiiyisaashknmmhy88           ",
"                                                                                                  00ihzkmVVVVmzkkkkmVCCk00          ",
"                                                                                                 0ysnmVCCVVVVnkkkznnnmVVVn88        ",
"                                                                                               yyyhnmmmmmmmnnnnnnnnkhsssjkmi88      ",
"                                                                                             00ikmmmmmnzmmnkkkznnhay09000iaksyu     ",
"                                                                                            0ynmmmmnnnzkkkhkksaiy0865;56900yyssyuR  ",
"                                                                                          0yaVVnnzzzkkkhshsiii0865:-%*---56680yaaKR ",
"                                                                                       000amVmkhhhhssaiiaiyy9085--%%@@@@**-*;580yi  ",
"                                                                                  088889ymmnnksaaaiyyyyyiy085--@****@*:56905:50yyy  ",
"                                                                                ::6ykVVVmnnkhaiiiyyiiiiiy065:-@*@*$-6:qqqqq05-;uvU  ",
"                                                                               -5smkmVVVmzkksaaiiiiiiiy085--@@*@$@*559;;:8qpq6--FR  ",
"                                                                               6mnkzVVVmnhhhshhhsaaaiy06--*@*@@@@-:90*7p95;px0:-    ",
"                                                                              58kkkVVVVmksshkkkkhay008:@*@@@$OOO;5p6-2Nxp6;;vq6-*   ",
"                                                                              6ykkmCVVmkhaishhsiyy866-*@*@@#OOO*99q8#vAxq95*pp6-*   ",
"                                                                             58jhkVCmnksaiyyyyy086-&-@@@#+OOOOO*90q0$vBpq85*pp6-&   ",
"                                                                            86ihhkVmkkhayyiiy0985-*@*>$+#@@@OOX-09q0-7Np06;;xq6-$R  ",
"                                                                            -yhshmmksaiyiiyyy986-@@-*@+*5985*OO*96p09-0p95;gv0-=$R  ",
"                                                                           66hshmVnhaiyiyiiy065-,*=@**5qqq06:*O@68989q980ubbq8=*$Y  ",
"                                                                          06ajhCCzhaiyiiyy06::-5&@#**0qqpqq8;5@@666q0qqqpcgq8-*@-   ",
"                                                                          0jhkmCnsaiiiy98986::::$@*-9::58upq6;;*;566000qq098-*@--   ",
"                                                                         yjknVmkaaaaaaiyy08-56-&,*-9%tNp9;pg0:--6;6569090:5-*@;-5   ",
"                                                                        yhkmCVkaahhsaaaiii:-85-&**6-7JNpq6;bq6-*65-;;6665:-*X-*-:   ",
"                                                                       0jkmVzaahhhsa  aiiy556-@,*59#vAxq96-pp6-*665;-;@@@XX;----: R ",
"                                                                      yhkmmnsshhsshhhsaai0:65*-**q0$vBpq85*pp6-*565:5:---*****--;   ",
"                                                                     0jknkkhhhshhhhhhhsaa069:--*-q0-8Npq5;;xq6=*695:--***---=---;   ",
"                                                                    0hkkhshhhzznkhhhkhsad0005-,*:p09-0p95;gv0-=@99***;5866568555*FT ",
"                                                                   0jkksshznn nnnkhhhhhssy  5-:*5069q989ubbq8=*@9-**:680yiiai09899GR",
"                                                                  yhkkkhknmmmnzz khhhhhhasi06-5*56q00qqpcgq8-*@=;-680yahkknmmmns00uR",
"                                                                 sahnnkknmVVVnzzkkkhhhhssai985**-  q 0qq098-*@,,*599isknmmmmmkky080 ",
"                                                              EEyshkzzznmVVVmkkzkkkhhhsshsa065- @;569090:5-*@-,=6yashknVVmnzki0855t ",
"                                                         EEEEEE kskznnnnmVVVmkkzkkkkhkhssshy55-=$*-;6685:-*+=&&80dhkknmVnhiy06:--1  ",
"                                                       EEEEEEEyshhznnmmmVVVVmkkzzkkkkkhsaasi85-@*$*- @@@+$$%$=*ashkkznmksy886-=>=   ",
"                                                      EEEEEEEyykknmmmmVVVVVVmkkkkkzkkkkhaiiiy85@$#@&@$@@@*%=;59fknkkzkay886:,>&@X   ",
"                                                      EEEEEEhyiknmmmVVVVVVVVmkkkzzzkkhhsaiyyy85-@&@$@& -;66680azzksiaay6665=<@@@@   ",
"                                                     EEEEEE8yahnnnmmVVVVVVVVmkkkzzzzzkhsasyi085:5-@;:565556yijmmnki0yi068:>,@@*@@R  ",
"                                                     EEEEE0yshnnnnmmVVVVCCVVmkkkzkkkzkhsaiiiy6--@--6880yyisjkmVVmni69y8:-,=@@*@@X   ",
"                                                    EEEEE50aa znmmmmmVCCCCVVmzkkkkkkkkhay09905:-:6669yiashkmmVCVmhi9:66@&@@*@**@@R  ",
"                                                   EEEEE6yiia zmmmmmmVCCCCVVVnkkkkkkkkhhsay96556000yissshkmmVCCVnay6----**@@@*@@@   ",
"                                                   EEEEEyjsa hzmVVVVVCCCCVVVmzzkkkkkknnkhsaaay98690yiisshnnVVVCks066:&,-;@@*@**@@R  ",
"                                                  EEEEELszksahzmmVVVVCCCCVVVmzkzkkkznnnnkhsaasayyiiiahshznmmmVhi0865,&,*@*@@@*@@@   ",
"                                                 EEEEET8akkhshkmmVVVVVCVCVVVmnkkkkknzknnnkhaahksksskhzzkknmmnhy086:-&,%**@*@*@@@@R  ",
"                                                 EEEEE-9i hhshkmmVVVVVVVVVVmmmzkkkkzkhkknnkhhznmmnnnnzkkknkmky086:&&&=****@@@*@@@   ",
"                                                EEEEEE-0 yshhshzmVVVVVVVVVVmmmnkkkkkkhhkknnnmmmVVmmnkkhhhhnhay96--&&%@***@@*@@@@@R  ",
"                                               EEEEEEE:5ayikksshzmmmVVVVVVVVmnnzkkkkkkkkkznmmmVVVmmnkhaashssi06---&*******@*@*@@@   ",
"                                              EEEEEasy6-9 ihkhs sznmmVVVVVVVmzhhkkkznhhhkkkmmmVVVmmmksiyiasi06-,,&%***@@@@@@@@@@@R  ",
"                                             EEEEEyahja5:iyakksyyhzznmmmVVVmnkayizkznkhahsknmmmVVVVmkai00isy6,&&,,**@-*@*@*@@@@@    ",
"                                            EEEIUE0knn 059yiskky6ykskznnmVmzkhs98knzmkhsiyhzmmmmmmVVnh088998&&$$4DY@******@@@**R    ",
"                                           EEEI089yk m a0:6yyhnl 6yihkznznnzkshy5ynnnnhha0iskknzzmVVna08565-&&%eP  R955-1**@**      ",
"                                          EEE8hha9yiskmky8-80azzd060yhkkkkkzkssa85hmkakka08yyyahhkVVhy 5::-,&%&T     RRRR  R        ",
"                                         EEE6yk k900ykmms06-5yknka6 8ykkkhskkksa0- mzykkjy 500yaakhay96:-:-,=**                     ",
"                                        EEE-5iahhy880jnm a05-8 kkky5:8fkhhshkkhay: knyakhiy5800yyyy086:-:-&%***                     ",
"                                       EEE6-:80inki88yk nsy0::ykzkk9- 0skhssshsii8@0m00ahii66880y0865::--&=**@                      ",
"                                      EEEh8:-:60kzn068i nhyf969 mmhh6*-0kkhssaaiy0-5zs6 sai0:66889655,,,&%****R                     ",
"                                     EEm0y96:--60snj950h lyyi90szmkja5-5akhhaassyy6-sn8:y a0-5555665,,----*@-*                      ",
"                                     0iy8y065::58yh a56y k 68yyhkkhahy5-0khhsashyy0-0zy-0 a8:6----, --,==*@*-R                      ",
"                                 58660090000886558yh 969sk a669 ashkkha--9aahayfiy0-5ha-8a 8-::---,,-&=*****R                       ",
"                               -:6568980iyyyy086:68yza86ykkhi5-8y9ahkks8 &0yhay80y 5@ys55yy9--@*&& &,&*;-;*R R                      ",
"                             65-5550 j0aysyia0006:-9a 059i hja6-55yshks0:@-9ih :6y05-6h6-y06*-&&&,6wEEERRR                          ",
"                        R  555598950iy0haayasyyy8-*68sh869iahki6--6yikhy8 &50y066006--y5&06 -#$,&&EEEEEEE                           ",
"                        -:665569868y00hysiyhkay095-::0 y658ia  i6*-9yshi 6-&6909:895:*95&695&&&,3EEEEEEE                            ",
"                       :5965666899yiijhaayiakha098:-*6ah8:-0ashai:--8iss086&-6iy&-96-@-5&58, &&$EEEEEEEEE                           ",
"                     :86995680yyiai00a0aiynkhkniy98-@50hy5-6asksi9---9ia0y65$-yy-&86-@-6&&&$$$EEEEEEEEEE                            ",
"                 R Y56666880ydj8yis9saiaysnmhm zi095$&6ys8::yakhay5**:0y9y86#-0i5#68-*@,&&&$$EEEEEEEEEEEE                           ",
"                85-:6669yiiyai06i8yyiynhhzCmkmmmd096-+-0hy6:5ahhsi9-#-69:895-$8y6$:8--*-,67EEEEEEEEEEEEE                            ",
"             GS65:59850yy80900 s 00s9 kk   kn mmsyy9:@$6yf06-ysssa05@@68-595-&606@-6:-@&,,EEEEEEEEEEEEEEE                           ",
"           T65:5565695y080890yy MysiamnnZVkm nmCzaa06@o-8aj9-6iihsy8-o:8&-96&&-6:&::@$&%EEEEEEEEEEEEEEEE                            ",
"         6:5::56660858860y0i0ai55 yysCVkmhnzmh mmhhy9-@o-yky::0iahy9-@-9&-09&&----:-,,EEEEEEEEEEEEEEEEEEE                           ",
"      RL:::568896895yyy0aikyymsikafs mnznn  V CZhskh05@.$8ks5-60yli8---8-&66&*-*@&- 4EEEEEEEEEEEEEEEEEE                             ",
"      ---:6550968aayhikyzs sfnsnmakk saVVVknmVCVkk hy6-oo-aa9-:60 s8:-*6-$-5&@&@&=EEEEEEEEEEEEEEEEEEEEE                             ",
"    555-:65688680ii0kianyai0V  nhhmkainCZVVVmZmnmkkhy85-@$0ay5-:8 j8*--55&-:-$$&%EEEEEEE  EEEEEEEEEEE                               ",
" ---:65-5550kkia0yim0askaayyjhakkkzkmnmVZVCZVCz Vnhsy85-@$8js0:-:ya9*-*-:@-:-&%EEEEEEEE     EEEE  E                                 ",
"-:555550905ysa9yyakm ya0hzsmhyazkkmnVmmMZmZZVm mkn ay95- @:his6-- y -&*@-@*EEEEEEEEEEE                                              ",
"5:565:60085000s0ihhsahsimsVmhszChzZmnahmZVCZMmzmmhii08:--@-yik9-*500--@*@%EEEEEEEEEEEE                                              ",
":56556898688ikjyhahahka VkVkhmVmVnmVznmCZZZVVnnm iyy96::*--8yky-@-  -@*@*EEEEEEEEEEEE                                               ",
"665560yyas00ya0znsahkhsnmkzhVmmCmmnVmkZCVZCzmzznayy085--* @58fh5*----&,1EEEEEEEEEEEEEE                                              ",
"6:569yy998yiayakahaszhksh nmVVznshkVnnm nCznhknka0096::*--@-:yk8@*@ --EEEEEEEEEEEEEEE                                               ",
":580iaa9yyhhs jssnakkhkkkkzmVkkyzznkhkknZZVksazh0y985:--**@*@50 -@-=EEEEEEEEEEEEEEEEE                                               ",
"0yasj0yyaiksshkykmkmkkzmmhnVhVVzm kkmzzVHZC shnai0865---*@*@$-90:- rEEEEEEEEEEEEEEEE                                                ",
"h8aka8issshskka9zVznkmnnmkmVmCZZV kzZVnCZCmhnmh0i 66:--@@*@*@*:95-*EEEEEEEEEEEEEEEE E                                               "
};
