/* XPM */
static char *_285c4c7d7154603b069d43feeda2726_9[] = {
/* columns rows colors chars-per-pixel */
"119 84 38 1 ",
"  c None",
". c #050404",
"X c #0C0C0C",
"o c #1A120B",
"O c #101010",
"+ c #161616",
"@ c gray11",
"# c #251B0F",
"$ c #332614",
"% c #3B301D",
"& c #262525",
"* c #2C2C2C",
"= c #48341D",
"- c #543D1C",
"; c #5A4327",
": c #694623",
"> c #764F2A",
", c #8A5A33",
"< c #825C3D",
"1 c #996138",
"2 c #A2693C",
"3 c #AA6D41",
"4 c #AF6D42",
"5 c #AC7244",
"6 c #B27145",
"7 c #B57548",
"8 c #BE7949",
"9 c #BD7D51",
"0 c #CA7D4D",
"q c #CF8251",
"w c #D38350",
"e c #D78A59",
"r c #DB8E5D",
"t c #DF9261",
"y c #E79A69",
"u c #F1A473",
"i c #FDB484",
"p c white",
/* pixels */
"                                                                                         ;;>>;>                        ",
"                                                                                      -,6qeeet8,;-&-                   ",
"                                                                      %%$$o@@@&&&&;=->,2qte8662,>:;==                  ",
"                                                                    $$$%%$$$oo@$%>,,27qeq883121,,>>----                ",
"                                                                  =$%-,,:;=$$$$=>26eqqq8862,,,>;-;--%&&-               ",
"                                                                 $$;21,1,>;-=&-,6tytq88331,>;;&&&&&&&&@&&&-            ",
"                                                               -$%15,1,,;--&&-;quute862,;=&&&&&&&&&-;->,;;&&-;         ",
"                                                              -$=11,>>;--&&;,2eyteq02>-@@&;2,36ee8eeetyytt2,,;-&       ",
"                                                             -$-2,,:>:-&=,60e063382>=&@&;3qy0eyyuuiiiiiuyyteee4>-&     ",
"                                                            ==;32,>>-=-,88888222,>=&&;10eeqtt8uiuiuuuyyyteetyt1>:-;    ",
"ppppppppppppppppppppppppppppppppppppppppppppppppppppppppppp-=;,,,>;--:38888621,,-&&;6e8tuetyy8tyyteq0800866661>;:&&&   ",
"pppppppppppppppppppppppppppppppppppppppppppppppppppppppppp$=-:,>:;;;,888883,>;=+$-1qttyuuuuuyyee061111,,,,,,,>>:;-=+   ",
"ppppppppppppppppppppppppppppppppppppppppppppppppppppppppp$-;:>:--;>3888861,:=@#-,qetyuiiiuyt80311,,>::;;;;;::;---$+@   ",
"ppppppppppppppppppppppppppppppppppppppppppppppppppppppp&%=:;;;-;:29636621>;$o$,8etyuiiuuyte062,,>;;--=$@@@&&%==$OXX    ",
"pppppppppppppppppppppppppppppppppppppppppppppppppppppp==;;-;;;;,88322221>;$$;1qttyuuyyyttq61,:$&@@++&&&&&+Xo++         ",
"pppppppppppppppppppppppppppppppppppppppppppppppppppppp=:;==-;138e83111,>;==>18qeeteeeeee03,:%#X+@@&pppppppp            ",
"ppppppppppppppppppppppppppppppppppppppppppppppppppppp=:;===>3688e83,,1>%==,1280qq0q86663,:%+.o@&ppppppppppp            ",
"pppppppppppppppppppppppppppppppppppppppppppppppppppp-:-%%->3688qe82,,:%%-,270eeeq0322,>>-@.X$pppppppppppppp            ",
"pppppppppppppppppppppppppppppppppppppppppppppppppp%-:-%%-,268eeeq6,,>:;;,28qeeeqq821,:;%@XX&ppppppppppppppp            ",
"ppppppppppppppppppppppppppppppppppppppppppppppppp%-:;%%;,178ttt0621>;;>26886686232,>-%$o..X.X+&--&&&&&&==%&$&$&$o++++  ",
"ppppppppppppppppppppppppppppppppppppppppppppppp$%-;;%%:,13qttt8632,:>2qeq83222111,=$$ooX.+@%-&$&$&:--::::;---:111>>-$- ",
"pppppppppppppppppppppppppppppppppppppppppppppp$%=;;-=>113qtt888862,,3ette621,,11,-#oO+@=-;:;;;;-->,,,,3388888q8q8q63,; ",
"ppppppppppppppppppppppppppppppppppppppppppppp%$->;-->113qyt8688631,18eyyt61,,,1>%o+O$-;>,,,,1222,,263,268qeetttt38871--",
"pppppppppppppppppppppppppppppppppppppppppppp%=-,;-->122qye8668663223tuyye3,,,,>$@$%->,12213568qq080q086888eee8qq0088>--",
"ppppppppppppppppppppppppppppppppppppppppppp%=,5>--,1230ye868q886666euuyt03,,>:%$$=>2236668qeeee06880qq00680e628q11,,;=-",
"ppppppppppppppppppppppppppppppppppppppppp-$=18,--<1238te868e08888qtyuutq61,>>;%%>1376880qeeeeteqq86128688883211,1,>--= ",
"pppppppppppppppppppppppppppppppppppppppp-$%>83;-,2226eq86qqqq880qeuuye83,,>:;-;2800866888qeeeeq086663,12221,,1>;--===  ",
"ppppppppppppppppppppppppppppppppppppppp-$#:83,->5323eq88qqqq8q8eyuue831,>::;;18qqq86336668qqq86111,,1,,,,,>;-=&&&&     ",
"pppppppppppppppppppppppppppppppppppppp=o$=862>:36338888qqqq8qqqtuye31,,,>>>,10etyt62,123363321>:>,1,>>>;--%&&&&&       ",
"pppppppppppppppppppppppppppppppppppp;$o$=3q2,;276366888q8qeqqqete82,,1,,,,,2qetuut61>1,22,,>>;;;>;;;;;%$@&&&$          ",
"pppppppppppppppppppppppppppppppppppp#$%=>q31>,36366688000qeeqee862,1,1>,,,,6qeuuuq2,>,>,>,:==%=-$@@@$@@pppp            ",
"ppppppppppppppppppppppppppppppppppp$$=->861,>6633668880q8qq8q862111,1,,1,136qyiut8,>>:::;=@@@@@@@pppppppppp            ",
"ppppppppppppppppppppppppppppppppppp%-;>,633>286336688888qq886321122221113338uuy061>:;;;=@@@@@pppppppppppppp            ",
"pppppppppppppppppppppppppppppppppp==;>,163,,666336668888qqq632122363222336ete6321>>;--@@@$@$ppppppppppppppp            ",
"pppppppppppppppppppppppppppppp$$=$-:>,,262,38666668880888q86623388883368qee61,1,1>:;-$@@@@ppppppppppppppppp            ",
"ppppppppppppppppppppppppppppp$%==%=,111562,0q8866688q000qe8866888886680ee82,,1111,;=%@@@@pppppppppppppppppp            ",
"pppppppppppppppppppppppppppp=;,,>;-:,16383000886880qqqq0qq88688888880qq86,,11211,;=$@@@@ppppppppppppppppppp            ",
"pppppppppppppppppppppppp$$$$$;173,>;>,3338eq0800qq00qq000866688888800832,111111>:-&&&@ppppppppppppppppppppp            ",
"ppppppppppppppppppppppp=$:,$o%>3662,::,238qeqteq80q0qq000886888888886211,121,1>:-=&&$pppppppppppppppppppppp            ",
"pppppppppppppppppppppp$$133>#%;,26882>:,308qeete0qqqqqq008886888886333223311,>;-=%&%ppppppppppppppppppppppp            ",
"pppppppppppppppppp-%$$$$321>o=>,238q03,>18080etteqq80qqee886688086688333211>:;-=$++pppppppppppppppppppppppp            ",
"ppppppppppppppppp;$-==$$>36,#;:43260q82,>66qqqeteqqqqqeee888888080q8663211,;;-%@+X&pppppppppppppppppppppppp            ",
"ppppppppppppppppp@;->1%=;8q6$%:362260q82,1680qettq08qeqeq080080e0qq886631>:;-&%+X++pppppppppppppppppppppppp            ",
"ppppppppppppppp,$$,>37;%-6q8-$>1322280q61,388qeeee8800qq0q0qq0qq00888862>>:;;-+++@+pppppppppppppppppppppppp            ",
"ppppppppppppppp%%%;137>%-,8q2$>>3322660032160qetee0088880q000qt0qeq08622>>;;:$ooo&&&ppppppppppppppppppppppp            ",
"ppppppppppp-$$%%%$&1268-->68q$=>36322368833260etee0q8888qq00qeeqtte0862,:;;>%+%%$$&&%pppppppppppppppppppppp            ",
"ppppppppp-%%%=-,=$o,228>$>18q;$>162212668632380eeq008886q0qqqeeqeeqe63,>:;>-o$-$&%$&&pppppppppppppppppppppp            ",
"ppppppp-=%=:-;;>:=$o>236%:,682$;,66212366682260teq08888830qqqeeqq0eee2,>:>-#$=$$$#$$@+epppppppppppppp&&&&;-;           ",
"pppp,;==---->>>>:$$#-238>=1,60$$>18212233383138qq8800088>000qqqqq8ete2>>>=oo%%$$@o@oo@@&pppppppppp&===;>,,2,,>;-       ",
"p;==%%-;=->3>1,>>=$o%,26q;>>18-$;,621213336823680q088888;00qe860qqeq81>,;$$&&$#%=-====%&&-pppp;&&->1,,,4600778,&-      ",
"=======;=,2>>,;;,>=$o-26q1;>,7>$=,6212223336333880888888:0qeq82888888,1,%=-$$&o+ooooo+XXX@&&&&&-;,66678qqq8687>;&;     ",
"-===>>;%-1>;>>;,>,-%o#>2q8->:,7$%>7613222212223688880q88;8qeq6,8638681,:=-=$#Oooo$#@#@$@@=---;>3128eeeeq06632,;;&&     ",
"%==;>;=>:;:>7;>,,,>-=$-18e3,;:6%$,3812122112126888800e87;8qe01,31,2601>>:;;-%$#o#oooo$$=;;;>,,2868eeeeeqqq6,;-;-&&     ",
";:>,2>>,,,:>1;>1,>,>;-$>7tq1:-7>=1,82111232226q00260qe83;8q88,,3,,,88>>;-;----;;;--;;>,>>;,,,,80eqeqeeq00,;-;;-&&      ",
",,122,8>85,,,;>88>3>:;$-1te1,-1>;,,62,,,2823eee68,1qee61%1881:,3>:,63,:--->::>::;;>;,;>;;,119860q0808862,-===;&&       ",
",22;:1,3,,1,388e2,2:::%o,8t6,::,;>111,>1,623tee63,,ee82,=266>:12>-,66>>:;>,,>>>,>,>,,,,,,,10688688082,:;=%$            ",
",:2,62,1,,03q6866,22;;=$:2te1>;>=,1>1>,12813e0e61>>qe8,>%362-:21--,62>1,16222322,,,1122230083688081>;==$&pp            ",
",>>,,,w6120q3eu6ey2e,--$=,tt6,;;-32,3,>123,1e68,,;-9q6>-=13,->6,%&,51>8688888868800q8800q6333386,>;=$@@@ppp            ",
"6,81,q68qeyq6tyye8t89>;-o,qt01:-=38>81>>66:,q27>>==382>$:,,--:3>$@36;;160q000q00qq6668eeqq8662>:-=$@++ppppp            ",
",2,2qe8ytte6etu8e8q6q>--#-8te3>-;2e>31,>62;>766::==18,-$;,>==>,-&:1>$$3666822233320qqqq6862,:--=$@@+ppppppp            ",
"3322tt0yt8eeyett8e8t3:>;#$3te71;,,e1,11:62==223::$-,3-%$;>-$=;:=@;>:o-,,,>,>>>>>,,112,2123,-=$@@+pppppppppp            ",
"3668qe8q6q0e6qut8e88e3,;$+1tt61;;>t8>13;36=-22,;;&-,,=$#--%%&:=$&%&+o%----:>,>>>>>,,21>111:@@++pppppppppppp            ",
"8e8633tee0qt0yet6t2t,31>$o%tt82>--te;,3;12=$131--=$>:=o$$$$$&=&&$@+XXXX&%=--;;:>::::;-;>:%@+ppppppppppppppp            ",
"80623yyuq0ettuu76yeq126>=oXttq2>-=q0::6;,,$$12>-=#*;=$X$&$@@&&&&&&@+++X+&$$$$$%---;;>>:;=@++ppppppppppppppp            ",
"q8yqtwuytyeeytt88t66e03>=oX8tq2,-%,8,:3:,-O@,1:-&$@%%@+&&@@&@@+@+++++o+o@@@@@@$$&=-;;;;-@+ppppppppppppppppp            ",
"ueeqtquttururqeqqe,8q82>-$X>ye8,-$>8,>3::-o&>1-$X+@$&+@&@@$%ppppppppppppppppppppppppppppppppppppppppppppppp            ",
"tt826rueuuye08tq;,866,1>=$#%yy8,=$>9,=2>%%+@:>=@+@@@+&&&ppppppppppppppppppppppppppppppppppppppppppppppppppp            ",
"0t0teyuyuure8e6et86>,,>:%$#o3uq>-$:8,%1>%%o+%$$X@@@@&%ppppppppppppppppppppppppppppppppppppppppppppppppppppp            ",
"eu6eitiuyteqqteeeq,,1,>:%$$#;uq>-o;81%>;$o++o@+@@@&&=pppppppppppppppppppppppppppppppppppppppppppppppppppppp            ",
"08qeqqqu9te0qq336q1,;>-=%$$o$ee,-#-8,%=$$OXX$O@$.&ppppppppppppppppppppppppppppppppppppppppppppppppppppppppp            ",
"08888tu0e808e3,3363:;:-=#$$$o2t2-#;0>%$$o+X+&@%X&pppppppppppppppppppppppppppppppppppppppppppppppppppppppppp            ",
"quw0tiuu833q63,716,>;:;:$$$$#>q6$+:8;$$$O+X&X@o&ppppppppppppppppppppppppppppppppppppppppppppppppppppppppppp            ",
"queeuuyt62286>,,1>,,:,;;%#$%#-11%o;,-o$O++@X@oppppppppppppppppppppppppppppppppppppppppppppppppppppppppppppp            ",
"yeeyuwy86eqq,>>,1:>::>;-$$$%o%>;=o$:=$O@o&&=;pppppppppppppppppppppppppppppppppppppppppppppppppppppppppppppp            ",
"tyee0eu6ye8,1,,>:-;;>;;=$%$%o$;%$#$;O+@+ppppppppppppppppppppppppppppppppppppppppppppppppppppppppppppppppppp            ",
"t8euquu9e8>32,;;;-;->:-=$$$$$$-=@$;$&$-pppppppppppppppppppppppppppppppppppppppppppppppppppppppppppppppppppp            ",
"q8etye6e>::1,->>=;;->:-=$@$#o$@&ppppppppppppppppppppppppppppppppppppppppppppppppppppppppppppppppppppppppppp            ",
"68et68,01,,,-=:=%;==-=%$$oooppppppppppppppppppppppppppppppppppppppppppppppppppppppppppppppppppppppppppppppp            ",
"6q360,82>2>-$=-==-%=%#$#o@ppppppppppppppppppppppppppppppppppppppppppppppppppppppppppppppppppppppppppppppppp            ",
"3,1q111,-,=--;==-%$$$$opppppppppppppppppppppppppppppppppppppppppppppppppppppppppppppppppppppppppppppppppppp            ",
"3>4>,:;;;---=$-;-%$$opppppppppppppppppppppppppppppppppppppppppppppppppppppppppppppppppppppppppppppppppppppp            ",
",,22>-:;--;;-%;;=$o#ppppppppppppppppppppppppppppppppppppppppppppppppppppppppppppppppppppppppppppppppppppppp            ",
">,,,;;;-;:-=%=-=$@ppppppppppppppppppppppppppppppppppppppppppppppppppppppppppppppppppppppppppppppppppppppppp            ",
",;>;-:=--:=%==$@&pppppppppppppppppppppppppppppppppppppppppppppppppppppppppppppppppppppppppppppppppppppppppp            "
};
