/* XPM */
static char *_285c4c7d7154603b069d43feeda2726_3[] = {
/* columns rows colors chars-per-pixel */
"134 125 76 1 ",
"  c None",
". c #050404",
"X c #0F0A07",
"o c #0C0C0C",
"O c #100C0C",
"+ c #0F100B",
"@ c #1A120B",
"# c #101010",
"$ c #161616",
"% c #1F1E19",
"& c gray11",
"* c #251B0F",
"= c #231E1C",
"- c #332614",
"; c #3B2B1C",
": c #3B301D",
"> c #202020",
", c #262525",
"< c #2C2C2C",
"1 c #322D2F",
"2 c #2F302C",
"3 c gray19",
"4 c #373636",
"5 c #3C3C3C",
"6 c #48341D",
"7 c #543D1C",
"8 c #433E3D",
"9 c #3E413A",
"0 c #5A4327",
"q c #694623",
"w c #764F2A",
"e c #414141",
"r c #474746",
"t c #4D4D4C",
"y c #4C504C",
"u c #514D51",
"i c #515151",
"p c gray34",
"a c #5D5D5D",
"s c #5E615D",
"d c gray38",
"f c #676767",
"g c #6F6B6B",
"h c #6C6D6D",
"j c #6C706C",
"k c #726E72",
"l c #717171",
"z c #777777",
"x c gray49",
"c c #7D7F7C",
"v c gray51",
"b c #888887",
"n c #8D8E8E",
"m c #908C8C",
"M c #8E928E",
"N c #96928A",
"B c #938F93",
"V c #929292",
"C c #989898",
"Z c #9E9E9D",
"A c #9DA09D",
"S c #A2A2A2",
"D c #A6A6A4",
"F c #AFAFAF",
"G c #BBBCBC",
"H c #C7C0BF",
"J c #C4C5C4",
"K c #CFCFCE",
"L c #DADED8",
"P c #DFDFDF",
"I c #E2D9D3",
"U c #E9E9E8",
"Y c #F4ECE8",
"T c #F1F2F1",
"R c #FCFBF8",
"E c white",
/* pixels */
"                                                                 R                                                                    ",
"                                                                                                                                      ",
"EEEEEEEEEEEEEEEEEEEEEEEEEEEEEEEEEEEEEEEEEEEEEEEEEEEEEEEEEEEEEEEEEEEEEEEEEEEEEEEEEEEEEEEEEEEEEEEEEEEEEEEEEEEEE                         ",
"EEEEEEEEEEEEEEEEEEEEEEEEEEEEEEEEEEEEEEEEEEEEEEEEEEEEEEEEEEEEEEEEEEEEEEEEEEEEEEEEEEEEEEEEEEEEEEEEEEEEEEEEEEEEE                         ",
"EEEEEEEEEEEEEEEEEEEEEEEEEEEEEEEEEEEEEEEEEEEEEEEEEEEEEEEEEEEEEEEEEE$&EEEEEEEEEEEEEEEEEEEEEEEEEEEEEEEEEEEEEEEEE                         ",
"EEEEEEEEEEEEEEEEEEEEEEEEEEEEEEEEEEEEEEEEEEEEEEEEEEEEEEEEPRPZEEEEE$$o#EEUJEFf&.oEEEEEEEEEEEEEEEEEEEEEEEEEEEEEE                         ",
"EEEEEEEEEEEEEEEEEEEEEEEEEEEEEEEEEEEEEEEEEEEEEEEEEEEEEEEhFRTCaeEEE$#o3EKfbPECpo.oEEEEEEEEEEEEEEEEEEEEEEEEEEEEE                         ",
"EEEEEEEEEEEEEEEEEEEEEEEEEEEEEEEEEEEEEEEEEEEEEEEEEEEEEE4pCUTDf5>eE##o4E5efCELl3.ooEEEEEEEEEEEEEEEEEEEEEEEEEEEE                         ",
"EEEEEEEEEEEEEEEEEEEEEEEEEEEEEEEEEEEEEEEEEEEEEEEEEEEEE#<rvKTFhr<$to.o#p33ilFEFs&.oEEEEEEEEEEEEEEEEEEEEEEEEEEEE                         ",
"EEEEEEEEEEEEEEEEEEEEEEEEEEEEEEEEEEEEEEEEEEEEEEEEEEEEEo,4fFTKxt<&o,oo#$#>4avKRbe#ooREEEEEEEEEEEEEEEEEEEEEEEEEE                         ",
"EEEEEEEEEEEEEEEEEEEEEEEEEEEEEEEEEEEEEEEEEEEEEEEEEEEETo&3iCTTCp3&o##o#$$$,efmUJf<.ooEEEEEEEEEEEEEEEEEEEEEEEEEE                         ",
"EEEEEEEEEEEEEEEEEEEEEEEEEEEEEEEEEEEEEEEEEEEEEEEEEEEEEo$,rbLTFf5&#$>$#$&o$3tfCRCy$.ooEEEEEEEEEEEEEEEEEEEEEEEEE                         ",
"EEEEEEEEEEEEEEEEEEEEEEEEEEEEEEEEEEEEEEEEEEEEEEEEEEEEEo$>4gGTGlr,$o>$o$>##&4ihFPz4#ooREEEEEEEEEEEEEEEEEEEEEEEE                         ",
"EEEEEEEEEEEEEEEEEEEEEEEEEEEEEEEEEEEEEEEEEEEEEEEEEEEER$$>3pSTLvu<$#&&##&<o$>4ilKFa,oooTEEEEEEEEEEEEEEEEEEEEEEE                         ",
"EEEEEEEEEEEEEEEEEEEEEEEEEEEEEEEEEEEEEEEEEEEEEEEEEEEETm$,<rmPTCa4&#$>$o$<##&<epbUnr&o&oEEEEEEEEEEEEEEEEEEEEEEE                         ",
"EEEEEEEEEEEEEEEEEEEEEEEEEEEEEEEEEEEEEEEEEEEEEEEEEEEEEE#,,5zJTFf5,$#&&oo<,o$>3raFPg3$.,oEEEEEEEEEEEEEEEEEEEEEE                         ",
"EEEEEEEEEEEEEEEEEEEEEEEEEEEEEEEEEEEEEEEEEEEEEEEEEEEEEEo>,3sFTJzr<&#$>$o>,#$&,4tgPFp,ooooEEEEEEEEEEEEEEEEEEEEE                         ",
"EEEEEEEEEEEEEEEEEEEEEEEEEEEEEEEEEEEEEEEEEEEEEEEEEEEEEEo$><uZTPbi3>$$,>o$,>$$&,5ivUbe&o.oUEEEEEEEEEEEEEEEEEEEE                         ",
"EEEEEEEEEEEEEEEEEEEEEEEEEEEEEEEEEEEEEEEEEEEEEEEEEEEEEEoo$,evLTZa4,$O&<#o,,$$&><eaFTh4$..oEEEEEEEEEEEEEEEEEEEE                         ",
"EEEEEEEEEEEEEEEEEEEEEEEEEEEEEEEEEEEEEEEEEEEEEEEEEEEEEEoo$,4fGTFhe,$##,$o$,,$$&,3rjEKp3$oooEEEEEEEEEEEEEEEEEEE                         ",
"EEEEEEEEEEEEEEEEEEEEEEEEEEEEEEEEEEEEEEEEEEEEEEEEEEEEEE#o#>3iDRKxt<&#O,,oo,,$$&><4iVECt<&oooEEEEEEEEEEEEEEEEEE                         ",
"EEEEEEEEEEEEEEEEEEEEEEEEEEEEEEEEEEEEEEEEEEEEEEEEEEEEEEEo$&<enUTVp3>$+$<$o$,>&&&,<eaKEle<&oooEEEEEEEEEEEEEEEEE                         ",
"EEEEEEEEEEEEEEEEEEEEEEEEEEEEEEEEEEEEEEEEEEEEEEEEEEEEEEEoo&,5lKTDf5,&#o<>o#>,&&&>,3rgEKa4,$.oEEEEEEEEEEEEEEEEE                         ",
"EEEEEEEEEEEEEEEEEEEEEEEEEEEEEEEEEEEEEEEEEEEEEEEEEEEEEEEoo$,3aGRJzr<&#X$<$$$<,&&>,<4iCEZu4,$.oRREEEEEEEEEEEEEE                         ",
"EEEEEEEEEEEEEEEEEEEEEEEEEEEEEEEEEEEEEEEEEEEEEEEEEEEEEEEoo$,<tCRPbi3>$o#<&$#,<>>>>,18aJUzr3>$.oEEEEEEEEEEEEEEE                         ",
"EEEEEEEEEEEEEEEEEEEEEEEEEEEEEEEEEEEEEEEEEEEEEEEEEEEEEEE#o#><exPRZs4,$#o>,$$$<,>>>,,4rzKJd5<>o.oEEEEEEEEEEEEEE                         ",
"EEEEEEEEEEEEEEEEEEEEEEEEEEEEEEEEEEEEEEEEEEEEEEEEEEEEEEE$oo&,4dJRFhe<&$o$<&$#><,>>>,<5iCKZi4<>ooUPEEEEEEEEEEEE                         ",
"EEEEEEEEEEEEEEEEEEEEEEEEEEEEEEEEEEEEEEEEEEEEEEEEEEEEEEEE#o$,3iFRKxt1>$oo,,$#$<,>&>,,3edJKlr3,,ooTEEEEEEEEEEEE                         ",
"EEEEEEEEEEEEEEEEEEEEEEEEEEEEEEEEEEEEEEEEEEEEEEEEEEEEEEEE#o$,<rVRTVp4>$#o$<&#$&<>&&>,<3rxKJa53<>ooEEEEEEEEEEEE                         ",
"EEEEEEEEEEEEEEEEEEEEEEEEEEEEEEEEEEEEEEEEEEEEEEEEEEEEEEEEo##&<5lPRFfe,&#oo<>$##,,>&&>,<4pCKCi4<,$.oEEEEEEEEEEE                         ",
"EEEEEEEEEEEEEEEEEEEEEEEEEEEEEEEEEEEEEEEEEEEEEEEEEEEEEEEE#o#$,4aJRJzr<>$oX&,>o#$<>&&&,,3edGKjr3,>#>oEEEEEEEEEE                         ",
"EEEEEEEEEEEEEEEEEEEEEEEEEEEEEEEEEEEEEEEEEEEEEEEEEEEEEEEE#o+$,3tDEPbi3>$#.o<>$##,,>&&>,<3rzKGp5<,>.oUEEEEEEEEE                         ",
"EEEEEEEEEEEEEEEEEEEEEEEEEEEEEEEEEEEEEEEEEEEEEEEEEEEEEEEE#oo#><ebRRZs4,&#XX,,&o#$,,&&&>,<4iZKnu4<,$.oREEEEEEEE                         ",
"EEEEEEEEEEEEEEEEEEEEEEEEEEEEEEEEEEEEEEEEEEEEEEEEEEEEEEEE#oo#><5lURFhe<&#o.$<>$$#,,&$&&>,3edKKle3,>$#oEEEEEEEE                         ",
"EEEEEEEEEEEEEEEEEEEEEEEEEEEEEEEEEEEEEEEEEEEEEEEEEEEEEEEEJoo$><4aLEJzt<&$o..<,&##&,>$$$>,<3rxKGa5<,&o>oEEEEEEE                         ",
"EEEEEEEEEEEEEEEEEEEEEEEEEEEEEEEEEEEEEEEEEEEEEEEEEEEEEEEEToo$&,3iFRLbi3>$+..$<&###,<&$$&>,<4iDKnu4,>$ooKEEEEEE                         ",
"EEEEEEEEEEEEEEEEEEEEEEEEEEEEEEEEEEEEEEEEEEEEEEEEEEEEEEEEEoo#&,3rVUUSd5,$#..o,>$##$<>&$$&>,39fJJhr3,&$.oUEEEEE                         ",
"EEEEEEEEEEEEEEEEEEEEEEEEEEEEEEEEEEEEEEEEEEEEEEEEEEEEEEEEEoo#$,<5lKEHlr<&#o..$,$###>,&$$$&,<3rvKDd5<>&$&oEEEEE                         ",
"EEEEEEEEEEEEEEEEEEEEEEEEEEEEEEEEEEEEEEEEEEEEEEEEEEEEEEEEEoo#$><4pFEUbi3>$o..o>&$##$,>$$$$&,<4pDLFp4,&$o>oEEEE                         ",
"EEEEEEEEEEEEEEEEEEEEEEEEEEEEEEEEEEEEEEEEEEEEEEEEEEEEEEEEEooo$&,3rvERSd4,$o...$>&$o$>,&$#$$>,<5fKRnt3,&$oooEEE                         ",
"EEEEEEEEEEEEEEEEEEEEEEEEEEEEEEEEEEEEEEEEEEEEEEEEEEEEEEEEE.oo#&,<5fUEGhe<&#...#&&$##$,>$##$&><3rxTTle<>$#.oKEE                         ",
"EEEEEEEEEEEEEEEEEEEEEEEEEEEEEEEEEEEEEEEEEEEEEEEEEEEEEEEEEPoo#$><4iFEPxt3>$o..$&&&$#$&>#oo#$&,<4uDEGa4,&$+.oEE                         ",
"EEEEEEEEEEEEEEEEEEEEEEEEEEEEEEEEEEEEEEEEEEEEEEEEEEEEEEEEEEo.+$&,3rnEECa5,&+..#&>&$$$$&#..#$$>,35fKUBu3>$$o.oR                         ",
"EEEEEEEEEEEEEEEEEEEEEEEEEEEEEEEEEEEEEEEEEEEEEEEEEEEEEEEEEEo.o$&,35lEEKlr3,$...ooooooo...#o#$&,<3rzFKxe<>$$..o                         ",
"EEEEEEEEEEEEEEEEEEEEEEEEEEEEEEEEEEEEEEEEEEEEEEEEEEEEEEEEEE..o#&,35pLERvp4,&Ooo&443<,<3<,$##$$&,<4tzGGd4,&$#.oD                        ",
"EEEEEEEEEEEEEEEEEEEEEEEEEEEEEEEEEEEEEEEEEEEEEEEEEEEEEEEEEE..o#>,435tGF5>,<<,$$o>ppapprt4,$$$$$&,<4ivKm<$$$$$ooT                       ",
"EEEEEEEEEEEEEEEEEEEEEEEEEEEEEEEEEEEEEEEEEEEEEEEEEEEEEEEEEE..o#>&33<>53$##ooo#$$Oradfptr5,,$###$&,354>&$&$$$$#.oU                      ",
"EEEEEEEEEEEEEEEEEEEEEEEEEEEEEEEEEEEEEEEEEEEEEEEEEEEEEEEEEELo.$&&&$ooo##$&$####$O<ipspiee3,&#oo#$&&#$$>er8433>&.o                      ",
"EEEEEEEEEEEEEEEEEEEEEEEEEEEEEEEEEEEEEEEEEEEEEEEEEEEEEEEEEERo+$<$$#>4vHPGZbli3,$##epfdir54,,#..o##o#,tgFZlpe43<&.o                     ",
"EEEEEEEEEEEEEEEEEEEEEEEEEEEEEEEEEEEEEEEEEEEEEEEEEEEEEEEEEEEo$$$o$dmALRRLFVzdt5&#O3rpspte43,#o.##o$15ufDJFzpe53,$oH                    ",
"EEEEEEEEEEEEEEEEEEEEEEEEEEEEEEEEEEEEEEEEEEEEEEEEEEEEEEEEEEEo#oo>lvnZJEEUGZvfu5,##$eiddpr55,,o##o$<4etfnKJZkt5334,oK                   ",
"EEEEEEEEEEEEEEEEEEEEEEEEEEEEEEEEEEEEEEEEEEEEEEEEEEEEEEEEEEEooo>alvnCGEEEKDnkpe1$+O4tldfrr43,$#o$,,<4tfzSJGnde4343$o                   ",
"EEEEEEEEEEEEEEEEEEEEEEEEEEEEEEEEEEEEEEEEEEEEEEEEEEEEEEEEEEEoo>ragxbCGTEEPFVzae4>#O&rpdfpte43&o$>&&,3eisvFJFxi531<,oo                  ",
"EEEEEEEEEEEEEEEEEEEEEEEEEEEEEEEEEEEEEEEEEEEEEEEEEEEEEEEEEEE#o3rpfzbCFPEEUGZvft5,$O#4iadsre34<$&$$$>34eufVGHChr4<<,&oo                 ",
"EEEEEEEEEEEEEEEEEEEEEEEEEEEEEEEEEEEEEEEEEEEEEEEEEEEEEEEEEEETo3rpflvVFLEETKSmlpe3&#O>rpdape4553,$#$,134epzAJFbse4<,>$oG                ",
"EEEEEEEEEEEEEEEEEEEEEEEEEEEEEEEEEEEEEEEEEEEEEEEEEEEEEEEEEEEE#<rpdlxBDKRETKFMzsr4,#O#4udsi55554>&<&$<<35rfbDGSzp53,,&#oT               ",
"EEEEEEEEEEEEEEEEEEEEEEEEEEEEEEEEEEEEEEEEEEEEEEEEEEEEEEEEEEEE#,eiahxmDKRERLGCvfie3&OO>epaieitpirre3#$><4eilnGHChr4<,>$ooR              ",
"EEEEEEEEEEEEEEEEEEEEEEEEEEEEEEEEEEEEEEEEEEEEEEEEEEEEEEEEEEEE#>euafzbDJTERUHZmlar4,$O$4ri54bGZFVVnz<#&><4epzZHFva53,>&#oo              ",
"EEEEEEEEEEEEEEEEEEEEEEEEEEEEEEEEEEEEEEEEEEEEEEEEEEEEEEEEEEEEE&etpfzbZJTEEYKDMxfi93&OO,4e>>FDbbnnbnx$$%,34rdbGJSlt4<,>&#oV             ",
"EEEEEEEEEEEEEEEEEEEEEEEEEEEEEEEEEEEEEEEEEEEEEEEEEEEEEEEEEEEEE&5tpdlxCGUEERKFCblar4,$o$,<>#rSCbCSFZl4O$>,35ukVGGmde3,>>$ooK            ",
"EEEEEEEEEEEEEEEEEEEEEEEEEEEEEEEEEEEEEEEEEEEEEEEEEEEEEEEEEEEEE$5rishxBFPEERLGCmxfi51&OO&>,#>FFbSSGbCx&#&><3epxDJFzi43,>&$ooU           ",
"EEEEEEEEEEEEEEEEEEEEEEEEEEEEEEEEEEEEEEEEEEEEEEEEEEEEEEEEEEEEE$4riafzbFKREEUJSnvhpr4,#O$&,&$xCnmZnmbZf$$>,<3rfbFJVhr4<,>&$ooR          ",
"EEEEEEEEEEEEEEEEEEEEEEEEEEEEEEEEEEEEEEEEEEEEEEEEEEEEEEEEEEEEE$<eipfzvZJTEETKDmvlat53&#O&>>orFCnCnnnbC4$>>,<4ulCHGva53,,>&#oo          ",
"EEEEEEEEEEEEEEEEEEEEEEEEEEEEEEEEEEEEEEEEEEEEEEEEEEEEEEEEEEEEE#>eypdlxVGPEETKDMvkate4,$#$&>$#SFnnVDnbnx$$>>,<5pxFJDzt4<,>&&ooC         ",
"EEEEEEEEEEEEEEEEEEEEEEEEEEEEEEEEEEEEEEEEEEEEEEEEEEEEEEEEEEEEE#&etpahzbSJRERGnlurre543>$#&>>o5JDnVDCnmDi$&>>,3edvHJnde3<,>>&ooK        ",
"EEEEEEEEEEEEEEEEEEEEEEEEEEEEEEEEEEEEEEEEEEEEEEEEEEEEEEEEEEEEE$$5tpahlxnDPELae&###$$&>>$$$&>$oxKVVZCCSnC,$>>><4tdbJGfu3>>,>>$ooP       ",
"EEEEEEEEEEEEEEEEEEEEEEEEEEEEEEEEEEEEEEEEEEEEEEEEEEEEEEEEEEEEEo#5tpafjkfd5,<4tt43<,>&$$$$O$>>#>JFVnVnbbVs$$>>,35razF<$########oo       ",
"EEEEEEEEEEEEEEEEEEEEEEEEEEEEEEEEEEEEEEEEEEEEEEEEEEEEEEEEEEEEEoo4tadfh1,<<hEETHFSDvhaie3>#O$>$$fJCnmbbxxx3$>>>3433&>$$$$$$$###ooa      ",
"EEEEEEEEEEEEEEEEEEEEEEEEEEEEEEEEEEEEEEEEEEEEEEEEEEEEEEEEEEEEEoo4tage$$3pKEEEELFDDZxfdffa4#o>&o<FFDZDFFFFz<$&>3&#$&,rir5ee4<&$#oo      ",
"EEEEEEEEEEEEEEEEEEEEEEEEEEEEEEEEEEEEEEEEEEEEEEEEEEEEEEEEEEEEEo#<yp<o#4ZFKEEEEUGFDFmnlhffd3>&$#&sHGGGFFDnd3$&>$$$3tfnCVxfie3<,&&oo     ",
"EEEEEEEEEEEEEEEEEEEEEEEEEEEEEEEEEEEEEEEEEEEEEEEEEEEEEEEEEEEEEE$&p,oorVZFKEEEEULKJFVZDSCxxl1&$$><&$$$&>&>,<>$&&4eraxCFDCzpe3<,>,>$R    ",
"EEEEEEEEEEEEEEEEEEEEEEEEEEEEEEEEEEEEEEEEEEEEEEEEEEEEEEEEEEEEEE$$ro#anZSDKTEEEUPKKKKKKKLKDxi>$&,3544<<>$$$&$$45etphbAFFFnae4<,,,,,d    ",
"EEEEEEEEEEEEEEEEEEEEEEEEEEEEEEEEEEEEEEEEEEEEEEEEEEEEEEEEEEEEEE$o&$ixmSDDKEETGGGFFDZVVbxFFvf3$&<4i5e54<$$$#oo3eerplbDFGGAht5<,,>>,,f   ",
"EEEEEEEEEEEEEEEEEEEEEEEEEEEEEEEEEEEEEEEEEEEEEEEEEEEEEEEEEEEEEE$o,azzVDFKPUFClr<$&$####o#4fzr$<3e5rre54>$###o<teeuzxbCxpre543,,>>>>,b  ",
"EEEEEEEEEEEEEEEEEEEEEEEEEEEEEEEEEEEEEEEEEEEEEEEEEEEEEEEEEEEEEE#otxzxVGKLGz5%&#O###$$$$ooo>pp&3533etite<&$$$o$44rr44,$$&&$$$$$&&>>>,p  ",
"EEEEEEEEEEEEEEEEEEEEEEEEEEEEEEEEEEEEEEEEEEEEEEEEEEEEEEEEEEEEEEo$4xxvGPKl<$oo#$$$$$3&$$oooo$uaispppapppiiuutt445>##ooo#$$$$&&###$$>,,S ",
"EEEEEEEEEEEEEEEEEEEEEEEEEEEEEEEEEEEEEEEEEEEEEEEEEEEEEEEEEEEEEEo&>vbGUD4&#o$<45>$$3l5>><&##o>V3,,,334<<,,,,,3p4$##oooo$&&&&>>&$$$#&,,5 ",
"EEEEEEEEEEEEEEEEEEEEEEEEEEEEEEEEEEEEEEEEEEEEEEEEEEEEEEEEEEEEEEo5$FFLC$&oo35445&$>zp<,<$$#$$$Fd#o$>,,>&&$#ooodu,#..oo#$>>&>,,,>>>$#&,rL",
"EEEEEEEEEEEEEEEEEEEEEEEEEEEEEEEEEEEEEEEEEEEEEEEEEEEEEEEEEEEEEEo4oLFF$$##<55535>,5r333,$$o$$$FDnZJTRRRTLDxlfdll<ooooo$&>>,<<,,,,,>$$$3D",
"EEEEEEEEEEEEEEEEEEEEEEEEEEEEEEEEEEEEEEEEEEEEEEEEEEEEEEEEEEEEEEo<oCCe$o#3445555<e5<343,&$ooo$DFbifnZZZvht5443zv<oooo#$&>,,<<,,,,,,&$$&l",
"EEEEEEEEEEEEEEEEEEEEEEEEEEEEEEEEEEEEEEEEEEEEEEEEEEEEEEEEEEEEEEo,#zdooo,<33455554<4444,&#ooo#vGF$$3<<<>&oooo$lC<$#oo#$&>,,<<,,,<,,&$$$u",
"EEEEEEEEEEEEEEEEEEEEEEEEEEEEEEEEEEEEEEEEEEEEEEEEEEEEEEEEEEEEEEo,<f,#o,<<<234555544453>$oo.o$pHJ,$<<<3>$#o.oopZ<$$o#$$>>,<<<,,<<,>&$$$5",
"EEEEEEEEEEEEEEEEEEEEEEEEEEEEEEEEEEEEEEEEEEEEEEEEEEEEEEEEEEEEEEE,prooo>,<<<2345555445<>$...o$4GJr$,<<<>&ooo.orS3$$##$$&>,<<,,<,,,&&$$#4",
"EEEEEEEEEEEEEEEEEEEEEEEEEEEEEEEEEEEEEEEEEEEEEEEEEEEEEEEEEEEEEEE&f&oo+&,,,<<245555zt5,&$$..o$,FKGFPEEERRLCxlhhS5&#o##$&>>,<,,,,>&&$$o#4",
"EEEEEEEEEEEEEEEEEEEEEEEEEEEEEEEEEEEEEEEEEEEEEEEEEEEEEEEEEEEEEEE&poooo>,>,,,<p4555ldt>&$d#o#&,CLZdbDFGFClie5eiCt,&####&>>>>>>>&&&$#ooo3",
"EEEEEEEEEEEEEEEEEEEEEEEEEEEEEEEEEEEEEEEEEEEEEEEEEEEEEEEEEEEEEEE$s$$o.$>>,>,,354e5tLF>$,s4$><,lKZ&,,<3<,$o.ooomi54,##$,34<&&$&&$$#oooo,",
"EEEEEEEEEEEEEEEEEEEEEEEEEEEEEEEEEEEEEEEEEEEEEEEEEEEEEEEEEEEEEEEou&$oooo$,,>,<4rrrea4#,rCi&<3,tJK&,,<<3<$ooooovi5553&&>edde,###ooooooo ",
"EEEEEEEEEEEEEEEEEEEEEEEEEEEEEEEEEEEEEEEEEEEEEEEEEEEEEEEEEEEEEEEoe#$$#ooo$&,,,<<32>>>$#.ni<53,<GU$>,<<<<$#ooooxue454<$>efzp<&oXooooooo ",
"EEEEEEEEEEEEEEEEEEEEEEEEEEEEEEEEEEEEEEEEEEEEEEEEEEEEEEEEEEEEEEEo,$&%oooooo$>,,,>&2ii<#ov55r3>,GUf4plbSDCbfsddVaree43$,4rai4$o.+ooooo# ",
"EEEEEEEEEEEEEEEEEEEEEEEEEEEEEEEEEEEEEEEEEEEEEEEEEEEEEEEEEEEEEEE$>>$,$#ooo..$>$#$tbFnr$#f5er4>>SUFGUEEEEUFlueebhirree$&<5e4&#o.o#oooo, ",
"EEEEEEEEEEEEEEEEEEEEEEEEEEEEEEEEEEEEEEEEEEEEEEEEEEEEEEEEEEEEEEE$&,$,,&#oo..&<#o4mJLVt,<e5ere,&lPl#$,<<3>$oooohhurrte3$$,3>$ooX###$#$  ",
"EEEEEEEEEEEEEEEEEEEEEEEEEEEEEEEEEEEEEEEEEEEEEEEEEEEEEEEEEEEEEEEo$<$>,,$$o...4#.uCGCa4<e5riat,&tLDo#,<<3,&ooo#altrrtr53$+oooooXo#$&#,  ",
"EEEEEEEEEEEEEEEEEEEEEEEEEEEEEEEEEEEEEEEEEEEEEEEEEEEEEEEEEEEEEEE#$<,$,<,$$#o$,,.4xae3<45eisha<>4KK#&35rte<$$$$tzurrrie41>$oo$#o#$&$$   ",
"EEEEEEEEEEEEEEEEEEEEEEEEEEEEEEEEEEEEEEEEEEEEEEEEEEEEEEEEEEEEEEE#$&<&$,<,&$$#>$o$4<<,<4rufgbh<>3GRFPEEEEERRGZCpVatrrtie43>>>>$$$$##    ",
"EEEEEEEEEEEEEEEEEEEEEEEEEEEEEEEEEEEEEEEEEEEEEEEEEEEEEEEEEEEEEEE$$$<,&o>,>&$$$$$$$&>3yiaffbCx4><FU3#&,344<&$$$4Ddsree54<433<,>&&$$<    ",
"EEEEEEEEEEEEEEEEEEEEEEEEEEEEEEEEEEEEEEEEEEEEEEEEEEEEEEEEEEEEEEE>$$<><$o##$,,>&>,,<euddfgVFCmp&,nUi>$><34<&$$#oxrpue5555<23<<,>&$o     ",
"EEEEEEEEEEEEEEEEEEEEEEEEEEEEEEEEEEEEEEEEEEEEEEEEEEEEEEEEEEEEEEE3#$,,&<#$&3e44555etpfgfxZKGJJG<&aUm&o$>,,&#ooooVzdtrre5443<<<,,&$$     ",
"EEEEEEEEEEEEEEEEEEEEEEEEEEEEEEEEEEEEEEEEEEEEEEEEEEEEEEEEEEEEEERE#$&&,<rtpturtipppdfzzCFLPTRKf,$4LUHvZJGCzfapienr$,<rit543333,&>$$     ",
"EEEEEEEEEEEEEEEEEEEEEEEEEEEEEEEEEEEEEEEEEEEEEEEEEEEEEEEEEEEEEEEEo#$$,<tvlfppsdddfgbCFKPUTZr1ur3,FULJJGFGJKKGFVa4,$#$,3ei53&&<,,$#     ",
"EEEEEEEEEEEEEEEEEEEEEEEEEEEEEEEEEEEEEEEEEEEEEEEEEEEEEEEEEEEEEEEEo#$$><3ZbhdhlgkvnVFLLUTb,,,>=&&&ZKbie4rt4<3,o.$4=%###$,3ui,,,,,>$     ",
"EEEEEEEEEEEEEEEEEEEEEEEEEEEEEEEEEEEEEEEEEEEEEEEEEEEEEEEEEEEEEEEEo##$><3CDzxvvVCSFGPUUz,=$@&-=-6w&<#$$$$#$###o.#2%%%&$##$&3u4<$$&$     ",
"EEEEEEEEEEEEEEEEEEEEEEEEEEEEEEEEEEEEEEEEEEEEEEEEEEEEEEEEEEEEEEEE#o#$><3lFvvVzDFJLUUh3>@@@=+$*-;w8&&$&>>&>>&&$.o<%%==$$###$$54<,>$     ",
"EEEEEEEEEEEEEEEEEEEEEEEEEEEEEEEEEEEEEEEEEEEEEEEEEEEEEEEEEEEEEEEE$o#$&<4tDnbbmbNUUk,=$$&*$#Xo@=;;wo>&&>>>>>&$$oo&%=%$O#$##+##<4<<$     ",
"EEEEEEEEEEEEEEEEEEEEEEEEEEEEEEEEEEEEEEEEEEEEEEEEEEEEEEEEEEEEEEEE&o#$&<33CSfzCKIL$=@@*-**O@.#@*;6wo$&&>&>>&$#oo.$==*#o+%$$o####3,>     ",
"EEEEEEEEEEEEEEEEEEEEEEEEEEEEEEEEEEEEEEEEEEEEEEEEEEEEEEEEEEEEEEEE3o#$$<33gFnFGPL>=@**$*;-,@oXO*;6w#$&&&&&$$#ooo.#*,%@Oo$$&oO#@#&<<$    ",
"EEEEEEEEEEEEEEEEEEEEEEEEEEEEEEEEEEEEEEEEEEEEEEEEEEEEEEEEEEEEEEEEpo#$&,<3tFvGKl4&@-1o.*-;*XO$O$-6w,$&&$$&<3<,$oo#==-*Oo+#@+o@#$#$,#    ",
"EEEEEEEEEEEEEEEEEEEEEEEEEEEEEEEEEEEEEEEEEEEEEEEEEEEEEEEEEEEEEEEEEoo$&,<43CSKe%$@%-6.%O---+X+XO;;w0$&&#&4uaiu4$oo*=-*+oo@##o+###+oo    ",
"EEEEEEEEEEEEEEEEEEEEEEEEEEEEEEEEEEEEEEEEEEEEEEEEEEEEEEEEEEEEEEEEE#o$$><43FDe==*@-*,#.**--Ooo%$;-ww&&$#3slzzx5>#o@=-=+oo@##oo###+o+    ",
"EEEEEEEEEEEEEEEEEEEEEEEEEEEEEEEEEEEEEEEEEEEEEEEEEEEEEEEEEEEEEEEEE$o$$><43Ge%=-O.;%:$.#*-;=+=$.--0w=$$$rllvCC3$#o#=--#oo@@#+o+##Ooo    ",
"EEEEEEEEEEEEEEEEEEEEEEEEEEEEEEEEEEEEEEEEEEEEEEEEEEEEEEEEEEEEEEEEE&o$$><34r5$;;O.-6;$.=*=;@o++.-*;w6$&&ullxnl<$$o#=-,@oo#@#@oO@##o+F   ",
"EEEEEEEEEEEEEEEEEEEEEEEEEEEEEEEEEEEEEEEEEEEEEEEEEEEEEEEEEEEEEEEEE>o#$>,33&&*:-+.--6@oo*--=.+$.-*-ww+$&rlfhfu4,oo+=--$Oo+@#$#o@@$oo$   ",
"EEEEEEEEEEEEEEEEEEEEEEEEEEEEEEEEEEEEEEEEEEEEEEEEEEEEEEEEEEEEEEEEE3o#$&,33>$=:;$.=;-*X+*---.$oX@*-0w$#&3assi3,eooo*--%Ooo$#&$O#@$#o$   ",
"EEEEEEEEEEEEEEEEEEEEEEEEEEEEEEEEEEEEEEEEEEEEEEEEEEEEEEEEEEEEEEEEEEoo$&>33$$;:-$.*-**XO*-*6.*+&$;*6w;O$&4te54eoooo*,-*+oo@@$%+O@$&+#   ",
"EEEEEEEEEEEEEEEEEEEEEEEEEEEEEEEEEEEEEEEEEEEEEEEEEEEEEEEEEEEEEEEEEEoo$&>33$%;--@#;6&8@@--=6#=+O@**-wwo$$$>,&$ooooo*--=#oo$@$=$o@$$+#   ",
"EEEEEEEEEEEEEEEEEEEEEEEEEEEEEEEEEEEEEEEEEEEEEEEEEEEEEEEEEEEEEEEEEEoo$3&<3$%--=@o1:*0&#:-<6$&#$O**-qw+$##ooooooooo*=;-@oo#$*=%o+@&##$  ",
"EEEEEEEEEEEEEEEEEEEEEEEEEEEEEEEEEEEEEEEEEEEEEEEEEEEEEEEEEEEEEEEEEE$$$3tzZEEEEE*o**X6oo*@X-%@#O.OX-7w=Oo#ooooooooo$-;-$Oo+$%=%#o$$#$&  ",
"EEEEEEEEEEEEEEEEEEEEEEEEEEEEEEEEEEEEEEEEEEEEEEEEEEEEEEEEEEEEEEEEEEEEEEEEEEEEEEEEEEEEEEEEEEEEEEEEEEEEEEEEEEEEE                         ",
"EEEEEEEEEEEEEEEEEEEEEEEEEEEEEEEEEEEEEEEEEEEEEEEEEEEEEEEEEEEEEEEEEEEEEEEEEEEEEEEEEEEEEEEEEEEEEEEEEEEEEEEEEEEEE                         ",
"EEEEEEEEEEEEEEEEEEEEEEEEEEEEEEEEEEEEEEEEEEEEEEEEEEEEEEEEEEEEEEEEEEEEEEEEEEEEEEEEEEEEEEEEEEEEEEEEEEEEEEEEEEEEE                         ",
"EEEEEEEEEEEEEEEEEEEEEEEEEEEEEEEEEEEEEEEEEEEEEEEEEEEEEEEEEEEEEEEEEEEEEEEEEEEEEEEEEEEEEEEEEEEEEEEEEEEEEEEEEEEEE                         ",
"EEEEEEEEEEEEEEEEEEEEEEEEEEEEEEEEEEEEEEEEEEEEEEEEEEEEEEEEEEEEEEEEEEEEEEEEEEEEEEEEEEEEEEEEEEEEEEEEEEEEEEEEEEEEE                         ",
"EEEEEEEEEEEEEEEEEEEEEEEEEEEEEEEEEEEEEEEEEEEEEEEEEEEEEEEEEEEEEEEEEEEEEEEEEEEEEEEEEEEEEEEEEEEEEEEEEEEEEEEEEEEEE                         ",
"EEEEEEEEEEEEEEEEEEEEEEEEEEEEEEEEEEEEEEEEEEEEEEEEEEEEEEEEEEEEEEEEEEEEEEEEEEEEEEEEEEEEEEEEEEEEEEEEEEEEEEEEEEEEE                         ",
"EEEEEEEEEEEEEEEEEEEEEEEEEEEEEEEEEEEEEEEEEEEEEEEEEEEEEEEEEEEEEEEEEEEEEEEEEEEEEEEEEEEEEEEEEEEEEEEEEEEEEEEEEEEEE                         ",
"EEEEEEEEEEEEEEEEEEEEEEEEEEEEEEEEEEEEEEEEEEEEEEEEEEEEEEEEEEEEEEEEEEEEEEEEEEEEEEEEEEEEEEEEEEEEEEEEEEEEEEEEEEEEE                         "
};
