/* XPM */
static char *_285c4c7d7154603b069d43feeda2726_7[] = {
/* columns rows colors chars-per-pixel */
"79 60 36 1 ",
"  c None",
". c #050404",
"X c #0C0C0C",
"o c #1A120B",
"O c #101010",
"+ c #161616",
"@ c gray11",
"# c #251B0F",
"$ c #332614",
"% c #3B2B1C",
"& c #3B301D",
"* c #262525",
"= c #48341D",
"- c #543D1C",
"; c #5A4327",
": c #694623",
"> c #764F2A",
", c #8A5A33",
"< c #825C3D",
"1 c #996138",
"2 c #A2693C",
"3 c #AA6D41",
"4 c #AF6D42",
"5 c #AC7244",
"6 c #B27145",
"7 c #B57548",
"8 c #BE7949",
"9 c #BD7D51",
"0 c #CA7D4D",
"q c #CF8251",
"w c #D38350",
"e c #D78A59",
"r c #DF9261",
"t c #E79A69",
"y c #F1A473",
"u c #FDB484",
/* pixels */
"                                                                               ",
"                                                 ;;>>;>                        ",
"                                              -,6qeeer8,;-*-                   ",
"                              &&$$o@@@****;=->,2qre8662,>:;==                  ",
"                            $$$&&$$$oo@$&>,,26qeq883121,,>>----                ",
"                          =$&-1,:;=$$$$=>26eqqq8862,,,>;-;--&**-               ",
"                         $$;21,,,>;-=*-,6rtrq88331,>;;********@***-            ",
"                       -$&13,,1>;--**-;qyyre862,;=*********-;->,;;**-;         ",
"                      -$=11,>>;--**;,2etreq03>-@@*;2,36ee8eeerttrr2,,;-*       ",
"                     -$-2,,:>:-*=,60e063382>=*@*;3qt0ettyyuuuuuyttreee3>-*     ",
"                    ==;22,>>-=-,888882221>=**;10eeqrr8yuyuyyytttreertr1>:-;    ",
"                   -=;,,,>;--:38888621,,-**;6e8ryertt8rttreq0800866661>;:***   ",
"                  $=-:,>:;;;,888883,>;=O$-1qrrtyyyyyttee061111,,,,,,,>>:;-=+   ",
"                 $-;:>:--;>5888861,:=@o-,qertyuuuytr80311,,>::;;;;;::;---$+@   ",
"               *&=:;;;-;:28636621>;$o%,8ertyuuyytre062,,>;;--=$@@@**&==$+XX    ",
"              ==;;-;;;;198322221>;$$;1qrrtyytttrrq61,:$*@@++*****+Xo++         ",
"              =:;==-;,38e831111>;==>18qeereeeeee03,:&oX+@@*                    ",
"             =:;===>3788e83,,,>&==,1280qq0q86663,:&+.o@*                       ",
"            -:-&&->3688qe821,:&&-,260eeeq03221>>-@.X$                          ",
"          &-:-&&-,278eeeq6,>>:;;,38qeeeqq821,:;&@XX*                           ",
"         &-:;&&;,168rrr0621>;;>26886686232,>-&$o..X.X+*--******==&*$*$*$o++++  ",
"       $&-;;&&:,15qrrr8632,:>2qeq83222111,=$$ooX.+@&-*$*$*:--::::;---:,11>>-$- ",
"      $&=;;-=>113qrr888862,,3erre621,,11,-ooO+@=-;:;;;;-->>,,,3388888q8q8q731; ",
"     &$->;-->113qtr8688631,19ettr61,,1,>=o++$-;>,,,,1222,,3621268qeerrrr3886,--",
"    &=-1;-->122qte8668663223rytte3,,,,>$@$&->,12215378qq080q086888eee8qq0088>--",
"   &=,3>--<1230te868q886666eyytr02,,>:&$$=>2236668qeeee06880qq00680e628q11,,;=-",
" -$=181--,1238re868e08888qrtyyrq61,>>;&&>1366880qeeeereqq86128688883211,11>--= ",
"-$&>82;-,2226eq86qqqq880qeyyte83,,>:;-;2800866888qeeeeq086663,12221,,,>:--===  ",
"#$:83,->3323eq88qqqq8q8etyye831,>::;;,8qqq86336668qqq86111,,1,,,,,>;-=****     ",
"$=861>:36338888qqqq8qqqryte31,,,>>>,10ertr62,123363321>:>,,,>>>;--&*****       ",
"=3q2,;266366888q8qeqqqere82,1,,,,,,2qeryyr61,,,22,1>>;;;>;;;;;&$@***$          ",
">q31>,36366688000qeeqee862,1,1>,,,,6qeyyyq2,>>,,>,:==&=-$@@@$@@                ",
"861,>6633668880q8qq8q862111,1,1,1126qtuyr8,>>:::;=@@@@@@@                      ",
"632>386336688888qq886321122221113338yyt06,,:;;;=@@@@@                          ",
"63,,666336668888qqq632122363222336ere6322>>;--@@@$@$                           ",
"62,38666668880888q86623388883368qee61,1,,,:;-$@@@@                             ",
"62,0q8866688q000qe8866888886680ee82,1111,,;=&@@@@                              ",
"83000886880qqqq0qq88688888880qq86,,11211,;=$@@@@                               ",
"38eq0800qq00qq000866688888800832,111111>:-***@                                 ",
"38qeqreq80q0qq000886888888886211,121,1>:-=**$                                  ",
"308qeere0qqqqqq008886888886333223311,>;-=&*&                                   ",
"18080erreqq80qqee886688086688333211>:;-=$++                                    ",
">66qqqereqqqqqeee888888080q8663211,;;-&@+X*                                    ",
",1680qerrq08qeqeq080080e0qq88663,>:;-*&+X++                                    ",
"1,388qeeee8800qq0q0qq0qq00888862>>:;;-+++@+                                    ",
"32160qeree0088880q000qr0qeq08622>>;;:$ooo***                                   ",
"833260eree0q8888qq00qeeqrre0862,:;;>&+&&$$**&                                  ",
"8632380eeq008886q0qqqeeqeeqe63,>:;>-o$-$*&$**                                  ",
"6682260req08888830qqqeeqq0eee2,>:>-#$=$$#$$$@+e              ****;-;           ",
"3383138qq8800088>000qqqqq8ere2>>>=oo&&$$@o@oo@@*          *===;>,,2,,>;-       ",
"336823680q088888;00qe860qqeq81>,;$$**#$&=-====&**-    ;**->,,,,3600768,*-      ",
"3336333880888888:0qeq82888888,1,&=-$$*#Oooooo+XXX@*****-;,76669qqq8686>;*;     ",
"2212223688880q88;8qeq6,8638681,:=-=$o+ooo$#@o@$@@=---;>2128eeeeq06632,;;**     ",
"2112126888800e86;8qe01,51,2601>>:;;-&$o#o#oo#$$=;;;>,,2878eeeeeqqq6,;-;-**     ",
"232226q00260qe84;8q88,,2,,,88>>;-;----;;;--;;,>>>;,,,,80eqeqeeq00,;-;;-**      ",
"2823eee68,1qee6,&1881:,3>:,73,:--->::>::;;>;>;>;;,119970q0808862,-===;**       ",
",623ree63,,ee82,=266>:12>-,66>>:;>,,>>>>>,>,,,,,,,10688688082,:;=&$            ",
"2813e0e61>>we8,>&362-:21--162>1,16222333,,,1122230083688081>;==$*              ",
"23,1e68,,;-8q7>-=13,->6,&*,31>8688888868800q8800q6333386,>;=$@@@               ",
"66:,q26>,==382>$:,,--:3>$@36;;160q000q00qq6668eeqq8662>:-=$@++                 "
};
