/* XPM */
static char *_285c4c7d7154603b069d43feeda2726_31[] = {
/* columns rows colors chars-per-pixel */
"88 92 100 2 ",
"   c None",
".  c #050404",
"X  c #0F0A07",
"o  c #0C0C0C",
"O  c #100C0C",
"+  c #0F100B",
"@  c #1A120B",
"#  c #101010",
"$  c #161616",
"%  c #1F1E19",
"&  c gray11",
"*  c #251B0F",
"=  c #231E1C",
"-  c #332614",
";  c #3B2B1C",
":  c #3B301D",
">  c #202020",
",  c #262525",
"<  c #2C2C2C",
"1  c #322D2F",
"2  c #2F302C",
"3  c gray19",
"4  c #373636",
"5  c #3C3C3C",
"6  c #48341D",
"7  c #543D1C",
"8  c #3E413A",
"9  c #5A4327",
"0  c #694623",
"q  c #764F2A",
"w  c #7E6128",
"e  c #414141",
"r  c #474746",
"t  c #4D4D4C",
"y  c #58514B",
"u  c #514D51",
"i  c #515151",
"p  c gray34",
"a  c #5D5D5D",
"s  c #605953",
"d  c #5E615D",
"f  c #736651",
"g  c gray38",
"h  c #676767",
"j  c #6F6B6B",
"k  c #6C6D6D",
"l  c #717171",
"z  c #777777",
"x  c gray49",
"c  c #7D7F7C",
"v  c #8A5A33",
"b  c #825C3D",
"n  c #996138",
"m  c #917138",
"M  c #A2693C",
"N  c #AA6D41",
"B  c #AF6D42",
"V  c #AC7244",
"C  c #A4794C",
"Z  c #B27145",
"A  c #B57548",
"S  c #BA7549",
"D  c #B5794D",
"F  c #BE7949",
"G  c #BD7D51",
"H  c #887B62",
"J  c #CA7D4D",
"K  c #AA8737",
"L  c #BE9343",
"P  c #A18F56",
"I  c #BA9A57",
"U  c #C68252",
"Y  c #CF8251",
"T  c #D38350",
"R  c #D78A59",
"E  c #DB8E5D",
"W  c #C6AB4A",
"Q  c #ECB84F",
"!  c #DF9261",
"~  c #E79A69",
"^  c #F1A473",
"/  c #FACD70",
"(  c gray51",
")  c #888887",
"_  c #8D8E8E",
"`  c #908C8C",
"'  c #929292",
"]  c #989898",
"[  c #9E9E9D",
"{  c #A2A2A2",
"}  c #A6A6A4",
"|  c #AFAFAF",
" . c #BBBCBC",
".. c #C7C0BF",
"X. c #C4C5C4",
"o. c #DFDFDF",
"O. c #E2D9D3",
"+. c #E9E9E8",
"@. c #FCFBF8",
"#. c white",
/* pixels */
"                                                                                                                                  a 3 4 , #                                     ",
"                                                                                                                                ( k i 5 < # # o o #.#.#.#.@.#.                  ",
"                                                                                                                              | | ] z d t 3 , $ # o o o $ #.#.#.#.              ",
"                                                                                                                            h l [ | | ( h i e 4 > > 3 4 4 < & #.#.#.            ",
"                                                                                                                            e i h ( | | [ x h z ) ) ( z k k 3 < 5 #.#.#.        ",
"                                                                                                                .           , < e p l ] |  . ._ p , $ # o o o o $ e #.#.        ",
"                                                                                                                . o       o $ > , 4 t h [ ..x , $ # # o o o o . . $ e #.#.#.    ",
"                                                                                          & 3 t _ p e ,         # . > > # o o # $ & < x ' r $ & $ $ - 0 0 0 9 6 . o , 4 #.#.    ",
"                                                                                        & > 3 t _ t 4 & # o   > $ $ , , $ o o o $ $ t z 3 $ $ $ - 6 0 w m w q 0     o $ #.#.#.  ",
"                                                                                      $ & $ < u _ r 3 & # o o & < $ $ , > # o o o # a 5 # o # - 7 w m   w w w w 0 6     # #.#.  ",
"                                                                                    o $ & & 4 p _ t < $ o . # $ , > $ $ < > o o o 3 l $ o o * 9 m m w w   w m w q     -     #.#.",
"                                                                                    o $ $ & 4 i _ t < $ # . o $ > < $ $ > , $ o o k u # o * 7 w m q 7 : 7   q     0 6 ; *   #.#.",
"                                                                                    . $ $ & 3 u _ t < $ o o # $ & 3 , $ $ & , # o h < o o -   w q 6 1 m K q 6 9 C m 9 - *   . #.",
"                                                                                  o . $ $ & 3 i ' p 4 > # # # $ & < > $ $ , , > # i $ o - 7 q w 7 , H / L w 9 ; q L q : * @ . #.",
"                                                                                  o o $ $ , u ] | x a u r t < , $ > , > $ & < < p )   # - 0   w   2 / / m w 9 ; 7 K w : = *     ",
"                                                                                  # # > 3 r ( ' X.| _ l l l x r & & , , & & <   {       - 0 w w ; 8 Q W w 9 7 - 6 r 4       e   ",
"                                                                                  $ & < u l p e 4 & $ # # , g l > > 4 3 3 , <           ; 0 q m 7 < m I w 9 - =                 ",
"                                                                                #.> r h e & $ # # # o o o . . $ p < r (                 -   q   0 6 7   w 6 6             4     ",
"                                                                              #.#.g l e o o o # $ - - - * + .   $     ` [                 ; 9 q       0 q <       ( j r <       ",
"                                                                            #.#.#._ p # o o + - 6   q q 9 : @ O     j [                   * 6 9 w w w q 8               X       ",
"                                                                              #.#.z > o o o ; q w m m w w 0 6 = +     )                     * 6 0 q q                           ",
"                                                                            #.#.' i o o o - q m m w w w   w 9   * +   x                       * ; 7                             ",
"                                                                            9 ; k 4 . o - 0 m w 0 6 9 9 w m     ;     t                         +                               ",
"                                                            #.#.#.#.      y 7 9 e $ . o 6 w w 0 - s m 0 7 b K w : = O   x                           s                           ",
"                                                          #.#.#.#.#.#.#.+.y 0 n r # . - 9 w q ; 8 / W w 7 ;   K 7 - @                                                           ",
"                                                        #.#.#.#.#.#.#.#.y 7 b M 4 o . ; 0 w 0 $ P / K w 0 ; 9 K q - * X                                                         ",
"                                                      #.#.#.#.#.#.#.#.o.y 9 n n , . . - 0 w q % H Q m q 7 - 6 K q - * O                                                         ",
"                                                      #.#.#.#.#.#.#.#.H 6 q M v   . . - 0 w   6 6 P m 8 4 r                                 &                                   ",
"                                                    #.#.#.#.#.#.#.#.@.H 9 n Z n . . . O :     0 7                                                                               ",
"                                                    #.#.#.#.#.#.#.#.H 9 b N V n .   . . @ 7                                                                                     ",
"                                                    #.#.#.#.#.#.#.#.f q N V V n 0 .     . - g                                                                                   ",
"                                                  #.#.#.#.#.#.#.#.H 7 q V N Z n 9 6                                                                                             ",
"                                                  #.#.#.#.#.#.#.#.) 7 n Z N V M 0 6                                                                                             ",
"                                                #.#.#.#.#.#.#.#.#.s 0 V Z N V M q 6 -                                                                                           ",
"                                                #.#.#.#.#.#.#.#.9 6 n A V N V n q 7                                                                                             ",
"                                                #.#.#.#.#.#.#.#.- 9 M Z N V Z n q             &                                                                                 ",
"                                              #.#.#.#.#.#.#.#.) : 0 M A Z A Z n q                                                                                               ",
"                                            #.#.#.#.#.#.#.#.#.y   v V F D D Z n                                   $                                                             ",
"                                            #.#.#.#.#.#.#.#.#.  V M A F D D A M   p x                             $                                                             ",
"                                            #.#.#.#.#.#.#.#.s Z A M S Y G U F M   h       $                                                                                     ",
"                                          #.#.#.#.#.#.#.#.#.q B A A J T F R U M     #                                                                                           ",
"                                          #.#.#.#.#.#.#.#.#.7 N Y G G Y Y ! U N           #                                                                                     ",
"                                        #.#.#.#.#.#.#.#.#.#.6 M F B Z J R ! U N &                                                                                               ",
"                                        #.#.#.#.#.#.#.#.#.#.6 n M M N F E ! Y Z n                                                                                               ",
"                                        #.#.#.#.#.#.#.#.#.#.2 0 v v M U ! ! ! A M n                                                                                             ",
"                                        #.#.#.#.#.#.#.#.#.#., 6 9 b M Y E ! ~ Z A M                                                                                             ",
"                                        #.#.#.#.#.#.#.#.#.#., < 0   Z E ! ! ! D R A @                                                                                           ",
"                                        #.#.#.#.#.#.#.#.#.6 : 6 7 b F E ~ ~ E A E F Z         O                                                                                 ",
"                                        #.#.#.#.#.#.#.#.#.6 6 6 0 M Y ! ! ~ ! R ! U F X                                   O.                                                    ",
"                                      #.#.#.#.#.#.#.#.#.#.: 7 9 b F R ! ! ~ E E E U F M                                                                                         ",
"                                      #.#.#.#.#.#.#.#.#.#.: 7 0 n Y E ! ! E R R R F A N 6                                                                                       ",
"                                      #.#.#.#.#.#.#.#.#.#.: 9 q M J R E E R R R U A Z V A &                                                                                     ",
"                                      #.#.#.#.#.#.#.#.#.= 6 0 v M U R E E U R R R D A A D B                                                                                     ",
"                                      #.#.#.#.#.#.#.#.#.- 6 q v B Y ! E R R U R U G G A A M v                                                                                   ",
"                                    #.#.#.#.#.#.#.#.#.#.- 7 v v F R ! E R R R U U G D Z V n v Z n                                                                               ",
"                                    #.#.#.#.#.#.#.#.#.#.- 0 n N Y E ! E E R U U U D V V N n n N M v q d                                                                         ",
"                                    #.#.#.#.#.#.#.#.#.#., 0 n Z R R E R E R R U G A V V N N M N M v v                                                                           ",
"                                    #.#.#.#.#.#.#.#.#.- : q n A R E ! R E R U U G Z V V M M N M N n v n                                                                         ",
"                                    #.#.#.#.#.#.#.#.#.- 6 q M U R ! ! R E E U U D V N N N M M M M n v n                                                                         ",
"                                    #.#.#.#.#.#.#.#.s : 9 v N   R E E R R R U U D V N N M M M n n n v v                                                                         ",
"                                  #.#.#.#.#.#.#.#.#.- 6 q M Z F Y ! R R R R U G D V N N M M n n n n v v                                                                         ",
"                                  #.#.#.#.#.#.#.#.#.- : q N N A Y E R R R U U G A N N M M M n n n b q   a                                                                       ",
"                                #.#.#.#.#.#.#.#.#.f ; 6 q q v   Y R U U R R U G D V N M M n n v v v q q                                                                         ",
"                                #.#.#.#.#.#.#.#.#.* - 7 0 6 v J U E R U U U U G A N M n n n v   b v b q 0 j                                                                     ",
"                                #.#.#.#.#.#.#.#.#.* ; 6 : 9 N U R E R U U U U G V N n n n v v v b q q q 0 q                                                                     ",
"                                #.#.#.#.#.#.#.#.@ - - : 7 v S Y R E R U U U U D V N n n b v v b   v q q q                                                                       ",
"                              #.#.#.#.#.#.#.#.#.@ * ; 7 v N U R Y R R U R U G A V M n n v v v q q b q q q                                                                       ",
"                            #.#.#.#.#.#.#.#.#.#.* - : q N A Y R Y R U R U G A N N M n b v v q q q q q q q   0 o                                                                 ",
"                            #.#.#.#.#.#.#.#.#.+ - : q M A A U Y Y R U U U D N N M n v v b v b q q b q   q 0 0                                                                   ",
"                            #.#.#.#.#.#.#.#.s - - 6 7 0 0 q M S Y U U U G A N M M b v v v v q q q b v q q q 0 o                                                                 ",
"                          #.#.#.#.#.#.#.#.4 * - - : 6 7 0 v N G U R R U G D N M M v v v v v b b q q v b q 0 0 0   o                                                             ",
"                          #.#.#.#.#.#.#.#.* & - : 6 6 q N F F U R R R U G D N M M b v v b v b q q b n n q   9 q o *                                                             ",
"                        #.#.#.#.#.#.#.#.3 % - ; 6 0 q n Z U Y U R R U U U D V N M M n v   q v b b v v b q 9 9 9     9 9 9 9 7   * ; 0 q q 0 0 : = $ + o                         ",
"                        #.#.#.#.#.#.#.#.- - & 2 9 0 q v M S Y E E U U G G D V V M n n n b q b q 0 b v b v 0 9 7 9   9 9 9 9 7 6 * * 7 q q 7 : = $ @ +                           ",
"                      #.#.#.#.#.#.#.#.< 7 7 - ; 6 9 v n n N U ! E E U G D D A C N M   n v q q q 9 q q v b q   7 9   9 9 9 9 9 7 - * 6 9 7 - -   @                               ",
"                    #.#.#.#.#.#.#.#.#.: 0 n q ; & 6 q n n Z Y R R R U U G D C C b v b v b b q   0   q q b q 0 7 6 0 9 0 9 9   9 - * ; - - - * * #.                              ",
"                    #.#.#.#.#.#.#.#.#.: q N Z v 6 , 6 0 v M V G U R U U G D D q 7 6 7 7   q q q 0   0   0 q q 9 6 9   9 0 9   7 - * - - * * #.#.                                ",
"                  #.#.#.#.#.#.#.#.#.#.- 0 M A A n 0 7 6 9 v M B G U U U G D V n b 9 6 : 6 6   q q q 7 7   q q 0 7 7 0 0 9 9 9 6 ; * - = % #.#.#.                                ",
"                  #.#.#.#.#.#.#.#.#.> , 6 q M Z Z M v q 9 6 0 v N Z D G G V M M M b q 0 6 6 :   0 0 7 ; 7 7 0 q 7 ; 7 0 0 9 9 6 6   * * #.#.#.                                  ",
"                  #.#.#.#.#.#.#.#.* < - & 2 0 v N N N A M q 9 9 q v v M M v v n n v v   0 7 : - : 7 7 ; - 7   9 7 ;   0 0 9 7 ; :   - #.#.#.#.                                  ",
"                #.#.#.#.#.#.#.#.= : 6 6 6 : - 9 q n M M V   v   9 9 0 q v 6 7   q q q q 0 0 9   , - 6 6 ; - 6 7 7 : - 7 0 9 6 - - = #.#.#.#.    #.                              ",
"                #.#.#.#.#.#.#.* - , 6 7 9 9 < : 9 q v v n M M v 0 7 7 q q : , ; :   q q q 0   0 7 6 : - - - -   9 6 * 6 0 9 6 - * #.#.#.#.#.                                    ",
"                #.#.#.#.#.#.& : ; : : 6     v 0 6 6 7 q v v n n n     9 0 9 6 : , ; 7 9 9 0 0 0 9 7 6 - = - - ; 6 :   ; 7 6 - #.#.#.#.#.#.#.                                    ",
"            #.#.#.#.#.#.#.#.= 7 9 q 9 : 6 6 q n n q : 4 9 9 q q   n v q q q q 9   : , % > 6 6   9 7 6 : - - * - ; ;   - - - #.#.#.#.#.#.                                        ",
"            #.#.#.#.#.#.#.$ 6   n   v 0 9 < 6 q M N n b 9 6 6 6 9 v n v v v q q 0 7 : - = - , :   9 7 6 ; - - ;   * * - , #.#.#.#.#.#.#.                                        ",
"          #.#.#.#.#.#.#.#.@ - 0   Z Z B N v 9 6   v F J V n q 9 7 0 0   v v v q 0 9 7 6 < - * % ; 6 7   6 : - , ; * * = #.#.#.#.#.#.#.#.                                        ",
"        #.#.#.#.#.#.#.#.#.$ * $ * 7 b N S S Z       q M S J F Z n v q   9 v n v q 9 9 6 6 6   - $ = : 9 7   - % = - ; #.#.#.#.#.#.#.                                            ",
"      #.#.#.#.#.#.#.#.#.; * - ; - $ > : 0 b n   N v q 0 q M F T R U S n 0 6 q n M v 0 7 7 7 6 : - = %   6 6 - - * , #.#.#.#.#.#.#.#.#.                                          ",
"    #.#.#.#.#.#.#.#.#.| * - : 0   v q : $ % - 6 b   N N b 0   n A G R U A q   6 0 v v 0 7 9 7 7 6 6   & * - ; - @ #.#.#.#.#.#.#.#.  #.                                          ",
"    #.#.#.#.#.#.#.#.} @ -   q N U R E G 9 = $ * - 6 q M G V v 7   V R Y Y F v 6 ; : b v q 9 7   7 7 : * & * * = #.#.#.#.#.#.#.#.#.#.                                            ",
"    #.#.#.#.#.#.#.} @ * 9 v n G R ~ ^ ! D q 6 - * % - 6 q N G C b A E Y J Y G n q   6 0 v v q 9 9 6 6 -   & % #.#.#.#.#.#.#.#.#.                                                ",
"  #.#.#.#.#.#.#.{ * * 6 N V A ! ! ^ ^ ~ R M q 0 9 ; - $ & ; 0 A R J J U F R G F M v 7 ;   q n v 9 9 7 ; % % - #.#.#.#.#.#.#.#.#.                                                "
};
