/* XPM */
static char *fd8c2ef016df4f98a05d0410c74af89dxvF83kGoJhM1TqfX[] = {
/* columns rows colors chars-per-pixel */
"64 64 255 2 ",
"   c #080707",
".  c #151011",
"X  c #381806",
"o  c #2E1110",
"O  c #193009",
"+  c #312B13",
"@  c #0B1A31",
"#  c #2C152C",
"$  c #0F2B38",
"%  c #2F2E2E",
"&  c #393838",
"*  c #441C04",
"=  c #4F0C10",
"-  c #790907",
";  c #6F1513",
":  c #482406",
">  c #582904",
",  c #5D3205",
"<  c #493015",
"1  c #662B04",
"2  c #633302",
"3  c #6B3804",
"4  c #753705",
"5  c #732D15",
"6  c #560728",
"7  c #4F1231",
"8  c #700A32",
"9  c #4D312E",
"0  c #6D332E",
"q  c #335510",
"w  c #3A6D0A",
"e  c #2F4D31",
"r  c #2B6235",
"t  c #534911",
"y  c #784402",
"u  c #6E5213",
"i  c #4E7511",
"p  c #776510",
"a  c #524932",
"s  c #6C5031",
"d  c #516A30",
"f  c #736D31",
"g  c #271947",
"h  c #0A314E",
"j  c #2F3050",
"k  c #08366E",
"l  c #30336F",
"z  c #4B184A",
"x  c #6F0E4C",
"c  c #790848",
"v  c #6A1545",
"b  c #781349",
"n  c #4B3350",
"m  c #6E2E4C",
"M  c #473871",
"N  c #642365",
"B  c #104C57",
"V  c #304A4E",
"C  c #0D516E",
"Z  c #165868",
"A  c #055C78",
"S  c #2E576A",
"D  c #06667A",
"F  c #126A75",
"G  c #2E6A74",
"H  c #494747",
"J  c #4E4D4F",
"K  c #595856",
"L  c #6A564E",
"P  c #596750",
"I  c #6A675B",
"U  c #716953",
"Y  c #50536A",
"T  c #6E536C",
"R  c #506972",
"E  c #686766",
"W  c #766B67",
"Q  c #797469",
"!  c #6A6E73",
"~  c #797977",
"^  c #890807",
"/  c #980604",
"(  c #90130E",
")  c #A80704",
"_  c #B70602",
"`  c #B01507",
"'  c #90330D",
"]  c #AD2E0E",
"[  c #89033B",
"{  c #92053E",
"}  c #8A332D",
"|  c #B2332A",
" . c #C40701",
".. c #D00D00",
"X. c #C81503",
"o. c #D71701",
"O. c #E61803",
"+. c #C72B0D",
"@. c #D82504",
"#. c #E72B1E",
"$. c #D1362B",
"%. c #834601",
"&. c #924E14",
"*. c #A94405",
"=. c #BA4805",
"-. c #B1520E",
";. c #8E720E",
":. c #A77713",
">. c #8D4F2E",
",. c #AE5935",
"<. c #8C7732",
"1. c #CC4D05",
"2. c #D95703",
"3. c #E95A02",
"4. c #F15601",
"5. c #DC691A",
"6. c #EB6F06",
"7. c #F86301",
"8. c #CE4C3B",
"9. c #86084C",
"0. c #980243",
"q. c #8B0452",
"w. c #970557",
"e. c #8A1757",
"r. c #A8024B",
"t. c #AA0255",
"y. c #B70152",
"u. c #8B2958",
"i. c #AB0261",
"p. c #B40266",
"a. c #8F524D",
"s. c #B4574E",
"d. c #8D7050",
"f. c #B26B53",
"g. c #8C4C6C",
"h. c #867B6B",
"j. c #8F7670",
"k. c #AE716B",
"l. c #D45E4D",
"z. c #50890B",
"x. c #569A04",
"c. c #659517",
"v. c #67B103",
"b. c #56A63F",
"n. c #708E56",
"m. c #94870F",
"M. c #AF8E0D",
"N. c #938B2F",
"B. c #B29B26",
"V. c #CA960A",
"C. c #EB9005",
"Z. c #CAA708",
"A. c #D8A807",
"S. c #DAB506",
"D. c #CDB112",
"F. c #EEAB05",
"G. c #E9BA06",
"H. c #FAB902",
"J. c #D1AC2C",
"K. c #D6B62D",
"L. c #EAC505",
"P. c #ECCF0C",
"I. c #FAC901",
"U. c #F9D502",
"Y. c #FDDC01",
"T. c #FEE208",
"R. c #EBD32B",
"E. c #A4985F",
"W. c #88896A",
"Q. c #888477",
"!. c #958A79",
"~. c #9C927E",
"^. c #CFAC5B",
"/. c #D9CC5A",
"(. c #273687",
"). c #293B9B",
"_. c #333891",
"`. c #024888",
"'. c #045490",
"]. c #324692",
"[. c #056987",
"{. c #067887",
"}. c #15768F",
"|. c #056799",
" X c #027997",
".X c #2D7287",
"XX c #2E4AAD",
"oX c #3548B6",
"OX c #066DA5",
"+X c #0474A9",
"@X c #037CB5",
"#X c #2D74B1",
"$X c #526499",
"%X c #777987",
"&X c #424BA3",
"*X c #394DC4",
"=X c #2B52CB",
"-X c #3653CA",
";X c #3558D8",
":X c #3862D0",
">X c #335DE3",
",X c #3563E9",
"<X c #987585",
"1X c #05838C",
"2X c #18888C",
"3X c #038995",
"4X c #03929C",
"5X c #358792",
"6X c #0A85A6",
"7X c #0299A4",
"8X c #019EA9",
"9X c #0483BA",
"0X c #2A8AB6",
"qX c #01A1AA",
"wX c #03B0BA",
"eX c #6F8A8A",
"rX c #4A96A7",
"tX c #5491A2",
"yX c #018BC6",
"uX c #0594CF",
"iX c #0198D4",
"pX c #16A9D9",
"aX c #52B6CD",
"sX c #57C3D8",
"dX c #5BCDE7",
"fX c #63DBF7",
"gX c #868685",
"hX c #8B8B8B",
"jX c #948D86",
"kX c #999488",
"lX c #8A8D91",
"zX c #949494",
"xX c #9B9A98",
"cX c #A19683",
"vX c #A69B88",
"bX c #A69A92",
"nX c #AFA793",
"mX c #A7A49A",
"MX c #97A1A1",
"NX c #A8A8A6",
"BX c #B0AFA7",
"VX c #B5B4AC",
"CX c #BABAB4",
"ZX c #DCD181",
"AX c #C5C4BB",
"SX c #B3C3CD",
"DX c #CACAC5",
"FX c #D4D4CA",
"GX c #D0D0CF",
"HX c #DAD9D4",
"JX c #DEDFDA",
"KX c #E8E8D9",
"LX c #F0EFDE",
"PX c #E9E9E8",
"IX c #F6F5F4",
/* pixels */
"E.{.I !.h.W w.w.w.7 L i._.(.> > 2 %.3 2 > 9 zXf M.M.7 8 [ 8 { 0.0.8 8 DX. E zXCXNXCXCX9.w.w.w.q.v ! Y R E j.( ) ` @.j.s.8.} k.S.",
"E.5XL !.I c 9.q.w.q.w.m R (.* > 3 %.3 2 , H H 6 [ = 0.0.r.8 y.8 8 6 g.HXQ.mXzXVXeXkXkXb 9.q.c q.x >X>X,X,XXXm - @.@.j.,.W k.l.N.",
"k.$.} vX7 c 9.q.q.q.w.h.zXk X : > %.2 2 * 8 r.y.r.r.0.{ 8 j 7 s b i.<XHXDXMXR eXG ! jXv q.g.u.q.x XX=X=X,X,X,XM X.o.] 5.f.$.$.a.",
") ) 0 !.7 c e.g.c w.L Q.mX(.o * X : : * o 0.y.8 8 8 = [ 8 +X5XY.R.a.j eX.X9XS 5XS 5XK 7 x c q.c 8 =X>X;Xj *X>X>Xm o.=.C.+.@.+.^ ",
"^ 5 !.cXQ.7 q.9.9.x !.W BXl : > o : * $ W X { t.6 ;.:.u S..X@X:.0 J Z D 9X@XF 2X3X4X7X9 z z L g . (.;X;X@ (.;X;XoXX.' ] o...( / ",
"s e !.kX~.kXJ v c I cXcX~.(.E E ].& % 3XV V 6 [ o ;.H.H.I.L |.x 9.e.Z {.'.[.8X2X4X5XqX9 _.oXnXj PXDXJ XX;X;X:X-X-X) ` X.X.X.:.M.",
".XG H !.Q.nXc.c.t f ~.~.H l B Z D  XD  XD  X$ $ B 0 :.H.A.c B 0XpXpXpXpX0XZ 4XeX1XZ 4X0 7 oXmXj HXIXlXoXoX].$XoXoX- / _ _ ' G.m.",
"LXLXKXzXkXc.v.x.z.x.f a % V D [.[.C & [.V  X{. X XS 5 C.u |.uX9XuXiXiXuXiXpXZ 7XqXqXqX0 ^ l ! & IX~ & j gXVXE %Xj 9 } a.< &.~.HX",
"KXKXKXKXQ z.v.v.i x.x.e h h C A [.[.[.[.B [.D [.[.[.V xX.XyXOXOXyXuXuXOX|.uX9XD 8X8X2X^.kXU $ ! HXzXPXDXIXPXIXK ~ J hXNXxXVXLXLX",
"KXKXCXFXBXe x.x.z.z.b.sX5XG B h h h $ h D A [.[.[.[.6X! |.9X9XyX|.j OXyX9X@XyXB 4X7XB.T.T.R.^.l 9 H MXE CXH PXBXIXzXVXH ~ xXKXKX",
"KXKXFXHXmXG B r P aXB aXaXsXsXfX5XfXdXG S 5XG $ $ $ $ U '.@X9XA |.|.@XOX@X@XyXB 3XG U.Y.Y.Y.U.J.& n g o E BX! J PXxXIXlXHXNX~ KX",
"KXCX  H FX0 ^.E.xXeX.XdXS 5XrXh rXaXrXaX5XrXfXS fXrXsX.XZ |.OXh . JXJ @ @X@X|.A 1Xn.T.Y.Y.Y.f I.<.n j X l gXzXj JXxX% PXMXIX~ CX",
"KXCX  % KXnX%.6.&.^.Z B $ .X5Xh .XsXrX5XdX5XfXh sXrXfXsXfX% k |.C h h |.+X|.A 3X4XN.P.B.Y.U.Z.I.G.< 9 < zXNXNX%XK ~ K PXgXGXK & ",
"kXW BXAXKXbX=.,.-.-.Z 4X|.+X|.@ h Z Z C G G rXG dX.XfX.XdXp f k A |.A `.C D 1X3XZ B.U.M.L.S.S.I.I.;.%.L NXhX! NXlXNX%Xd ~ K . K ",
"&   AXW jX9 4 % X % G d.s.gXZ #X#XtXtXC hXd.~ K K J S V G t |.|.@XpXA '.}.A A S VXE.Y.U.L.Z.G.p H.M.3 hXj.NXxXMXzXgXgXx.n.CXHXHX",
"AXBXBXK E 1 3 + V.S.u ..O.O.8.W 8.#.8.k.~ zXxX~ xXW : a y y '.A 9XpX|.h 0XhXCXDXAXQ.D.I.D.R.<.# H.V.a xXxXzXK %XMX!.~ W.hXKXHXAX",
"J a a ;.M.M.G.M.A.Z.Z.) O.- ^ X.) ; o.#.j.zXgXH hXxX9 3 > y : , |.@X+X  E KXjXO n.c.z.;.< 5 o o %.3 > K gX~ ! gXxXxXP GXH E ~ E ",
"S.I.Z.Z.I.p M.;.G.M.;./ )   L o.= K ) o.| ! ! <XgXxXs y 9 3 & C % 9 1 4 4 I 9 , + 1 > ' ] 7.1.7.3.1.3.& ! zXzXlXhXxXe f p t d L ",
"D.;.D.: V.S.y < ;.u ;  .) . = ..) = X.` | ~ /.~ gXgXL N.u : C pX5 7.7.7.7.*.7.7.*.2.3.=.' 7.' *.3.' ' J hXlXzX%XhXgX+ L.I.;.+ p ",
"^.W.W.a 9 u ' xXtX1X=  .( )  ._  . .X. .} W.Y.R.W.^.R.Z., X & F + 2.=.1 7.4 *.=.1.X 7.O q =.*.o =.2.+ hXhXhXhX~ ! P i t J.Q.;.kX",
"% mXQ.>.~.l.>.HXY B D = / ) _ ) )  . .; gXW.Y.U.<.L.P.u 3 2 2 3 : =.3.' & < 2.*.=.' *.> u . o = ' =.+ ! hX~ gXhXE z.d + AXFXN.mX",
"Q CXxX~.nXbXAXDXjXh ].XX-X:XXXn ( _ 9 R K <.<.L.;.D.K.> 3 2 , 2 X ' 0 j ,Xl 3 4 -.j.l ` ...   ; @ o 9 ~ K ! ~ K q N.ZXgXK & n.~.",
"hXQ.W k.j.Q Q.NXXX,X,XoXoX=X,X,X:XS S a Z.K.;.I.G.Z.G.: > y y > : XX>X>X=Xs 4 -.*.6.n oX' ; D wXwXwX{.9 M.M.hXW.D.Y./.AXhXK NXCX",
"Q.Q.Q f.L I h.$X&X;X].;X>X>XXX-X>X>XV ;.S.K.H.M.M.F.H.u > %.%.> l ;Xl # % -.. &.*.3.n >Xl 3X1X7XqXqX1X4Xu J.gXs L.Y./.FXHXFXxXI ",
"E Q Q +.>.cXY ;X;XXX& oX;X>X@ ].>X;XoX>.9.s F.H.F.F.F.5.: 3 y * # # _  .` 6.> ' 9 1.].;X}.{.3X1X{.qX3X8X5XG.N.f L.;.J.~.AXBXBXQ ",
"I Q.Q.` 9 9 l ;X:X-XXX;X;X;XoX-X:X-X=X0 w.w.:.F.&.5 5 &.< o = -  .^  .- ` 7.7.3.2.' oX-X{.3XqX3X7XqXqXqX7XA.A.G.I.;.D.U.B.U E h.",
"s a 9 6 0.0.z *X-X-X-X*X-X*X-X-X-X-X*X< c c } C.b ; - = - -  ./ _ =  .) ] 2.7.2.4.M -X-XA 8X8X8X7XrX{.5XqXN.F.M.M.G.^.P.P.B.a L ",
"6 o r.y.t.0.6 (.*X*X*X*XoX*X*X*X*X*X).Q Q.7 L &.6 8 -  . ./ ^ _ ) . # # =.* X 1 ' oX*XXX# 7X8X4X3XG 4XD 4Xf H.A.G.I.B.~.K u 3 . ",
"y.0.= y.= y.6 # l ).).oX*X*XoX*XoX(.E Q !.VX; _ = o / ) = _ * = = ] l l 3.1.' 1.j _.l c 8 Z 8X1X3XqXqXqXqXS J F.H.S.9 I o X = r.",
"[ y.6 0.6 j Z 7XC (.l l l l l l ].I Q.nXvXnXNX_ o ) ^  ./ = u 5 o.@.z M 7.7.3.1 N.D.^.J x # 4X8X8X8X8X8X7X(.=X&.F.s # = r.y.8 { ",
"0.6 # Z {.e.w.m Z _.9 l M E l l M Q nXvXvXh.kX0 ^ _ - $ B B  X{.5 H j m 4.4.=.S.Y.Y.T.nXw.w.Z 3X7X8X3X7X3Xj l # ; = y.0.0.0.8 0.",
"* , + 8XS i.w.i.M l 9 M n E l j _.I vXvX!.h.!.jX= h A Z [.F  X X[. X}.' 4.2.M.L.Y.Y.Y.R.g.c D 7X3X3X1X7XZ 0.y.8 y.r.7 8 y.[ 8 o ",
"2 3 > B n 9.w.x l # j n # ! M Y l T vXvX~.!.h.kXC C D & [.V N.Z  X[.A 1.2.&.L.f U.p P.Y.a.j 1X4X7X3X3X3X8 0.0.y.6 y.7 @ 6 = : 2 ",
", , > V Y p.i.w.e.b < > + !.!.!.cX~.vXcXcX~.h.bXB K V [.[.f G.d P [.V 4.' L.I.U.U.d V f B D 3X3X3X4X4X$ y.6 # r.o 8 z g 4 3 3 2 ",
"4 > 2 % S b g.7 J w., 2 o kX!.jXjXjXhXQ.!.cXkXh.$ Q J D B f M.Z.f A 5 ( :.I.I.;.;.S.e D D {.{.{.1X{.G E [ r.8 9 j ).*X$XU < 2 4 ",
"%.2 > + .Xv 7 w.w.w.7 %., J VXLXKXKXLXIXxXh.~.9 ~ U e & ' +.&.jX& H L h.A.G.u mXxX;.L.f B C A B Z eXKXVX7 9 ) O.l.M m 8.8.vX< y ",
"%.3 > % {.w.w.w.q.q.8 y 3 mXKXKXKXKXKXKXLXxXa ; s.W U @.>.+.] } j.kXvXh.>.G.. PXIXGXs m.[.E xXBXKXKXKXKXKXGXX._ - X.X.( X.o.a., ",
"> * X B 3Xv q.q.c 9.q.3 s mXCXHXKXKXKXFXKXFXq t ) ) +.| gX8.jXs.s.h.bXj.| p lXIXhXPXPX& S AXJ   CXKXKXKXKXPXa.. ~ ` ^ E } o.$.+ ",
"X * , & F j q.b g.q.9.= L AXhXW KXKXKXFXBXVXq t ) ^ @.@.k.&.!.8.$.} | b v < xXCXNXDXPX& ~ HX.   CXKXKXFXCXKXa.  . - 1 X - ( $.9 ",
"a mX!.! Z F c c w.c z % V HX.   DXKXK % JXgXr i , ; o.o.] 6.*.@.o.- 9.p.w.w.;.a < E MXIXHXI CXVXFXAX% ~ AXVX0 ) ) = 7.7.3.*.= : ",
"1 % a a A [.7 7 n E {.[.MXKXK K AXDX    FXE wXqXe < X...' 6.+.o.X.; 9.w.w.p.b L H % PXxXPXzXH # J ~   H AXhX^  . .= 2.=.=.7.*.' ",
"7.' 1.' < + o % & BXA [.CXPXJXAX. E xXzXKXMXqX{.7X9 ) X._ ' X.X.( i i.i.i.i.w.| !.' NXhXHXhXPXzXH DX~ DXmXXXXX6 ) > 7.=.*.3.' 1.",
"3.4 1.3.7.&.9Xn ' vXV B Y xXmXDX& Q CXCXJX.XqX7X8X1X; _ _  . . .u i 9.g.b j.w.X.-.5.s I K GXxXPX~ Q FXKX%X>X=X=Xg + 1 ' # o 2.*.",
"2.' 2.4 9 < yXG 7.f.,.*.$ gX~ VXNXNXE gXF qX8XqX3X8XV ; ^ - ^ = z.i v n e.7 w.( &.6.S.U.s GXGXIXh.DXE $Xk Y $X%X&Xj.j.&Xa M.1 1 ",
"M.;.> > e > S |.2.4 1.1 J R xXVXBXNXzXR qX7XeX{.S 2XI & W gX9 I P q t.w.w.w.w.8 5 :.L.U.J.;.hXzXPXHXPXlXj ! $XNXeXY VX].Z.I.L.S.",
"S.L.f P.%Xq < k .X0X0XpX0XR VXmXxXNXNX{.3X1X3X8X2XDXHX. NXeXQ hX%XJ q.q.w.q.w.>.K.;.<.S.H K.M.a GX% DXzXgXJ %XCXCXeXNXJ H.G.I.M.",
"Z.I.U.Z.E n.F uXiXiXiXiXiX9X! xXBXxXf F 8X8X8X7XMXK Q.S NXE mXNXbXkXc 9.g.b q.0 K.G.G.I.G.K.M.X H CXE HXIXPXJ %XlX%XNXB.H.u D.G.",
";.G.I.f Q.G uX+X[.uXiXuXOX+XyX|.;.Z.B.c.{.7X8X2XFXJ K zXCXlXkXj.L j.z M ].].M j ;.H.M.M.A.G.F + , 9 & PXlXPXgX%XlX$X$X<.H.u E p ",
"M.I.M.G.a +X9X@XyX+XS @XyX9X9XyXd I.m.f 4X7X3X5XHXHXFXn.S R h.k.L XX,X,X=X=X=X,X:XI A.F.H.A.8X4X9 : + gXQ.kXE K E Y ].f H.V.+ + ",
"I.V.d G.;.|.@X@X|.|.C @X+X@X@XyXf U.B.D 7X{.D {.VXDXVXxXC Y U >.=X>X;X].;X;X=X,X,X,XY ;.F.C.F C h.h.vXnXnXvXQ vXH j _.n V.H.H.H.",
"m.t ' :.E.h OX+Xh . SXH . @X@X|.+ < h B $ h $ 3Xd N.Q.~ Q 9 1.Y ;X-XXX& XX>X;Xh $X>X,XZ a 5.{.3XU cX!.nXcXcXQ.kXAXT M z 0 V.V.V.",
"' ] ] @.} h.h '.OXh $ $ '.OX'.@ h `.h '.k '.h m.Y.Y.U.S.ZX0 ' l -X:X*X).;X;X;Xh l ;X;XXX8XG }.3XQ.~.!.nX~.!.nXnXcXCXj _.o a.n # ",
"@.jXf.s.s.8.K k h `.A C h h @ `.`.'.k `.k k t I.B.U.Y.Z.R.f.4 g *X-X-X-X-X;X;X;X;Xj (.oX4XtXG B vXvXJ nXL vXvXcXW.!.Q z 7 _ $.,.",
"@.<Xf.Q W ( $ h h @ k `.@ '.`.h @ '.@ . `.k m.L.M.U.Y.Y.Z.f.2.> (.*X*X*XoXXX*X-XoX:.A.t B 1XqXG vXvXcXI cXvXvXQ.h.Q.mXc 9.( / ` ",
"o.] 2.u h `.'.'.'.k C `.k @ `.@ I h h + h k + I.G.L.U.U m.U d.,.% _.).XX*X*X*X*X_.;.I.S.Z 8X8XS vXcXQ h.h.vXvXvX~.h.mX8 v ; - o.",
"o.` 6.-.@ `.k @ `.h C Y W Y h $ Q W W Q % :.V.G.M.D.S.z.v.v.v.v.E.(.l (.M XX).).+ Z.M.X B e t % cXcXcXcXcXcXcXcXcX!.mXz 9 n 7 X.",
"X.X.&.X./ h `.h @ $ 8.O.O.#.s.a 0 8.k.E d.H.M.d.;.3 , x.v.x.z.c.z._.z (.; Y n ; < Z.;.M.M.S.I.S.+ L ~.cXcXcXcXcXcX~.G 6X3X& v ; ",
"0 9 0 X./ h k $ +X} o.O.o./ ` ( * 3 y y y A.u % + : 2 x.x.x.BXzX].l i _.5 n l ; _.o t Z.;.S.u I.m.A.u a !.~.~.~.!.I  X X3XZ [. X",
"D  X3X; ^ u Z.B.OX( o.o.)   a.` 3 , 3 2 y : : ;.p u q v.x.z.DX. M z.d l r 7 g 7 _.B [.j 6 M.M.Z.p I.M.S.t a U I S B  X[.D [.{. X",
"[. X XF & u S.U.f > ( ( - . = 1 3 % 3 a 2 3 A.H.H.p w x.v.x.HXgXAXx.p w q 7 7 h h C {.b i.7 0 m <.Z.M.Z.:.S.;.C [.[.D $ F B Z D ",
"[.[.[.[.}.Z.D.S.S.u.p.p.; ^ ^ 2 4 , : : 3 , p &.<.a w x.m.x.b.NXn.v.w O 8 y.y.6 B D D b w.i.i.w.P ;.u t I.;.A.h A [.D [.[.D A F ",
"A A A B % <.E.d.e.9.w.w.v  .; 3 3 , o 2 4 , zXzXxXw z.x.c.x.v.v.i 7 8 [ r.[ 9.8 H MXeXw.t.i.b i.mXxXAX+ G.;.S.+ h A A A C C D A ",
"V Z K d.Q BXnXm x i.i.w.b ^ > 2 3 2 2 2 3 < zX! E w z.x.x.w O < = y.0.8 j.xX0 kXjXCXn.7 K 8 J q.<XJXHXW L p t e x.i 9 9 j h h h ",
"E.3XU kXcXnXm v K q.w.i.N (.* > 2 2 , 3 3 < ~ f f K P O q 6 r.y.8 y.o g.CXAXE CXNXCXBXc v w.q.w.g.gXhXVXCXE / f.n.' +.] @.s.~ E."
};
