/* XPM */
static char *_f91b5a65f41440cbbaf5e433a537944aevL6WKDXmN1OQQS[] = {
/* columns rows colors chars-per-pixel */
"64 64 256 2 ",
"   c #050304",
".  c #0A0606",
"X  c #070709",
"o  c #090709",
"O  c #0D0A0B",
"+  c #120C0D",
"@  c #180A09",
"#  c #1A140B",
"$  c #0C0C12",
"%  c #070918",
"&  c #120D14",
"*  c #0C121B",
"=  c #131213",
"-  c #181618",
";  c #270C0A",
":  c #28150D",
">  c #35100C",
",  c #251816",
"<  c #381813",
"1  c #18251A",
"2  c #382316",
"3  c #302E12",
"4  c #060C26",
"5  c #0C1627",
"6  c #161A27",
"7  c #040E39",
"8  c #091738",
"9  c #141A37",
"0  c #291B28",
"q  c #182427",
"w  c #0D243A",
"e  c #162836",
"r  c #153435",
"t  c #252628",
"y  c #302D2D",
"u  c #29353A",
"i  c #38383A",
"p  c #48170B",
"a  c #51150F",
"s  c #6F180E",
"d  c #472614",
"f  c #582716",
"g  c #4D3111",
"h  c #593617",
"j  c #722E13",
"k  c #752917",
"l  c #683918",
"z  c #6F183A",
"x  c #50352B",
"c  c #6C342C",
"v  c #265A2D",
"b  c #2D4E36",
"n  c #4F4915",
"m  c #5A551A",
"M  c #6A5215",
"N  c #4A6A1B",
"B  c #756D14",
"V  c #514F2D",
"C  c #6D4F29",
"Z  c #546B32",
"A  c #6B722E",
"S  c #051547",
"D  c #101951",
"F  c #321B4D",
"G  c #0B2647",
"H  c #162B45",
"J  c #173748",
"K  c #092857",
"L  c #122E51",
"P  c #0B3659",
"I  c #173A57",
"U  c #2D364E",
"Y  c #161C6C",
"T  c #062964",
"R  c #0A3668",
"E  c #13306E",
"W  c #073978",
"Q  c #2D3472",
"!  c #49394C",
"~  c #553760",
"^  c #0E485A",
"/  c #184559",
"(  c #3B4448",
")  c #314954",
"_  c #2B6A48",
"`  c #184965",
"'  c #165467",
"]  c #0E4A73",
"[  c #195677",
"{  c #2E5272",
"}  c #166777",
"|  c #306A73",
" . c #47494A",
".. c #4A5250",
"X. c #565859",
"o. c #6B5451",
"O. c #516B4E",
"+. c #4D526C",
"@. c #665F62",
"#. c #5A666A",
"$. c #4C6973",
"%. c #66696A",
"&. c #6A6D6D",
"*. c #6B7477",
"=. c #747A7B",
"-. c #90160D",
";. c #B3190C",
":. c #8E2D13",
">. c #9A3616",
",. c #AE3110",
"<. c #A63815",
"1. c #923128",
"2. c #AC342D",
"3. c #CE160E",
"4. c #E6180C",
"5. c #CE2E10",
"6. c #E92907",
"7. c #EB360F",
"8. c #DF2F2A",
"9. c #914E18",
"0. c #A75719",
"q. c #B25116",
"w. c #926E18",
"e. c #B06D19",
"r. c #8D4C2A",
"t. c #AC4F26",
"y. c #8E6D2C",
"u. c #B66922",
"i. c #D24E12",
"p. c #EA460A",
"a. c #F14608",
"s. c #EC5611",
"d. c #D16E17",
"f. c #EB670B",
"g. c #EB780D",
"h. c #EE6E14",
"j. c #E97814",
"k. c #D34F27",
"l. c #EE582A",
"z. c #D46E2A",
"x. c #EA7A22",
"c. c #9F664D",
"v. c #C75E4A",
"b. c #22952E",
"n. c #6DA031",
"m. c #24CD2D",
"M. c #61C72C",
"N. c #2A9B5A",
"B. c #2FAD6E",
"V. c #5A995C",
"C. c #50AB6F",
"Z. c #27D96A",
"A. c #67D664",
"S. c #908C14",
"D. c #AF8F15",
"F. c #8C892E",
"G. c #AD8A2B",
"H. c #9CA826",
"J. c #B1B02D",
"K. c #D18B17",
"L. c #EA8915",
"P. c #F28813",
"I. c #EA9516",
"U. c #F39A15",
"Y. c #D0AE19",
"T. c #F1AD15",
"R. c #EE9124",
"E. c #D3A826",
"W. c #ADD12E",
"Q. c #D4CF18",
"!. c #F1D60E",
"~. c #FBEC07",
"^. c #FBEE11",
"/. c #D3D42D",
"(. c #EED62D",
"). c #F9EF2E",
"_. c #99A551",
"`. c #D49D61",
"'. c #90D85E",
"]. c #AED54B",
"[. c #B4E94D",
"{. c #D3D554",
"}. c #F6EE53",
"|. c #F4EF71",
" X c #083986",
".X c #353C8F",
"XX c #4E308E",
"oX c #693895",
"OX c #084687",
"+X c #10538E",
"@X c #32528D",
"#X c #126C8F",
"$X c #1A6595",
"%X c #2D6B8B",
"&X c #25759A",
"*X c #0E59A9",
"=X c #3B53A6",
"-X c #1171AB",
";X c #2E74B0",
":X c #484D96",
">X c #58509C",
",X c #4E758F",
"<X c #767C83",
"1X c #4A70AA",
"2X c #1271C9",
"3X c #267CC7",
"4X c #597DC4",
"5X c #338390",
"6X c #1995A3",
"7X c #0A88B3",
"8X c #1091B2",
"9X c #2E8AAE",
"0X c #2888B8",
"qX c #4F8891",
"wX c #758589",
"eX c #5191B5",
"rX c #5EA4A4",
"tX c #2BCD8C",
"yX c #3AE58D",
"uX c #3AE1A3",
"iX c #62D383",
"pX c #44E592",
"aX c #1A8FCD",
"sX c #2A8ECB",
"dX c #2995C8",
"fX c #10ADC9",
"gX c #2FA5DA",
"hX c #2FAAE2",
"jX c #4B95C8",
"kX c #4EA7D0",
"lX c #67AECC",
"zX c #51B7E6",
"xX c #76C8EB",
"cX c #848A8C",
"vX c #848F93",
"bX c #899496",
"nX c #93999B",
"mX c #A79F94",
"MX c #939DA3",
"NX c #9AA6A8",
"BX c #A4ABAD",
"VX c #A9B4B6",
"CX c #B3BCBD",
"ZX c #D9A893",
"AX c #BCC0A2",
"SX c #F8F58C",
"DX c #DAD9B6",
"FX c #F6F4AA",
"GX c #B6BEC1",
"HX c #BAC6C7",
"JX c #A8CEDB",
"KX c #A9DEF3",
"LX c #C9D0D1",
"PX c #FBF9CD",
"IX c #DFE0E0",
"UX c #F1F2F0",
/* pixels */
". # @ q.p.7.6.6.7.P.s.7.9.Z N.j a.a.>.x :.p.a.,.  + 6X' 0X] #X<Xe aX$XR L D 4 X O O   3 ~.^.|.^.~.~.}.@.X...- ..o X.= X.= .     ",
"O + + : l >.;.5.7.j.f.,.B.v Z.1 4.4.p.s.s.a.a.a + r fX#X0X^ -X#.q -X+XP X   . o 5 8 8 Q.~.^.PX).~.~.FXSXDXIXHXUXvXUX..UX .o     ",
"+ O . O + . . . > j Z b.b.v Z.b.-.4.7.h.h.h.h.# . ' fX7XI #X7X( * * I   .   X % 4 Q _.^.}.~.}.~.).~.).^.}.CXVXVX#.&.MXvX= i t t ",
"=.#.O X.y 3 M.N O v m.b.1 m.m.m.v ;.p.s.p.7.,.. o #XfXfX-X^ ) F + o % 4 8 X X % 7 <XFX}.PX).UX).UX}.PX|.SXIXCX=.*.UX%.&.NX=.NX<X",
"wXwX .CXHXX.W.n.1 M.V.V.= A.b C.yXN.j x.p.7.s . r -X} w 6 ! oXF 4 7 S T W K T OXOXH (.^.).~.).~.).~.).^.).F.bXnXVXIXcX%.VXHXcXCX",
"LXHXHXi ( *.A n.n.M.y '.- 1 l e.C.yXuXN.d s.: O - O $ + - ~ ~ F K S  XOXW W OXOXW MXFX}.PX}.UX).UX}.PX|.SXmX&.UX&. .=.IXnXVXbXbX",
"CXbXNX=.&.cXnX<Xn.n.1 '.3 < C V.A.N.v n 0.d.o O + ~ oXoXH oXF F  X XOXK 7 S S W OX) ).^.).^.}.~.}.^.}.J.F.X.( #.qXJ t LXMXwXBXCX",
"MXBXBXbXVXO m /.J.H.V A n.n.M.v h q.9.9.P.:.  % +.F & F >XXX- 8  X XT 4 4 8 7 5 5 nXSX}.FX).PX).PX).FX( { | lXaX$XX y IXvXNXVXNX",
"NXnXGXBXLX*.@.J.Z H.{.].[.n.d u.h.,.h.L.e.d o F F H OXE XXF R OXOXOXR % $ .   ~ y c.`.).}.^.|.^.SX).SX(.V qX%X-X5 $ nXIXNX#.#.VX",
"HXBX=.MX*.CX%.F.S.J.# O n 2 j j.q.> s.h.< O & XX- $ e 9 XX9 R K 5     + < h y :X+.`.`.}.SX).SX/.SX).|.A eX` 5 $X. U BXIXVXvXwXNX",
"f cXVXNXc.c.X.*.J.!.#   d I.K.a i.h.0.e.9.  F F O + + 6 F o + # : a s <.<.-.D L U ZX`.c.FX).DX).PX/...kX/ o 5 G o VXnXUXBXBXwX%.",
"l.t.o.c.e.w.n cX=.Y.Q.B : I.K.3 e.L.n 9.h o XXF . .   6 +.y h 0.9.-.-.<.0.x Q { < `.v.2.{.!.{.^.{.) gX/ + H {  .i BXLXLXVX=.BXVX",
"t.<.x t.0.l u.G.E.T.w.H.Q.S.m T.w., Y.T.m 6 XX6 # l x >XQ .Xx r.+.:X! 0.9.+.:X6 >.ZXZXmXDX].UX}.CX{ jXsX[ u NXIXVXUXCXUXHX*.LXLX",
"f k :.y t.x.K.g g M 3 l G.S.g K.K.D.d.i.g U XXx R.R.~ :X{ Q  .+.U D .X9.r.1X0 M q.v.z.c i J.+.J.,XA - ) eXsX/ X.VXVXcXLXLXnXcXnX",
"X.x k.k y u.d.d.j : : y.g w.I.j.g.P.f.i.s.+.:XC P.d.@X, U :X{ 1X{ D S 0 Q D :.k x #.+.Q Q ..UX|.UX_.$.q - | jX$Xe nXLXUXLXBXLX&.",
"nXk.< i ..:.2 h d h 0.g M K.g.s.f.P.P.I.K.:X.Xc a.<.@X0.9.Q e U # : E D .X6 >.a e { 1XU U q NX{.GX{.V qX6 ..u ,XsXJ i LXHXnXwXvX",
"%.l.f nXAXr.< m B y.R.M n K.U.P.g.P.U.T.D.:X:X! a.,.@X9.+.e o...0.+.H 6 =X2 r.@XjXU t ) t J.CXF./ | i t eXe  ...{ sXR t X.wX..X.",
"wX2.8.1.r.k.< n m n h w.T.I.P.g.P.P.g.g.0.=X=X+.<.>.t Q e j q.H U 6 l F  X0 @X@Xt X.+.J =.{.VX{ { jX9X` y eXu t #.H ;X] 6 y . &.",
"vX<X1.8.8.k # g 3 h i.f.P.U.d.g.g.P.U.P.9.=X=X=X1X4X4XjXeX,X@.y g j q.+.{ ;X{ t #.wXU ..CX{.BX$.&XlX,XaX$Xu eXe i  .U jX&X$ & X.",
"bXBX=.=. .O O # m w.f.g.T.T.T.T.I.T.T.T.w.=X1X=X=X@X@X@X@X;X;X1X,Xr.< eX;X%Xi <X#.wXX.NXNXJ.bXO.jX,X| 9X' 0XU jXJ q kX{ eX,X= y ",
"HXCXNXNX%.o x f 2 q.g.P.T.T.T.T.T.I.j.g.0.@XU - > p f l h , H @XsX;XU sX;X6 cXMX<X=.MX=.u A wXF.eXI jXeXI J -XU eX/ lXgX9XeXqX$ ",
"<XLX=.CXt - o.c < i.q.U.T.T.U.U.I.P.f.g.j.< w.d.7.6.j.d.U.R.u.h I ;XsX*XK %.<XwX&.nXbX( -X5 X.{...0X,XeXjX$ H -XJ eXeXhX%XeXxX,X",
"i CXnX*.  x +.~ x k s 5.f.f.f.f.f.f.p.p.i.h.g.s.s.i.A Z i.s.j.U.e.e 0X*Xu =.&.wX*.VXVXX.-XOXX _.&.rX/ lXeX%XO P *X6 1XjX-Xe 9XxX",
"y X.CXt + +.,XU c 7.5.s 7.U.T.g.j.U.L.I.K.Y.T.a.p.y.[._.:.a.a.P.u.= 9 *X) *.&.NXNX#.( t jX2Xw i VX..kX( lXkXI O +X+XO ,XaX%X$ wX",
"NX+ %.. U ~ | c k.l.i.a 7.7.d.q.M m m d.I.T.T.a.:.].[.].f p.a.u.# - - R U ( - = O   t X.eXlX-XX =.nXwX&X..jX3X5 $ dXJ $ ,XlX/ X ",
" .= - * $.{ i k.r.k.z.: y / } C.F.B B e.T.T.T.d.F.].[._.V x.0.# O - O = .     8 = q NX=.,X+.gXI - i & rX[ #.sX*X4 e 3X* - { kXe ",
"&.nX6  .X.x :.; -.-.:.> %XqXrXqXV.V.Z m e.I.U.e.A Z [.3 Z h + .   = O % 4 7 7 5 t bXbXvX{ w eX2X5 + 1X{ lX/ #.kX-X5 [ [ # _ $.JX",
"=.y * &.%.F @ o 3.s p p $.qX&XQ F ) V.V q.q.e.e.# n.].+ O O O $ X 8 w 7 S S % - BXMX<XNXU P x sX*XO 1XgX%XkXJ X.zXdXJ dXe b $.u ",
"&.  c @.&.o.p > 7.p 6 + ) V  .) X.$.rXZ M m F.3 + n.]., Z _.'.'.V._ r R H r - MXGXHXHXNXU $Xo ,XaX+X$.$X;X9XkXI i lXgX0X9X= V.C ",
"O @ z 0 c 2.2.s l.: y :.i.p.f.d.y e q O , /.).m P F.[.].[.'.A.A.m.m.b.$ B.b.( ..v u wXi - 9XX , eX2X[ $XG 2X3X2XR - #.lXzXt 0 o.",
"  a 0 1.4.4.3.4.p.+ y 5.5.p f g.r.O % 5 F.Y.J./.u A [._.Z 3 V.A.A.b.1 N.Z.1 q B.Z.r ; y ` ,X*X* y jX2XsX8 5 *X2X2X&Xq y #.= = %.",
", &.c 8.6.p @ 5.k.O = z.d.O - G.m - 8 H E.F.m /.F.N H.1 - O.A.V._ = ( C.N.u B.tXN.= r.y.$.%X0XI , x kXgX&Xo . H +X2XsX6 t 6 ) %.",
"( O.v.4.,.O ! < 9.o # x.x.: w.G.2 6 8 y Y.m O S.W.N 3 - V '.'.Z - q iXB.t iXtXtX1 - &._.V jXdX[ = o. .kXsX` ; :.s > 6 . @ .   @ ",
"o + 8.4.-.t @.! & o f x.R.d.j.x $ 6 5 C Y.n , m W.A = q '.M.Z - - V.Z.N.b N.B.v * w 6 3 n ..kX&X= 2 $ u lXaX[ - 9.,.;.;.3.5.<.f ",
"5.s 3.4.-.< @.@.! O 5.q.p.s.j.y.t ] G y.Y.H.H.J./.W.t .._.n.= 6 t A.A.N.B.B.tX= 8 K u n Z  . .1XH + < ;.x eXhX0X6 l >.,.p.s.h.P.",
"h.q.;.4.3.4 +X7X+Xs -.s p.9.9.U.E.x W F.(./.y.3 F.[.n.'.'.3 5 8 b V.b _ pXZ._ 5 T 8 n O.C.C.O.b q @ 5.6.6.9.( $XI + 9.q.0.d.P.s.",
"f.d.-.4.3.-.L } c k.: d h.u.& h T.E.V (.^.m   4 5 ].[.[.n.$ K K * + * _ yXtXr K S 3 V.V.iXZ m m 0.i.s.a.s.h.i.j a d q.<.9.u.i.6.",
"6.4.s 3.3.4.5.5.p.l O + x.R.q w m T.(.(.!.3 X K  XO.[.[.n.b e % % 8 T V.yXuX1 5 # m C.C.Z m M d.s.f.a.a.a.6.3.,.:.,.;.-.;.:.>.;.",
";.4.3.> ;.4.7.k.f + O O u.R.C W 6 D.!.E.!.B X % 5 5 _.].[.'.A.V.q % 8 C.Z.pX1 O n m V.m m B L.i.s.j.g.s.a.7.6.>.q.<.-.;.-.<.0.>.",
":.;.3.-.@ + ; + + $   o - 9.9.8 T i e.3 !.D.4 4 % 9 O # 3 Z A.A.M.b.$ N.Z.pXq 3 m m m m e.B K.L.L.j.j.6.4.4.p.,.<.-.;.p s ;.s ;.",
",.-.-.5.i.<.:.p + O o O O = O t 9 S X $ Q.Q.* 4 % w 9 5 O O + v N.m.B.N.Z.pXr m m m B e.w.d.I.I.g.j.j.s.4.6.s.,.k a s ; a -.-.-.",
"0.9.q.9.u.p.p.7.@ O O . O x G.G.- W K S H.).3 R W R w % 4 4 w * + _ C.pXyXyX_ V O.Z m w.d.d.T.L.f.g.U.T.L.j.j.9.j O h : o :.,.9.",
"0.0.:.>.0.:.5.6.-.  O o y.R.K.C y.F.y.V C ).B K R K G 4 4 4 G K R 5 - N.yXyXB.L [ { V V V m w.d.j.g.K.T.I.L.f.,.>.9.e.2 + d 0.q.",
"q.9.>.0.0.u.9.u.R.d + r.R.R.K.M n M w.E.(.).J.* 5 9 R 4 8 w 8 7 7 8 P * b Z.uXe K W W OXI { O.V M D.K.K.w.D.q.; 0 U L e + . 2 p ",
". d g :.q.0.x f 0.0.+ < M e.R.e.# 9 * + 3 H./.+ 9 w G 5 4 9 7 4 4 8 L 8 w q B.| 4 R R 7 4 - k C 9.q.d.K.w.M q H @XOXW +XG o O O ",
"^ [ G 5 - : r.j j ,.f $ r + + M y.R OXD 4 & 3 $ % % 9 4 4 9 % % * 5 w H G 4 O + 5 R y s @ @ <.X s p.,.- 0 6 4 4 9 * @ 6 P w O + ",
"^ } ] ] } ' j >.@ f >.- } $ O & + 8 +X XW 5 $ $ % % G 4 & 5 5 9 w G H 6 9 7 8 , h C ; :.5.l # < p.i., 9 D % $ O # , 6 6 K OX5 = ",
"r &X] J y c >.k.1.r.c x 2 d f < , K W T S 5 % X X X G G % % 5 5 5 % S G %X& M h X.=.9.f.p j @ 0.C 0 D D 5 @ h + U +X*X*X*X-X@X$.",
"= #X} k <.:.:.l.j j :.9.t.z.l.l.l.j 7 S S 5 * * P G P D S S G G 4 5 f 6 &Xh u 9XrXx O :.> l f.0.2 D D * * 6 x : L ] K w G $X6 0 ",
"$ 0 s ; s :.< l.< e e r e * : <.:.: % 7 4 5 5 9 ] ` G S 8 8 { rXX.p y J 0X/ 0X) h s.p :.9.U.<.k & 7 % 4 7 D T K 9 X @   X D o # ",
"s ;.a -.;.1.:.t.f ^ [ #X6X6X/ + + 4 % 4 4 * 5 % G ` P w [ gXzXqX5 9 w t sX%Xl d.0.,.p.p.9.K.: 2 5 4 % % X % 4 S T E % @   6 # s ",
";.3.3.a ,.:.: r.>.r [ #X6X7X#XO O R K S S $ % 7 5 [ / gXdX$XI [ q -X6 [ dXx j g 0.  :.,.: 9.f ,.> X   . o a O X S Y  X5   , @ -.",
"-.:.;.-.< -.>.< 8.6 6XfX7X-X-X* + G S 8 R *XOX8 J dXdX[ %X` $XH { -X' e dX/ | ^ 5X/ #X$.5X] ! R D [ * # B .     % S Y L   d ; ;.",
"s ;.3.-.; X = 5 q.f 8XfX-X-X7X^ + * W e &X+X*Xw $X&X` / J ` 2XH | &XI #X&X' %X-X9XfXqX-XqX$X$X[ OXo.  n g 8 T W  X XE +., f < <.",
"3 3 < >.8.:.e T < ; ] 7X7X7XfX8Xw ^ ^ { ' } ^ J H &X[ r J e -X/ 6X%X` J [ $X[ X.&X8XqX-X&X! W @.7Xy O n R +XR I I [ ,X&.c c l c ",
"B !.3 O > ;.3., R P ] -XW T OX8X8X' [ ' } / ] ` 5 dX[ %XJ ] [ [ 5X{ | J / ;X) $X#.+XOX+.2 O [ %X^ o X S K * = g + & 0 o.c k :., ",
"n ~.J.# o + s 8.c #XaX-X*XW ] 8X8X[ H ` aXaXaXhXqX;X$X[ 9XL I +X/ J &X| / ;XO.5X5X$.$.t S 4 5 G o O K I $ B S.n B .   + # f <.. ",
". 3 H.B - k i.k.k q fX-X-X-X7XfX' dX[ 0XP I ` gXKX;X$X&XJ 9Xr dX^ J 0X( ) 6 r J 6XrXU Y Y Y L E E L ] = n M !.D.n B       > ;.  ",
"# < # C k.>.> O e } fX7X-X8XfX8X[ hXdX^ +X-X6XqXKX{ $X/ J +X[ dX` ^ dX' } %X{ ) 8XO.F D D D G o 6 R E 3 ~.S.M !.D.n M .   @ 3.. ",
"-.> k 5.>   % E -XfXfX7X-X7X8X#X[ aXL ] ' J 5 eXJX6 0X+ ] I &X0X/ #X$X` $X` L $X7X%X& o = * % o # X X 3 B !.w.m S., O O o + 2.; ",
"3.-.;.@ . n O +X7XfX8XK S 8 w * P *X      $ = lX#.. 9Xr -X#X%X` OXK ] 2X+XG OX%X{ %X#X6XC.'   O Q.M 3 Y.M n 3 X . $ 4 7 X o s ; ",
"7.3.a k ; . 3 5 * * O       O O = e . o O - J eXd O ' %X8XfX%X/ -XR ` gX/ U U i qX8X5X9X8Xy . # D.D.# : O o * O 8 S S S % O O O ",
"l.k.r.< + . . +         . . . @ > a p l r.l &XV l + e 0X#XfX| $.0X' ' I J ) / U qXqX{ F ( X   m . o O % 4 7 K R R T T W G $ + O ",
"l.j O O .         . ; p s :.<.h.h.i.L [ ) &XV I.2 o o 0X/ 8X} rX&X` J G ` $XP $XdX8X..I : # 3 Q.S.t 5   % 8 G K S OXOXD 8 O O . "
};
