/* XPM */
static char *_37b7603243445618b883c599db5118cOi1S4GGe8Q1IF0Pq[] = {
/* columns rows colors chars-per-pixel */
"64 64 255 2 ",
"   c #020202",
".  c #0A0B06",
"X  c #040509",
"o  c #090609",
"O  c #060A0C",
"+  c #0B0B0C",
"@  c #110E0B",
"#  c #15170B",
"$  c #090B13",
"%  c #140D16",
"&  c #0B1213",
"*  c #0A1619",
"=  c #131414",
"-  c #16181A",
";  c #1C1C1C",
":  c #2C1817",
">  c #1B2115",
",  c #25270E",
"<  c #272816",
"1  c #312F16",
"2  c #353915",
"3  c #0C1D23",
"4  c #181326",
"5  c #1B1A23",
"6  c #261A29",
"7  c #341C2C",
"8  c #2B1C34",
"9  c #0C232A",
"0  c #152527",
"q  c #0F2734",
"w  c #172C36",
"e  c #143333",
"r  c #193638",
"t  c #232424",
"y  c #262829",
"u  c #2C2C2C",
"i  c #302F28",
"p  c #333627",
"a  c #262934",
"s  c #372938",
"d  c #253637",
"f  c #333434",
"g  c #36383A",
"h  c #3B3B3B",
"j  c #452A1B",
"k  c #4D3331",
"l  c #723431",
"z  c #3E4217",
"x  c #3A4326",
"c  c #27423C",
"v  c #394635",
"b  c #464918",
"n  c #514F1D",
"m  c #4C521A",
"M  c #565A1B",
"N  c #6D4C1E",
"B  c #5D641C",
"V  c #636A1C",
"C  c #6B741E",
"Z  c #75761D",
"A  c #4E4F2F",
"S  c #4D5625",
"D  c #695332",
"F  c #596732",
"G  c #676B26",
"H  c #767926",
"J  c #6B7031",
"K  c #767638",
"L  c #153947",
"P  c #183E53",
"I  c #273B44",
"U  c #393049",
"Y  c #492F50",
"T  c #56345B",
"R  c #6E3355",
"E  c #543763",
"W  c #693B6F",
"Q  c #1B4448",
"!  c #134D49",
"~  c #174756",
"^  c #1B5559",
"/  c #264748",
"(  c #364D4D",
")  c #274A57",
"_  c #2A5757",
"`  c #375655",
"'  c #38645A",
"]  c #194C65",
"[  c #1A5568",
"{  c #1D5A77",
"}  c #305666",
"|  c #225C78",
" . c #186974",
".. c #276769",
"X. c #386A66",
"o. c #266B75",
"O. c #327370",
"+. c #367976",
"@. c #434343",
"#. c #4A4B4B",
"$. c #4D5052",
"%. c #575758",
"&. c #69504B",
"*. c #536E4F",
"=. c #6B704E",
"-. c #485769",
";. c #52526C",
":. c #6D4A75",
">. c #4E6B6E",
",. c #487975",
"<. c #656565",
"1. c #6B6B6B",
"2. c #72716D",
"3. c #787878",
"4. c #A23638",
"5. c #8C4A38",
"6. c #AD4F3E",
"7. c #8C722F",
"8. c #D63F44",
"9. c #8C564E",
"0. c #B15344",
"q. c #916957",
"w. c #9E6960",
"e. c #B4766C",
"r. c #D0554A",
"t. c #E45A4A",
"y. c #D86D5C",
"u. c #EC644E",
"i. c #D1746A",
"p. c #E1717C",
"a. c #7B8523",
"s. c #6E853D",
"d. c #37827D",
"f. c #728C4F",
"g. c #63935D",
"h. c #468778",
"j. c #519172",
"k. c #738E6E",
"l. c #6AAD74",
"z. c #7BCD7D",
"x. c #88861D",
"c. c #858A26",
"v. c #899526",
"b. c #949C29",
"n. c #8E9035",
"m. c #A79939",
"M. c #9AA729",
"N. c #96A534",
"B. c #A8B629",
"V. c #B5BA2A",
"C. c #ADAD33",
"Z. c #CCB130",
"A. c #B5C42C",
"S. c #BCCB2C",
"D. c #BBD134",
"F. c #C3D32C",
"G. c #C9DA2B",
"H. c #D0CF33",
"J. c #E3D934",
"K. c #EEE632",
"L. c #8B904C",
"P. c #92AA4F",
"I. c #B3B750",
"U. c #8C8D73",
"Y. c #BB857C",
"T. c #A0A862",
"R. c #C38176",
"E. c #AECC49",
"W. c #A3D05D",
"Q. c #87CC6F",
"!. c #CCCE4B",
"~. c #DFDC5A",
"^. c #EAE444",
"/. c #743E84",
"(. c #1E6687",
"). c #1D7588",
"_. c #236788",
"`. c #2F7688",
"'. c #247598",
"]. c #257DA4",
"[. c #744F90",
"{. c #51778D",
"}. c #6D6D91",
"|. c #6373A5",
" X c #87518F",
".X c #854598",
"XX c #886E92",
"oX c #A36286",
"OX c #925AA2",
"+X c #9170A9",
"@X c #A278B1",
"#X c #D5778E",
"$X c #198D95",
"%X c #388887",
"&X c #288A94",
"*X c #338E93",
"=X c #2C8EAC",
"-X c #278BB8",
";X c #25A2A6",
":X c #3BA8A8",
">X c #2FADB2",
",X c #3AB5B4",
"<X c #498986",
"1X c #4A9788",
"2X c #548C92",
"3X c #6F908C",
"4X c #4FAE92",
"5X c #53A796",
"6X c #68AD83",
"7X c #5291AB",
"8X c #6B8FB5",
"9X c #4BB0AE",
"0X c #59B7A6",
"qX c #43B8B3",
"wX c #73B3B2",
"eX c #5FC89A",
"rX c #6FC78C",
"tX c #5DC2AD",
"yX c #4EC5B3",
"uX c #6DC5B3",
"iX c #2996C7",
"pX c #299FD3",
"aX c #24B2C8",
"sX c #2AA4D9",
"dX c #23BCD4",
"fX c #7199C1",
"gX c #51A9C3",
"hX c #6AA5C5",
"jX c #848484",
"kX c #8C8C8C",
"lX c #8E918D",
"zX c #989999",
"xX c #AD908B",
"cX c #8FA49D",
"vX c #878BB4",
"bX c #AC8CB6",
"nX c #8EAAAB",
"mX c #A9AAAA",
"MX c #ACB3B0",
"NX c #B8B8B8",
"BX c #CEB188",
"VX c #8BCA9A",
"CX c #BBA2C6",
"ZX c #C8B4D0",
"AX c #90CFCE",
"SX c #B0CFD1",
"DX c #C6C6C7",
"FX c #CFD0D7",
"GX c #D7D8D8",
"HX c #E2DCDF",
"JX c #D3E6E6",
"KX c #E7E6E7",
"LX c #EEEFF0",
"PX c #F3F2F3",
"IX c #FCFCFC",
/* pixels */
"T 8 X 8 $ X 5 cXwX0XuX#.k.k.l.j.2 F.G b.b B.M.F.1 K G M.c - B.B # S.B.0 d d 7X<XdXaX3 aX$XaX9 0 I hXd 5 U U + + E 5 :. X%  XY 6 ",
"T U + 8 4 $ - $.wXk.T.P.L.U.l.f.z F.2 C B.b . F.B & 1 A.p H S., . B.H d ` 5X{.&XdX;X9 dXdXaX`.`.w ) + {.-.  ;.;.s Y Y  X-  XT 6 ",
"T Y 8 6 4 $ <.%.3.i n.C.P.3XP.H b G.B.M., ' - v.M.,.# S.A.F.b     M.n.<X,.:X..o.dX;X9 dX! &   L 3   O -.8XX }.}.5 ;.6 OX7  X:.T ",
"7 k 9.u 0 $ @.1.;   # S ` 2X*.< m G.S.B =.3Xc M V.j.. B.S.F.v.,   v.P.>.:X+.o.&XdXaX3 >X$X$Xe 3 w d 7X5 >.a ;.+X5 OX XOX X XW w.",
"5.l @.lXo./ h =       O o.2X$.o b G.v.N.I.E.c.M G.*.0 v.a.z B.S.V v.M.%X&X&Xo.`.;XdX[ e aXdX .9 o.0 hX|.-.>.U +XXX+X+X+X}.#.1.xX",
"w.kX3.DXr `.= o + = . e 9 v $.+ 2 F.F u - , c.G.G.J / Z B.- . H G.F.M.o.o.;Xe `.+.dXaX3 & r & r 7X* 8XfX8X8X}.8X7X8X7XwX3X<.%.%.",
"<.U.@.MXI / I i A ; v _ 0 t 3.i < !.L.f X._ < M.B.F X.m G.@   + m S.a.0 ....3 :X+.o.aXaX[ ~ `.*XgX7XhXhX7X9X:X,X9X3X$.#.kXMXzX$.",
"A A g f & 5 r - v u k.=.#.k.U.U.@.I.B.A 5X1X2 A., G h.2 G.#   r - B.z r &XO * 4Xl.*.*.4XaXaX=XgXgXgXgX7X9XgX3X-.$.1.MXMXU.=.< ; ",
"A A <.- X & p v b O s.N.@ N.!.I.i c.1 u 0X<X2 F.2 < O.# H b & :X= B.a.*X0 d / 4XQ.E.I.P.6X7X` 9X7XqXhXwX-.h 1.NXMXzXU.A k M n ; ",
"E i #.f u u ; - F Q S D.< =.L.A + V b = 0X1X# B.x O.0Xr , V Q qX3 b.B.c O   * 1XP.b.F d w / {.9XqXhXhX}.zXNXU.%.2.=.=.*.>.,.n.U ",
"E i A <.= e e * = 0 S D.b L.J     M c.  0 h.d = +.tXtXh.  + O.qXQ , 1 O O * ..g 2 o O   X o _ qX,XAX3XU.&.F G *.j.,.`.g.f.C.C.E ",
"J M.i %.  O [ [ ~ e * # S M.N.u + V S.#   o ` 0XtXtXwX$.  / qXqX:Xr         s #X7.5 U /.-   _ qXqXcXA J f.f.%X*X`.f.H.J.V.A f u ",
"r f.< $.; O ^ L [ [ ^ * e + # +   a.G.m       0 6XVX5Xo - 9XqX:X*X3 %     6 T 9.m.Y [.[.+./ %XqXAXp f.%X,.k.f.L.>.L.M.C./ _._.{ ",
"| ) G p @.  ^ ~ [ o._ 0 _ * k ;   b S.z     . F T.~.L.= %XqX%X:Xr i oX7 s D D D N ;.+XE 0 %XqXqXuX;.E =.G L.m.=.w 0 ` J | | * * ",
"[ P C.1 <.o r I } ....$.k % 9.7 X   + +   , I.~.^.J.J.I.0X9X:X..t 7.D D j j : r.r.k @XU w _ qXqXqXnX&.d [ L F n.=.*.L.A ) | w * ",
"_.) H.c.#.+ %.zX-.,.-.$ k : 9.f X w &.9.k C.~.^.n.# # M T.uXwX[.bXD Z.N l 8.8.l p.4.XX6 O %XqX,X,X0Xk.] _.3 ) K C.m.n.m.p [ | | ",
"L n.c.M.$.$.DXmXcXFXKX3.#.5 #.%.6 %.w.r.P.K.m.b 7.C.Z.V.b BX@XOX.XW 5.Z.7.k p.8.t.4.,.+   & r :XqX0XnX) [ 3 P d C.H.H.V.n.p ~ { ",
"K =.2.zX1.jXjX- HXNX@.NXcXa d >.2.2.w.0.!.n.n c.c.H.J.^.m.K XX[..X.X}.2.lXSX&.#X#Xl  ..._ _ d.tX0XqXqX1.) | | d L.n.K n.V.C.H F ",
"@.g @.jXNXMXLX3.PX1.  - JX3X1.2.2.q.q.q.I.n J.G B ^.n 7.!.n 6X9X+X@X@XZXvXAX*Xd k ^ [ O   O ,.wX9X,X,XwXv d 0 p L.L.=.=.1.<.1.$.",
"    1.mXu f KX%.MXkXh $.mXcX<.d g Y k D J m.H.K.V.C.> m.!.M T.).lXFXZXOXvX:X^ b.N.$Xe   c $.0X/ & 0 ..0 1.3.3X$.@.f d = ( $     ",
"1.<.DX@.#.1.FXFXu mXg LXKXFX@.k : k t k n C.7.K.K.K.H.H.n.n.L. .Q ^ +.2X}.Y a.B.S.f...d >.>.5XO   e O.    ^ &             ( u o ",
"zXFXKX<.@.PXIXIXMX%.#.NXNX3.<.XXy w 6 7 k m.H H H.J.G C.n !.j.o.o.o.[ o.).x S.< a.V.( g >.9XO.&   & 0 + o ^ &       0 2.1.mXzX3.",
"LX<.KXmX+ h <.f + @.DX@.PXKXkXt         < n J.C.B M V.n.c.!.^ <XFXSX;X[.U M.a.+ b.!.*.; 1X%X+     > = J   r &       kXzXzX+ + NX",
"PX%.NXu mX3.3.jX@.  <.1.2.f DXa 5 %     . K M V.H.Z.G H K.E.>     - e ! x S.i 8 . m ;   _ O .   < p + ; % I ( ) b G KXh o t %.t ",
"jXkXkX1.NXIXIXIXLXt + GXu   MX@X[.U       > m.H G H C.^.!.f.F       o   a.v.  + &     e w o 1 o # x + + Y [.;.H !.BXHXg kXy GXt ",
"; MX$.zXjXIXDXPXIX$.= KXFX%.KXOX|.>X`.*     H m.!.^.^.!.U.=.c &     O # A.2 O + 0 O . 2 . < 1 1 x - + @.zX#.b.F.~.HXMX  DX%.jXzX",
"@.jXf NX@.GXh #.jX& f LXZXFXbX|.>X>X;Xo.O q f.=.Q.l.P.P.%.3X3X-.^  . .b B.. * ( ' F B.F.M.z C B.A.B   ,.F C.v.M.!.NXDX= 3.GXu GX",
"DXu 1.<.+ 2.3.;   + mXbXFX.X|.>X>X>X>X^ r * M rXVXQ.W.s.x *X:X5X*X$XQ v.C O.h.*.M.A.A.m F.S.G.V B F.2 G S.B B G.H mXIXNX; DX2.2.",
"GX$.jX= @.3.GXFXzXGXSX[.GXvX,Xl.:X>X>X&X- 0 f.Q.W.rXeX*.1 &X>X:X:X$X3 S.S #.v.F.G.1 b . A.V B.m C G.A.S.2 , S.F.#.ZXZXIXkXg FX@.",
"%.DXu NXDXFXAXAXAX0X,X[.7XqX4X=.f.4X>X>X<X<.5.&.k.0XVXf.v %X>X4X4X&X& S.M.S.B.H M.H u # S., b.V , b.V.,   v.G.M.h [.OXHXIX<.zXjX",
"3.KXNXGXSXwXqX,XSX$X;X=X4X6Xl.*.L.P.k.2X&.5.u.r.&.,.l.rX1X+.4X:X=X&X3 m M.2 G 2 z S.A M B.@ C v.= C v.  b A.C 2 @.s /.bXKXKXkXHX",
"HXHXCXSX9XJX>X;X,X$X;X,Xg.J L.=.L.T.3Xf.m.l 0.p A 5.%.<X:X=X*X%X&X=Xu @ < a..     a.B.A.G f z V.< v.C @ A.M         4 bX@XCXPXKX",
"+XZX@X@XJXGXJXJXJXwX:X,X=.A f.f.T.l.6XD.C.l 5.L.K t.r.&.>.<X+.X.`.*Xd u z M.      b M.v.< 1 ; B.C A.b Z M.          u %.OX.XZXbX",
" XZX+XOXKXSXGXLXFX9X4X6XJ =.L.T.k.1XE.D.V.l 6.J 6.u.u.u.0.D >.<X>.>.X.( , 1 O X o b.S . g @.y m F.S.2 S.<         ; @.t 8 .X@XZX",
"OX+XbX.XbXPXIXGX0X,Xl.K A =.f.P.j.g.Q.E.E.5.7.K =.t.y.i.R.e.5.%.<XX.' < C.u d & a.C       ; A H , , v.a.    @ < =.=.%.6 o s .X.X",
".X.XCX[.bXIXLXwXqXqXf.A A f.f.g.v E.rXyXrXL.5.5.9.t.i.R.y.u.r.6.&.X./ , m r 9 . V > +       a.C $.2 S.M C M.A.H.E.F.S :.W   U .X",
".X.XCXOXOXPX3.%XqX4XF F *.4Xf.=.m W.yXrXz.rX9.D 0.u.y.i.zXxXzXi.r.5.g I 0 Q L b V.$.+     < F., o V G.S.b.M.b A.M G s E 6     Y ",
"T .XOX|..X$.0 9XqXl.F S g.:X*.F.F.W.eXeXF.P.*.$.l &.e.i.xXzXxXxXi.e.0.l ( } Q i A o         @     o , + # m B.B.+   + %         ",
"X E .X{.Y   + 0 +.f.j.r 1X^ x F A.Q.Q.yXE.s.J v j 9.l 9.Y.xXY.Y.xXy.xXe.w.D <.>.0               +   ) *Xr J G.m   * >.s o o     ",
"O + {.[ _ X._ _ l.f.qX,XO.. o S b.s.Q.,Xs.S #     0 j k &.r.u.Y.y.R.xXY.xXxXe.5.#./ o       b V.c.- } `.I 1 B o X w U X         ",
"&   o 3 * O   & g.4X,Xd.- f o i $.$.< y $.3.t 3.t   & o : k 9.e.zXxXi.y.R.xXxXy.0.D #.w & b K.H.7.=.} w - 6 s Y -.( 0           ",
"].| w r   O r _ j.0 9 & 1.MX1.kX@.jXg 2.3.h %.t 3.          @ h 9.y.xXY.R.y.u.u.j o 7 0.&.*.f.V.%.h k #. X X XE y $     9 ~ (.].",
"* X   0 9 / * +._       kXmXNXzX; kX<.zXkXh 3.1.2.              + k 9.i.Y.y.t.6.: + < t.r.6.&.L.~.!.J.V.m.:.E T 6 X { -XsXiX(.L ",
"9 (.].=X].'.[ +./ O     3.NXlXNX#.lXkXmX%.t MX1.        = +         @ l 6.t.l j k k 5.u.u.r.0.q.U.L.D A A q. XE % q sXsXiX] 3   ",
"$ w ] o.].(.-XsXL     o 1.MXkX3.%.NXlXNX3.u 3.lXu     + NXjX  + +     o j l 5.: 6 9.u.u.u.y.w.q.L.;.#.p i y 6     ~ | { `.-XpX{ ",
"_.X { =Xq L & * + o U 6 1.3.zXmX@.NXg f   = $.+ u     1.IX}.. %.t     $ s l ; : k r.u.u.e.w.5.m.Z.K H V.H.H #     L O   o O { sX",
"].(.-X] iX].-X3 6 T R : u u %.@.( u + = ; t u u = O o NXIXU mXIXg d -.8X{.( 0 @ n D 9.q.L.m.J.U.Y < , x.M.o 2 2 @   & 3 q ~ { iX",
"7XiXP pX] [ iXa % _.] @ ; lX1.3.t <.h kXkX%.3.; +   u PXzXkXIXzX} fXfX8X}.$.-.;.j A #.%.kXH.K.J.V.B.2 @ M H G v '.-XiXsXsXpX'.[ ",
"sXP -XsXiX'.q   _.].q #.5 jX%.3.* $.@.$.f ;   & * = %.GX$.IXGX( hXfXfXfX8X-.U U -.#.}.jXT.c.J.Z . Z M 2 b Q iXiX'.[ ] _.[ q   { ",
"] _.{ iX] X   L iX3 X X { * * 9 } 3.<.g     O & 1.KXNX@.DXKX-.7X8X8X8XfX8X-.a }.vX}.;.V.K.K.V j b . Z Z *.`.{ [     q 9 _.  P sX",
"L _.{ '.(.  * -X_.[ y { iX* ~ (.'.'.`.| *   * g NXNXIX3.KX$.2X8X7X2X8XfX8X{.a {.a $   # b.K.H.H 1 #   c *X`.| L $ e ~ 0 O 3 pX(.",
"_.O 9 -X(.X ].].-XL r pX(.$ q ].'.iX-XiX~ [ ).kXGX3.FX3.DXNX>.hXhX8X2X} / / / ` c 0 &     # , o     w iX(.~ *  .$X&X%X).O (.].* ",
"( & ].iX] { iX9 9 X { sXiX=X~ _.-X[ | O   o.~ $.MXMXkX3.<.MX) } / - o d 5X1X5X1Xh.h.h.' r O       q pXsX^ ..o.$X&X&X&Xe L '.* 3 ",
"zXo { sX[ sXpXiXpX{ sX] [ 9 q iX_.O =   & >.NXDX2.f GXjXDXu =     m H 1X5X0XtXtX1Xc 0 e / ' 5 y   '.sX].%._ I ^ +.&X_ * iX ._ lX",
"; { sX] { pX-X-XL -X=X6 O $ =X-XcXkX= + f %.PXIXIXmXh kX#.    2 B.G.v.0XtXtX1X1X+   + ; + f X.k o q (.&.1.X...`.%X&X^ O w 6.8.R.",
"$ iX-XO { L =X] _.sX(.} & (.pXw g o u t t = MXIXIXIX1.2.u # c.F.G.v.b h.5XtX5X0Xh.0 1.KXlX#.r ( a 9 ^ +.$X( I {.%X$X..f k l l : ",
"+ 9 6 5 P $ I P pXsXsX_.L sXL     t g p ,   + 3.LXIX2.  2 A.F.C.a.; O X.5X0X- +.tX0Xh.2.h o e X.q  . .[ o.>.o.o.`.X.$.k #.( k g ",
";.Y 8 s 4 $ $ } iX| 9 $ iX(.  = g @.< B.S.<     & f o # B.v.1 2 N.h.X.r 1X,.  * 0XtXtXtX5Xh.,.X.f >.%.k 0 ` ` >.( f g $.>.;.;.-.",
"s $ X     X   { _.% o _.-X$ + h f + B S.M.v.  - / <X- + # 2 M . S.g.e & 1X_     X.tXtXtXtX0X1XX.= ) } ) ^ ` X.>.}.}.}. X X[./.W ",
"% $ X % % $   q E 8 L pX9 u h u   . V.C , S.A 5Xd h.X.1X_ , H   B.B     X._ 1.#.; tXuXtXtX0X5X_ I 2X7X{.7X8XvX+X+X[.OXW o o U Y ",
"T 8 % 6 %   - %.1.  '.{ r @.t o O z G.x + v.c.,.,.' X.5Xh.o e 3 a.c.    3 X.jXHX1.5XuXuXqX>X,X*XgX7X8XfX8X-.}.+X- 5 4 Y 6  XT Y ",
"T 8 % 8 $   ; g + q '.9 & y c X.0 c.B.t - 2 S.> H V.n.F M.M.f.c B V..   o ' d jXf 2XyXdXaXdXdXgXL O 0 |.-.5 % [.6 :. X:.% T W W ",
"T 8 % 8 $ X U 3.+ P | -.( 1X5X1X& A.a.J K @ B.S.S.v.A.C c.M S.2 2 G.2   d X./ $.#.9XaXL X & `.*XO } $ a d }.;.5 ;.% % W o 7 Y s ",
"Y a - 8 - $ & y @.= -.,.<XX.h.%X0 M.B N.n.< v.b.F J G G < & a.S < M.B + 0 I -.` <X;X~ r L w & } d 7XI = a ;.;.& $.- :.:.5 :.Y 8 "
};
