/* XPM */
static char *_0fa2cb62ddf4b75bc062e74b918fb94LhoIinTJz3xatBzb[] = {
/* columns rows colors chars-per-pixel */
"64 64 256 2 ",
"   c #070606",
".  c #100C0A",
"X  c #171717",
"o  c #2B1611",
"O  c #232024",
"+  c #272727",
"@  c #342C2F",
"#  c #383838",
"$  c #611919",
"%  c #4D152A",
"&  c #15670F",
"*  c #655F26",
"=  c #24305A",
"-  c #4D3050",
";  c #6C3556",
":  c #67326A",
">  c #2C616A",
",  c #484848",
"<  c #514E51",
"1  c #585858",
"2  c #63605A",
"3  c #68526F",
"4  c #566A6D",
"5  c #676767",
"6  c #716E6E",
"7  c #777777",
"8  c #971E15",
"9  c #B20F11",
"0  c #B02C14",
"q  c #B01827",
"w  c #942B2E",
"e  c #B12B2F",
"r  c #C5050B",
"t  c #D9070C",
"y  c #D80B13",
"u  c #CB1116",
"i  c #D4161B",
"p  c #E8040B",
"a  c #F3030A",
"s  c #F90309",
"d  c #FC0109",
"f  c #E80A11",
"g  c #F51016",
"h  c #D11726",
"j  c #F41B22",
"k  c #C92529",
"l  c #D22B30",
"z  c #C73639",
"x  c #F12E33",
"c  c #B46C14",
"v  c #A15B25",
"b  c #B3722E",
"n  c #D1590D",
"m  c #CF7213",
"M  c #E77C0B",
"N  c #F07E07",
"B  c #D05434",
"V  c #CD762C",
"C  c #8A2B4E",
"Z  c #9E2459",
"A  c #AE2E54",
"S  c #B4346A",
"D  c #CB3153",
"F  c #E83345",
"G  c #CA316E",
"H  c #D93476",
"J  c #E7347C",
"K  c #F1337E",
"L  c #905154",
"P  c #B65053",
"I  c #8D744F",
"U  c #A3586B",
"Y  c #B05073",
"T  c #8C716E",
"R  c #B47174",
"E  c #C5484A",
"W  c #CE4F51",
"Q  c #C65658",
"!  c #EE5255",
"~  c #D76A59",
"^  c #CB4C74",
"/  c #CD7071",
"(  c #0A910B",
")  c #338F15",
"_  c #10B010",
"`  c #29AA11",
"'  c #1FA02D",
"]  c #2FB52D",
"[  c #589626",
"{  c #09C90A",
"}  c #09D80A",
"|  c #11CD10",
" . c #17C816",
".. c #18D919",
"X. c #08E909",
"o. c #02FD03",
"O. c #07F508",
"+. c #15E917",
"@. c #1FEA1E",
"#. c #18F719",
"$. c #2DCF2F",
"%. c #33F234",
"&. c #4CD136",
"*. c #2CA45F",
"=. c #538C53",
"-. c #698D54",
";. c #709168",
":. c #6DB56D",
">. c #4CCA4E",
",. c #4FF24F",
"<. c #5ECB64",
"1. c #6ECC72",
"2. c #71EF71",
"3. c #98962E",
"4. c #AD882E",
"5. c #B1AF37",
"6. c #FC8505",
"7. c #F88508",
"8. c #F38814",
"9. c #DB952D",
"0. c #D08930",
"q. c #EF9128",
"w. c #C8B83B",
"e. c #B3C736",
"r. c #D5CE3C",
"t. c #E4D73D",
"y. c #F2E83C",
"u. c #FCF13F",
"i. c #94935F",
"p. c #AA954F",
"a. c #B3AF4D",
"s. c #B7956E",
"d. c #B5B46F",
"f. c #CB8E50",
"g. c #C6B94E",
"h. c #D8AD5F",
"j. c #C49770",
"k. c #A9C258",
"l. c #D2CB4E",
"z. c #DAD545",
"x. c #E4DB44",
"c. c #EBE445",
"v. c #F5EC44",
"b. c #FDF241",
"n. c #FAF249",
"m. c #F8EF57",
"M. c #CBC86D",
"N. c #EDE866",
"B. c #FAF365",
"V. c #732C8E",
"C. c #6E35AC",
"Z. c #20659A",
"A. c #2C6C98",
"S. c #316DB3",
"D. c #655D97",
"F. c #4B6A90",
"G. c #4B77AB",
"H. c #2F74C6",
"J. c #2775C9",
"K. c #207ADA",
"L. c #247CDA",
"P. c #7347C8",
"I. c #4F6ACF",
"U. c #9B3198",
"Y. c #AD2C93",
"T. c #9133B2",
"R. c #CB3E81",
"E. c #EB3881",
"W. c #F53582",
"Q. c #F73A87",
"!. c #B04788",
"~. c #906F8B",
"^. c #B26F8D",
"/. c #8E4DB0",
"(. c #A365A6",
"). c #CB5484",
"_. c #EC4D8E",
"`. c #F4438B",
"'. c #CA7093",
"]. c #F06BA2",
"[. c #9833CC",
"{. c #A732CD",
"}. c #A736D9",
"|. c #AF32E4",
" X c #B432EB",
".X c #BA35F5",
"XX c #BE33FC",
"oX c #C136FC",
"OX c #AA50D2",
"+X c #8368C4",
"@X c #AB6DCA",
"#X c #BB45EC",
"$X c #C450F6",
"%X c #C86CEE",
"&X c #368B9E",
"*X c #558EB0",
"=X c #6C9EA4",
"-X c #3585D7",
";X c #1E83ED",
":X c #2785E8",
">X c #348FED",
",X c #248AF5",
"<X c #278BF4",
"1X c #248CFB",
"2X c #3896F8",
"3X c #518DCD",
"4X c #6797C8",
"5X c #7AA5CE",
"6X c #489AEE",
"7X c #55A6F3",
"8X c #6EAEED",
"9X c #868787",
"0X c #958B8C",
"qX c #979797",
"wX c #B38A8F",
"eX c #8FB492",
"rX c #B7AF8F",
"tX c #909BAE",
"yX c #AC93AB",
"uX c #A7A8A8",
"iX c #B0ADB0",
"pX c #B7B8B8",
"aX c #C69195",
"sX c #C8AF90",
"dX c #C891A9",
"fX c #F083B1",
"gX c #C8B0B3",
"hX c #8DC890",
"jX c #BEC593",
"kX c #B0CBB0",
"lX c #D6D495",
"zX c #CBCCAC",
"xX c #C7C7BA",
"cX c #809FC2",
"vX c #B08CC9",
"bX c #8DAECE",
"nX c #ABB5CA",
"mX c #C6B1CC",
"MX c #CC87EA",
"NX c #B9C8CE",
"BX c #8FC4F3",
"VX c #C9C7C8",
"CX c #CED0CE",
"ZX c #D3D3D3",
"AX c #D9DADA",
"SX c #DDDDDD",
"DX c #DBE3DD",
"FX c #E1E1DE",
"GX c #DBE3E3",
"HX c #E5E6E6",
"JX c #EBECEB",
"KX c #EEF0EF",
"LX c #ECF3F2",
"PX c #F4F4F4",
"IX c #F6F9F8",
"UX c #FBFCFB",
/* pixels */
"X pXE d j j E l.b.b.b.u.b.b.b.z.wX~.R c 6.6.j.pXiX0.M gXiXsXq.4 <X1X1X-X3X>X1X:X*Xz.u.t.y.u.B.rX;.X.CXUXUXhX| GXAXUX;.t d d W VX",
"pXwXf j j d B u.M.jXd.y.M.zXjXx.n.a.h.7.6.m HX@ 2 rXj.pXX iXf.b :XJ.<X2X<X1X:X4 c.b.d.pXxXl.b.m.k.| LX, 7 kX$.GX+ 9XR d d d f wX",
"p s j j s d 9.l.PX+ 6 d.HX5 , rXb.4.q.6.6.M JXpXZXrXs.PXiXPX0.q.L.:XS.S.S.Z.Z.g.b.c.DX< 1 VXy.b.e.O.kX6 uX<.X.kX9XZXw d d d d d ",
"g j ~ / p a r.M.UXuXpXqXLXpX0XsXu.c 6.6.6.7.s.CXxXV M sXCXs.N q.S.2X<XnXbX3X-Xb.b.c.GXiXCXxXy.b.e.o.O.]  .o.o.X.]  .8 s d d j x ",
"l i W W p i x.x.VXUXDXl.rXIXGXl.b.c 6.6.6.6.6.N 6.6.6.6.N 6.6.q.G.1X1X1X1X1X*Xb.b.b.M.CXxXl.b.u.e.o.} & (  . ._ ( & * x d p R aX",
"u 9 q q k w m.u.x.l.z.b.u.l.r.u.b.c 6.6.6.6.6.c sX* rXv 6.6.6.q.A.<XL.L.:X1X*Xb.u.b.b.v.b.b.b.b.5.o.o.&   CXVX-   _ | B j d d p ",
"#X$X%X%XOX/.T z.l.rXlXM.c.b.u.u.r.c 6.6.6.6.m   1   2 7.6.6.7.Q S H J J H !.F.N.v.d.rXa.rXp.zXz.5.O.o.O.&       _ o.o.&.* A Y.{.",
".XXXXX XvXnXOXT.p.v.l.a.p.5.w.5.r.4.7.7.7.6.M o . o m 6.6.M D W.J W.W.W.J H E.j.m.c.x.c.N.c.M.u.a.O.o.o.o.{ _ X.o.o.O.=.}.XXXXXX",
"iX@X.XvX9X@ HXOX{.a.u.v.b.b.b.b.b.k.* ` | ` ` ` ` ) ) 3.c Q J dXAXwXJ H CXAXwXH sXm.c.0.c 0 b w.2 X.o.o.o.o.o.o.o.O.D. XXXXX.X@X",
". AXOXnXpX5 IX}.$X~.b.b.b.b.u.b.e.>.eXuXhXX.o.o.} eXuX<.] J '.UX, , '.dXIXO 5 ).G i.0 a d d d a 8 { o.o.o.o.o.o.o.4 @XiXvX X@XpX",
"5 JXOXOXKXUXvX X$XV.v.b.b.b.b.n.&.1.CX. gX>.o.o.1.pX. FX2 W.^.UXqXpX'.dXUXuXHX^ A t d d d d d d s 8 X.o.o.o.O.X._ OXVXX VX@X@XHX",
"IXVX|.XX}.OX XXX$XU.a.=X*X*X;.M.] <.JXqXPX>.o.o.1.AX9XIXL W.J iXJXiXJ H yXZX^.A t k '.E s d i / E j * X.} &.e.r.T @XJX6 HX@X}.AX",
"}. XXXXX.X}.XXXX#XZ.<X1X<X1X1X8X' X.hXDXhX+.#.O...CXJXhX2 `.W.E.J W.W.W.W.J J 9 u HXHXIXE p ZXJXIXQ F I c.n.m.b.^. XmXJXCX}.XX X",
"XX|.[.T.yX|.XX$XC.<X:X5XpX4X<X1X> o.o.} <.>.| { >.>.| O.;._.W.H % G H H S % G f P ZXX pX/ q GX+ qXaXV v.n.m.b.b.s.XX.X[. X.XXXoX",
"V.qXT.|.yX X%XD.L.1XbXuXX AX3X1XL.| O.#.1.%.o.o.<.,.X.%.-.].W.W.o HX# , ZX% D x y VX6 ZXz p gX5 VXI c.n.n.b.b.b.c.(.$XXXXXT.yX/.",
".XOX!.m 7.V 3 :X1X<XNXpXX AXbX1X1X> #.#.O.} ) :.i.v 0 0 0 D H W.G @     @ G D x d i W k p a y Q z 0.m.z.M.g.y.b.b.p.@XMX.XXX@X X",
" XP 7.M 7.7.M H.1X1XcXUXIXIX3X1X1X2X*.} * E x g d d d d d d p h H J G G J W.].A x d d s t r 9 r f l.l.FXUXIXsXy.sXPXJXiXyX%X$X.X",
"v 7.rXiXxX0.6.V :X<X-X4XbX3X3X<X2X2XG.q l P z a d k R z d d i E q D Q.H U D.D.F.: ; ; ; ; ; ; ; w v.zXUXAXPXUXp.LXIXJXUXrXt.M.i.",
"6.m GX@ 7 sX6.6.5 3XCXJ.L.3XNX3X<XL.q l VX5 pXP k CX5 DXe k ZXuXGXq < 4X8X8X7X3X>X2X2X>X-X2X2X6X>X2 xXpX  1 UXi.IX, . CXxXy.B.b ",
"6.m KXuXHXsX6.6.V :X;X<X1X1X1X1X1X: x z JX# qXdX~ ZXX ZX/ / iX. CX/ C 1X1X:XnXLXnX:X:XnXJXbX:X1X1X:X4 NX< 5 ZXr.AX< , VXd.b.a.M ",
"6.6.f.VXsX8.6.6.8.F.1X1X1X1X1X1X1X$ ! t ZXUXUXP k HXIXPXk z JXpXPXe q 1X1XG.2 AXUX4XG.1 HXUX3X1X1X1X> M.rXrXz.b.l.rXuXd.y.c.c 6.",
"6.6.6.N 7.6.6.6.8.T <X<X<X<X<X1X<X$ F s i Q z a d h Q l d s z R z d q 1X1XS.X pXUX3XF.X CXUX3X1X1X1X> b.u.u.u.r.r.u.y.b.b.5.8.6.",
"7.h.8.6.f.sXm 6.q.-.' ..X.|  ._ _ _ ) * t d $ w w 9 u y p p d d d F 3 1X1X:XcXAXbX:X:XbXAX5X<X1X1X1X> lXb.b.b.z.  5.b.b.n.I 8.6.",
"m sXb c b b 6.6.c #.%.$.$.X.o.o.} $.X.O.] y o 5 5   ZXT t d d d x R :X1X1X1X<XK.K.K.L.L.L.<X1X1X1X1X> i.lXn.b.v.+ 5.b.v.3.I 6.6.",
"6.6.7.7.6.6.6.7.` %.1.AX@ =.O...4 5 CX..%.* r o   . $ t d d h Y.{.T.P.S.<X1X= qXpXiXuXVX9XZ.1X1X1X1X= r 0 p.w.x.z.w.4.0 r L 8.6.",
"6.6.6.M c 0.0.b { @.NXJX5 pX} 1.7 7 UX<.%.) 0 n n n 0 p a Y..X X[.}.XX%XP.L.X , < , , 1 # X 1X1X1X1X= t 9 p t 9 w 8 s d t L f.7.",
"7.N 4.r.v.n.m.v._ o.hXUXUXkXO.>.UXUXUX$.&.c 6.6.6.6.q.j.U.oX XnX9XVXOXXX%XP.+ iXAXZXVXJXqX= 1X1X1X7X4 ZX0XdXp aXxXuXQ y ZX9X6 c ",
"w 4.b.b.m.m.b.b.[ o.X.1.1...o.O.<.kX>.O.4.6.6.6.6.6.6.q.Q oXT.GX+ 0XvXoX#X%XZ.S.S.A.A.A.A.L.:X:X8XG.uXqX. HXw JX# , gXP HXX 0XwX",
"V b.z.l.c.b.u.l.3.} O.+.hXO.o.O.1.O.O.&.m j.j.M 7.f.s.0.8.{.{.HXHXUX@X#XXX$XP.&X' { } { { { { ( ( * wXIXAXHX9 CXKXIXaXk JXIXIXQ ",
"w.l.FXCXT y.i.uXIX;.O.$.2.| }  .1.$.@.3.xX5 9XsXf.pX# AXm ^ oXOXvX@X#XXXXX.X=.:.iXnX>.o.o.O.:.uXpX>.' R wXE d k aXR y d D aXP g ",
"n.zXUX< , g.6 X IXAX) O.o.o.o.o.o.O.>.v GX6 9XCXsXCX# PXb ~ oXV.- - T.XXXX[.$.ZX< # CXO.o.} GX, 1 kX%.0 d d d d d d d d d d d i ",
"m.jXUXHXVXl.kXZXUXxXt.[ | ,.,.,.$.* ^ P rXUXIXj.0.JXUXVXM V : qX, 1 6 [.XX/.@.VXxXCXCXO.o.X.DXVXFXeX%.0 d d p f p p p a d d g W ",
"n.c.jXzXg.u.l.zXzXr.x.)._.L L L H W.W.W.Y b v I i.* V M 6.q.@ T.}.{.V.V.oXV. .$.kXkX$.o.o.o.$.kXkX..%.z s f / gXp p Q VXu a d V ",
"m.b.z.b.b.b.b.b.y.c./ ].'.'.).W.J '.'.).].V $ X X X 7.6.6.q.OXoXXXoXXX XU.J ].i.@._ } O.O.X.{ _ o.%.' P ! g a p d d a i d d y b ",
"B.l.5.b.b.b.b.b.c.3.aXwXUXUXAXH yXPXJXVX_.P v X X $ 7.6.7.9.~.Y.U.U.Y.S W.W.W.fX^.&   uXuX@   _ o.,.A.L.F.: C w e q e q A S (.s.",
"B.b.x.d.5.x.r.3.a.b.aXgXuX@ IX).VX7 @ IX^ U 6.0.f.M 6.7.8.b H W.H J W.W.W.H H W.].T & + + . ( o.%.> S.<X1X:X*XH.7X3XyX#X$XXXXX^.",
"B.b.b.zXM.r.r.zXM.b.'.).pX< VXJ '.iXqXgXE.P 6.6.6.6.6.6.q.B W.dXHXpXY W.^.pXHX'.W._.%._ ( { o.+.:.CX0X5X:XCX0XiX3X8XT..XXXoXXXT.",
"a.B.b.v.b.b.b.b.u.b.^ W.^ ).H W.W.^ ).J Q.A 6.6.6.6.6.8.q.S S IXAX  6 S 5 X UXPXH `.;.,.,.,.] > SX1 + GX-XKX+ 9XnXI.XXXX.XOXOX|.",
"T.l.n.b.b.v.x.c.n.B.^ W.C Z S G G A C S `.A 7.7.6.6.8.q.I H S LXIX~.uXS uXqXUXJXH `.!.Z.Z.Z.<X;XnXIXPXNXL.GXIXIX4XP.XXXXvXpXiXvX",
"[.[.p.w.B y t t B p.S W.G   6 VXiX  % W.Q.Y b m 8.m c w.N.f.J wXLXSX).W.^.GXGX^.W.Q.!.1X1X1X1X1X:X5XbX:X1X3XbX4X:X[.XX|.GX1 @ IX",
"|.XXY.p d k e p g ~ A E.W.A     . % J W.`.Y c.a.3.r.b.y.a.c.f.W.H H W.W.W.H H W.W.Q.R.6X1X1X1X3X4XZ.J.:X>XH.S.J.L. XXX.XCXZXAXAX",
"XX{.f s E pX9XgXp d / A W.W.H Z S W.W.`._.S d.HXKXsXz.CXPXZXz.^ H A S S Z S G J W.`.H 7X1X1X1X>XbX:X4XnXH.3XNX<XJ..XXXXXOXmXmXOX",
" XD d s iXqXX JXu d g E H W.W.W.W.W.`.`.Q.S kX2 0XIXd.qX, UXM.h.W.J T 7 . VX# C W.`.^ 4X4XH.H.H.H.J.G.S.S.S.S.L.H..XXX.X.X.X.X.X",
"mXy d d / UXKXAXt d d x A W.W.W.W.`.`.W.Q.A uX< uXAXd.qX2 UXM.m.J W.J % . . % J W.].Y wXE ! ! ! x F x x x x x q -  X|.vXmX.X X@X",
"}.p d d p / / k d d d x A W.W.Q._.`.W.W.Q.3 G.G.qXl.v.M.zXM.v.m.Q W.W.W.W.W.W.W.`.fX8 j d a / gX/ g i aXaXl d s g : XX}.}.{.[.{.",
".Xh d d d p 9 r d d d x A W.W.Q.Q.W.Q.G 3 J.-X7X4Xa.b.b.b.b.u.B.P W.W.J -. ...[ dXU p d d A IXpX, k dXUX5 - s d d 9 .XoXXXXXXXXX",
"XX).g d d ; 7 9X9 d s l 0XwXF.D.yX7 9XJ.4XVXiX3X8X;.c.b.c.u.u.B.P W.P  .o.o.o.o.X.;.s d d Q UXCX2 k gXUX0X2 a d d r }.XXXXXXXXXX",
"XX{.~ d d t $ $ a d j U + 7 5XnX0X. HXS.GX, # CX6X4 CXa.AXl.b.B.L C ] $.O.o.X.$.$.X.0 d d p dXAXwXa z CXZXE d d d r }.oXXXXXXXXX",
"oX}.0X~ g d d d s f ; LXqXHX5XbXHXuXKXJ.CXZXAXNX2X;.5.g.r.c.n.N.;.:.iXpX:.O.hXuXkX:...u d d d t u i i 9 p d d d s r T.oXoXXXXXXX",
"$X6 >.$.* 9 r 9 * ` ..eXZXbXL.-XnXNX3X1X3XnXbX-X2Xi.u.b.b.b.B.5._ GX< , DX} JX, 5 CXO.[ d d p o # 1 6 X $ d d a q 3 S.I.I.P.[.XX",
"~.>.%. . .O.X.X.]  .o.<.J.<X1X1X<X;X1X1X1X1X1X1X2Xa.u.b.b.n.B.` O.kXHXJXkXX.kXHXPXhXO.%.8 d a o X X X X $ d y F.<X1X1X1X1X2X8XP.",
"*X2.=XIXPX:.O.hXIXLX>.2.Z.G.S.J.L.:XL.J.S.L.1X1X-Xr.b.b.b.B.[ X.o.+.1.1...o...1.:.` O.,.* d d t w L U 8 a p S.3X4XH.1X1XH.tXcX-X",
">X>.< 5 UXCX_ 1 7 UXiX2.A.6XbX:X5XtXL.5XbX1X1X<XF.b.y.r.l.p.' #.o.O.} } } | ] _ iX>.o.%.=.i l P P P e u g C 4XUX# 1 L.:X1 + UXbX",
"2X*.1 9XUXkX..2 qXUX:.2.&X2X1X1X<X:X1X1X1X1X1XH.I B t s a u I ..o.o.hXeX} kX2.o.+.X.] L J W.W.K K W._.^ S S.bXUXuXqX3XJ.pXiXUXnX",
"2X&X..hXhX@.o.$.hX1.X.,.> +XC.[.[.P.P.P.P.P.F.wXf d p Q / y x Q | o.X.@.#.+.O.o.| L W.W.W.J G K W.).iXpX^.:X3XLXUXZXL.<XbXUXKX3X",
"2X-XX.#.#.o.o.o.o.o.o.] @XnXpXvX XXXXX}.vXnX@XT.y d wX6 5 gXp x P O.#.#.O.o.o. .G G J W.H pXuXgXJ gX7 + CX<X1X-X3X:X1X1X:X-X-X1X",
"2X-X@.#._ =.=.=.( o.o.D.vXpX  ZXOXXXoXvXuXX HXOXS d VX9X6 PXy d ! ) #.O.o.o.X.L gXqXVXH dXuX. JX!.gXCXnXCX6X1X1X1X1X1X1X1X1X1X1X",
"7X*XO.O.  @ @ @   { o./.vXFX9XIXOXXXXXvXpX6 IX/.Y.d / UXUXgXp s x w ' *.&X*.* '.pX. CXdXdXHXiXIXY ^ mXZX^.6X1X1X1X1XS.G.S.1X1X1X",
"BX*.o.X.          { o./.|.mXAXvX XoXXXOXAXKXvX#XS d a E Q t d g x D.7X2X<X7X3X~.PXpXIX'.H dXVX'.W.W.W.W.K G.2X1X1XL.X X X J.1X1X",
"3X{ o.o._ =.;.;.( o.o.4 XX.XT.MXOX}.[.@X/.[..X%Xq 9 q 9 9 9 8 d : 2X1X1X1X1X<XH.^.gX'.J W.W.K W.W.Q.G G W.S 3X<X1XS.O @ + S.2X8X",
"q 8 & X.o.o.o.o.o.o.o.$.}..X.XvX#XoXXXvXOX.X$XU.s p T # @ 9Xt u :X1X:X5XbX-X1X1X/.W.W.G H H G Z C U ZXJ Q.].D.*X<X<XS.4XG.>X6X3 ",
"f a d 9 ) o.o.o.o.o.o.%.: .XXXXXXXXXXXXXXXXX@XR j a r $ $ t d ; 1X1XbXqX# AXK.1X-XE.W.^ ZX^ ^ VXJ W.L [ ` _  . ._ *.A.4XG.; u a ",
"PXaXf s x ) o.o.o.o.} [ z.U .XXXXXXXXX{.Y v c m m m m c 0 0 y F.1X1XnXqX1 KXJ.1X2X(.].Q.J Q.W.J W.2 ,.O.o.o.o.o.o.O.%.eXe d f aX",
"9XJXQ d s ! * ] [ [ 3.b.u.c.T }.$X%X!.h.q.6.6.M 7.6.6.7.m 7.v J.1X1X4XPXUXnX<X1X2XD.s.h.f.f.P Y U ,.$.1.<.X.o.$.1.<.X.* d s W HX"
};
