/* XPM */
static char *f48f280e41c246988f2df411f49b21a8EeUBfN1I6S69PwBD[] = {
/* columns rows colors chars-per-pixel */
"64 64 52 1 ",
"  c gray18",
". c gray19",
"X c #343434",
"o c gray22",
"O c #3F3F3F",
"+ c #414141",
"@ c #444444",
"# c #484848",
"$ c #4E4E4E",
"% c #535353",
"& c gray34",
"* c gray35",
"= c #5F5F5F",
"- c #606060",
"; c #676767",
": c #686868",
"> c #6C6C6C",
", c #727272",
"< c #767676",
"1 c gray48",
"2 c #7C7C7C",
"3 c #818181",
"4 c #848484",
"5 c #888888",
"6 c #8D8D8D",
"7 c #939393",
"8 c gray58",
"9 c #989898",
"0 c #9D9D9D",
"q c #A0A0A0",
"w c #A5A5A5",
"e c gray66",
"r c #ACACAC",
"t c #B1B1B1",
"y c #B4B4B4",
"u c gray73",
"i c gray75",
"p c #C0C0C0",
"a c gray78",
"s c #C8C8C8",
"d c gray80",
"f c LightGray",
"g c gray83",
"h c gray86",
"j c #DDDDDD",
"k c #E1E1E1",
"l c #E7E7E7",
"z c gray92",
"x c #EEEEEE",
"c c #F3F3F3",
"v c gray97",
"b c gray99",
/* pixels */
"*86%=$-244::::;;:>,2:O$$#>;3:>52355687641>,rw323&-O-1+1,,,>;;;;-",
";r9-1*<84w45554324578#-=*359220415578862>>,te576:>%<6*9964433342",
";09-<-,729,;=:>>:1224#::-59e34q5:><1464<>,<ue2w0<<*28>r98712332:",
"-75-2:2966,:>>>::>134$><;78r52w728wwtrw0807uw2rw52;5w5xkgir0754,",
"=52;5:5q89<3321123689*<3>98t84w8<3678652123uw2et05>8t4jhfye951>*",
"*3,>8<9twe,,,>-;>:,<,@34,qqi0506:<3584<,<21eq3ee08>9u;auyt0082<-",
"%,>,94qiee352>>><<<>:%35,qeiq2736679085224108<q0q010y;iippiye952",
"#>,1q5qaeq<73<><111,:&55<0eu0,1,>1221,;==-*54>80re3wt$139996421>",
"$><204qp98--=**-:,<,;=87196t9;;--:<47743484<1=59rt6ui$2578752,>:",
"%,,2719u64=<><360rte0:wq4w8y0;*&$->2452<<4<;,%26eu9as=0were07783",
"#=*-:-<4:-@=*=:,16643#--*,->-#Oo.Xo@@O+++@O+@+%*<3>87%2180696494",
"-,:;-:<467=**#&&6r02*=58eyyuute6*&#>&:1*>=O*;,<135690:,1707tpugq",
"=>:==->257$**#=-7w02;=50wertrw92--*,=,3*;*+<2677670rt:>4453rtad9",
"<<>;=====;+-=#::6e05,*,43788611=,>=<;><&;*O144<<22<26=>214<eera5",
"wq61,>>>>=+;-$,<6ewq3>9wiiiiur921>;1;;:$;=@3476531113;>1<4100wy5",
"32:====*%@O>;=348tii6=559qwee03;,,;1;=;$:;+&;>;=-%&=%#15<2,8649,",
":;-*&&&&%#O>>-648iusw&;>149etyyw31:2>=;%,:@,1343437wr<37,<:42,5;",
"q0841,::::$:,>009iifa*11360eyist56273;>&,,@;><21<158w,37,,*<>>2;",
"tytq3,--;-#,<,ww7yuxj-><<13355526q7r9<1=31$11,1<<,,<1*27:;&>:;2*",
"gfpr93,;;:+,2>e05rubxehat952<,;=qtqar43-92;hfayeq71>>&30;=&,:-2;",
"ytw951:==-+253rw1qtbbtlhsy052<<:rarka65-w2=dputq64<-%$7r:-$>>-3=",
">,11&@=&$%o-;-,<-,2q0,yu2<=>,174:227711,66=601675921-%-:==**&&*+",
"6ttr4*54;1*566558wwqr2ew::$<48e7:1469989qt2rdwipsliiq88qwwe099q<",
"5ree6;54,2&<<12224660:98:;&209t7,2345087wq<0yqtuyjiatwiapytyttw1",
"2wqw6;45<3*33133<:;,>$44;:=1qwy8;,<3370qrw:5q3009stau667631,>;-$",
"19784-34<4&6986531<,:#,1-:=1q0t8*:<260wewe,303793tqiiphsur06555:",
"<9463=3415&26512>:;-&@:>*,-3w8e7$*-->,<357-4q470<98ttta88874633-",
"20463=3514%;>>,<15689*:;-,*3e695,24680wraa27r500165097q0874460q<",
"2q442-1213&--;;:<59qe=>,:<=3e24<270qruagll88p70w14265,3431137wy7",
"2q451*>2<4%%&&%&*-,12$11,1-1q,<;%-;>2359qr=7y8et<4>3<,31<:,1254:",
",033,$:216=541,>,269q%4421-,8=-&:,12589000:7r5er;1<2:<731<<2466>",
";71<;@;<35:8886460rup%:,,:%*<$@O;:;:,<,146*47,74*-=,-->;*$$&=*%@",
"7w83<-=:::%26-;=,220<&,;&$$$%%&$2,$:>%&$*-%:<<>221,:;<6:;,:,>#%$",
"7yw6<;*-;;%9e<42ru0g0<i04<<1243,62%;:&*&=:-werteq095347><4131*-*",
";251>=&&**#8w<45yt9kw3p72,:1246<65&;:%&&-:=98785543,:,8,27764->=",
",7762>:,<<*6q150ut0kr5ae854579q053&--&**:<*077532,:;;>7:28006>2-",
"1req832354;59,48ttwjt>542<>>,<<,4<$=-%:-,3*eqqq852<:>,5>400e724:",
"=452,:,<:;#58;36qe9ft:973,;;;==%<:#*-&<,48=,26432,:--:4:497r848<",
"4rre065786;60:54796uq5st0642<>;&;-@&;-3170>45900q976524,484t74w5",
"9utw976698:6e27443<q5,851,:;=&#O-*+&;;539w,690wre0723164789y99p8",
"0ttw0768ry25e4742>=5<=43<24443<-=&+%:<759w,15560962:-1860e8sryhr",
"4isy954456;28162>:%2;%>,,><11,:=*&@&:>979q>16wruitw786870yrlsdvp",
":1;:&&&&$@X-<=,-*%$;&O%%%%$##@+ooOX+$%>>>,*2969w89623=:,;35yq9i0",
"sd8t1<r9:% 963<,::>>;=>,24-&=$*%+$%*;,1444,6p15q*2>:=+29ydjcxxzk",
"pt50<:86>=X52,-=*=-;;=><33-*=@=*$=->><354517t37q:4,>;X30ydjllxxl",
"w918<:651>o1:;*&%=><,:2322--:#:->22,>,:;--&7t<6q,713<#367800833<",
"96<81>533<O2<>::<369q28722-><&,,2072<>>>>:=6e18y3w753=etuiite93>",
"651q4,535<+:;==->24432w023-<3>2<-452>--;;-*6w4qu5yew5*qettutq74<",
"573t7>646<O+##%;28eag9ew43:35,3139862<<36726q3ey7peiq:w099993:*#",
"573p8>7693@$$%=,8yfzvwee31:78,32:32<:;:>,1-175tiwgsdu1y07543,:=&",
"551p9,67t8#$$$%:159tp4qq>1>9e35<$*&&&%&**=$;35ustkhkd,71;==*&#@O",
"431i8,65iq&2,::<36908<88-,,qy48<*:;;;:>>><-&>2yaulfzj2e72,<<<,>-",
"22>t5:34dr*21:;;>1443=58;>:ep6q2;>:,,<,>::&#-1tptkalh4uw67899872",
"=;-<>-::63%%*+$@@%%--#,1->,7022:+oO-#ooX%@ X+@$+$%%*&X$&$%#53=*#",
">233699999;=,*-*=:*:,>79wryyrq64<;-q3&-*5>#2456775644$16772xh9w2",
":<>><21121&=,;,:>:&><4rudghfpir852<t7;<-72*qtew006566&4qwe7vker3",
",1>;-=*&&$o:3,21<,&,1;570eytr072052u955>04%<367641222$8tui8vhuy3",
"7w87772<>>$<81651,=<2>90wtuutw93953y0981q7-wryureq756%wpad0cdui4",
"4e95544<:>%2w78552-<1*159q80w952975r0qr5w7=qye9q662<,$yfakelpri3",
"euttrq72>>&4t79874:2<&<17ertrw96873eq9i7q6:fgdie94<-*&esahejr7t2",
"8treq8421,&4r48865:51*,14709741,861064p608;hjgsuw61>>%0ypiep87w<",
"%,362>>,;=#4r25796,73@%=;:;,>;*%782528i786#54663<:-**%69te7w330<",
",800www009;6r<2364;03-<<589085310q22>0i662$4688744446*35qw18>,0,",
"2890080wwe:28==-,:%2:*::<33211,>86,>*5r3>*$5988555690%<131&>$-6-"
};
