/* XPM */
static char *ce7cf936b7b84392f26b6805bdf7e8f8H2SAYQ0KRmlsWDI1[] = {
/* columns rows colors chars-per-pixel */
"64 64 254 2 ",
"   c #251E1B",
".  c #25231D",
"X  c #2D2C29",
"o  c #332B28",
"O  c #2B3435",
"+  c #2A3639",
"@  c #2C3A3C",
"#  c #35393A",
"$  c #5B362F",
"%  c #483635",
"&  c #3C443F",
"*  c #47443B",
"=  c #584C3D",
"-  c #6E4D35",
";  c #7F613D",
":  c #2D3D43",
">  c #2D3F4C",
",  c #353D44",
"<  c #493E46",
"1  c #2D434A",
"2  c #32444B",
"3  c #354449",
"4  c #2E4852",
"5  c #364A55",
"6  c #37545C",
"7  c #3A5B66",
"8  c #365468",
"9  c #3C6872",
"0  c #3B6779",
"q  c #4C4D45",
"w  c #454649",
"e  c #4D4D4B",
"r  c #554D48",
"t  c #544E4B",
"y  c #48554B",
"u  c #4D524C",
"i  c #54524D",
"p  c #595649",
"a  c #59534D",
"s  c #494B54",
"d  c #554C56",
"f  c #4D5758",
"g  c #555552",
"h  c #5A5652",
"j  c #555A54",
"k  c #5C5B55",
"l  c #56535A",
"z  c #555B5A",
"x  c #5C5D59",
"c  c #6C4948",
"v  c #66574B",
"b  c #755947",
"n  c #625553",
"m  c #6A5755",
"M  c #625B54",
"N  c #615E59",
"B  c #755753",
"V  c #576559",
"C  c #5D615B",
"Z  c #536C5B",
"A  c #68614A",
"S  c #62625C",
"D  c #686658",
"F  c #736B51",
"G  c #756858",
"H  c #7A755A",
"J  c #4A5764",
"K  c #575866",
"L  c #555C73",
"P  c #675768",
"I  c #75586E",
"U  c #576867",
"Y  c #587669",
"T  c #4A6D71",
"R  c #466978",
"E  c #556976",
"W  c #5B7873",
"Q  c #646561",
"!  c #666963",
"~  c #6A6A64",
"^  c #666868",
"/  c #6C6E6A",
"(  c #776C63",
")  c #697667",
"_  c #757669",
"`  c #666876",
"'  c #79647A",
"]  c #687578",
"[  c #787A77",
"{  c #925936",
"}  c #B15F36",
"|  c #91693D",
" . c #AF663E",
".. c #C93F51",
"X. c #EC3D51",
"o. c #984A48",
"O. c #8F524E",
"+. c #885957",
"@. c #AF4F51",
"#. c #886847",
"$. c #946848",
"%. c #897749",
"&. c #9A744A",
"*. c #886855",
"=. c #877458",
"-. c #957856",
";. c #A46748",
":. c #AA7747",
">. c #BA764B",
",. c #AD7250",
"<. c #925B6A",
"1. c #B55B67",
"2. c #897566",
"3. c #B16B6D",
"4. c #CC4E51",
"5. c #D84758",
"6. c #D8555C",
"7. c #E44B56",
"8. c #EA5052",
"9. c #EA5457",
"0. c #C67348",
"q. c #E0765D",
"w. c #CF5965",
"e. c #E75765",
"r. c #EE5864",
"t. c #D9696A",
"y. c #D2706F",
"u. c #E76E6F",
"i. c #7C8C5E",
"p. c #578B77",
"a. c #588679",
"s. c #66866C",
"d. c #7A8568",
"f. c #78956A",
"g. c #668A78",
"h. c #738C71",
"j. c #65947A",
"k. c #6A987A",
"l. c #759878",
"z. c #7AA77B",
"x. c #B89A3F",
"c. c #D0983E",
"v. c #CBAA3D",
"b. c #ECA637",
"n. c #F6AC38",
"m. c #F7B738",
"M. c #D2C73F",
"N. c #E9CA3C",
"B. c #F7CA38",
"V. c #EED13F",
"C. c #F6D438",
"Z. c #918D56",
"A. c #B18D52",
"S. c #B78658",
"D. c #9EA354",
"F. c #A8AD55",
"G. c #878968",
"H. c #928F6D",
"J. c #889769",
"K. c #869976",
"L. c #979775",
"P. c #A9946D",
"I. c #BA9B64",
"U. c #92A869",
"Y. c #86A579",
"T. c #99A77A",
"R. c #B1AE6E",
"E. c #A8A777",
"W. c #B8AA76",
"Q. c #B9B57B",
"!. c #D08E46",
"~. c #CD9745",
"^. c #C78A56",
"/. c #CA975D",
"(. c #CDAF4A",
"). c #D9B646",
"_. c #E8A945",
"`. c #EDB446",
"'. c #C9966E",
"]. c #E98F78",
"[. c #CDAA6D",
"{. c #C5B779",
"}. c #D3C756",
"|. c #E6C946",
" X c #EED14C",
".X c #CFC876",
"XX c #E7CE72",
"oX c #3A6B82",
"OX c #3C768A",
"+X c #3D7A94",
"@X c #4B7386",
"#X c #437689",
"$X c #457D95",
"%X c #766785",
"&X c #6A758C",
"*X c #907288",
"=X c #588A84",
"-X c #5C9286",
";X c #4F8A94",
":X c #468699",
">X c #5C9596",
",X c #6A8C87",
"<X c #679987",
"1X c #739B83",
"2X c #669B93",
"3X c #6BA48A",
"4X c #79A886",
"5X c #73B18E",
"6X c #6AA696",
"7X c #75AC96",
"8X c #78B79A",
"9X c #5194A7",
"0X c #6397A8",
"qX c #53A8B2",
"wX c #58B3BC",
"eX c #69A8A4",
"rX c #74B6A5",
"tX c #68AFB0",
"yX c #7FC28C",
"uX c #7DC5A8",
"iX c #52B8C6",
"pX c #57BAC8",
"aX c #66B7C0",
"sX c #5BC3CC",
"dX c #5EC0D0",
"fX c #66C5CE",
"gX c #6CC8CF",
"hX c #899B81",
"jX c #8AA884",
"kX c #95A985",
"lX c #84B78B",
"zX c #97B589",
"xX c #87B597",
"cX c #90B094",
"vX c #AEAD87",
"bX c #A5B684",
"nX c #B7B783",
"mX c #86B4AD",
"MX c #E79786",
"NX c #CCAC88",
"BX c #C3BC82",
"VX c #C8BA82",
"CX c #E0A291",
"ZX c #87C191",
"AX c #ACC793",
"SX c #8BCEA8",
"DX c #ADCDA7",
"FX c #A5D5A9",
"GX c #C9C886",
"HX c #D6CA86",
"JX c #CBD38A",
"KX c #D7D48A",
"LX c #CDD292",
"PX c #E4CCAA",
/* pixels */
"C C x ! [ / k h / ~ S ~ _ ! S C S i S S ~ S x S x k x k S h a i i i i i i i g g h x k k k k k k i i i i i i k C S S x g i i i g ",
"C S S / [ x h ~ ~ ~ Q ! _ D S x S x S S S / S k k C k N Q h i h h i i i i i k k k x x x k k i h g i i i i i k C C C S k g i g x ",
"S S S _ Q N x ~ Q S S / / ! k x S S x S x ~ / x x h k k ~ a a i i i i g i h k k k k k k h i i g g i i i i i k C x C C j g g i g ",
"x x S C C x / ! S ! S / / Q Q x D ~ k S D D Q ~ k N k k N i a a i i i i g k x k k k k k i k k g g i i i i g k x C S C C j i i g ",
"C x S S C S ~ S ~ S Q / D G D S S ~ k x D M n ( G M M D D i i i i a i i k k k k k k k i h k x k i i i i i k x x x C x x i i k x ",
"S S C S C S ~ ~ S ~ 2.E.Q.BXnXE.L.L.L.H.-.#.-.*.-.#.=.G M p i i a i i i k x x k k x k i x k x k i k i i g x S x x k i i g k C S ",
"x N N N k S ~ S G E.JXJXHXKXGX.X.X{.[./.^.^.,.| :.^.F D g a i i i a i h x x x x k x k g N x N N k x h i x x C S k g i k x S S S ",
"k n k n h k D G W.KXGXKXHXBXHX.X[././.^.S.$.| >.^.$.D ~ V x g i a g g x x N x N N k i h N k k k N N x g x x S x i g k S S S S S ",
"n v O.@.+.l D H.HXVXKX{.{..XHXW.[.A.^.,.{ | :.>.,.U 2XeX0X0X>XE z g h N N x k N M h i h h a i i h k x x x N x h i k S S S S S S ",
"a o.7.X.o.p H {.W.HX{.W.HXXXW.[./.,.$.- { ;.,.=.z @X9X9X:X$X+X:X@Xz a N x k N h a a h i i a h h k k x N x N k i a S S S S S S C ",
"B @.5.7.O.a P.{.R.HXW..XXXI././.#.#.;.>. .;.D 7 7 0 :X$XOXOX$XOX#XR U x N k k i i i h h h k N x x x x x N k g i x S S S S S S x ",
"B @.4.@.b G {.E..X[.I.[.[.-.%.| $.;. .} ;.D 6 7 9 0 #X+X:X9X9X9X;X:X@Xx p a t t i k M N M N N k h h k N N k i i x S C S S N x h ",
"x O.@.B N P.{.R.HXI.I.A.#.b #.:. . .;.*.C 7 7 7 9 #X:X9XqXqXqXmXcXrX:Xf p t t i h k k M k h h i t i i h x k i h x S C S S x k g ",
"x S N N G {.E.{.I.%.F $.S./././.^.,.G f 6 7 7 9 OX:XqXqXiXwXwXK.* cXwXT i i i i i h N k i i i t t a i i h k i x S C S S x x h g ",
") S a v P.P.2.=.=.P.I.I.S.A.A.=.~ Z 9 9 9 oXOX:XwXiXqXiXsXiXiXxXG.xXpX;Xa t i i t i h i t t i i t a h k x x g x S S S x k g g g ",
"i x D ( ( C 2.P.A.-.-.-.-.P._ T 0 9 0 oX#X:X:X9XtXfXiXiXiXpXpXpXgXwXwX;Xg t i i t t t t t i t t i k k N x k x x N x k g g h x x ",
", k S x k k h D G -.:.-.U R 0 0 0 oXOX+X$X;X*X3.y.mXgXdXiXiXiXwXiXpX9X4 w t t i t i t t t t t i h x x x S x N x g h i g i g h h ",
"K z x C x k k S ~ ^ E R oXoX0 0 0 #X$X$X*X3.e.7.8.3.gXsXpXpXpXfXgXtX2XU & q t i i i i i i t t g k N x x N x k k h i g i i i g i ",
"K f u x j k k D / E R 0 0 R oXOX+X#X&X3.e.8.8.7.9.w.mXgXsXfXfXtX=Xz i u u q i i i i i i i i h N N N x x x g i g x i g i g i g i ",
", f s s z k g U R oXoXOX#X$X:X:X&X*Xt.r.8.9.8.9.9.6.mXgXpXfXeXU t i t t t t i t a h a i r i a h h k k h h i i i x x k k g j g g ",
"# s s w w x z T #X#XOX:X9X>X&X%X1.e.r.9.r.9.r.9.8.w.mXfXfXaXU i t t t t t t i i k k i i i i t i a a a a i i i a k S C S x j g i ",
"t w w s s # J R 9 9 R &X%X' <.I <.<.1.w.5.e.r.9.5.<.wXfXfX>Xg i a i i a t t a k x x p t p p i a a a a a i a a a k S S S C j g i ",
"k a w # , , 7 0 R P ` ' ' ' I I I I P K I <.1.1.+.&XsXfXaXT t t t t t a t t k n M k p b b - r p a a a i i a a i h C S C S C g h ",
"D ( h # O 2 0 @X` %X%X%X%XI I P P P K L K P P K K 0XfXsX9Xl i t i t t t i a M M b &.~._._.c.:.b a i i i i i a i k C S S S S k g ",
"V L.H.C w R 0 L E &X%X%X' I P K d t l J K J J l E aXpXpX@Xd g h i i i t q q i b !.`.m._.`.n.n._.#.p i t i a i h x C S S C C x i ",
"V i.E.hXT R ` K E &X%X' <.I l 5 : % d J s d s s >XpXdXqXz a h k k x k a * o o - b.n._.{ S.`.n.n._.; t a g a x k N S S S S C x g ",
"H K.T.g.R E K d K ' I n w # @ @ + , d s s s < R wXpXpX=Xk k n k N n k N N v *.~.m.m.`.!.!.n.n.n.m.A.p a x N N N N N N N S S x g ",
"G.h.) 6 R K K d d s , # @ + @ @ O + w w s w 5 qXpXpX0XU N N M x +.3.*.M N M #._.m.m.m.m.n.n.n.n.n._.b a a N N S D D ~ ) _ x x i ",
"2.y @ J L J J w , @ @ : @ + O O O O < w , , ;XsXpXwXE a M B O.B 3.].].*.x N v c.m.m.m.m.m.n.n.n.m.n.&.a a x G _ K.hXhXhX_ C k a ",
"p + 4 6 5 5 4 1 3 : @ : @ O O O + + # , 3 T pXpXqXE g h c @.X.4.y.MXu.@.m n m ~.m.n.m.B.m.m.n.n.m.m.A.p D d.L.kXkXkXjXK.d.N k h ",
"O + 6 2 5 4 1 1 : , , @ O O O + + + # % J pXpX0XK i a a n ..7.6.4.1.t.5...v p ~.m.n.n.m.n.n.n.m.m.m._.Z.kXkXjXT.K.zXL.L.A N k k ",
"O 2 2 3 2 5 2 > 3 3 @ O O O + @ @ + O T tXqX@XJ x h k n k O.@.w.- $ y.7.X.O.c c.m.n.b.b.n.n.n.m.m.m.m.[.Y.kXkXjXkXK.H.b M k a i ",
"+ 5 1 1 5 2 1 : : + + + @ @ @ @ O + R tX;X5 : f V C x k x B 6.u.;.@.6.5...c v c.m.m.n._.(.(.).`.m.m.m.).R.Y.bXkXkXd.=.v S j h g ",
"@ 2 2 2 1 : : @ @ + @ @ @ @ # + 6 =X>XT 3 & U ] ` z x m x m @.e.t.e.7.o.c a v c.m.m.).U.z.l.f.U.F.).|.`.).E.bXH.G.-.&.F k h a ~ ",
"+ : 1 1 : : , , : @ : : , 2 5 T &XU z k i q V ] ,X] U P ! ~ G o.o.@.5.O.p k B b.B.|.U.5X5Xj.j.j.s.f.J.D.(.[.L._ =.| '.G h k ) kX",
"2 3 2 1 1 2 1 : : 1 4 5 s z K z k S k x g g z f f ` ] ] Q N h +.1.B B n n h b _.B.|.K.8X3X3Xj.Y s.g.k.f.i.F.(.&.&./.Z.h k G.kXzX",
"6 5 5 2 2 3 : 1 2 6 f [ Z.#.v u i x S k g i g g e e K ` ` ^ N m B k k k k M v _.B.N.Y.8X5X-Xj.k.h.K.J.f.Y.J.(.~.[.I.A k d.zXY.jX",
"6 5 4 3 3 > 4 7 W h.L.P.I.$.b g g h H.H.v a a a a a d K U &X^ k k N N N M M v ).B.N.D.k.k.s.s.f.f.U.J.Y.Y.Y.F.|.[.H p G.kXcXl.Y.",
"5 6 6 8 8 J W jXzXL.H.[.A.:.O.v p p L.vXE.=.M g a a i l K K ` P k M k k h M v (.B.B.v.Z.f.h.s.Y h.f.Y.4Xz.lXU.|.).A _ kXT.jXl.Y.",
"8 8 6 J / G H J.E.W.L.I.S.,.{ #.j a R.bXbXE.E._ a a n k i w J K g k h a a k v A.C.C.N.D.h.k.<XY p.k.g.xXlXyXZX.XV.A.G.kXY.jX1X) ",
"7 T g.C v *.G F H.nXR.P./.&.>.$.M x Q.GXbXE.BXnXL.D n v m h w f l g k a a g n F N.C.C.(.f.j.k.j.k.j.7Xj.3XrXSXAX X|.R.kXY.zXs.Z ",
"p.p.1XC S K.A v F E.E.W.I.:.0.;.M A Q.GXAXJ.Q.{.BX'.o.t M D i s J w i a a h i F ).C.C.B.D.l.k.<Xk.j.<X-X<X6XuXSX.XV.}.J.G.K.s.jX",
"a.p.j.k S DXzX) = J.T.{.S.,.0.;.k S {.LXLXT.Q.Q.[.8.4.H c A ) f l s * i p t M D | N.C.C.N.U.3Xl.<X<X<X6X2X6X6XSXAX|. XR.E.E.kXkX",
"a.=Xg.x V cXFXFXf.d.T.W.A.>.0.$.k N BXLXKXnXT.vX[.q.'.NX@.+.l.V i s w t _ v * p = x.C.C.C.M.Y.4Xa.<X2XrX6X6X<X3XxX.XC.XXAXAXbXAX",
"p.-Xg.x z s.FXFXDXAXzXR.I.>.0.b h M {.JXJXGXnXvXR.BXNXy.e.3.k.l.N e f w a k x i * - v.V.C.C.(.f.3X<X<X3XrX7X3X<X7XzX}. XQ.AXAXzX",
"p.-Xa.k z j cXFXFXFXAXW.S.>.;.a i M GXJXJXGXHXT.VXW.[.t.r.3.4X4XK.g f K w e h a d p - x.N.C.C.(.f.1X<X<X2XrX7X6X<X4XR. X.XkXz.5X",
"p.;XW g g i s.FXFXFXbX[.>.>.b h g M GXJXLXJXKXT.vXVX{.'.].G.1XlXcX) l K J 3 # q i i i p - v.C.C.(.f.<X<X2X<X6X6X<Xj.jX}.JXjX4X3X",
"a.2XY g l g V cXFXAXR./.>.$.M x k k Q.KXJXGXKXbXE.W.GXGXGXT.1X4XcXhXk x K s X o # q p p i A Z.v.|.}.J.g.<X6X<Xp.2X3X7Xl.mX7Xj.h.",
"W 2XU u u t g _ nXAX{./.$.m x k x k E.BXAXGXKX.XR.Q.Q.BXGXY.k.lXlXcX) x z e # X . o o % q i j m F Z.A.Z.s.j.<X<X-X<X7X7XrXrX6X,X",
"a.2XU i g i u k vXGX[.-.M z x k x x H L.E.KXJXGXnXU.W.W.GXJ.j.7X4XzXd.x z x x = - o.O.% . o * d x k C d.d.) a.j.<X-Xp.2X2XrXeX-X",
"a.2XU g g j i t G.HXI.v x x x k x x M D H LXJX.XGXT.E.W.{.G.1X4XlX4Xf.k x g x B @.t.u.O.. .   . o q V C C V V Z W g.<X-X2X2XeXeX",
"=X2XU l i k z g k P.G z x k x x k k k x N E.KX.XHXQ.nXW.W.G.j.7X4X4Xf.k j e n 1.;.1.u.3.% X . .   . # w g g i q D Z U g.<X2XeXtX",
"=X2XU j i x x k i k g j k k k k x k j x k D E.GXKXGXBXQ.W.G.l.1X7X4Xl.k z w n O.+.N m n i q q o . . . . o # q q G B m j V ] =XeX",
"-X6X^ j x U k x k u u i i i i i i i i i h x k H E.GXHXR.W.G.4Xk.7X4X1XV k G P.2.m O.n g y g Y g q o . . . . . o - 5.5.+.k x U ,X",
"<X2XV j [ Q x z k z u i i i i i e e g x g i z x x i.U.nXQ.L.k.1X3X4Xh.p m CXMXt.@.6.o.h i z a.a.Y g t * # o $ @.@.9.e.CXvXx x U ",
"2X>Xf Q [ S x x x x C i u e i e i x ~ S e i k k k ) z.f.T.J.g.j.4X4X) e B ].u.o.o.t.@.m e U =X<X<Xg.! i k M @.r.y.w.y.CXPXM t j ",
"2X-XU / / / / / _ [ / i u e g x Q / Q k e i k h x V k.4Xz.s.s.j.4X4XV t @.7.6.c c t.1.n u W 3X<XrX7X<X] V S 3.y.y.= O.MXPXn # # ",
">X>X^ / U / / [ / / k z k x Q S Q S g g e t k j k z C jXz.4Xl.j.1Xk.u t @.5.6.t.w.t.MXm V W 7X<X6XuX7Xg.Q _ PXCXt.3.1.3._ ) z u ",
">X=X^ ~ x / [ / Q ! x C S S C S ~ k x g e e h x x x z ) h.j.k.g.1Xs.u e t c @.7.@.MXP.a Y a.j.<X7XuX8X3XW C hXCXMXu.e.1.h.xXxXg.",
"9X;X^ ! z ~ _ x / / Q x C x x Q C g x g e i k k z x z j Z k.j.g.k.Y u t e q c o.O.( M V Y W Y <Xp.SXSX7Xg.U x S m <.<._ -X<XuXuX",
"qX@X` j x Q ! Q _ ! x z j z S S z z k g e e j k j x h k j Z 1Xk.k.V e e t y q t t t t U Y U W g.<XrXuX8X,XV k g y Y a.a.=X<X6XeX",
";XE / z j x Q / ~ x x x x x ! z g j x i e e e g k k l h z j ) l.l.i e e e e e e e t t Y Y U Y ,X<X8XuX8X1Xj i i y W g.a.p.p.<X6X",
"E ^ ^ j x x Q Q S x C x Q / ^ z j j x e e e e g k j z x x x k ) ) u t e e e e e e e u Y Y f Z 1X<X6XuX8X1Xj g k j a.a.a.-Xa.a.<X",
"N ! Q C x C S Q S x C x ! / C z z x g e e e e e g j z z x x x j j e e e e e e e t t u U Y U Y g.<X6XmX6Xg.g g C y W a.a.=X=X-Xa."
};
