/* XPM */
static char *_a8bed7895234bb5815ad9cebae94d8fQ4f6BIw4FjnVv13i[] = {
/* columns rows colors chars-per-pixel */
"64 64 254 2 ",
"   c #2F3216",
".  c #1C1D2C",
"X  c #1D2738",
"o  c #29302D",
"O  c #282B3A",
"+  c #34363B",
"@  c #3C480E",
"#  c #2F4B19",
"$  c #3B4816",
"%  c #3A4A29",
"&  c #394636",
"*  c #4A540D",
"=  c #424D14",
"-  c #495717",
";  c #515C18",
":  c #536113",
">  c #58661A",
",  c #606D19",
"<  c #6A771B",
"1  c #717B1D",
"2  c #424E27",
"3  c #4D5B23",
"4  c #4A5827",
"5  c #535E23",
"6  c #434F39",
"7  c #485535",
"8  c #515C3A",
"9  c #586626",
"0  c #53692B",
"q  c #586638",
"w  c #666F2C",
"e  c #687527",
"r  c #697737",
"t  c #12354D",
"y  c #1A354B",
"u  c #262D41",
"i  c #29374A",
"p  c #353845",
"a  c #283D51",
"s  c #323D53",
"d  c #3C3F63",
"f  c #1A4659",
"g  c #39484A",
"h  c #264456",
"j  c #374859",
"k  c #39545F",
"l  c #1A4B65",
"z  c #1D536B",
"x  c #254A64",
"c  c #235569",
"v  c #3A5067",
"b  c #3B5565",
"n  c #275A77",
"m  c #2C637E",
"M  c #36667A",
"N  c #43484A",
"B  c #485649",
"V  c #4D5C4B",
"C  c #515C4B",
"Z  c #454A55",
"A  c #4A5658",
"S  c #545A59",
"D  c #576747",
"F  c #556253",
"G  c #5C6A53",
"H  c #596D51",
"J  c #58655A",
"K  c #5C6A5C",
"L  c #677549",
"P  c #636C56",
"I  c #626D5D",
"U  c #647353",
"Y  c #6F7851",
"T  c #69775A",
"R  c #4C5C63",
"E  c #475868",
"W  c #565C65",
"Q  c #4A5173",
"!  c #4A5579",
"~  c #4A6269",
"^  c #5D6363",
"/  c #5C6C64",
"(  c #54646B",
")  c #576869",
"_  c #5C726A",
"`  c #4A6878",
"'  c #556572",
"]  c #596B77",
"[  c #5C6C74",
"{  c #556B7C",
"}  c #4D7075",
"|  c #5B7177",
" . c #5D717C",
".. c #626C62",
"X. c #63696A",
"o. c #637364",
"O. c #687767",
"+. c #6D7B63",
"@. c #64736B",
"#. c #6B7B6C",
"$. c #737D67",
"%. c #656C76",
"&. c #657473",
"*. c #6A7374",
"=. c #6D7B74",
"-. c #63737B",
";. c #6A757B",
":. c #65797B",
">. c #6C7C7C",
",. c #737A76",
"<. c #717C7B",
"1. c #778B1E",
"2. c #738734",
"3. c #6B8443",
"4. c #738748",
"5. c #789148",
"6. c #6C8352",
"7. c #6F845C",
"8. c #778958",
"9. c #7B9255",
"0. c #6D8265",
"q. c #788867",
"w. c #73836C",
"e. c #7B9265",
"r. c #6D8177",
"t. c #738374",
"y. c #778774",
"u. c #7C8C74",
"i. c #73837B",
"p. c #7C8C7C",
"a. c #7D9379",
"s. c #879856",
"d. c #838E69",
"f. c #849668",
"g. c #828D79",
"h. c #869779",
"j. c #939777",
"k. c #8FA46C",
"l. c #95A57B",
"z. c #A1B17D",
"x. c #376981",
"c. c #386F86",
"v. c #4A5081",
"b. c #555C85",
"n. c #596688",
"m. c #5B648C",
"M. c #5D7482",
"N. c #50728E",
"B. c #5E7A88",
"V. c #616B88",
"C. c #627683",
"Z. c #647A85",
"A. c #6B7C84",
"S. c #6A7489",
"D. c #657C89",
"F. c #697E8B",
"G. c #737C85",
"H. c #677693",
"J. c #727D95",
"K. c #568190",
"L. c #6C8385",
"P. c #68848A",
"I. c #6C828D",
"U. c #748385",
"Y. c #798786",
"T. c #7C8B84",
"R. c #73848C",
"E. c #738A8C",
"W. c #7C8B8C",
"Q. c #7C9287",
"!. c #6E8591",
"~. c #638894",
"^. c #718692",
"/. c #758497",
"(. c #748B94",
"). c #7A8D95",
"_. c #768C99",
"`. c #7A8E99",
"'. c #7B9196",
"]. c #7A9795",
"[. c #7D929B",
"{. c #7C9AA7",
"}. c #828A83",
"|. c #838C8C",
" X c #839384",
".X c #889987",
"XX c #83948D",
"oX c #8B9C8D",
"OX c #959D83",
"+X c #838E93",
"@X c #838F9B",
"#X c #839394",
"$X c #8A9694",
"%X c #849B93",
"&X c #8C9C93",
"*X c #82959C",
"=X c #8B969A",
"-X c #859A9E",
";X c #8B9B9C",
":X c #929C9C",
">X c #8BA187",
",X c #95A688",
"<X c #8DA399",
"1X c #93A395",
"2X c #93A39B",
"3X c #9AAB99",
"4X c #9EB290",
"5X c #A6B48E",
"6X c #A0AD99",
"7X c #8396A1",
"8X c #859AA2",
"9X c #8A9DA4",
"0X c #899DA9",
"qX c #909DA4",
"wX c #8B95B1",
"eX c #8DA1A5",
"rX c #8BA9A7",
"tX c #8EA2A9",
"yX c #93A4A5",
"uX c #97A8A4",
"iX c #9BAAA5",
"pX c #92A5AA",
"aX c #93A5AB",
"sX c #9AA6AC",
"dX c #96A9AC",
"fX c #95A8AE",
"gX c #9AABAC",
"hX c #9CB1A7",
"jX c #8FA5B1",
"kX c #97A7B4",
"lX c #97AAB1",
"zX c #9AADB1",
"xX c #9BADB2",
"cX c #9EB1B5",
"vX c #9CB1BA",
"bX c #A1ADA8",
"nX c #A6B6A5",
"mX c #A2B2AC",
"MX c #A2AEB2",
"NX c #A3B3B5",
"BX c #A9B8B7",
"VX c #A3B5BA",
"CX c #A6B9BC",
"ZX c #ABBCBD",
"AX c #B2BDBB",
"SX c #B2C2B2",
"DX c #A9B8C2",
"FX c #ACBCC2",
"GX c #B2BFC2",
"HX c #AEC0C2",
"JX c #AEC2CB",
"KX c #B3C2C3",
"LX c #B7C5C9",
"PX c #C2CECD",
/* pixels */
"M.D.!.[.9XeXtX9X8X*X*X7X7XtXtXtXpXpXpXlXlXxXxXfXxXxXVXNXcXCXZXZXZXZXZXZXZXZXFXHXHXHXZXCXCXHXZXZXZXZXGXHXHXHXFXZXVXVXCXVXZXFXVXxX",
"B.Z.I.[.`.[.[.`.[.[.[.*X9X9X9X9X9XeXtXeXeX9X9X8XpXpXpX9XeXeXfXgXgXgXxXxXgXxXNXNXcXxXcXcXcXcXcXcXcXNXVXcXNXVXNXVXVXVXNXVXCXZXCXVX",
"D.D.F.!.!.(._.(.).[.*X7X8X9X9X8X9X8X8X8X9X9X9X-X8X8X-X-X8X8X9XpXfXfXpXpXfXfXxXfXpXlXxXfXxXxXxXlXfXfXfXpXfXfXgXxXxXxXcXcXcXcXxXcX",
"Z.M.I._.[.[.[.[.[.[.*X8X8X8X8X8X8X9X9X9XpXeXeX-X8X-X[.*X8X8X9XpXfXpXfXfXpXfXpXpXfXlXfXpXlXfXpXtXfXpXpXpXpXpXfXfXfXxXxXxXxXxXxXcX",
"Z.D.^.`.[.[.[.[.'.[.*X*X-X-X-X7X8X9XeXpXpXtXtX8X-X-X*X8X8X8X8XeXpXeXtXeXpXpXpXpXpXfXfXpXpXpXtXpXpXfXxXfXpXpXpXfXfXfXxXxXxXxXxXxX",
"D.I.^.^.^.(.(.(.[.[.[.*X*X-X*X8X8X8X*XpXtXeX8X8X8X9X9X8X8X8X8X8X8XtXeX9XeXeXpXpXfXpXpXfXpXpXpXpXpXpXfXfXfXpXpXpXfXlXfXfXfXxXxXxX",
"D.L.I.^.I.^.(.).).[.*X*X7X8X*X8X7X8X8X9X8X8X*X8X*X*X-X8X8X8X8X8X9X9X8XeXeXeXpXpXpXpXfXpXpXfXpXfXxXxXfXpXpXfXfXxXxXlXxXxXgXxXxXxX",
"(.).(.(.).).[.[.*X[.*X[.[.*X[.[.[.[.`.`.[.`.`.`.(.).[.[.[.[.*X*X-X*X-X8XeXeXeXeXeXyXpXpXpXfXfXfXpXfXfXfXfXfXxXxXlXxXNXxXxXxXxXxX",
"(.).).`.[.[.).[.*X[.).).(.(.(.!.!.I.I.!.!.I.^.I.I.!.(.(.(.(.'.[.'.[.[.[.[.-X7X-X8X8X9XeX9XtXtXeXeXeXeXyXfXfXfXxXfXfXcXcXVXcXcXNX",
"A.R.(.(.(.(.^.(.(.^.^.^.!.!.!.D.D.D.I.I.D.D.D.D.F.I.!.!.!.!.^.(.).(.(.[.[.(.[.[.[.[.*X*X8X-X-X-X-X8X8X8XeXtXpXfXfXxXxXcXNXNXcXcX",
"C.C.P.I.I.I.I.F.D.D.F.I.I.!.F.C.Z.D.I.F.F.D.C.Z.F.F.F.D.D.I.I.I.!.!.I.^.(.(.^.(.(.(.(.(.).).[.[.[.[.*X'.8X7X-X9XtXpXlXxXxXxXVXcX",
"C.F.P.I.I.P.D.Z.C.D.D.D.I.F.C.D.D.F.F.D.D.D.D.D.F.D.D.Z.D.F.F.P.I.I.I.^.^.(.(.^.(.(.(.(.(.(.).[.[.`.*X[.[.{.9X8X9X9X9XeXpXfXlXxX",
"Z.I.^.^.(.(.^.F.F.D.F.I.F.F.F.I.I.I.I.I.F.I.I.F.F.D.D.F.F.I.I.I.!.I.!.^.I.^.(.(.(.^.(.(.).`.`.(.).).'.'.Q.U.*X8X9X8X8X8XeXtXtXpX",
"I.^.).[.(.[.[.^.I.I.!.^.I.I.!.I.!.^.I.I.I.I.!.I.I.I.I.!.!.!.!.(.(.(.(.^.(.(.(.(.(.(.(.(.'.(.[.`.`.'.).U.h.6.+.i.*X8X7X8X8XeXeXeX",
"-X[.*X7X[.[.*X).(.(._.^.I.R.^.^.!.I.I.I.I.I.I.!.!.!.!.^._.(.(.(.(._.(.(.(.[.[.'.`.(.'.[.).'.].).[.*X#X>Xf.9.7.T r.'.8X8XeX9XeXeX",
"9X8X8X8X8X*X#X;X(.!.P.I.I.I.I.I.I.F.F.F.F.F.F.I.I.I.!.!.!.^.(.(.(._.`.(.).[.[.[.).'.*X[.[.[.[.[.7X-X;X,Xk.4.w.q.0.w.XX0XtXeXeXeX",
"fXeXuX;X-X'.XXXX^.D.L.D.D.D.D.D.D.D.D.D.Z.D.D.D.D.F.F.I.I.I.I.^.^.^.^.^.(.(.(.`.(.).`.i.o.U.[.7X7X-X X8.4.6.U q.q.q.+.Q.fXpXtXpX",
"lXuX1X2X8XpXoXXX`.I.XX>.C.C.D.D.C.Z.C.Z.B.B.Z.D.D.D.D.F.D.F.F.F.!.!.I.^.^.E.(._.E.(.R.q > 0 r.'.[.[.[.a.q.3.3.U #.e.e.0.XXpXpXeX",
"xXuXoXmXF.U.:XR.E.W.T.L.| B.M.M.M.C.M.C.B.B.M.D.D.Z.F.F.Z.F.I.I.I.!.F.!.I.R.^.^.E.^.:.$ ; > D E._.(.`.(.u.4.2.3.T 0.9.s.q.T.pXeX",
"VXZXmXBX8X).*X`.L.XX-X0X!.Z.M.P.F.M.C.C.Z.Z.Z.Z.D.M.E h a h k ' G.!.P.^.^.!.^.(.R.I.>.%   = 4 A.(.(.^.(.T.q.3.3.3.0.T 9.9.6.T.<X",
"KXcXVXHXNX).9X).).pXjX_.0XZ.-.W.U.M.B.C.Z.D.Z.Z.' a t t t t t y v F.I.R.(.(.^.^.^.^.(.o.$ @ - O.E.(.(.E.W.U.r.6.6.6.6.Y 8.6.w.XX",
"ZX[ *XgXZXA.;.gX-X9XC.E tXW.W.W.U.U.I.D.Z.D.D.' y t l z z l f t t h F.).(.).(.(.(.(.(.(.o.2 = T ).#.q.).[.[.).a.3.q.6.q.T 0.8.0.",
"VX>.yXZXBX=XG.sXG.fX=X).fX&X<.) :.<.L.F.P.F. .h x M N.M M n n z l t b (.`.(.).(.'.[.'._.W.$.4 T q.1.2.y.].[.[.'..X8.e.8.T 7.9.6.",
"PXPXZXZX$XMXgXqXyXxXyXxX+X=.^ &.I.(.I.^.^.F.k c ` A.;.K.m M m n n l t ` `.[.`.'.'.*X[.t.r r q L r > q Q.[.7X*X-X#XQ.e.5.9.7.8.9.",
"sXG.<.X.%.|.MXBXcXNXxXU.( >.i.#X(._.[.`.`.] h c B.S + I.M x.x.m m n x f  .[.7X*X=X-X-Xy.q > 9 D $.w.p.XX8X-X8X8X-X8XoX9.5.f.q.8.",
"S Z }.|.Y.=XKXvX{ '.NX>.9XqX9XyX[.7X[.^.R u y c ` [ | K.N.N.c.x.x.x.x.c h Z.8X7X-X8X-XXX}. Xa.w.h.4.2.q $XqX9X8XeXeXeX&Xf.9.q.q.",
"Y.ZXZXZXuXVXZXpXE #XNXgXBXBXCXpX0X9X*XR g g O k M c.N.K.K.~.{.{.~.x.m n z x  .8X8XtXp.0 9 q L q 9 : , L &XfXyXtXpXtXpXuXoXe.9.e.",
"uXNXF.CXxXpXMXKXNXZXfXgXpX@XZXBXfXfXfXfXqX=XZ O b M c.K.~.DXLXLXJXjXB.M n n x { 9XpXg.4 0 L Y L 7.w.g.&XfXfXfXfXuXfXfXxXuX2Xk.l.",
"bX;XR yXgXG.U.fXBXxX8XZXC.j fXNXpXtX9X9X9X9XR.Z Z ~ M N.rXLXKXHXKXLXFXvX0X{.H.n.J.-XsX2X:XsX1X.XiX.Xs.9.h.fXkXgX.X,Xl.1XuXmX4X,X",
"uXfX9XNX#X%.-X<X<XuXfXNXVXtXCXyX7X7X[.[.7X7X[.j . u M M vXGXCXFXKXKXAXKXFXFXDXwX! Q U.f.d.d.q.q.8.e < 1 L fXgXmXz.s.s.j.f.,Xl.4X",
"[.0XlXeX( R.fX<XrX<XhXeXfXxXxX8X7X[._._.[.`._.' p O j ` tXCXFXZXGXGXGXZXZXZXZXkXb.v.s 7 > > q Y L 9 3 q u.dXfX1Xk.s.4.d.f.s.9.k.",
"A.' ' ' A :.uXeXB.P.'.eX'.fXxX9XtX(.I.^.!.(.(.F.p O . b 8XCXZXZXCXVXFXNXVXVXVXkX! ! v.d N y.a.a.oXg.q.e.&XpXyX%X6.3.D Y h.h.s.f.",
"@.A.' S.R ;X2XE.j | ].-X-XlXA.A.lX).).).R.A.I.I.E O O i I.xXgXxXlXxXvXVXVXVXkXJ.m.b.v.! Q E *.=.T r e 1 L 9XeXpXh.3.4.Y O.g.q.oX",
"t.R.[ ' ;.gXuXW.k L.].].(.VXY.A.-X#XT.U.@.:.M.D.' O . i a ).eX9X9X9XvXpXvXxX/.n.m.b.m.n.Q Q Q N 4 - * = G 7X-X0X-Xw.4.6.0.L O.XX",
" XU.W A [ yXmXhX].].%XL.-.xXeXsX*X) S [ @.| { {  .p p i u Z ).[.9X8XpXfXpX^.b.m.b.m.m.n.m.b.b.b.E / o.O.).7X-X8X8XXX0.7.9.2.U ..",
"&X:.( -X*XY.2XyX<X<X;X[ ( -.-.' E ) @.+X' ' ] ] ] R X p i u E (.`.*XeX8X/.m.b.b.m.n.m.m.b.m.m.m.{ A V.-X7X7X8X;X0X8X%Xq.8.2.9.8.",
" XU.9X9X*X( W W.U.U.%.' ' '  .-.I.A.W.U.F.] { ]  .{ k p u s a k ).7X`.V.n.m.! m.m.n.H.H.m.m.S.%.Z o . Z A.[.*X*X7X0X-X%Xy.7.9.9.",
"O.R.A.'.R.W ) ;.Z Z R -.).[.8XE._.M.^. .M.M.M. .M.M. .u i u j k j E j { n.V.H.n.n.H.V.H.G.S.S . . + Z A Z A.'.[.[.[.*X8X-X&Xq.8.",
"y.G.<.i.&.W W A O W 9X).R.A.-.-.A.(.D.D.D.F.D.Z.Z.D.D.{ i u j j j a i s j ' H.J.J.J.S.%.+ + + p j Z A  .A.`.[.[.[.[.*X*X*X-XXX0.",
".X|. XK <.W N A S W.).A.G.G.) %.A.-X(.(.(.(.(.(.(.(._._.C.j v j b j b j a s s R ;.W p + p + u O X y y E I.[.[.*X-X[.*X8X8X8X-X%X",
"y.<. Xw.|.S Y.*.Y.;XpXR.G.W N Z W qX0X8X9X8X*X[.9X8X-X7X8XR.E j j h b j j E j j j j j R ..K A O y y y y x  .[.8X8X-X8X9XtX9X9X9X",
"w.$X|.p.V |.bX*.9XeXfX+X^ N + S ^ *.yXNXgXpXtX9XtXtXpXpXfXfXtXF.~ j k j ! E j ] | F.W.6.r w q 2 o i y y y a b Z.9X9XyXpXfXpXpX<X",
" X+.=.#.=.NX:X*.sXgXZXqX*.X.X.;X|.<.|.9XxXVXxXxXlXxXxXgXNXMXgXsX+X%.( | Z.E.*XlXCXFX1X; : ; r L d.>.x f h f f h E (.pXpXpXfXfX,X",
"T.h.1Xw.$.V 6 =.BXBXNXNX;.Y.T.2XBX=XG.+XqXZXZXVXcXNXBXBX#XA C B 6 O...|.NXFXZXAXGXZXBXOXY j.OX8.r 4.$.b l z z l h ~ -.#XxXxXxXl.",
"X.T.oX1Xg.% # I NXBXNXBXyX;X$XuX=XX.S <.#XsXZXCXCXmX6X6XuX<.V q r r L T $.1XGXAXGXKXKXLXAXnXr 8.Y r L 1X} c c c ~ ( A %.W.uXnXk.",
"=.i.,.,.|.V 8 H yXXX|.qXNXMXY.=XG.N N X.;XVXBXCXCX3X,X4XZXZX3X6.2.2.4.L L L &XZXGXAXuXNXNXBX6XAXOX6XbXGXVXD.b ` R <.^ A Z W |.4X",
"w.p.o.*.=.V y.#.U.@.Q.:.pXyX:.%.*.*.Y.@XU.xXxXxXcXgX>X,XNXcXNX&X8.4.8.r e e s.iXMX&XsXqXyXuXNXKX3X3XKXKXGXFX).~ Y.X.N p Z N %.BX",
"w.h.a.t.y.S K @.) t.i._ [.'.[ U.W.[ XX8X8XpXxXNXyXpX;Xa.fXfXxXlX X7.r r 1.e 2.q.MX2X+X*.*.Y.|.MXnX1XFXVXBXNXBXeXG.N p Z S :XAXSX",
"T.#.o.p./ _ B V / .X/ :.'.L.[ ).).) ).[.8X9X-X*X-X8X[.0.eX-X-XeX-XU 5 e < 1.> e &XNXW.N N X.<.|.bX XNXfXfXfXfXpX;X..p S 6XmX3XnX",
"@.K *.=.R &.@...O.@.) A.I.) C.(.^.R U.).9X).R.;.A.(.E.O.Y.p.T.E.*XK 3 : 9 1.< < T pX-XS ;.C.R.8X;Xt.yX9X8XeXfXmX,Xf.w.yXAXXXR oX",
">Xh.p.y.o.S ..J ^ J ) [ >.A :.!.I.A A.9XU.S.W A R -.L.o.L.#.>.P.I.&.4 - 9 e < , q R.@XF o.@.) (.W.+.;XpXyX9XBXnXOX9.1XBXnX*.Z W.",
"h..X.XT.@.F F S I J =.F 7 D #.:.F.B W.).( W Z + R E | / Z._ _ M.C.%.7 4 3 9 1.3 7 @...8 w L  .I.r.o.yX:XuX2X2X2X;X#.Y.NX3X2X1XiX",
"#.#.@.X.A I u.}.$.O.S & 7 q.#.-.Z.A $XZ.W Z p N S ] [ ) M.) ( { n.' N = = 4 9 7 6 & 3 e w K D.I._ @.sX) |.uX2X2X<X&.) fXhXuXuXyX",
"=.I ..#.V y.OXg.F ^ V D d.q./ Z.Z.B &.C. .R R ( g ) [ ) { ~ ~ ` ` ` j % % & 2 % % 3 9 0 7 M.B.C./ :.#X-XpX2X>.Z &X&X>.W.uXBX#XA.",
"w.g.OXu.K D U K J ^ w.+.F V _ D.Z.B ) Z.M.A ( [ g ) ( ) | ~ ~ ` ' ' Z   $ $ $ 4 - 9 ; 7 & ( { | ) A.#X=X=X2XY.A &XgX;X3X1X1X2XeX",
"i.g.u...*.J C X.I G ..#.B V S A.-.C o.Z.D.( R | B / )  .| S A S [  .A $ $ @ = 3 9 - 3 V N B V A J $X#X;X#X;XiXoX$XgX2XT.&.Q.<XmX",
"$XO.o.o...g.g.&.J J ;.#.D G F #.w.d.h.[ I.I.P.Z.B I G D q 9 ; 4 q / A $ $ $ @ 9 > ; 4 N & + B A @.1X<.<.Y.X.uXiXY.XX2X) g i.XXhX",
"XXu.g.T q.q.=.+XW.i.I C p.J o.$.q.f.+.&.).R.!.A.C K G q , > ; > , q 7 $ @ = @ > > > 7 B 6 A M.:.o.1XmXuX2XU.T.XX#X|.1X1XY.1X.XW.",
"i.h.l.7.T *.+X+XI U 7.q.....D d.d.d.U Y.R.) '.A.D G i.i.q ; ; w , e 9 @ = = $ - > 9 K *.F B I J G  X-XyX&Xy.a.u.&X$X&X6X>X.XT.@X",
"-Xr.w.#.=.*.=...D f.h.U X.+.L $.T D o.#X@.S >.;.D U W.*XO.4 9 w e < < - = - $ 5 5 7 X.V 6 7 U I U y.&Xa. Xy.J p..X1XW.uXxX2X&.yX",
"pX=XY.Y.o.y.j.I D d.U F O.+...*.<.^ @.J 7 2 @.@.H U *X-X#.+.w e < < e > @ = = 9 > 7 <.=.F U Y.#X0.&XuXf.,Xp.& _ >XoXW.yXBXiX;X2X",
"yX#.T d.j.+.I <.@.F J ,.T I @.>.<.X.I i.8 G ;XU T U -X*X#.T.D w e w 9 - = * ; ; ; 0 T q 4 D T #.y.:XMX>X,X,Xu.>X,X3XXXgX3X3X=.J ",
"&X+.5Xl.q.K ;.) ).E.P.U.F S @...P J G eXX.=.qXq +.U -X#X+.=Xo.3 5 3 ; ; 9 : : : ; 8 +Xt.U $Xt.U.}.4XnXnXnXl.,Xl.OXBX$XmXhXnXi.^ ",
" Xy.U T <.+XU...( L.L.I Y 7.U U q./ G 8X&.o.+Xq w.U -XW.#.-X>.4 5 3 > > > * : > : q XX+.u.uXfXfXoXl.5XNXnX,Xh.,X6XXX#XBXnX4X3XiX"
};
