/* XPM */
static char *c41b60c7178e4a30bd00ebf6a3f11eda3eoFjw97mnaCc33R[] = {
/* columns rows colors chars-per-pixel */
"64 64 256 2 ",
"   c #62503F",
".  c #344F54",
"X  c #39585B",
"o  c #39605B",
"O  c #3B5C64",
"+  c #375B68",
"@  c #2F5E73",
"#  c #375E74",
"$  c #386568",
"%  c #3C636D",
"&  c #3C6574",
"*  c #366678",
"=  c #3B657B",
"-  c #3C6B7C",
";  c #387178",
":  c #4C4A42",
">  c #495A4B",
",  c #58594C",
"<  c #455A59",
"1  c #565B56",
"2  c #6F5249",
"3  c #695A4B",
"4  c #655D57",
"5  c #795C55",
"6  c #57684D",
"7  c #56724E",
"8  c #4A6557",
"9  c #4C635C",
"0  c #546756",
"q  c #536B5C",
"w  c #5B6C5C",
"e  c #587358",
"r  c #5C735C",
"t  c #6C714D",
"y  c #666959",
"u  c #76685A",
"i  c #63735D",
"p  c #6B775A",
"a  c #637C5C",
"s  c #76755D",
"d  c #445E64",
"f  c #445F71",
"g  c #675C63",
"h  c #446464",
"j  c #4A6767",
"k  c #42646B",
"l  c #4B6A6C",
"z  c #546B64",
"x  c #586966",
"c  c #5B6D64",
"v  c #546D6A",
"b  c #506E6E",
"n  c #567364",
"m  c #5C7364",
"M  c #5A7967",
"N  c #55736B",
"B  c #5B746C",
"V  c #5C7A6C",
"C  c #426573",
"Z  c #436A74",
"A  c #476A76",
"S  c #436C7B",
"D  c #487579",
"F  c #557473",
"G  c #5C7572",
"H  c #5D7B73",
"J  c #547779",
"K  c #5D7B7B",
"L  c #666A65",
"P  c #756B65",
"I  c #647464",
"U  c #6B7464",
"Y  c #637B64",
"T  c #6C7B64",
"R  c #63746B",
"E  c #6B746B",
"W  c #647B6C",
"Q  c #6B7B6C",
"!  c #727B64",
"~  c #7B7C64",
"^  c #737B6A",
"/  c #777968",
"(  c #736974",
")  c #627672",
"_  c #637C74",
"`  c #6B7D73",
"'  c #657D7A",
"]  c #6C7978",
"[  c #757B75",
"{  c #8F5950",
"}  c #B15B4C",
"|  c #AA5D52",
" . c #896758",
".. c #956656",
"X. c #906F50",
"o. c #A96857",
"O. c #B76757",
"+. c #B36C51",
"@. c #85696A",
"#. c #966868",
"$. c #847A68",
"%. c #857676",
"&. c #937575",
"*. c #A86568",
"=. c #AB7769",
"-. c #B4716F",
";. c #C35D4F",
":. c #CB6D52",
">. c #C66859",
",. c #D66858",
"<. c #D97A5A",
"1. c #EA674F",
"2. c #E76856",
"3. c #E97758",
"4. c #F27B58",
"5. c #D76C68",
"6. c #C77668",
"7. c #CE706B",
"8. c #D96D76",
"9. c #DB7476",
"0. c #E37963",
"q. c #E4777B",
"w. c #3C837D",
"e. c #6A8657",
"r. c #6A845C",
"t. c #798558",
"y. c #76955E",
"u. c #5D866B",
"i. c #5D8274",
"p. c #5F9273",
"a. c #63836D",
"s. c #6B836D",
"d. c #678868",
"f. c #778767",
"g. c #73836D",
"h. c #66926D",
"j. c #7B9566",
"k. c #658274",
"l. c #6B8375",
"z. c #658B74",
"x. c #6B8B74",
"c. c #65837B",
"v. c #6B857B",
"b. c #678B7B",
"n. c #6C8B7B",
"m. c #748473",
"M. c #788876",
"N. c #718B7C",
"B. c #689575",
"V. c #6B9474",
"C. c #6C9A75",
"Z. c #6D937B",
"A. c #789677",
"S. c #72947C",
"D. c #739C7B",
"F. c #75A37E",
"G. c #87895D",
"H. c #8B915C",
"J. c #89AB5F",
"K. c #878869",
"L. c #879869",
"P. c #969769",
"I. c #8B8C73",
"U. c #888A77",
"Y. c #928B70",
"T. c #869578",
"R. c #989579",
"E. c #AB9374",
"W. c #89A468",
"Q. c #8CAB6B",
"!. c #95A66A",
"~. c #93AB6C",
"^. c #8DB06D",
"/. c #94B36C",
"(. c #98B669",
"). c #9AB46C",
"_. c #8CA673",
"`. c #95AB75",
"'. c #95B373",
"]. c #9CB473",
"[. c #9CBA74",
"{. c #9CBA77",
"}. c #A5B36F",
"|. c #A6A775",
" X c #A3BC74",
".X c #A5B978",
"XX c #F1865B",
"oX c #D38B72",
"OX c #E58767",
"+X c #F48562",
"@X c #E98876",
"#X c #9CC175",
"$X c #A7C276",
"%X c #ACC37B",
"&X c #B1C57B",
"*X c #3B6D83",
"=X c #386A85",
"-X c #3C7286",
";X c #3C6C97",
":X c #3A6CAA",
">X c #466B86",
",X c #437484",
"<X c #487695",
"1X c #537392",
"2X c #69748B",
"3X c #4976A9",
"4X c #4E76A8",
"5X c #4879B5",
"6X c #527BB5",
"7X c #8C7784",
"8X c #AF7D91",
"9X c #D87B86",
"0X c #CA7D91",
"qX c #E97D85",
"wX c #50888B",
"eX c #6A8582",
"rX c #6D8B83",
"tX c #728C82",
"yX c #768A86",
"uX c #769484",
"iX c #699393",
"pX c #7AA284",
"aX c #5583B0",
"sX c #5583BA",
"dX c #6D92AD",
"fX c #71A8B1",
"gX c #518ACF",
"hX c #6389CB",
"jX c #918388",
"kX c #869883",
"lX c #999683",
"zX c #A99B84",
"xX c #AA8598",
"cX c #B58497",
"vX c #8DA896",
"bX c #B8A48C",
"nX c #B1B08B",
"mX c #B687A7",
"MX c #B990AF",
"NX c #D78690",
"BX c #EB8388",
"VX c #EF858C",
"CX c #C6AF93",
"ZX c #D3B79A",
"AX c #CE90AF",
"SX c #E199B7",
"DX c #D4B9A2",
"FX c #ADC781",
"GX c #B4C982",
"HX c #E0C6A7",
"JX c #84BCC2",
"KX c #D29BC7",
"LX c #E29CC3",
"PX c #D6A1D1",
"IX c #EEA4CF",
"UX c #84C8C5",
/* pixels */
"H 2Xc.c.c.H H K ' a Q.Q.`./.[.L.0 ) _ N.l.n.N.' ] E ` a._ ' W c.c.k.v.c.k.k.k.a.' _ H k._ H B H H H G G H q n n c F ) F H H B G ",
"H c.z.z.k.c._ H _ Y [. X.X%X'.Q.e R W v.N.eXrXv.%.mXL 1 7XxXE c.W r W tXk.v.v.c._ k.x.Z.Z.z.H H H B V V z.h.B.u.n G c R V B H B ",
"H H B.h.B.Z.k.k.k.M _.$X$XGX[.[.f.M l.b.v.( 7X( mXPXmXcXIXSX( v.i `.j.s.W ' ' _ i.S.D.B.B.z.H H H B B V z.h.h.h.k.( 7X( E R B V ",
"G B B.B.h.B.tXn.n.k.f.[.[. X%X$X_.m l.rXR mXIXKXPXPXKXAXSX8X] l.r./.(.W.r.Y _ H z.D.B.Z.B.k.H B B H N B V z.B.B.a.&.xXxXxX7XL R ",
"V H a.S.Z.C.uXuXuXrXY _.#X[.&X&X`.r v.c %.LXIXLXKXPXAX9X9X7.P k.j.(.#X~..Xr.m H B.B.C.Z.k._ K M a.z.M G H i.k.i.u -.-.cXAXmXjXL ",
"_ _ k.z.Z.D.uXuXtXb.) d.'. XGX$X`.r x.l.&.NXSX0X0X0XNXBXq.9X#.W W.$X$X X(.W.w ) z.z.k.k.i.K H k.B.B.z.H K _ ) N { O.-.cXxXxX( ) ",
"Y l.v.b.tXl.b.a.Q Q G m t.'.(.$X_.m n.Z.%.-.9X9XBXBX9X9.9.q.-.I L.(.&X&XJ./.f.n V V H _ _ ' V z.h.h.z.' ' k._ y | O.O.-.&.L _ i.",
"m.kXT.x.uXv.c.W zXCXQ ^ zXL.'. XL.m ' k.[ #.BXq.@X@XqX8.5.9.*.I j.(.(.&X).).L.w _ W ' _ k._ H i.B.B.k._ _ _ R 5 7.+.6.=.u W x.z.",
"x m s.M.A.T l.R bXZX/ U.bXK.p L.j.Q W b.N.P 9.q.qXqXq.8.5.7.#.R f. X(.$X).].K.3 @.@.y V _ ' K k.x.z.V R L g g g } O.*.u M n.B.d.",
"N B ' R U I.R.U / $.U R ~ w R.R.K.m.l.n.v.` #.9.9.q.qXq.5.7.{ v.d.~.%X&X%XP.+.OXXXXX<.*.u V c.W V U u P F 1X4X1X..O.5 c i.B.D.B.",
"M ) ' k.I zXCXY.kXI.I.! g.m zXCXK.f.I.g.n.N.E *.8.9.q.9.5.-.u uXn.e.~. X}.+.XX+XOXXX4.4.<.o. . . .&.2X6X6X5X3X>X{ ..L ) k.z.b.z.",
"H _ ) B B M.lXY.I.p |.Y.f.I y K.! Y.ZXzXs.c._ L *.8.5.5.5...^ uXtXY j.Q.X.<.4.oXP oX4.+X+X+X<.X.4 dXsX5XsX5X3X=X{ 3 ' N 8 V H H ",
"_ H R U.lXQ ` M.I.I.|.$.Y.R.U.L.g.P.Y.~ Q k._ v.] #.-.7.*.L ' N.c.l.i !.H.<.4.OX=.6.3.XXXX+./ D ; <X6XgX5X3X;X1X#.y G 6 T.Y ) ' ",
"_ i.I DXHXg.k.uX[ U I.$.ZXCXU I.s K.! M.~ M.M.M.x.k.L u 4 B _ k.k.M W 0 K.o.<.:.3.3.4.+X>.yXUXwXwXS aXaXsX<X5X2X..L c j.[.j.V K ",
"_ K ) ^ U.g._ lXCXg.U s $.Y.U I.P.K.P bXzXI I y m.T.M.Q 7 q W _ c._ _ V 0 t oXX.<.+X4.+Xo.fXJXiX; ; >XdX1X3X6X#. .w j.!..X~.e _ ",
"` ! E G I R.` R.CX~ T P.~ T ! Y.Y.~ ! R.K.B _ z q I [ M.r U M.T W Q Q W m t.G.u +.OXOX@X=.vXJXfXD i.S S sXsX@.o.4 e '. X%X[.f._ ",
"[ ZXbX/ K.U.I.~ g.K.`.|.P.p K.~ ` W _ R R v q w R W V Y r a kX^ Q M.M.g.I y K.T P oXOXNXoXjXfXfXwXD w.A dX%.6. .z f.[.%X%X/.L.R ",
"M.bXzXT l.m.Y.R.! K.].].P.t g.I H B G m a r.j.L.L.L.L.f.g.r Y k.l.v.l.g.M.M.f.f.W ..oXoXOXE.&.kXyXz N P =.oXo.4 n L.'. X X~.L.0 ",
"v.Q m.g.lXU.U.t.Y.|.P..XH.Y.i ) B B e e.W.Q.Q.).%X&X].a W M V k.k.tXuXtXm.Q T.T.n L &.oXOXNX@XoX6.E.oXoXo. ., c B ~.[.)..X~.`.6 ",
"n.tXuXlXDXbX[ Y _.!.P.P.P.P.c _ m e j.].)./. X X%X Xj.m c.a.V v.n.l.m.uXN.n.s.f.T.Q p ..-.oXoXoXoXoXOXE.u y R V w Q.[.$X X X].i ",
"Q yXeX/ R.M.v.d..X.X.XQ.W.K.m B a Q.~.~. X X X(. XQ.a x.b.a.m l.m.lXbXm.tXN.Q Q d.U.m.I u 5 X.=.&.@.s ` P L ` V q Q.Q.[.GX X~.e ",
"M.m.rXrXtXtXk.d.).%X$X[.}.K.I w W.).$X%X(.~. X(.`.r.S.F.F.n.M M U bXCX^ tXQ U.^ v.w ,   3 y _ B W _ M.Q y Q k.c.c W.Q.~..X).W.q ",
"m.m.l.v.N.eXl d./.$X X/.~.G.p A..X[.].[.W.'.].j.Y B.C.D.pXx.m w Q ^ ~ g.v.lXHXzX` c , , ! M.W ` W ` Q y I ' k.k.R f.[./..X].j.c ",
"c kXg.v.N.F C A. X$X/.'.j.t f.a W.Q.].!.W._.f.r v.S.B.D.uXN.i $.U m.m.M.M.U.bX$.m.W c 1 w g.T.i L P @.y W _ H H ' 6 '.$X&X`.i c ",
"n W kXm.H Z *Xu. X&X XnXT I I.I a d.f.r.Y i y [ _ p I l.n.N.~ ZXR.m.Q m.g.T.M.U.ZXlXQ 0 U f.T.T.4 3 5 y _ H G G B m r.)..Xe.c z ",
"l.n.s.A.M A -Xj ~.%X.XL.m R Y.l.' ' _ ! ..O.;.}  .|./ v.l.l.R y s U.K.I.I.g.n.~ ZXR.p ! g.g.W R y u p 6 q B _ B n _ 0 j.R.0 z z ",
"S.D.D.S.m.rX,Xo L.].L.e a.V $.Q k.' E o.1.2.2.1.+.X.Q ' lXI.l.m Y m.g.R.K.s.Y K.!.!.nXp _ v.v.eX' I i s.m.l.c V G _ R 6 p q 9 V ",
"C.C.F.S.9 S.rXj f.j.a d.B.s.~ T k.c.u 2.2.oX=.2.:.u _ T CXbXE l.i K.^ / r.W.!.P. X%XL.r K ' E [ ' W R I 0 m.M.Q 0 m R , U c B q ",
"C.D.S.rXk D uXf.f.Y s.S.B.B.T ! ' k...3.3.oX=.3.<. .V V E s / l./ HXR.K.].].|.P.`.L.E.bX[ b.7XcXP %.8XR n R W s.g.A.g.y I w B 9 ",
"tXk.k.c.S ,XA T.f.W v.S.C.B.i K.` k.u <.4.2.3.4.4. .I W W I Y.U y E.L.!.!.P.P..X!.L.E.ZXM.n.&.AXmXLXAX( [ %.E m w r s.T.T.g.Y 0 ",
"v _ k.G A ,XA v 2XJ ` N.D.D.R $.Q c.y ;.1.1.1.3.0.{ U.bXy ) I K.t p L.P.P.P.!. X(.L.u / l.M.=.NXIXIXKXmXAXAX( K G W ) W Q g.A.g.",
"% l ) R k % b F sXgX4X1XK i.R ! Q n./ O.1.1.1.,.,...I.zX~ ~ i s K.7 L.G.|.].W.[./.G.ZXlX` E -.9XNXAXPXKXKXMX( [ ] c l._ v.N.` m ",
"* & v m h h ' H aXgXgXgX4X1XA x x ) 1 | +.>.,.,.,.>.4 R I ^ / $.P.p L.|..X].'.].H.~ zX~ m @.NXBXVX0XAXmXKXSXmX8X( x z V k.l.v._ ",
"* - C v h O >X,X<XsXsX5X5X5X5X5X>X$ $ < v eXP O.,.>.2 ' H m i G.L.t P.P.H.P.L.L.K.y U K.U =.BXBXVXNXNX0XAXAX8X( E j X N n.x.b.k.",
"+ *X- k d C <XaX6X3X;X;X;X:X:X:X;X$ w.$ iXfXdX/ =.>.{ R ) e L.t.G.K.H.H.!.R.K.i / ~ K.DXE.-.q.BXVXVXVXqXNXNX&.` H O & F tXZ.Z.k.",
"v % & O X N d =X3X6X4X4X3X3X3X5X;X% w.$ A fXfXiX*.,.O.y ) e !.t.|.p L.`.j.i ~ U.R _ E $.#.8.q.BXBXBXBXBXVX8Xv.c.j - = v Z.B.B.a.",
"_ _ N h O + S >XaXhXsX5XaX3X3X6X=Xk D $ 2XfXfXdX#.5.7.5 E a .Xt.L.p f.e.w ) c ! g.s I Q -.8.9.q.BXBXBXBX0X[ kX' Z *X* N Z.B.B.z.",
"i.N.N.z X l Z A k S >X3X<X3X6X5X>X+ ; ; O wXfXiX..2.6.5 m f.~.P.!.e.f.L.Y G v R w bXbX` =.8.8.q.9.9.qX9X@.tXuXJ -X=X* H B.C.B.h.",
"v.c.uX' < K v._ ' ' 1X1X1X4X5X5X3X= $ $ O l dX] >.7.>.5 n f.L.|. Xj.e.`.T v z n n I.K.m.&.8.8.5.5.9.-.P _ tXc.D -X@ + N k.B.B.B.",
"j H v.' d c.n.' ) z d + >XaX6X6X6X4Xf $ $ X < { ,.>.>.u B ! |.!. Xy.7 W.e V n a.z.a.V N./ -.8.7.6.@.x W k.v.' D * @ O B k.Z.D.d.",
"& % l ' 9 l.b.F k % % & C f 2X1X4XsX1XX 1 2 | 7.>.>.O.y _ p P.`.$X~.7 W.r k.d.d.u.h.Z.c.R @.@.%.L A S b v.v.' C @ # h W l.n.N.d.",
"* - C X d ' n B V Y d.f.6   7.6.=.-.=...O.,.,.>.>.>.{ R W K.L.Q.(.Q.7 _.a z.u.d.u.h.S.m 0 f.p v.H = *XZ F n.eX% @ + K l.k.l.l.q ",
"X & S X < f._.[.].Q./..XX.<.XXXXOX6.5.6.<.>.,.>.-.| 4 c p Y.!.[.(.'.a _.m B M z.i.x.M q r ]._.Y B % - *XC c.' % + B l.c.c.k.tX' ",
"K F l w `.#X). X&XGX}.X.6.+XXX+X0.OXOX0.<.O.6.:.O.3 W m ~ p f./. XnXe.j.Y H v G v m q r L./.'.f.B % =X*XS l v.d l n.l.) v j j < ",
"c.l.f.].&XGXGX$X.X!.X.,.,.,.,.4.+X+XOXOXO.| +.X., B U 3 u ` M j.~._.r.d.' B 9 v n q q d.[.r.a.A.Q F = *X- X c.< rXb.9 k Z & k d ",
"k.I vXFX$X&X}.^.G.=.>.>.O.;.O.o.{ {  ...2 2 2 u s 3 5 u y W v.Y L._.0 W ' v z 9 9 q r j..Xn + l N i.D *X*X% z < eXl Z - - - Z F ",
"l.l.s.j.L.`.L.X.O.| O.O.>.} { y p I x m w , , , 1 , 3 / M.m.W v.a f.r R H n z q 8 v r.W.~.e * * & l K S S O . d k S -X*X= k K ) ",
"j H v.tX9 3 o.+.| | *.O.}  .E H p ~ V p.z.I m B N y 4 , > Q M.W W p w k._ v v q 8 R f.Q.Q.a.= =X* + l K C d . O - *X,XS l H v.k.",
"= ; % 4 ..O.;.} | o.{ >...M.' _ p ! k.h.h.i.H H c ~ Q W _ _ Q M.w i q _ H n c 9 n c L.^.J._.Z =X* * + ' c.< O Z S S A F k.l._ n ",
"= - C ..} ;.,.;.>.} ,.o.[ c.K N 1 g.x.z.h.z.i.G y g.V B H k.W I T.I q G v v 8 z H z 0 _.). Xa.& =X* + j N.d G eXb.c.' _ H W ) B ",
"$ % % : >.,.} 2.} O.>.u ' J C O 1 I.x.b.h.u.k.L K.w V K c.c.n.I 0 0 W m c 9 q W B j . 8 A.FX`.j = * * < v.j ' v.' l % % + + X < ",
"_ ) i.y | } ,.} >.;...) j = ,X= w I.Y z.z.z.w ~ 6 e T Y Y W l.' c > A.s.c 9 H H K q . + + j.Q.j.j * * + z z v.N % = *X- * * O N ",
"B.D.F.D.3 ,.} ;.;.O.y h >X-X- D w K.c B a.r i L.W.W..X`.j.r.a Q z > r A.w 0 k.H K m 8 + * % h.Q.f.X * + X v l + =X*X=X*X# O F c.",
"h.Z.h.C.f., { >.| #.x *X-X*X& K w K.w q d.j.K.L./.^./.%X[.Q.~._.6 > B q r M.Y _ H R w + * *XZ d.T.z % O . + + * =X=X= + h z.n.z.",
"M rXuXD.uXF 1 3 ..y ,X-X- = b rXE I.6 y._.G.L..X X/./.).%X(.Q.].j.i a > i T.T.l.n R 0 X =X=X=Xb s.I eXO d % % & A k $ N S.D.D.B.",
"* & k v c.G h ] E k -X*X# & b.n.Q K.K.[.!.t.L..XGX%X%X%X%XFX[.[.e.f.j.e T 0 z kXA.W : . >X-X=XS h v.b.h G rXc.eXrXv.z.D.C.B.C.D.",
"- ; ,X& F c.j H F - *X* k ' v.W B f.y j.G.H.Q./.[.~./.~. X)./.].e.d.e r k.F O h a.kXT 0 & *X=X-XC _ b.h b.Z.v.l.v.k.b.S.D.D.D.x.",
"= =X=X;X<X& h j k -X- D v.rXH d 9 M.9 > s f._.'.)./.(.$X/.Q./.`.7 7 e W k.H + = A ' A.kXH ,X*X*X& N _ j tXrXK k O + % Z l l l 9 ",
"A & *X<X<X,XC + % D i.n.N.J A = S m.x I ^ w r a f.j.`.`.W.j.r.e > m _ k.k.l.l - - C G Q N.G Z *X= k j v ' l # - *X*X*X*X- = % O ",
"B K F J J F J k J rXN.l.l S -X*X+ i c p i c.k.V a.h.d.Y Y R W r M n k.z.B.B.k.Z *X-XZ l _ R ' A # + X h O & *X*X*X=X=X= & k F G ",
"z H c.tXb.c.rXj j tXl.j & *X=X- X , 1 T Q rXc.n.Z.h.B.S.x.' _ q e M B.C.C.B.k.l *X*X*X% l V Q N.' < O # # *X-X*X*X- & k l K _ c ",
"j H ' c.b.b.n._ 9 k.B k -X-X,XZ z y , U.l.H _ i.Z.h.h.B.B.k.H q 8 a.B.B.B.z.H v & -X-X- k B m.W m.> 9 l Z S S S A l N G _ ) ) z ",
"% ; Z A J i.n.rXj H l C - >XA i.m P y [ k.H H V k.Z.B.B.B.k.B q n x.B.C.z.i.H _ l = *X*XS X _ _ 0 > T.W l.v.eXc.K F N z z ) ) R ",
"= *X*X-X,XD h H z . X + + l _ k.z : : _ K F G V M V z.h.u.k.9 > q z.d.M n N N M B X - = *Xf z l.. 1 f.T W G l k Z = Z % O d d < "
};
