/* XPM */
static char *f1e071806efb47cbe91cf29cd93b92a4pJyfP5e0870a9bUi[] = {
/* columns rows colors chars-per-pixel */
"64 64 196 2 ",
"   c #30282E",
".  c #342B31",
"X  c #3B343A",
"o  c #3E3E4B",
"O  c #403F4A",
"+  c #3E414E",
"@  c #3E4152",
"#  c #43434D",
"$  c #4B494D",
"%  c #444654",
"&  c #4A4A52",
"*  c #4B4E5D",
"=  c #514E55",
"-  c #535255",
";  c #53535B",
":  c #585358",
">  c #5D5A5E",
",  c #685A4A",
"<  c #665D58",
"1  c #6F644F",
"2  c #7E6C4B",
"3  c #6A6259",
"4  c #766956",
"5  c #72695C",
"6  c #4D5565",
"7  c #4C5668",
"8  c #4E596A",
"9  c #5D5C64",
"0  c #555E6C",
"q  c #625E62",
"w  c #5C626D",
"e  c #586779",
"r  c #656163",
"t  c #696566",
"y  c #656369",
"u  c #69666B",
"i  c #6D6A6B",
"p  c #736B61",
"a  c #716D6D",
"s  c #7B7263",
"d  c #75716E",
"f  c #7B756D",
"g  c #7F7A6F",
"h  c #646A75",
"j  c #6E6C73",
"k  c #676E7C",
"l  c #716E72",
"z  c #69727F",
"x  c #757273",
"c  c #7A7675",
"v  c #7B7876",
"b  c #75747C",
"n  c #79777A",
"m  c #73797F",
"M  c #7D7B7B",
"N  c #82704E",
"B  c #8A7453",
"V  c #84755B",
"C  c #827665",
"Z  c #837C72",
"A  c #817E7D",
"S  c #97845E",
"D  c #8E816A",
"F  c #8E8777",
"G  c #82817E",
"H  c #968A76",
"J  c #A48E64",
"K  c #AC8E66",
"L  c #B0996B",
"P  c #AA9779",
"I  c #B5A07C",
"U  c #5D7186",
"Y  c #637383",
"T  c #6A7584",
"R  c #667987",
"E  c #6C7B8B",
"W  c #757782",
"Q  c #7D7D82",
"!  c #677F94",
"~  c #817E81",
"^  c #77838C",
"/  c #668296",
"(  c #6C8090",
")  c #6B859A",
"_  c #6A879B",
"`  c #778896",
"'  c #6C8CA2",
"]  c #738DA3",
"[  c #7B8FA0",
"{  c #6E90A8",
"}  c #7491A6",
"|  c #7693AA",
" . c #7A97AB",
".. c #7E9CB4",
"X. c #858383",
"o. c #888685",
"O. c #8A8986",
"+. c #85858A",
"@. c #898789",
"#. c #86898C",
"$. c #8C8B8B",
"%. c #908E8E",
"&. c #91908E",
"*. c #868790",
"=. c #858992",
"-. c #8D8D92",
";. c #8E8D99",
":. c #918F91",
">. c #8E9093",
",. c #87919C",
"<. c #8B929C",
"1. c #949394",
"2. c #989696",
"3. c #979896",
"4. c #989897",
"5. c #979799",
"6. c #95959A",
"7. c #98979A",
"8. c #97999B",
"9. c #989899",
"0. c #99999B",
"q. c #9B9B9C",
"w. c #9B9B9D",
"e. c #9C9C9D",
"r. c #9D9D9F",
"t. c #AF9F88",
"y. c #B09F88",
"u. c #9FA09F",
"i. c #B9A387",
"p. c #B4A48B",
"a. c #A1A19F",
"s. c #ADA79F",
"d. c #B2A492",
"f. c #B6AA95",
"g. c #BAAB95",
"h. c #8C97A1",
"j. c #8C9AA5",
"k. c #8498A8",
"l. c #8D9CAB",
"z. c #9296A3",
"x. c #939BA4",
"c. c #9F9FA0",
"v. c #9D9EA2",
"b. c #9E9EA2",
"n. c #949DA9",
"m. c #9C9FA9",
"M. c #839EB4",
"N. c #8B9BB0",
"B. c #A09FA2",
"V. c #9EA1A4",
"C. c #96A2AB",
"Z. c #9DA2AB",
"A. c #84A2BA",
"S. c #94A4B2",
"D. c #9CA6B1",
"F. c #98A8B3",
"G. c #A0A0A2",
"H. c #A1A2A4",
"J. c #AFACA6",
"K. c #A3A5AB",
"L. c #A8A7AA",
"P. c #A6A8AD",
"I. c #AAAAAE",
"U. c #BBADA1",
"Y. c #BAB5AB",
"T. c #A2A6B1",
"R. c #A4A9B3",
"E. c #ABACB3",
"W. c #A6ADBB",
"Q. c #A9AEB9",
"!. c #B1AFB5",
"~. c #AEB0B3",
"^. c #ADB1BC",
"/. c #B3B2B5",
"(. c #B2B5BB",
"). c #B8B7BD",
"_. c #B7B8BD",
"`. c #B9B9BF",
"'. c #C1B7AA",
"]. c #C4BDB6",
"[. c #C1C0BF",
"{. c #ADB4C2",
"}. c #B3B7C1",
"|. c #B5B9C4",
" X c #BABCC2",
".X c #B6BBC8",
"XX c #C4BEC0",
"oX c #BDC1C6",
"OX c #B7C0CB",
"+X c #BEC3CD",
"@X c #C4C3C5",
"#X c #C1C4CA",
"$X c #CACAC9",
"%X c #CFD0CF",
"&X c #D1D0CD",
"*X c #C4C9D2",
/* pixels */
"c.e.e.e.e.c.c.e.0.e.0.w.w.6.w.0.0.6.0.6.6.$.6.1.&.:.6.1.$.$.1.:.&.&.@.@.$.@.$.@.$.@.O.X.$.@.X.X.X.X.X.X.X.A X.M G M A M A A A M ",
"c.e.G.G.0.c.c.e.c.c.c.e.0.6.w.0.e.2.w.0.1.1.6.$.6.1.1.1.$.$.1.$.$.1.$.%.%.$.$.$.@.@.$.$.X.@.o.X.X.X.X.X.o.G X.X.X.X.X.M A A A n ",
"w.c.e.e.e.c.G.e.G.e.e.e.e.6.0.0.6.6.6.6.6.2.6.6.K.w.1.1.1.1.1.-.c.6.%.$.:.:.$.$.$.@.X.@.@.@.X.X.X.X.X.X.X.X.X.G G G X.~ M n M M ",
"e.0.c.e.c.e.G.e.c.c.e.e.w.0.e.6.0.0.0.6.e.6.6.6.+XK.6.1.6.1.1.c.OX^.1.$.%.:.$.:.@.$.o.o.@.@.@.o.X.o.X.X.X.X.X.G G G M M M M n M ",
"G.e.w.c.c.G.H.c.e.c.e.w.w.w.w.6.6.0.6.K.*XE.6.-.m.w.1.1.:.:.$.$.(.m.$.$.1.$.$.$.@.$.$.@.@.@.@.@.X.X.@.X.X.X.X.X.G X.M M M M M v ",
"e.0.G.G.K.c.G.e.w.0.e.w.e.w.w.w.4.0.1.T.^.V.2.6.n $.6.1.1.1.&.%.+.j &.%.%.$.$.1.K.1.@.o.$.X.@.O.$.@.O.X.X.G X.X.o.A A A A M A M ",
"e.e.e.G.e.H.c.G.B.e.e.w.e.e.c.e.0.6.6.>.6.#.6.6.~ :.6.1.6.6.%.1.1.x $.$.$.$.$.<.*XP.@.@.@.o.@.X.o.X.X.X.X.G X.X.G G X.G G A G A ",
"G.e.e.c.c.K.G.e.c.G.e.u.e.e.0.e.0.4.2.6.:.X.6.6.x 1.$.1.%.1.$.:.1.x 1.-.$.$.$.Q x.6.#.@.:.8.6.o.X.X.$.o.O.X.X.X.X.X.G M A G M M ",
"c.c.G.c.e.G.H.c.G.7.w.0.0.e.0.0.0.6.6.6.0.A 6.6.x 1.>.$.:.:.1.1.$.M $.:.$.$.@.l X.$.$.@.1.^..X$.O.X.o.X.X.o.G A ~ A G G A A A v ",
"H.G.G.G.e.G.G.c.c.w.m.|.6.w.w.0.0.0.6.6.6.M :.1.X.1.1.1.$.@.1.:.$.n %.1.%.%.l $.$.$.$.@.*.Q.E.#.@.o.o.X.X.X.X.G M X.G X.G A G M ",
"G.K.H.G.e.e.G.G.G.w.Z.^.c.c.e.w.0.0.6.6.0.$.n X.#.1.1.1.:.$.$.1.1.n 1.$.%.$.x -.$.$.@.o.l Q +.@.@.@.X.o.X.X.X.X.G A G X.A M M M ",
"G.H.G.G.e.G.G.G.e.e.8.c.#.X.@.:.1.-.$.~ n l M i 1.1.1.1.$.$.$.1.:.x $.$.$.o.m $.@.$.X.l ~ @.X.X.@.X.@.o.X.X.X.X.X.X.X.X.A G G M ",
"c.K.G.G.G.G.c.G.e.c.c.0.c.B.0.1.1.$.-.:.6.1.6.n $.1.1.$.%.$.$.:.X.n 1.1.@.M +.%.X.x n X.O.@.X.$.c.1.X.X.O.o.X.X.G X.G X.G M n M ",
"H.G.H.G.c.G.c.w.c.c.c.c.c.w.w.e.w.0.0.0.6.6.6.&.n :.:.6.:.:.1.:.> @.%.1.X.l x n x i x X.$.$.$.=.|.|.-.X.X.X.X.X.X.X.G M G G A A ",
"H.c.K.H.c.H.c.e.e.e.G.c.G.e.e.w.e.1.6.0.6.6.6.1.6.x 1.1.6.1.$.Q i $.M n X.:.:.$.@.$.X.i u t r j Q.E.#.X.o.o.X.X.X.X.X.M M M A A ",
"K.G.K.G.H.H.c.H.H.c.c.c.c.e.0.0.w.0.0.6.0.6.1.6.6.1.n @.$.1.-.> x ~ #.$.1.$.$.$.#.c.-.@.$.o.$.@.+.$.o.X.o.X.X.o.X.G ~ M M A A G ",
"G.G.K.(.~.c.H.G.G.G.0.c.e.e.e.w.e.w.6.0.3.0.6.1.6.6.1.M M $.x r -.:.%.$.%.$.$.@.6.^.(.#.o.X.O.o.X.X.X.O.X.X.X.X.G X.A X.A A A M ",
"c.V.E.oX(.G.c.H.e.e.G.c.c.G.e.0.e.2.0.1.1.6.6.0.0.6.>.1.:.i s 1.1.$.1.$.1.%.:.$.+.m.c.$.@.o.@.X.@.X.o.X.X.X.X.G G X.M G A A A A ",
"H.V.K.K.#.e.G.H.G.e.G.e.w.e.0.0.M y 6 6 0 0 h m 1.2.1.1.$.C X.:.6.:.:.1.:.:.$.$.l X.@.$.$.o.@.@.o.X.A O.O.X.G X.X.X.X.X.A A X.A ",
"K.H.e.e.1.w.e.B.a.e.c @.1.7.X.; * 7 8 8 6 8 e 8 * +.6.&.Z s 1.1.1.%.:.%.:.$.$.O.n X.@.@.X.8.c.@.X.X.X.O.o.X.X.X.~ X.G X.A A A M ",
"H.c.e.V.G.+.H.e.G.e.x 1 3 < T 7 6 6 7 0 w e U 8 * W m f J O.1.6.1.1.$.$.:.$.$.A Q @.@.@.+.|.+X-.X.X.X.O.O.X.X.X.X.G X.X.G M A A ",
"H.E.E.V.G.$.6.G.e.e.4.V 2 1 j.l.` T z h z T E T =.C.G S D 0.6.1.6.1.1.$.%.$.%.X.+.o.X.x x ;.c.@.X.X.o.X.o.o.X.G X.X.X.X.G M X.M ",
"K.+X|.c.e.V.$.a.w.6.e.A S 5 ,.F.D.C.y X ; n.n.R.6.D.C.g Z 1.6.1.6.1.$.1.:.$.$.X.n x x o.@.X.o.o.X.O.o.o.X.X.X.X.G X.A G G G M A ",
"K.}.Z.Q H.c.$.B.e.0.e.w.k } N.F.j.D.X X n j T.x.z.x.l.<.x &.1.1.:.1.:.$.$.1.$.x n @.%.@.O.@.O.O.X.O.X.X.X.X.A X.X.A A G A G A A ",
"K.c.1.0.~ e.#.G.w.c.w.e.E ..A.F.C.D.& .   z D.j.<.Z.T.C.Q 1.1.1.%.:.1.1.%.X.l ~ X.X.@.$.@.O.o.o.o.X.6.8.X.X.G X.X.A A A X.X.A A ",
"G.G.H.c.w.Q +.e.e.w.0.0.` M.A.M.F.n.h.w h D.S.j.,.C.C.C.n.X.6.1.6.2.1.1.x > d n M x a r c X.o.@.X.Q }..X#.o.o.A G G M M G A X.M ",
"K.c.G.e.e.0.x G.w.0.0.0.E ..A...N.S.h.n.T.Z.j.j.h.j.h.x.R.m 6.0.3.6.~ x o.%.$.%.$.@.$.x a a i i i j 6.R.+.X.X.G A G A A A G M A ",
"H.H.G.e.c.e.w.$.e.e.w.0.Y |  . .k.k.D.Z.T.T.h.,.z.x.Z.Z.z.^ p F F Q j 1.$.$.$.$.%.@.@.@.x x X.o.X.@.Q X.X.X.X.G X.M G A M M M M ",
"G.H.e.c.c.e.G.1.1.e.e.7.R { '  .M.} [ m.K.+.W Q W =.W 6.Z.C.H L F %.1.1.$.$.$.&.%.@.o.$.$.~ i M @.X.X.X.+.T.x.~ X.X.X.A M M G M ",
"K.G.H.c.c.c.w.w.@.1.e.w.Y ' } ] | ] ) ( Q K.c.(.+.(.b c.b ;.8.j 1.1.1.:.%.:.$.$.$.@.$.o.X.X.o.m x a i i l }.R.X.X.A A M M M M M ",
"V.H.G.c.c.e.w.c.c.#.$.0.Y ) | } ] ` ! E j R.6.K.E.x.E.6.6.+.=.Q :.1.6.1.:.$.&.@.$.%.$.o.@.o.o.X.X.o.o.o.A Q -.G X.X.G M G M M M ",
"(.c.c.H.G.e.c.e.G.$.x i e ) } ] ) / E W E.E.}.c.(.c.E.c._.u K.x x &.:.$.:.%.&.$.$.$.$.o.@.o.X.O.O.o.o.X.X.X.A G X.A X.M X.G M A ",
"+XV.c.H.B.c.w.X.Q @.7.0.k ) ' ) / / Y -.c.j (.Q (.*./.w./.(._.E.n @.&.$.1.%.$.$.$.$.$.$.O.X.o.@.O.O.O.O.X.X.X.G X.A A M G M M M ",
"(.6.@.+.~ n u 6.c.e.e.e.m ) / / ! ! k K.#X X(. XK.(.1.(.6. XE.E.).Q #.1.:.%.%.$.$.$.$.$.$.O.O.X.X.O.o.X.X.X.A X.X.M X.A G A A M ",
"c.G.K.G.G.@.e.w.e.w.0.e.^ ( ` ` ( ( W I.P.(._.oX/.#X~. X X`./.K.K.E.6.~ %.&.$.%.$.$.$.$.$.$.O.@.o.X.O.O.X.X.X.A A A G G G A A c ",
"e.c.c.G.1.6.w.c.G.w.c.e.$.#.H.H.m.K.>.c.I.E.K.c.I.Z. XE.(.~.I.~.c.I.(.X.o.%.$.$.$.$.$.@.$.o.o.X.X.X.O.X.X.X.X.A A X.A A G M n M ",
"c.V.H.w.-.c.e.e.c.c.c.w.7.#.E.c.V.c.H.Q ~.~.~.(.L.c.e.(.P.#X`.K.`.oX*XXX@.X.:.$.$.O.@.@.$.$.O.$.X.X.X.O.X.X.X.A : n A M M G M c ",
"P.(.#.#.G.H.e.e.w.c.w.w.0.n e.P.P.K.V.+.E.K.e.6.c.P.K.K.0.L.I./.&X%Xg.f.f.$.X.1.&.@.@.O.@.$.@.@.O.O.X.O.X.X.M > W & x G M A A M ",
"E.|.8.e.c.e.c.w.G.0.0.w.w.M c.c.w.V.c.c.m H.E.!.L.H.0.K.!.B.I.%X$Xd.'.K '.Y.1.>.1.O.@.O.O.O.X.X.O.O.X.X.X.x & o 0 b - v A A M M ",
"K.E.c.B.c.c.w.e.e.e.w.w.0.4.Q w.V.Z.K.P.c.H.c.K.L.I.~.V.I. XY.f.y.P g.d.@Xi.'.H.o.$.@.O.O.$.O.O.o.X.X.X.u # + + o 9 c A M A M c ",
"c.G.c.c.e.c.c.w.e.c.w.0.w.6.M Z.8.c.c.c.c.#.1.E.I.K./.E./.p.g.d.U.p.Y.].f.i.[.s.%.o.$.@.o.O.O.o.o.o.~ 9 o % % + u G G M A A v c ",
"V.c.c.c.c.G.e.e.c.e.e.0.0.e.1.n c.K.c.V.K.K.1.X.I.P.w.I.K.L.J.g.I i.I K p.].U.i.@Xo.G $.$.O.O.o.o.~ = + @ @ & n X.A G A X.A M v ",
"G.0.G.e.c.c.c.0.w.w.0.6.0.0.0.M 8.c.K.R.R.E.c.c.M :.K.K.K.H.K./.E./.Y.s.P J @X+Xt.].%.o.$.@.o.o.x # + @ o ; n G X.A A G G A M M ",
"e.e.e.w.c.c.G.0.w.0.0.0.0.6.0.$.M c.K.0.c.m.c.V.0.#.~ X.6.K.G.K.~.I.R./.}._.Z.K./.K./.#.t @.M 9 o o o # r X.X.A M A A A A A A M ",
"c.e.c.e.c.c.G.e.0.0.0.0.0.w.0.$.X.1.w.m.K.K.V.V.7.Z.6.6.6.M ^ -.6.G.K.I.E.E.E.K.1.M q ; q ; O o o o & x G X.X.G A G A M G A G M ",
"c.e.G.G.w.c.B.e.w.0.1.0.0.0.0.1.1.5 :.m.1.H.c.e.w.m.w.V.0.c.8.+.X.X.M Q n n Q #.+.6.w.m j 9 # o o - n X.X.X.A A A G G M A A M M ",
"G.c.e.c.w.e.e.6.0.0.6.0.0.e.6.0.:.Z 4 m.w.c.8.K.8.V.Z.K.6.R.1.K.1.6.c.8.6.6.6.6.6.1.@.-.+.* # & q X.X.X.X.X.X.A A M -.E.6.A v v ",
"c.e.c.c.e.e.c.0.6.4.0.6.0.4.6.1.:.@.C c ^ 8.m.e.c.K.K.w.6.c.0.6.w.1.@X$X$X@X XI./.$X@XoX9 # = x X.X.X.X.G G >.6.A A #.+.6.v v v ",
"c.e.e.e.G.e.w.e.6.6.0.1.0.6.6.1.2.1.O.G A M 6.w.H.6.w.6.c.6.c.6.K.$.R.K.~.H.I.K.K.c.Q j ; r G X.X.@.w.6.A X.6.T.$.G j b ~ M M A ",
"e.G.e.e.e.e.c.e.0.w.0.6.0.6.4.6.1.1.2.X.G d c n @.$.w.6.H.8.K.1.c.6.m.-.x.-.6.6.x & # > G O.X.X.X.@.-.:.X.n *.-.X.c i x A c v c ",
"c.c.c.e.e.c.7.c.e.0.0.6.0.6.6.6.6.1.1.1.$.f V o.@.M u Q 6.c.c.6.m.1.Z.6.Z.6.u ; - x X.O.X.X.X.X.X.M b j M A r x M M r *.6.*.M x ",
"K.E.c.e.6.c.K.c.0.0.w.0.6.0.6.1.6.6.6.1.&.&.8.7.7.E.H.X.x q n Q +.~ M M M l u M X.O.o.X.X.X.o.X.X.X.v x A A 3 G A r x =.6.*.M c ",
"T.K.P.w.c.K..XK.e.6.0.1.6.1.6.1.1.1.1.1.:.$.:.M -.E.;.E.H.M O.$.o.X.o.O.O.O.o.O.o.X.o.O.X.o.o.X.G X.~ r M A i A a x M y b Q c c ",
"6.z.K.0.e.1.=.;.6.0.0.2.0.1.6.6.1.1.%.1.%.$.%.$.+.l X.r $.$.$.$.$.$.$.O.o.O.o.O.$.O.X.X.o.o.X.X.0.@.o.c i n l a a v r Q -.X.M c ",
"e.@.w.H.Q.K.#.-.4.6.0.6.3.6.1.1.1.1.:.%.1.1.1.$.1.X., B p $.$.$.$.$.$.O.o.X.@.@.O.X.X.X.X.X.M 0.W.m.X.G r r q r i r M ;.c.*.c c ",
"e.0.+.c.m.K.1.@.6.K.K.w.6.1.6.1.1.1.1.1.$.$.1.$.%.$.A 2 2 c $.@.$.$.X.O.o.o.@.O.X.1.K.-.X.X.A K.R.w.G A a $ $ < r q > j Q M c c ",
"c.7.X.#.*.*.-.#.@.6.R.c.7.6.1.6.&.1.1.1.%.$.$.$.&.%.$.5 B , @.$.$.O.$.$.o.@.o.X.@.Q.{.8.X.X.A E.{.@.c i x G A v c M v c c c c c ",
"e.e.7.+.$.~ ~ 1.6.j #.6.6.6.2.1.1.3.1.1.:.%.1.$.@.%.$.Z V , v $.@.X.@.O.X.X.X.O.K.{.W.@.G X.A R.-.t x G A A v A M M M v c c c c ",
"e.c.0.0.X.l ~ $.Q $.6.1.K.E.6.1.-.|.}.6.$.:.$.$.@.$.$.o.< N d @.$.@.@.o.O.O.@.X.E.W.H.X.A M t w.H.c.7.X.A M M A v M M c c M x x ",
"R.(.c.:.-.l y +.1.1.1.1.(.W.K.1.1.^.{.V.%.%.$.$.$.$.@.$.i V < $.$.O.@.X.o.X.X.O.^.Q.~ x i i X.X.K.m.-.1.X.v c v v c c c v x x c ",
"T.n.=.+.$.6.6.X.~ 1.1.1.(.W.H.1.1.R.{.K.%.%.$.O.$.$.$.@.x 4 , @.@.X.O.o.X.X.X.X.^.+.x G X.A G G X.6.H.c.V.M M v c v c v c x c x ",
"6.-.1.1.1.1.1.1.1.X.~ M m.^.w.$.:.6.^.E.%.1.$.$.$.$.$.$.c 4 , X.o.X.X.o.G X.x a 1.E.R.K.K.0.A A A A A X.o.M c c c c c c c x x d ",
"6.7.6.7.1.1.1.1.1.:.1.:.<.^.~ ~ M M *.m.m M ~ X.@.X.O.@.X.5 5 n X.O.X.X.c u M X.X.+.7.m.c.H.o.X.A A A M M M M c x c c x c a c d ",
"1.7.6.1.6.7.1.%.-.6.H.Z.E.6.:.&.$.w.K.0.@.@.X.G c l X.$.G 3 s x X.o.M i M X.G X.X.G G X.-.$.X.A M A A M M M c c c c x x c c x d "
};
