/* XPM */
static char *_dc794bee8074a75ffb8b103687d8ad2CcwKW7Z4edSLsCib[] = {
/* columns rows colors chars-per-pixel */
"64 64 91 1 ",
"  c #494137",
". c #4C453D",
"X c #504840",
"o c #565049",
"O c #59524B",
"+ c #5E5751",
"@ c #5F5954",
"# c #5E5C58",
"$ c #635C55",
"% c #635E59",
"& c #66605A",
"* c #6A645D",
"= c #676461",
"- c #6B6762",
"; c #6D6964",
": c #6E6D69",
"> c #716C65",
", c #726F6A",
"< c #75716D",
"1 c #79746D",
"2 c #767472",
"3 c #7A7773",
"4 c #7D7974",
"5 c #7E7C7A",
"6 c #817B75",
"7 c #827E7B",
"8 c #84817D",
"9 c #89847E",
"0 c #817F80",
"q c #868482",
"w c #898683",
"e c #8B8986",
"r c #8D8C8A",
"t c #908B85",
"y c #918E8C",
"u c #93918E",
"i c #98948F",
"p c #918F90",
"a c #959492",
"s c #999694",
"d c #9B9996",
"f c #999798",
"g c #9D9C9A",
"h c #A09C97",
"j c #A09F9B",
"k c #A0A09C",
"l c #A3A39E",
"z c #A5A39F",
"x c #A09FA0",
"c c #A3A3A0",
"v c gray64",
"b c #A5A5A2",
"n c #A4A4A3",
"m c #A4A4A4",
"M c #A6A6A5",
"N c #A7A7A6",
"B c #A8A7A4",
"V c #A9A7A4",
"C c #AAA9A5",
"Z c #A9A9A9",
"A c #ABAAA8",
"S c gray67",
"D c #ACABA9",
"F c #ADACA8",
"G c #ADACAA",
"H c #AFAEAC",
"J c #B1AFAB",
"K c #B0AFAD",
"L c #B0B0AC",
"P c #B3B2AF",
"I c #B3B3AF",
"U c #AFAFB0",
"Y c #AFB0B0",
"T c #B3B3B0",
"R c #B4B3B1",
"E c #B4B4B2",
"W c #B6B5B2",
"Q c #B7B7B4",
"! c #B8B7B4",
"~ c #B8B7B5",
"^ c #B9B9B6",
"/ c #B7B7B8",
"( c #BDBCB9",
") c #BCBCBA",
"_ c #BEBFBC",
"` c #C0BFBC",
"' c #C0C0BD",
"] c #C1C0BE",
"[ c #C3C3C1",
"{ c #C4C2C0",
"} c #C4C4C2",
/* pixels */
"etewttyuiittuye9t94743344798678999uytw9798999998e86968866889w8wt",
"dDCPWHGGGWQ({`(WggfgaayprusfrusjyazQDAgsscAbgcccMf8udsszBbbBGARP",
"gClGGCbBHP(_[''!dssffarrrwqaesyw5qyBcgsfMAAcMccglfawifdJPbjcDDG!",
"iAcGTWCClPPWW!'(digfssrrrw7wwryyw*gMgsuslAcMAMcaygrediBKPlgdbCDW",
"iddjCKGGKGWWWW!^Clgsayrrerawqrraa5abccgcMMccAMgffd8ysjglbllbsPWG",
"slsggcBJGGPKPPPGbgfurrrwqraqrwrraa8lMcgHHHAjarffgfyiBzlllbPWG^PC",
"ebllbgczCCbbbGPRsedssypr8rrreeeaferMMMMAAHcsasfglbudzjljgBG(QGCC",
"ilbKggzzhlbbcGK^ssrdfasuer0rrqqrayugcMcAHcwsfMgslcsdbglgbCGGGGCG",
"sgglgbCCBbjdgzGGBiqwyusfafeurwqryrggAAgcBdyfcblbfcjdgsglGJWDDblb",
"dlglgCbgzzGgBBBGjyq3quudggaaaeerreuMcccfsfsgMbAbcMgedsdBbddgCGCl",
"dglbbCduusdssssieyq533euursaaffyrysAlfuusgggcMMMAAgesssgbdidgCCC",
"isss8889rw84q9q8,3<3:,<5888e53qwe<wuyrq7weydccMCDAjusdglzCldgzbC",
"&,*;**>*><*><111$&&%*;*%&>3<*%*&*O&;*;;;-&$&13we78>18846767>%>44",
"G(^WJG^WWJJGPWPPWW((^{'`^PP!W((PBGGDblblzGPDBCGPWWG!{{}`!((PDPPG",
"CWPCbbCcCbljGTQHTHAT!(RGPPKPTDAcHblCWsjasgdgDAGPPRW!}'bsddlsuiiz",
"GPGCbgsgbbbgCPCblldzGKCPCTGAAGHGKPG^bzldggjgczDWRKKADAbdddgjdsjB",
"GRPGsigbKPPGPGgdgdggBCbbDCCblGBG_WP^GCldllglggGTGGAGJCClgzllCbBG",
"APCzllbCGPPTGldjlglbBGlgbGCCDPBCW^PPWGblClsdggGGbGGTWHPGCBBGGCGP",
"jBblBblfjgjbcgglzbJCGWgdbGCCDbgGPPKPRRDCjglGCBPWbBPWPPGJCbCGGPPG",
"lzdsdssddsgbsgblBGbCzPCldCWCzgdGTKCjBRDCDCGTGPWWPCW(WRRPPWGBGPGC",
"BGzjgddgzjgddzbbGCbGPWGMlgllgdlPGlgllbCGWGPWDWW!PGPP^^!GW^WGCGCP",
"BJGbljgglllbgzGBCCDRCGbCHCzllbBJCgggCbCPJGGPRWGW^PP^Q^W^GTGGbP'(",
"slcGGGGljjzGzCClblbCbCbPPGGBDGGCCldgGPGTJGJBGWPGQP(((R^^^GJGGW!T",
"jbbCGbzGWWPCCljgggglggCWPJGGGPJBbldlAKCPGPKGPRGBCP^!^W!^^PW!PPTP",
"lbPCzbCGGGPCsjlldijlbgCWPJPGGGGCBzdgCbGPJRPPGbGblKRWRWWWQ^GPJWTG",
"zGWKbbPzBBbjjblcBgisbslCPGGGGPCGCCzlGCCKGBJPCbDjlCP!WPPKRRGbGRGG",
"bPGGbCABBclzbbCcDblfclBGGKPGBBGGDCbCPKPCDGWPGlCbACPWWPbCGPGGbCCC",
"bBDGGggzzzjgglgllggbblGGDWPClCDJRKGGPGRKHWPGGllbbBGzPWCCGGBzBCCB",
"lbjzCJDGCBclzbbbCzBlbGbbCPPPGCGW^WPWGKTPTWPBCbzKCGDBG!PJGGBzzBGG",
"jzzbzGDJCGBBlbzCBClbbGlCBGPPPWWWP^(PKGG(PGCGCbBGGDGCPWWGGBCllBCG",
"sjBCGKCCzbbjbbzbPPzbBCGCBGPWPPPGJW(PCGWWCKGbCCGPPCDGPW^GCbBlCCCG",
"izCDGPCGCCGCBBbGGPGCBCCGPGPWW_W^^PTPPPWKzKGbCGGPWCCzCGPCBbBzzcBP",
"jCBzbGBGGCbzbbBCGWPWPGGPRGP!WPG^WPGWPGPGzGPDGKGPPGCCGWPCbCGCDGBz",
"zBCCCGCBCBljzbbBJWPGCCCGGPRRWQKPKPP((PWPbJJPPJH^RPGPPWGCGGClldjz",
"lBGGCbCbCzlbbGPPPWGbDCMPWKPWWW^^^((''^(TbJJWG!Q^PPGPGGGPGBJBlgzW",
"zGzBlzBbblblGRJPPPGGKPHMCPWWWW^(__((``^GlPWWGTGKBGPRKGJWbbzlGzbz",
"jzbjgCCCBGlBbgCGJJGCGGAbCGKPP((^^!P((WGClMclgewersbbCCbCCGBlzzGs",
"787eidddseeiwrgjgsdllgdguwdCBKPWPKbBClssr41<,*&-;>*>48rywyiyyee8",
">317sds9w417tteyydsewe8e631wddzjgetew899789974614<>14wy99wtyw999",
"lcgbDPK!BDCQHWHbCCKBgudysgcTTbH[_BBgfieffMbs8ww855qqulCiagdyeurq",
"8gcATQ__QQTTQ/HQHHMglcfasMAMTAHQHedareurrrrrrrrrqq7rraywsgr58825",
"wMHQ/_(((TT(HTT(HTMcHTcgcAHHTQTWM;sffwwaarqrqerrerqrasausrq<2235",
"f_'/({QQQ(QMAYQTHTTTYTMHTHTWTATHu;gfasaauqreq8qrsssssfwufrqq7<<:",
"gQW(Q'//THHHATTAAMAAQ(TQHAHUHAAAgesqedafryreryrfggcdfgguqw8qu322",
"yK_(}(/QTAAHTHUTAMHMAHYTHAAAMCbAA8ararwesadwwqqrsfaywafrrq5883<,",
"tP_((QWWTAMMHAAAAHAMcAAHAYYHAAMMd8rassqqruarwwrgerysswsAduw5533<",
"yTQ_THUTHHGMMMMMHMMxMAMAAHMHHHAAj6dsrrrarreeuyucfrrsgqefAs5qq8r4",
"wMHTQTHHMABMAggcccccAHAHAAMAAAAAf<swersaqqreaaarybrrs8wgjgrewys7",
"wjcAHTTHAAAAcMAMMAMMAMbHcHHHHHTAq1grasaarsdgsfgssMcaresggarcqrq7",
"9ssAAAAHHHAAcMTAAMbMMMHHDAHAHHYHjyfaafsueyssgfdgfsarwarassgcqqwr",
"7dMMbMAAAAMMAAAAcggAMAMAAAAAHTTYGejsdsrrerrgdrsarruargrsfrlae5rr",
"8gbgbMAMcccccAMcccgMMccMMMMHAUWYMfMfsaq88eee8rrruwwecsrfgaqsfr5r",
";ugflxcxgggcxcjggfgcfcgcMMAAATTUMdgrrrrqqrrrqqqwrrsgffscs525wrd7",
",udgMgffffcMccgfdfxMcxggcAUTAAAcBwfwrqqrruurew85rrffru8ra5:2qur<",
"ewadMcsaagMAAMgfffcxMcgMAHTTUTHAM9arq455euwrurewrryye53ue7:;q,a2",
"edrusssfffcMMcgfffcccMcAAW(WQQHAleyew845rrqeraasryrr4<,eq523,;53",
"7derssdsffgcMcffgfcMAMMUQQQQTQHHb38eq855qrrw8afrurrw3335558,=2uw",
"4r8q7qrsgcfgcjcgfuafgjAQQTTQTHccl<qrqqqww87rwauruaareeq8q52,5gar",
"<w7qqqqweuudsfyrrqrajcAGTWUTQMfMg,wqeq577855775857555354545wycua",
"4uaarsfsaeq88ewrqrwrfbTHWWAMAcgMf<uerq835337753q25882:<*;;sAuraa",
"8fffMcgfglaeuysusaeaucMH(WHMxfgcsegaasqwrw88555q55q3,;==;<2rxMcg",
"9cbMHMccsssflcgfcgfgMMAHUHHTAsggr;irrqwwagr7875qqwr7,-#%=:5rsfsr",
"1clTQQTHAffccclgwelATHDTHAAAcfre@>farrrwesrryyurree72,<3waawuwwy",
" %**3eye7<;,235717634<->43344wq$.X $>,*$oXO;<<,>*$**+%;>>>;3%-;;"
};
