/* XPM */
static char *_c4829c42612448ea88c1810b5a1fa62HH5gkPfLCkJcW4A5[] = {
/* columns rows colors chars-per-pixel */
"64 64 25 1 ",
"  c #5B5B5B",
". c #6C6C6C",
"X c #777777",
"o c #797979",
"O c gray49",
"+ c #838383",
"@ c #848484",
"# c #8B8B8B",
"$ c gray56",
"% c #909090",
"& c #979797",
"* c #9A9A9A",
"= c #9D9D9D",
"- c #A2A2A2",
"; c #A4A4A4",
": c gray67",
"> c gray68",
", c #B1B1B1",
"< c gray71",
"1 c #B9B9B9",
"2 c gray74",
"3 c #C1C1C1",
"4 c gray77",
"5 c #C8C8C8",
"6 c gray80",
/* pixels */
",<<<1<1<<<,<>=31<>,,111<121,,>,,,>1<,11112223333433222123221<112",
",<1111,<>,><1$11,<,>,1,,<2<,,>,,,>,122132123233333211222111<1122",
"<<,1<1><,>><<$,<>>,:><<<<11,1<1,<11122233333323433<2223121112123",
"11<,<<><,,><<-=<,>>><1211121122<<<<22213334444322332222222112234",
",>>,<,:>>:>,>:$:,>::<1122122211<,<221124345644433233322122123333",
">>:,<,::>>,>>>;+>;>12333222211<<<1222234455543332332112222111333",
":::><<<,><,>>;:.&><13221211<11<<<<<122233455433433421111<1122233",
";:-,,,<<>,>:>::o ,,121221<<<1<<<<1211<322133444443422211<1222343",
">::>:,<,>::,>:>;X>>,<121<11<<1<11221122321213332343221111231<244",
":,:::,>>>:>>>,>:@;,,<<<,<111221222233322122133223432212111221123",
">,>:>,,,>::>::>;#:>,<1,12122322223344322233343234432212222221122",
">,>:>>>>>*;::,,&=:><11112122333233454323444322344433322122222222",
",,:::>:>:*;>;>>=*:>121122123432234554334444432343333332233323222",
"><>>:>>::-,,><::%>,232223233442334554444344543443333332233332223",
"<,,>::>,<:>>>:,,&-<234443334343224444334345444332322333333333222",
"><,>;;,,<:,,,<,<,#,133322233444344454344445433444423333332222222",
",>-;-:<,,,<<><<12,=<33432222445554344454343432333333132332222221",
"--;-->,<,,,1<12232>:34443342455553333445343333333332222332222211",
":-;>:><,<,<12233331>14443344555553433344444333334232322222123211",
"--*>,,1<<<111222342>;4544334455433333444443333334322233232233222",
";;-::,,<<<1<<11<333;=3443334433333432444433333233333334332333223",
";::>,><<<,<1<>,,231<<,443233343334433554433333344434434333344333",
"-;;>,><<,,<,,,,,11,2<;333323343444443444433334444433344434444333",
"=>>>>,1<<,,,,>:<<<,21:233212223444432344433344544433444433443323",
"::>>>11,,,<,,>:>11<1>:123321124445444334344455544324444443332322",
"::::,<<,,><>,,,<<1,<::12321<223445554443334444443334443343322222",
":>,<11<<,,>><<<<12<>>;222221233445555443445555443433333343322122",
">,,1121<,>>>;,1<<21;:;232232345554545544555544334443233443221222",
",<<2221,,,::>1111222=,133334455355555444445544434433333333212222",
"<<<2222<,>:>,<311<23;>123333455444555554445433323343333222212222",
"221221,<,<>-><21112<,*12333435544455545454533233223333322<13321,",
"322221<<<<>:,1222222<-,1334344544555553455533333333333322121<121",
"2322<1<<,>,,<1222223>*:132333444555445334543333322333332212<<,>1",
"13111,>,>,,>,1232333,&<<23334444434333344433333322333332221,1<1<",
"<32<2>;:>>,<12211333,=>112333334444342234432233332332322,<11221<",
"12111>>;>>,<12212333<*;,<2333344433333323333222112322221,;,12121",
"1221>;*=>,,<12312332<#:><234545444333333344433334322211<>,122222",
"<22,=;==><<123323332<#><13344433212333333343443333211<<111<<<112",
"11<;:-;><,1112333341<O<12333332211233333423434334223121,<11<,<<1",
"1<:>>;>111212233353,%&><22222332332334444323323331<<<1>><11<,<<1",
"1,;:>;>211233323441,;==<1222343344355666422242231<<,,<,:<<,>><11",
"1<>:>;,<<133333323,:,:-12213334543456655322222122><1<1>,1,,,<112",
"<,,>:=<1123333331<-,<>>13333445444455455331<1221111<1<<<1<<11<23",
"<,>>::<11233332<,;>>,>;11233433334444343321<122222<112121<<<,122",
"<>>;:><112333<2,>;,,<<-22332<1233244334322<1112322122321<<<11222",
"<,::>,2113221,<>,>:,<<>233221<113133333321<<<22222221221<<<12222",
",>::,,211211<<<,<<;<<,,,33321,122323334321,<1233322<22<,,,,<2223",
",>>,<,<<<<,<<,,,<1:,1<,>13322122233344332211223332<12211<<1<1213",
",<,,,,1<<,>,,,,,12<-<<,<23321121233332332111123431<11211111<2322",
">>>>::<<<,>,,;,<112:><<,23311112443233232122233321<<11<1111<1111",
";:-::;>1,,>,,:,,11<>;<<>2322211332322222222212221<<<<1<11<111111",
":>-;-=>,>>>,::,<<1<>-<<;122312111,1<<2221221<11,,,,>>,,<<1111112",
";-;;--:>:>,>::,1<<<:-1,-<122121<<<<<1<122<1<1<,>,:>>>,,<11121<<1",
";=:;::>>>>,:::>,<<<:*1<>,<222<11<<<<1<22211<<<<<,>,<<<<<<,<1<<<1",
"*=-->::::>>:::>>,<<>$<,::<1111<222<11<1<1111<,,<,,<<,<<<<<<1<<<1",
"%*;;><,,>>:;:>:>,<>>%>>;>>,1<<21221<<,,,,<<<<,<1112111<<1<<<,,,<",
"$*;;,,,,>::-;::;>,>:&:>;:>,<11,<211<<,>,<<<11<<2112222111<<,<<,<",
"%*-:>,,,>--;:::;>,,,;=::>,<1<<<121<,:,,,111<1111,<111222111<<,,,",
"%=;:>,,>:>:;;;;>>,,,:%:>,<<<<2112<<<<,<<111111,,<111122121<<<<<<",
"&&-;><,<<>;;=-;>>,,>;&;,<1<<1211121<<<<<111111<1<<<<<112211<11<,",
"=*-;>,,<<>;*$*-::>::::&<<<11111<11<<<<,<1121111<<<<,,<1111<<11<,",
"&*;:,,>,>:-*&*;;--;>,<*,11<<<,,<221<1<,<<1<<<<12<<<,,1<<<<<<<<<>",
"&&=;:>>,:;*&%&&&*;>>,<=,<<><<,<112<1,,>,,<,>,>,,,<,,,<<<<<,,,,>:",
"%$=-:;>>:*-&#%#%&;>>,<=><<>,>>,,<<<<,,>>,>,>,>,<,,,,>,11<,,>>>>:"
};
