/* XPM */
static char *ca46df05d6e3436387483bf331e57daa7ieIEf3WxaDRQIrT[] = {
/* columns rows colors chars-per-pixel */
"64 64 78 1 ",
"  c #201F1D",
". c #252421",
"X c #2A2927",
"o c #2D2C2A",
"O c #312E2D",
"+ c #32312E",
"@ c #353431",
"# c #393634",
"$ c #3B3936",
"% c #3E3B39",
"& c #413E3B",
"* c #44413E",
"= c #464341",
"- c #494643",
"; c #4D4946",
": c #4F4B49",
"> c #514E4B",
", c #55514E",
"< c #58544F",
"1 c #575350",
"2 c #595652",
"3 c #5D5A55",
"4 c #5F5C58",
"5 c #605D57",
"6 c #615E59",
"7 c #65625D",
"8 c #68655F",
"9 c #6A6661",
"0 c #6D6A64",
"q c #6F6D69",
"w c #716D67",
"e c #726E69",
"r c #75716C",
"t c #77736C",
"y c #77746D",
"u c #78736E",
"i c #79756F",
"p c #7A7670",
"a c #7C7772",
"s c #7C7872",
"d c #7C7972",
"f c #7F7B74",
"g c #7F7C75",
"h c #807B75",
"j c #837F77",
"k c #837E78",
"l c #847F79",
"z c #848078",
"x c #85807A",
"c c #87827C",
"v c #87837C",
"b c #88837D",
"n c #8B877F",
"m c #8B887F",
"M c #8B8680",
"N c #8C8781",
"B c #8C8881",
"V c #8D8981",
"C c #8F8A83",
"Z c #908C82",
"A c #908B84",
"S c #928E87",
"D c #938F88",
"F c #949087",
"G c #959089",
"H c #969289",
"J c #96918A",
"K c #99958D",
"L c #9C988F",
"P c #9C9790",
"I c #9E9991",
"U c #A09B92",
"Y c #A19D94",
"T c #A29F98",
"R c #A4A097",
"E c #A6A29A",
"W c #AAA69C",
"Q c #AFABA2",
/* pixels */
":8wj3;w6djetjn00t0ttixje,32j99t6<*8dt>xVKd19xfjxjjVp2jpnjxiy0--7",
";-w026eeidffix2tkx,8xxxd,23t0ap*%*9189cxUe,jnjklkhSw2lhnjj309*,5",
",*w8*@6ti93070-@3$+;2pi;;88-=67$X @8,>blV7:dkiicjfx**dtifij97;70",
"*876o#*,,t2ifx=*8$$&ixGe-;k3390-;$&,6,x8d&@1tt8utd6@&36ljxnjt--6",
";egj*,26=800SZ26:t-8xn;->29,8a*o%o@=eNGSL7-wbnVcVKk,>peV<tnx,%&e",
"6,tntttd92tfnV>xuVfMnAx;-6K00ii8=-p8cxehGV4epj9lAnS32d0bx9Vj9,*t",
"976letxjidxxbSfSxnSVVVVw;eVcknny69IntS8inK0NfcenMVKt9ieje8ddf2=6",
"h9-38ibjfdnkkNnnVkSSVVke;ehjnVVnMpGGpVjpxGtkftkVVNGk0dptfwiti8,8",
"dj9$$3kkcflnMV8NViNMVVG0>ejjnVGDSjSSMGnfjSpdk0jMNVKjt0Gkjljipdt0",
"9eV<X:xkxkhnMV-xKkxkjnG3-pnkkSVKVeSSSGAkVKd8fftNnSTdwlVfVVk938fd",
"t>V0+8xxxhkNMK>0MGVjxnx9,9nkcVSKKGSSVVSVNGppkbejMnI8pnfhVVx8@4fx",
"0d,<%enMcfjlkk66NSbDfcS9=kKcAAxGftGNDSVVS8,pMxnpVMx,8nxpjnSt&@dx",
";d=oo>lnnhxp8i&&9nASSVd=-tVSMVjg888lnepxe-%8njdetSj:3Vjjeptu-@0d",
"-2=$+O2tdf,686-&>fASDSm4-,nnkntx,29dkt9pt$%;xdi90h%-&eip2966,@;0",
"it9o.#>fiVSnjx3>iddVASGV26GKSDKKt9eknlViT=%pKSAexGct,iGSxuSg8*7b",
"ptV4--ptdVn0eGd3xxkkMVAVe0DSeinI92ukVVVAEd2GKVDepNG889SGGVjp6-8V",
"82,G,-MlxAnyxba8jnxdNVAV86LGnnSI060SVnAVDS8GGKGpbVV02pVIGSSck3Mx",
"whux6-0MMKVMnf9tjnjbVVVVt>cIKSGIe2eSAVVSgVtGGSSNVVDc2VVSSKGVV2bV",
"tjjdk88VnKSAnx90NkeVVVSAjiNKUDDGf8dVMxVVGteGSDDAASIf8VVVVGMAS,xn",
"flcxp90VnMGVMctMNkecVVSSdMKGGGGV9tNVDnVVVteSSSSDAAIe6VVVVVSVG6fb",
"ykxNttnbVnSVNM00AnpkNbcp98KSSVAK88SDVcnnjt9SDSASAVYt8AVVVVVSn9jc",
"p,ptt#xnnjSMNi23cxxVV0$o+=DGxxVd@-3pcVAe,$=SSGASNVK,2AVVVVVKf2nn",
"9%%2=+wx3yMbnn*>;6xxn9&#$%nGx6jw+&16t80D7&@,tlnti09$@29efjd8@o>3",
"d936;2dVfccVVD6666nVMG2$+:nDDKI9=*99Vp2GV;=,kVKSSGV8-7ljfnx2*@1V",
"tFe,:6jcSSSVcnd6tfxVVSV%@0SKGVKG1>9kdbMKK6;dfDDDGSKp8nGnxMGKt-tD",
";pe,>6nxNANnVieaNMnnNVV3:eSDGKKIf80Sk8kKV,=xSDDSSSG09AGVncnn6;3F",
"eid016xncVVtcGekNAVSDV9ijfVDSDIVp6eKcpVVG4>SVDSVAKTk6VGVnVLId2-t",
"e8lG6tbVnNVVMntVVMVASSAVcVMVGGDnf3VVMSnVAn9VxVASVDPG6cSAVVVWG09t",
"6enGweMVVVSDnctcAMMxVSSGfSNASGbI9>tSSGncSKpVMctjxMGV9SAVVVNVItnI",
"tllVttnnNAVADS9tVSGwkSGSeSVVDSSi>4MVSKDMxu,nSGbcnnGx3ASVVSVVV1xS",
"clln>2nnnMcxcn,=pjc09VSw-kNMDSx0&=8nSAGKV<&>de8nVnS;$knxnAxSd2xn",
"iaj8$&9plxxnjn3=6pj9,6t=%8tdxxt;$&20t0j9d5-,8i692nx>*380t0dj-&,,",
"9NIV;:fMSGIKIKj90DExt4S91fAGDKW9-;nKGSGGESi8ix3hfDIp6nbjVGDFt-4f",
"kkxI34NnnVGbSTDpnVGTf4pnuVADMtST3>bNVVGdS89pjMeDSVKx3GANSSMVt2wj",
"ejhS30ApcMVSVKVnMMVIG0VKdSASV9jG6>-eVVKNSepfASSSGAVptlxAVDAnn:xl",
"7pkhp0Nl9VNVNGGNVMcKKjMKcANVSGdx8,>lVSGxxdjDSSADDGSntfVSVVASV9cp",
"39jx78Nkxj0VxGGNSMxnVMNSdVVSSIIV02:0GSGnnMkSDDVVSDn00VVGVMVAGpx9",
"t0jA0gVMnSptcxSVGVDMMMVSkVnGIVETV323VVxVNMkSDDAVDVt-3nVSSVVNGdnx",
"ddiV5tShVVAuxpeVVGAVASVpeAVSSDGVIfe8tKnfVk0VSDVSMA2%#9cVSSSVMjtx",
"dj0t&6VchVSASe2,eSMNSSK2=dADGVDKAkcKNGKAG9>nSDAScxe+@&dVVVpNi2el",
"80t6>-60uplVGi@->iff9xx>=*>k6t,a,>8nVMtdi,&>9MMDMxd##@6pdj60-@2t",
"ljpj>:adjbcVUk*-8eVknTU9>,ek9itV3,3ecGSxj6;1tGVcKGK;30hcGKxf8*2c",
"SkkItexcbncNIWt6iVVMnSTD61fKffxGe>6kMGS8Ii>tSDSVSAG>kScVAIGIw,px",
"kiMS0eNbbncANEk0VNVVVVKK06nxnxfIe,cSnGDjn83MAAAAASV73VVNNSkIe,tc",
"ekbRt0SSblcVVGtpMMnMVVVGw2xfpGcS9-jAxVVGS,2NVAAAASce8jixMVGGf;1d",
"tdxK6nVGNjxnVVtjNnMnVVVj3,9eefMni;8StVVGt>2cVVVVVSxt0ntpnnMUV890",
"hjnV>jnMAnkxnV6cAVNbVVND9>exkdMMw>4SVVSG6,:nVVnVVVd1tV99kxNGS4kj",
"hjnG>fxxnnhkNVpcVVAMVVVdi>9xfVxi9-2nNSIn3,,fnnShVVtdpbtp86nVL0xx",
"hfxG29xcVVlxnS2pNnNxxVMx6d04-pVf;:8VnVWj1>4SxkDMVG32jV9VtnuxV9nj",
"dedS<-excVhlVn$;nVbkNMV0-1t,-8f2+*:jkVKt,>:xVfVVdp<*1iejixcj2@6j",
"0w8j;O-*4jjfdi*%9xjjc9xx83ft8nx8>*@::,8f9==-t9c09t209,64;jjw>&->",
"ecfK*;*8>tfxSG8,0NnNMVcStjtfkiI0,;>;edKRV310knSxxnj99wxd38Kj3:36",
"dffS,90ffndjVVS2jnVnNGnn0iSbnkIG398wkxVSQt2nxcVxbnnd69nStxSS02d0",
"iexVe9dfdbcdkbntccNknSf3ejccMNVGd1fVcxxVKd3nMixctlMiejtxcxbSj,6e",
"08VV3tnfdxlkkcd6cMn0jnhkdtMVVVAx9>VVlnbnGj2bAntxdjdk0taxpixit86p",
"86eS40cxnpcdlxftbnVbtkMk0kVVMVASx2t02knnSV2DFnxpfkh3-9djkpuij=9t",
"i99060ffxbkfc20txcxxktj*=cVSnnVVS0it90bkSV2MGkAfknG>2jjxjhtfi>3p",
"&0b69pjttVjjx7=txcnxd0p9,kVVVVVn91cctjxxNV9VnkVaidnt1idxxjdu2>;e",
"-+ie,>00tlxjd7@,jxk889en3%eMnnt4#&64%taif@>SxjVckfj>:iijjdde:o:5",
"*+=8*@>->t3tiw+X8f,@%*t8-$836dn,O%&>8td9w$$8tnexp9*@+638623d:oo%",
"2@tw6&639t8ipx@$*0x,2>->,=td2kEy,631p>p5V>&:9i4fnx4&&ee009wt*&#:",
"p99dt,00cdhV9K891pxxeK83i4MNxxIWtq39e,djj>*edtnVVnKe,xxltfai8%*9",
"tt63d,ttxnfdhSjt9tfdfc2-6jlNVbMTcd7ti88dj$%tfjjknfSj4lpttptt8-20",
"909t26utfjjhlj98f9jhhji$*3jcbnbp,=#ei4689@@6jjdfjhnp9lpei58e9>>8"
};
