/* XPM */
static char *_71aabf569a640e0ab17b3d82966f27dkERVpOkI5ZjTFAwK[] = {
/* columns rows colors chars-per-pixel */
"64 64 34 1 ",
"  c #070707",
". c #0B0B0B",
"X c #0C0C0C",
"o c #101010",
"O c #161616",
"+ c #191919",
"@ c #1E1E1E",
"# c #202020",
"$ c #252525",
"% c #282828",
"& c gray18",
"* c gray20",
"= c #353535",
"- c #3A3A3A",
"; c #3F3F3F",
": c #434343",
"> c gray28",
", c #4B4B4B",
"< c #4C4C4C",
"1 c #535353",
"2 c gray33",
"3 c #585858",
"4 c gray37",
"5 c #606060",
"6 c #646464",
"7 c #686868",
"8 c gray43",
"9 c gray44",
"0 c #777777",
"q c gray48",
"w c gray49",
"e c gray51",
"r c gray52",
"t c #888888",
/* pixels */
"4,36667552>23<79979wwewq83wwreeeerw1rrtrqqqwwqwq0980988897556646",
"2>3666666<:25::4790qqweww678errre8w17w9789qqqqq09589988888777524",
"1;4566773;:><,1440q900wwew85weweewr040809qwwqqqq9698888887677234",
"<,4456664<>23654580990wwww060w0qqqe88q0q00qwq9004678778765465144",
"<>44555653,,<554678660qqwwq20wqwweq512909qqqq0989889677525562355",
"2,444455534,233457659890qqq589w90q97748089098997888887865543>444",
"1:33444551>,<232445687889905743600000557680886957777757522421231",
"1:233445,;,<124235457779987250008q09489548986576886652556543433-",
"1,2233442;1<5341<<>4787888892909988629859888168877565:34333422;+",
"1112232321,>524423-32468887816976794<4566788;776665<;1444433>&=*",
"11<1221312<>,<44<4:,33<33466,5623<133832113>&465656452223332222;",
"<1,,211212::>,<<:2-;2<4544211<223352154453121<12444333433112111;",
",,<<111<11-;*>,:,>%%%-<436554,444665:;264544543444331233322211<>",
",,<<111121:=-,<,;#%-<23433244<4545652:15423444<33333231121211<<<",
">,<<<111211-=>1<<-<:122212<1<<43444542;3113432233232<22111<11<,,",
">,,,,<<<111>&>1<,>->11<::223123223444311,32332231,2<11,>>1<,,,:,",
":>,>,,,,,<<>&>><<,>>>><1<,,22,221223332>1222222<1<,,1<<,;>,,,>;:",
":>>:>>>:,<>;$=:<>>,>:=;>>:,1<:<1231112,,222211,111;1><<,,,:>>::;",
";:::>:>:,,;:%=>,,>>,:>;>>>,<:;,112<1<<-,1<<1<1<<1:;<<<,,>>>>:$;;",
";;;;:::;::;:#%>::>,;>>:>,,>,,=,,<,:<,>;;<,:><,<,;=:,,:>>>:::::;;",
"----;:::>:-:#+::>,>;;;,>>>>:>;>,>>>,>>>,>,:>,;,,>,;>>>::>::;;::-",
"*--=;:;;::-%@+**:>:>:>;:::::>-:>>::::::,>,=:>->>:>:>>::=;:;;;;;=",
"*==---;;::=%%$$-=:;;::>-:;::::=::::>>>>:>>*=*::>;;-;::;*;-;----*",
"*-====--;;%$=-&#*;-::-;;-=;;;;&;:;-;=:::-*&:;%-::==-;;*=--=*---*",
"$%%&&***-=%*--**$--;;=;--=--;;*;;--:=-=%#&&;;-&;;%;;--&=--=====*",
"%%%&&%%%&&&&*==&%$=--*;*=-*==-&=---;-====-=*==%&*&--=%&========&",
"%%&%%%%&&%%%*=*&#=--=&=*==&&==&%-=&%=*$%*--===-==#&-*&&==**$***&",
"%%%%$%%%%%%%%%&&&%=*&%%*&**&$=&#*=****%**=========*=****&*%***&$",
"%%$$%%%%$$&%&%&*&$#$&***&&%%&%&%%***%%&&&*=*=***&**&&&*&%$$***&&",
"$$$$$$$$$$$#$##$##%%&&%&**%$%%O@+%*%$$&&%*******&*&&&%%%$@%&&&%&",
"###$$#$$$$$$$%%$$$%%%%&&**%%%%$XO+$%$$%&%&&&&&%#&&&&%$#@+#%%%%#%",
"#######$$$#@#$$$$%%&%&&&&&$%$#$O+OO$$$$%$%&&&%%%#%&%%$%%$$%$%#+@",
"##$#$###$%$##$$%%$%%%%%%&%%%$###@oO+O#$%%%%%%%%%%%#$$$%$$@$$$##$",
"+@@+####$$$$##$$$#$$%$$%%$$@$$$+O@O#+#$$$$%%$$$$$%$$$$$##@@$$##@",
"++Oo@#####$$#@#####$$$$$$##$$$#@@+OO#+##$$$$$$$$##$###@@#@@@#+@+",
"@@++O@@####+###@+@#$$$#$$@##$$#@@+++@@@##$$#$$$$#@###@@#@+@#@+++",
"@@@@@@@@@#@@@@@+@@#########@####@+O@+O@@@######@@@@##O@+++@@+++O",
"++++@@@@@@+@@@@+@@@@@@@@@@@+####@++Oooo@@@@@@@@@@@@@++@+@@+@+oOO",
"++++++++@@+@@@@O@@@@@@@@@@@+@@@@+OOOO+o+O@@@@@@@@@@@+O+O+++@@O+O",
"OOO+O++++++++++O+@@@@+++@+++@@@@@+O+OO+ooO+@@@++@+@@++++++++Oo+O",
"OOOOOOO+++++++OO++++O++@++++@+@+++++OoOO.o++++++++++++O+OO++OooO",
"oooOOOOO+O+O++oO++++++++++O++O+OO++OoooooXoOO+++++++OOOOoOO++OX.",
"OOoOOOoOOOOOOOXOOOO++OO+OOO+OO++OOOOoOOooOXoOO+OO+OOOOOOoOoooOo.",
"ooooooOOOOOOOOXOOOO+OOOOOOOoOOOOOOOoXOooooo.oOOOOOOOOOOOooXoOoXX",
"ooooooooOOooooXOOOOOOOoXXOoOOOoOOOOOoOOooOOXXOOOOOOOOOOooooOOXXo",
"ooooXXoooooooXXooOOOOOOoXXoOOoooOOOOOOOooOOOOooOOoOooooOooooOoXo",
"oXXoXXoooXoooooXooooOOOoXXOOOooOOooOOooOooooooXoooooooooooooooXo",
"oXXXXXoXoooXXoooooooooooXXoooooooooooooOooooooooXXoooooooooXoooo",
"XXooXXooooooXoooooooooooXXoooooOooooooooooooooooXXoooooXoooooooo",
"XXoXoooooooXooooooooooooXXooooooooooooOoooooooooooXXXooXoooooooo",
"XXXoXXoXooooXooooXooooooXXooXoooooooooooooOOooooooXXXXXXXoXooXXX",
"XXXXXXXXXXoXXoooX.XXoXXX.XXoXoooooooooooooooooooooXXXXXoXXXooXXX",
"XXXXXXXXXXXXXoooX.XXXoooXXoXXooooooooooooooooooooooXXXXoooXoooXX",
"XXXX..XoXXXoooooXXoXXoXXXoooXXoooooXooooooooXoooXoXoX.XXXXXXoXXX",
"XXXX.XXXXXXXooooXXXXXoooXoXoXXooooooXoooXoXXXXooooXXX..XXooooXXX",
"XXXX.XXXXXXXXXooXXXXXoooXooX.XooooXoooXXXooXXXooooXXXX.XXoooXoX.",
".X....XXXXXXXXXXXXoXXoooooXXXXoooXXooooXXoX.ooooooXXooX.XoXX.XX.",
"...XXXXXXXXXXXXXXXoXXXXXXoXXooXXXXXXoXXXXoX.ooooXXXXoXXXXXXX.XXX",
"..X....XXXXXXXXXXXoXXXXXXXXXooXXXXXoXXXXXoX.XXXXXXXXXXoX.XXXXXXX",
"..X....XXXXXXXXXXXXXXXXXXXXXXXXXX.XXXXXXXX..oXXXXXXXXXXX.XXXXXXX",
"XXXX....XXXXXXXXXX.XXXXXXXXXXXXXXX..XXXXXX...XXXXXXXXXXX..XXXXXX",
"X.....X.XXXXXXXXXXXXX..XXXXXXXXXoX XXXXXXXXX.XXXXXXXXXXX..XXXXXX",
".   ..X.XXXXX..XXXXXXXXXXXXXXXXXX. .XXXX.XXXXXXXXXXXXXXX. XXXXX.",
".  ......XXXX....XXX.X.XXXXXXXX..   XXX.XXXXXXXXXX.XXXXX. ..X.X."
};
