/* XPM */
static char *ba3f80d3b8cd498dc69c8c975011582fqgh21zl2zROpGhDB[] = {
/* columns rows colors chars-per-pixel */
"64 64 196 2 ",
"   c #46361D",
".  c #5C3715",
"X  c #573917",
"o  c #5C3A17",
"O  c #55371A",
"+  c #5B361D",
"@  c #553A1E",
"#  c #5D3B1C",
"$  c #6D360F",
"%  c #6C3E0F",
"&  c #723E0C",
"*  c #7A3F0C",
"=  c #633616",
"-  c #6A3616",
";  c #653C15",
":  c #6C3C15",
">  c #62361C",
",  c #6B371F",
"<  c #643C1C",
"1  c #6C3D1C",
"2  c #743D15",
"3  c #7B3E15",
"4  c #703719",
"5  c #733E1C",
"6  c #7B3E1B",
"7  c #4C3722",
"8  c #453A24",
"9  c #4E3D25",
"0  c #473B2A",
"q  c #4D3D2A",
"w  c #533722",
"e  c #5B3721",
"r  c #553D25",
"t  c #5C3D23",
"y  c #543E2B",
"u  c #5B3E2A",
"i  c #4C3E35",
"p  c #553E30",
"a  c #5E3D34",
"s  c #6E3625",
"d  c #633E22",
"f  c #6B3E23",
"g  c #633E2B",
"h  c #6B3E29",
"j  c #733E22",
"k  c #7A3B24",
"l  c #753C28",
"z  c #7C3F2C",
"x  c #5D421D",
"c  c #7B420D",
"v  c #6C4216",
"b  c #64411D",
"n  c #6C421D",
"m  c #67481A",
"M  c #6F491E",
"N  c #744215",
"B  c #7B4315",
"V  c #7B4916",
"C  c #74431C",
"Z  c #7B441C",
"A  c #754A1D",
"S  c #7C491D",
"D  c #4D4127",
"F  c #4D422B",
"G  c #544125",
"H  c #5C4224",
"J  c #5E4821",
"K  c #54422B",
"L  c #5C432A",
"P  c #53482A",
"I  c #5B482A",
"U  c #5E5029",
"Y  c #4F4933",
"T  c #4E4B38",
"R  c #544333",
"E  c #5B4432",
"W  c #544936",
"Q  c #5E4B32",
"!  c #54443C",
"~  c #5B4739",
"^  c #544B3D",
"/  c #5C4B38",
"(  c #644324",
")  c #6C4323",
"_  c #654925",
"`  c #6D4A24",
"'  c #63442B",
"]  c #6B452A",
"[  c #644A2C",
"{  c #6C4A2C",
"}  c #734423",
"|  c #7B4522",
" . c #744A24",
".. c #7C4A23",
"X. c #73462A",
"o. c #7B4629",
"O. c #744A2A",
"+. c #7B4C2A",
"@. c #65522A",
"#. c #7D5124",
"$. c #75522B",
"%. c #7C512D",
"&. c #634431",
"*. c #6B4532",
"=. c #654A33",
"-. c #6C4C33",
";. c #624E3D",
":. c #6B4D3A",
">. c #774332",
",. c #724C32",
"<. c #7A4D33",
"1. c #6E5038",
"2. c #745233",
"3. c #7D5231",
"4. c #715139",
"5. c #514F42",
"6. c #863F0F",
"7. c #843F12",
"8. c #803E1C",
"9. c #803F21",
"0. c #89430F",
"q. c #834415",
"w. c #8B4614",
"e. c #854A14",
"r. c #8C4A15",
"t. c #83451B",
"y. c #8A461C",
"u. c #844A1D",
"i. c #8D4B1B",
"p. c #8B4F19",
"a. c #894B1C",
"s. c #8A4A1C",
"d. c #8C491C",
"f. c #8F4B1C",
"g. c #8F4B1E",
"h. c #8B4F1D",
"j. c #8D4F1C",
"k. c #8B4B1C",
"l. c #914D15",
"z. c #91461C",
"x. c #904E1E",
"c. c #924B1C",
"v. c #84511A",
"b. c #88501F",
"n. c #8E511D",
"m. c #915016",
"M. c #925117",
"N. c #92521F",
"B. c #94511D",
"V. c #91511D",
"C. c #834520",
"Z. c #814721",
"A. c #834522",
"S. c #8A4622",
"D. c #814A22",
"F. c #854A20",
"G. c #824C20",
"H. c #834F20",
"J. c #834C23",
"K. c #874F20",
"L. c #824A25",
"P. c #854925",
"I. c #874C24",
"U. c #834B23",
"Y. c #8B4A20",
"T. c #884A21",
"R. c #8C4B23",
"E. c #8C4F20",
"W. c #8E4E20",
"Q. c #8C4F22",
"!. c #884A25",
"~. c #894E24",
"^. c #8A4C23",
"/. c #824729",
"(. c #844929",
"). c #874C2A",
"_. c #834C2A",
"`. c #884C28",
"'. c #894F29",
"]. c #8D4F2A",
"[. c #8A4D2A",
"{. c #914E23",
"}. c #934B22",
"|. c #855121",
" X c #845125",
".X c #895023",
"XX c #8C5225",
"oX c #805028",
"OX c #845028",
"+X c #83522B",
"@X c #8A522A",
"#X c #935324",
"$X c #92532B",
"%X c #824C30",
"&X c #854E31",
"*X c #825431",
/* pixels */
";  .C : S H.u.K.u.V N N v n b L ! ! E e ( b ] d t d < < # t K K r ] ..y.f.f.f.{.^.t.q.B Z } g y i R t ; 1 | Z 3 } j 6 3 4 1 h d ",
"v +. .: S u.t.u..XH.V C n n ) ' ~ ! &.< ) n } ` ) } } C n ) [ [ H O.OXW.V.B.x.W.#XW.i.s.H.+.] E 0 y d 1 } ..F.t.} } t.t.2 C X.O.",
"1 ....2 Z Z t.!.].P.| 5 C } } ] ' '  .N B B u.D.Z t.t.q.3 V  .O.b  .|.p.M.M.w.e.V.h.p.p.b...` H r H M V S |.k.y.Z Z w.w.3 N | | ",
": ....C 5 Z | ).(.| } 5 j } } } # b A & c * u.u.t.t.q.6.6.q.Z S :  .u.r.p.r.e.a.W.a.q.q.u.S M # @ H C B S u.a.t.....w.w.* 3 V V ",
": A A C 1 1 } +.} } ) 1 n ) ) ( ( (  .N V N #.oX+.L.y.q.y.y.Z.| 1 ..~.s.i.y.^.[.[.Z.3 7.y.D.} < e ( Z Z Z.I.R.P.%Xo.y.d.q.t.y.B ",
"; v n < o # d ( ' ( d t d d # # H H ` v C n  .O.O.O.| t.t.| | } 1  .L.t.t.t.| +.o.5 2 3 3 | f + d ] | Z | L.L.| X.h 6 q.y.P.Z.3 ",
"( ( ' H r G K K E K K y r G G r r r x . < # H u ' ] X.} | } ) ( d  . .C A } ) ( d d 1 1 5 1 < e u ' n 1 n ) n < u u C Z ....| C ",
"{ ] { [ =.=.;./ / R K G K L ' ' =.[ { n  .` { ' u *.<.+.o.} ` ] { +. .A |  .( t t ]  . .A n ( ' L [  . .+.2.O.] L L  . XoX%.+. .",
"C } } ) ] ] ,.,.t -.{ d ) O.O.O.<.} | Z S | $.{ d O.o.Z | Z C b v | S B V C < ( < X.C N S A ; ) ( ` A N n  . .` u [ +.H.....S A ",
"t.Z Z | | } } X.< X.X.1 5 | | | o.| t.q.q.Z L.} j _.Z B B B A n ; A B B B C ; < < } C 3 u.V : ) # ( C 2 1 } } ) u { ..u.....Z C ",
"t.Z.D.....} } C C +...Z Z Z.Z Z | Z s.w.w.q.Q.D.| @Xy.q.e.B V C 1 } Z Z Z 5 > + d X.| Z P.| 5 } + d 5 2 1 } } ) g *. .Z.o. .| C ",
") }  . . .) ) ) ) $.+.} }  .A C o.| ^.w.p.i.XXF.3 ^.d.i.p.q.N : ) ) } 5 1 1 + O g ] } | | } f d r u ) 1 1 f f h E &.} C } } ) f ",
"K K K K K K K I I =.[ L L ' H t ] ) | Z k.s..XZ 2 D.t.f.h.B N < H u t o + O r 7 y L ( ( ( ( r 9 0 q H < t t d H R R ( b ( H H r ",
"R R R K K K I I I =.[ ' [ [ L u =.' } V u.y. XZ Z.~.y.f.W.u.| ` I G r # @ t K G u r t ( ( ( G q 0 q H b ( ( ` ' E Q ( b ( H H G ",
"&.' ' d d ( ) }  .%.+. .+.+.} ] =.' O.A u.u..XZ ].$Xz.c.}.s.L.+.] t < n - 1 ] ' d < - 5 5 ) ' L u t 1 C | | |  .{ { Z Z } ) ) ( ",
"] ] h f 1 5 Z ..D.I.D.| D.D.Z } { ' +.S u.e.Q.t.Q.#Xd.z.}.y.Z.o.` < - 5 : - 1 < d ; : 2 2 C } d ' d 5 B u.u.t.Z O.O.t.t.V C n ) ",
"{ ] } } C 5 C Z D.| ..Z ..@Xt.C O.` | F.s.d.a.B y.y.f.}.d.q.3 C n < = - : - ; < ( < } C 2 Z A 1 ( d : Z y.a.t... .| B u.t.Z  .1 ",
"[ ' d `  . . .+.*X3.3. .+.+X.. .O.`  .P.F.F.H.A A Z L.!.P.Z.Z  .) < < 1 1 < # t H ( ] X.} | | M ' ( ) ..H.H...+.O.O.} ..| A O.) ",
";.~ E =.4.4.,.-.4.-.1.[ [ -.] ' [ ' ` } } } ) b ( ` O.+. .) n _ L G u g g u u q F y E &.g ' ] H R E ' ] O.O.{ =.:.-.{ ,.{ ] -.' ",
"y r w e d d # + d t [ L ' [ t t ' ( ) } } n b o x ( O.<.} 1 b ( L L g g g ' K K F q u u g d d @ K y d ( ) ( t r u u t ( < < ( @ ",
"X.O.} | ..D.D.S 2 : } n n } 1 1  .} Z.P.P.| | ) . f o.%X_.Z Z |  .} } 5 5 C n ( ( d h f f } C ; ( ) 5 2 N 2 1 < ( ]  .L.u.S ..A ",
"..L.I.u.d.p.h.h.s.t.D.Z Z ..Z Z D.t.y.R.S.P...} ; ) +.).P.t.Z S ....Z 3 3 2 : ; < < 1 5 5 Z V : n C B B q.Z A n < ) ..K.a.q.u.B ",
"_.OX~.y.q.r.x.h.XXy.F.Z Z ..Z ..S t.y.y.q.t.|  .b ) +._.| Z B V | | | B 3 2 1 ; < # < 1 5 } } : n ) C B Z S  .) < O....Xu.a..XS ",
"+X+XOXy.s.V.#X#Xk.Z ..| ....Z Z S S y.y.t...+.{ ( ( { O.| A S #. .+...| | | } ( ( d ) ] X.O. .b ( ` } C Z | { ( t { +.oXu.S  XZ ",
"3.*XoXL.K.XX$X$XD...o.o. .+.+.+.+.A ..)._.+.{ [ I G [ ] ] n O.$.$.] } +.o.+.,.[ H u &.g h ] ( ' =.[ O.O. .O.-.=.u [ 2.%.+.} +X+.",
"` } C C B t.y.t.t.Z Z C C 5 C C } 1 5 | } f ( H K r ' d f = b ) _ b f } } ) ( # H t ' d g ] d t u e < n 1 ) ] L ' ] O. ...A +.} ",
" . .V B q.r.r.w.q.q.t.q.3 3 B Z | 2 6 C.9.j } ` ] ] ] , | 4 5  . .C Z F.t.B C : n b } f j } n n ( d C S u.H.+.O.O. ...t.u.B K.N ",
" .} C B q.w.w.0.w.d.d.t.q.t.y.F.L.| P.!.P.C... .} O.| 4 (.Z V  X..| ~.$XW.y.u.A C n } } | ..A } ` ) A y.k.Q. X..+...u.q.d.q.K.N ",
"=.( < 1 C Z q.B s.^.F.Z.Z Z Z Z  .C Z y.t.B V A C A C $ t.2 N S A C L.[.!.D... .) n } 5 } o.n n ' d n S u.u...A  ...u.B t.N ..C ",
";.Q ' ) } | Z Z | | | | } | | o. .M Z u.t.B V A A ..Z 2 B 2 2 C  .} ..).P...|  . .) } j } } 1 b =.L ` ..H.u.D.| | ..u.u.u.C +.} ",
"^ R y L ( 1 C } } } } } } } o.X.{ `  ._.D.Z S A +...L.3 Z 2 |  .O.`  .L.Z.| | M  .) } j }  .n ( E u ) | S t.S ....S u.u.H.Z %.` ",
"E y r t d < 1 ) ) 1 1 1 1 1 1 1 n < } | | 2 C C C C o.2 6 5 L...} n 5 | 2 5 1 ; b < f 1 5 | 1 < H @ < C V B Z Z C C Z B Z C o.; ",
"} } } ) } } ` ) f ) ) 1 f f f 1 C Z D.L...} n n 1 } } C 3 t.y.t.S ..| | | | n b @ t h j | 6 n ` v M n n A S t.| < ( o.| Z Z Z | ",
"~.~.D...| |  .} < ) } ) } } o.Z y.t.s.I.+. .} O.1 } } Z B s.}.{.a.y.L.o.| ..} ( H =.O.o.P.B C  .V S |  .#.#.P.L.( { <./.t.y.~.$X",
"#X#Xk.t.B V Z A : A ..C C Z Z 3 y.w.a.y...A } } 1 C Z Z t.y.z.w.q.e.....S S C v # _  .Z t.q.A A u.K._.+.+X X^.I.( [ O.o.S S F.I.",
"#XXXQ.t.B V Z ..: ..L.Z 3 Z t.3 y.t.t.Z Z C n n ; n | ..y.t.q.7.q.q...| | S A v o `  .A B q.V S B u.| ..oXH.t.Z.o ( O.o.u.S S S ",
"@XOX)...| ..+.+.; } o.A C ..L.| | | } } O.] ( ( d ( } }  .| Z.t.y.y.o.} } o.Z 5 h ,.<.} Z t.| | t.F.(.).@XQ.t.t.= ( O.L.|.|.|. X",
"} } } n ) } } } ; n } 5 5 C C C } 1 d ) ] ' ' L ' ' d d f 5 } 6 8.6 f d d f 5 1 g *.] f C Z | | | L.o.+._.D.B 2 # ( ) C N V S | ",
"< < < < ) ` ) < 1 ) } } } C 5 1 } ) d ( ' ' L L &.' ' d d f f 5 | } H r t ( f d u L r # b n ) X.) h t t f 1 - = t K ' d ; ; < < ",
"< < < ) O.+.+.}  . .+.*X*X_...+.*XO.] ] { *.*.[ { ] { O.+.+.+..._.+.' I H _ O.O.*.&.G x b b f ] ,.{ u u ] } } ) ' &.*.{ } C ) ) ",
"n C 1 1 | ..Z C Z Z D.K.F.y.y.t.L...C } +.} X.} +. .} C Z u.t.t.P.| ) ( _  . . .] ( x x ; : 5 } ` ( O # } A V A X.O.O.+.D.Z | } ",
"C C 1 : Z ..Z t.Z t.u.u.y.s.k.K.u.H.C A | A } C ..| Z Z t.t.q.q.y.t.} `  . ...| } ) < ; % : 4 5 ) n X o C N B N | +.+._.^.y.t.| ",
" . .C 1 C | ..L.Z Z Z Z t.t.S S S ..A A | C } C | | | t.u.t.t.t.Y.P.o.} } | | | f d < ; : 5 j } } ` < b V B B B Z | ..I.f.y.t.Z ",
"` { ` < 1 n } ......L.OXoXL.| A C  .n n ) 1 1 1 C C Z | Z V B Z P.| f f 1 1 5 } d t # < 1 1 ) ] ) ` H ( Z B B V o.+.+.+X!.P.| o.",
"t ' ( # < < n } 1 1 1 ) ) 1 ; = < ) < < d < < < f 1 1 } A C C A | } ( d d b b H I K r u d # r r r K 9 K ] n M ) *.*.=.-.X.f ' &.",
"t ' ( ( ) ) } +. .} }  .+. .}  .` O.) ` { ) ) ) } ) ) } | A Z | .. .{ { O. ._ ( I K u ' ) ( I G u L u &.O.}  . .] g K L ] d u K ",
")  . .} } Z | L.F.Z Z H.L...| | +.%.+.+.%.+.+.+._.| Z Z S Z Z u.u.D._._.).L.| ` ( H d } o.} [ ' ) } ` O.].y.u.S _.} )  ...o.` ' ",
"A ..| A Z Z Z u.^.t.u..XXXH.S V S  XS ..I.u.D.D.).Z C Z B B B t.t.t.t.Z.P.y.Z V ) f h } t.Z ) d } | C | }.w.w.q.y.2 v  .I.S C C ",
"a.u.S S Z Z...L.!.y.y.Q.Q.y.Z Z V |.u.p.n.w.p.k.~.C : 5 C 2 2 t.d.y.t.S D.D.t.t.k j h } B 3 - < n C C P.}.}.z.q.D.2 n +. XZ 6 S.",
"u.u...| .. .%.%.[.P...L.@XI...| |  Xu.n.#XV.h.y.OX} f ] ] f 1 } A.| C  . . .Z Z k s u [ | Z ] { _ {  ._.[.P.(.| } v b $.%. .Z.!.",
") ` [ _ ] ] @.2.O.} ) ` +.+.` ( ` X.5 ..@XOX_. .O.L u R E G r L ' ( K P I [ ( ( *.a R W ' ' K W F P G L ' ( ' ' H G L =.=.[ { { ",
"( H I L ( ( [ { X.) b ( ` ` ( ( f ) - 2 P.L._.O.] t r L E L K ' ' L D D K H ' ( *.&.R R H t r K 8 8   r t @ H H H L Q =.[ [ ' ( ",
"' ' ' ] f f )  ./.| } } | } } ) C Z 2 q.h.p.W.K...} ) O.O. . ...o.} H H n C A } l f ( ( n 1 n ) ( d . b ) M  .C } +.+.+. .| A C ",
"] ] ] X.| 5 C | P.P...Z 6 6 } C N S B p.V.p.p.a.~.| | ..L.Z.y.y.[.| ( ' C B Z Z.k k C C C 3 3 2 X.) ; )  . .| Z | P.[.!.P.F.Z N ",
"[ ' ( ` | Z C V t.t.V N 2 2 C n v A v V u.e.u.t.L.| } | | C.t.t.!.} L ' | t.Z | z o.| A C 6 3 4 j h > ) ) M A C | /.P.(.P.L.Z N ",
"[ L H ` | Z N N t.Z C n C } C n ) ` ; : V S I.oX+.X.] X.+.o.Z.P./.] ~ / +.Z.| o.>.>. . .} } 5 5 h g e ' ] ( `  .+.+.(.).%X_. .C ",
"K L H ( } A C  .L.} n b ) ) b ` ] ] f n  . .+.+.] ' =.' { `  . .] L 5.^ ]  .` -.*.:._ [ { ( ) ) u y K K K I [ [ ' -.] O.,.( _ _ ",
"u L H b Z Z A S L.C < < < < ; < ) h 1 - 5 5 - 1 # @ u @ ( < n n ( K T Y ( } n ] g &.H J _ b < d r q 9 G 9 G H H O t + d ( b x x ",
"] X.} | S.d.u.K.].| 1 1 j 5 1 1 C C 2 2 B B 2 C n < d ; } C Z V A n [ [ A t.B Z j X.b m A C C C d t d b < b n v n } 1 } oX#.#...",
"}  ...y.c.c.p.Q.$X/.n ) } | C C C C C N u.u.S L.+X .X.} L.D.Q.s.F.| $.O.y.z.y.s.A.o.n M S q.y.D.} ) ) } C A S Z Z D.C | @X@XXXK.",
"N V V e.r.r.e.u.@X| b b ) C N v  .` n v N N C | *XO.X.f | Z.^.y.!.Z.+...S.}.z.z.S.| < ) u.q.S./.1 1 C C 2 3 Z.Z Z | 5 C P.~.!.y.",
"N v.v.e.l.l.v.|.+X} H H ` C C C ` ` M n A C A +.<.X.] f o.| !.P.].F. XD.R.}.c.}.S.o.( ` K.t.P._.1 < } Z 6 t.P.Z..._.} } ).@X$XR.",
"Z  X Xp.c.x. X+X<.*.L E ] ] }  .} } C C Z .. .3.O.{ ] ( O. .....H.Z S S P.$Xx.#X].o.I @. Xu...o.( b ` | Z t.F.L. .%.` ` +...[.!.",
"2 ..S B 7.q.S O.,.&.p R &.] ] X.} } 5 2 Z Z C +.] ( [ ( { ) } N N % N N Z Q.i.x.P.O.G U #.B } O.x x ) A Z B D...C $.` b n C | Z "
};
