/* XPM */
static char *result[] = {
/* columns rows colors chars-per-pixel */
"64 64 246 2 ",
"   c #020203",
".  c #090606",
"X  c #050408",
"o  c #0C0C0B",
"O  c #160704",
"+  c #11110E",
"@  c #0D0E12",
"#  c #110E14",
"$  c #141413",
"%  c #191716",
"&  c #1C1C1C",
"*  c #280B06",
"=  c #2F0E0B",
"-  c #281309",
";  c #331509",
":  c #351916",
">  c #38241D",
",  c #1F1F20",
"<  c #232323",
"1  c #272823",
"2  c #2B2926",
"3  c #2D2C2B",
"4  c #3B2B22",
"5  c #302F2D",
"6  c #32312E",
"7  c #2F2F30",
"8  c #353433",
"9  c #393635",
"0  c #3A3937",
"q  c #383838",
"w  c #3C3B3B",
"e  c #460807",
"r  c #5B0A05",
"t  c #441B10",
"y  c #770805",
"u  c #6E110A",
"i  c #46261C",
"p  c #572319",
"a  c #442A24",
"s  c #542D23",
"d  c #48332A",
"f  c #583529",
"g  c #493C36",
"h  c #413E3D",
"j  c #563C33",
"k  c #642C22",
"l  c #693427",
"z  c #763728",
"x  c #653D32",
"c  c #783B33",
"v  c #45413D",
"b  c #5A463A",
"n  c #66493B",
"m  c #784A36",
"M  c #764739",
"N  c #413F40",
"B  c #454343",
"V  c #484545",
"C  c #4A4946",
"Z  c #4C4A4A",
"A  c #594A45",
"S  c #524D4D",
"D  c #55514D",
"F  c #585654",
"G  c #5A5755",
"H  c #5D5B5A",
"J  c #644D43",
"K  c #664A46",
"L  c #774E45",
"P  c #69564A",
"I  c #76584B",
"U  c #695C54",
"Y  c #615D5D",
"T  c #765C53",
"R  c #64615D",
"E  c #6B615B",
"W  c #7B6557",
"Q  c #74645A",
"!  c #7B655B",
"~  c #605F60",
"^  c #676363",
"/  c #696664",
"(  c #6B6865",
")  c #6D6B69",
"_  c #756C64",
"`  c #7C6C64",
"'  c #716D6A",
"]  c #7A716C",
"[  c #797773",
"{  c #980805",
"}  c #920F0B",
"|  c #A50604",
" . c #A40805",
".. c #A90A07",
"X. c #AC0906",
"o. c #AC100C",
"O. c #B61913",
"+. c #B3221B",
"@. c #923029",
"#. c #BA2A23",
"$. c #AE3329",
"%. c #C02219",
"&. c #C22E26",
"*. c #88493A",
"=. c #974A39",
"-. c #8E513F",
";. c #B14A3D",
":. c #C34C3D",
">. c #874942",
",. c #994744",
"<. c #885748",
"1. c #975849",
"2. c #955C52",
"3. c #AC5A4F",
"4. c #876658",
"5. c #936752",
"6. c #986859",
"7. c #A76A5A",
"8. c #B46859",
"9. c #866B63",
"0. c #946D63",
"q. c #837065",
"w. c #88766C",
"e. c #997668",
"r. c #8A7B74",
"t. c #967D75",
"y. c #A46D63",
"u. c #B36A61",
"i. c #A77567",
"p. c #A47A6C",
"a. c #AC7B6D",
"s. c #B7796B",
"d. c #A77B74",
"f. c #AC7D73",
"g. c #B77C74",
"h. c #CA5A4A",
"j. c #C5796D",
"k. c #918278",
"l. c #978378",
"z. c #95857C",
"x. c #AA816F",
"c. c #AA8475",
"v. c #A38479",
"b. c #AC867B",
"n. c #AC897E",
"m. c #B38275",
"M. c #B3847A",
"N. c #B9897B",
"B. c #C5887A",
"V. c #7F7F80",
"C. c #8D8783",
"Z. c #948B84",
"A. c #9B8C83",
"S. c #988885",
"D. c #9E9187",
"F. c #9C928C",
"G. c #9A9593",
"H. c #A28682",
"J. c #A58A83",
"K. c #AA8C84",
"L. c #A78D89",
"P. c #A98E8A",
"I. c #B78C82",
"U. c #A5928C",
"Y. c #AD9388",
"T. c #AA938E",
"R. c #B89689",
"E. c #A49692",
"W. c #A99692",
"Q. c #A49B95",
"!. c #AC9A94",
"~. c #A49E9B",
"^. c #AD9D99",
"/. c #B49D97",
"(. c #BB9C92",
"). c #AAA29B",
"_. c #B3A29C",
"`. c #BBA49B",
"'. c #ABA7A4",
"]. c #B3A5A2",
"[. c #B4ABA5",
"{. c #BBA9A3",
"}. c #B6ABAA",
"|. c #BBADAC",
" X c #B3B0AE",
".X c #BBB2AD",
"XX c #BBAFB1",
"oX c #BCB3B3",
"OX c #BCBBBC",
"+X c #C68E85",
"@X c #C8988B",
"#X c #D1948B",
"$X c #C89A93",
"%X c #D59D95",
"&X c #D3A38E",
"*X c #C8A69A",
"=X c #CCA49B",
"-X c #D5A79B",
";X c #C7ACA6",
":X c #D4ADA2",
">X c #D7AAA6",
",X c #DCACA3",
"<X c #C8B3AB",
"1X c #D7B5AA",
"2X c #DBB3AA",
"3X c #C3B6B4",
"4X c #C7B9B4",
"5X c #C5BCBB",
"6X c #CABDBD",
"7X c #D1B9B2",
"8X c #DDBBB2",
"9X c #E1ACA5",
"0X c #E2B4AA",
"qX c #E2B3AC",
"wX c #E4BBB3",
"eX c #E8BCB6",
"rX c #CBC2BC",
"tX c #D8C4BC",
"yX c #E5C3BB",
"uX c #E5C4BA",
"iX c #EAC4BD",
"pX c #F1C2BC",
"aX c #C8BFC0",
"sX c #C5C4C4",
"dX c #CCC4C4",
"fX c #CBCACA",
"gX c #D7C9C5",
"hX c #D4CBC6",
"jX c #D3CBCB",
"kX c #DBD2CC",
"lX c #D9CED0",
"zX c #D6D4D4",
"xX c #DCD3D3",
"cX c #EBC7C1",
"vX c #E6C9C1",
"bX c #EBCAC3",
"nX c #EDCEC9",
"mX c #F2CBC6",
"MX c #E9D1CA",
"NX c #F3D3CD",
"BX c #E4DAD7",
"VX c #F2D6D1",
"CX c #F3DBD5",
"ZX c #F3DED9",
"AX c #E9E1DF",
"SX c #E8E5E6",
/* pixels */
"                                                                                                                                ",
"                                                                                                                            X   ",
"                                                                                                                              X ",
"                                                                                                                            X   ",
"                                                                                                                        X X   X ",
"                                              .     o                                                                       X   ",
"                                            . . $ . o .   .   .                                                                 ",
"                                        + 8 R [ Z.[ R F F v v & <                                                       X X   X ",
"                                . . + 1 ( ).rXkXBXBXBXtXkXtX[.z.R 8 o   #                                                       ",
"                                . & D .XkXrXrXtXkXtXtXtX;Xn.x.e.4.4.C 1 $                                                   X   ",
"                              o 8 z.OXrXkXrXkXkXtXtXtX<X*X`.*X-X(.e.9.C $ . o                                                   ",
"                            + C  XrXrX5XrXkXkXtXuXkXuX1XuX1XuXiXwXqX@Xr.h $ + X                                         X   X X ",
".                         % _ 3X5X.XrXrXtXtXMXuXuXuXiXiXpXmXmXpXiXeXqXqXw.U < X                                             X X ",
"* O .                 & , _ _..X4XrX4XrXtXuXkXuXuXuXiXMXNXNXmXmXpXeXeXeX>XS.N X                                           X X X ",
"- O O O                 C _ .X[..XrXrXtXkXMXiXCXCXCXCXCXVXVXNXmXpXeXeXqXqX>X] ,                                         X     X ",
"; * * O O           . + J _ ).rXtXrX.XkXkXMXNXZXZXCXCXZXCXCXNXmXpXeX0X9X,X2X/.0                                             X   ",
"; * - * O O O O * * = a K H.).[.)._.7XtXuXNXVXVXZXZXCXVXNXNXVXnXeXeX9X9X9X>X>XE $                                             X ",
"; - - * * e e r y y y z J ` z.z.z.U.`.tXuX:XNXuXnXCXVXnXiXiXuXiXeXqX9X>X>X>X=XP.h &                                         X X ",
"; - ; e r y { {  .{ @.m W E r.D.Z.D.*X1XuXuXtXuXuXiXnXnXbXiXbXiXeXqX9X,X9X>X=X;XR %                                         X X ",
"; ; r y { { | | X.O.=.P P k.A.q.k.k.`.<X:X1XuXuXwXuXuXiXbXbXbXuXeXeXqX9X9X%X%X;XE w                                       X     ",
"; r y { { X.X.X.%.$.=.b ` r.r.z.` Q.(.:X-X:X&X1X2XwXuXuXyXbXuXiXcXeX2X9X9X,X>X$Xt.<                                             ",
"u } { X.| o.O.%.&.:.1.I W _ Q Q Q n.Y.*X*XB.&X*X1XuXuXiXvXvXeXqX2X,X,XqX9X>X-X=XT.<                                       X     ",
"y } X.X.O.#.&.%.#.h.1.n E Q U P W l.(.*X*X:X:XtXwXbXmXnXvXwX>X-X&X&X$X#X#X&X@X=X;Xh o                                       X   ",
"}  .X.X.O.#.&.&.#.#.;.b g 4 b A 4.b.N.:X:X&XtX1XuXuXuX8X$XN.g.i.7.i.s.B.u.a.i.m.R.A V $                                     X   ",
"{ | X.X.O.$.#.O.O.:.P.E b d U ! n.n.(.rX2X8XwXtX8X=XN.i.0.>.l k l m 7.7.*.c f x 0.P                   X                       X ",
"{ | | X...o.| ..O.u.|.L.R.4.T n 4.c.*X1XuXiXbXuX-XN.6.s - g x z z z N.$Xk ; 2 U f K                                             ",
"{ { | | | | ....X.+XlX@X1.i.e.e.l.n.1XuXuXuXtXuX+X1.p i O d e.=.-.z =XvX<.> - 4.>.K                                         X X ",
"+.o. .X...| | | ..8.P.3.*.<.p.n.c.(.uXiXuXuX,XR.5.c >.i.f.f.g.7.7.<.#XeX>Xg.f.f.i.9.                                    X X X X ",
"i.u.3.3.+...| | | ..y.;.j.M.p.p.N.*XtX0XuX1X1X&Xi.m.f.a.a.i.s.3.m.+X,XeXeX6.3.a.f.J.$ .                                     X X ",
"<X{.$X@Xg.8.$.o.| @.y.j.%X%X1.x.`.;X*XB.&X&X:XuXuXwX2X+Xs.8.7.B.-XwXvXnXVX>XB.g.N.M.g o                                       X ",
"dXdX6X6X;X$XM.3.$.g.}.+X%X;.u N.*X(.N.N.m.&X:X1XyXcXmXnXcXeX9X2XwX,X,XyXCXbX,XqXqX$XA                                       . X ",
"xXlXlXgXdX6X;X(.I./.^.I.%X;.z 1X<Xn.l.x.7.B.@XN.$XeXNXmXcXeXqXuXB.0XeXeX>X@X%X-X%X%X9                                       X X ",
"BXxXlXlXlXdXdX;X{.[.k.n.0X8.3.@X<Xx.l.x.x.N.m.7.#XuXuXpX0X,X-X3.%X-XN.1.<.<.6.g.+X+XK                                       X X ",
"SXAXBXxXlXjXjX6X|.k.U P N.&XuX$XR.c.z.`.(.@XB.@X-X0X&XB.B.B.8.1.@.k * * t M 1.=.u.s.K                                         X ",
"SXAXBXlXlXjXjXdX6X{.t.W 4.B.2X-Xc.J.Y._.<X:X*X*X-X@XB.3.8.-.7.R.p.m s i ; s 6.1.-.7.K                                           ",
"SXBXlXlXjXjXjXdXrX3X].v.! W.&X+Xy.Y._.rXrX7X1X*X+Xi.1.=.-.7.N.*X*XY.l.I i n 4.p.*.7.Q                                     X X X ",
"xXxXlXjXjXdXdXaX6X5X|.S.T j I.s.i.v.3XoX<XrX*X@XN.7.1.<.5.5.R.(.I.0.0.<.n m m l.5.7.`                                   X   X X ",
"lXlXjXdXdXaXaXaX5XoXXXL.9.j f l n w._.3XtXrX*Xn.N.i.7.7.5.4.<.m M c c >.1.>.m 4.i.a._ +         X                         X . X ",
"dXaXaXaX6X5X3X3XXXXX}.^.t.P L >.L 4.E.oXrX`.`.N.(.b.x.i.0.n p m 1.3.,.,.,.>.c m x.x.E .                                     X X ",
"6XaX6X3X3XOXXXXXXX}.].^.S.Q 0.@X6.r.!.}.[.).`.n.(.n.x.i.6.*.6.B.#X%X$X+Xg.g.a.e.m.v.E <             X                   X   X   ",
"XXXX3X|.|.}.}.].}.].^.^.S.t.H.=XI.0.S.^.}..X`./.(.(.b.x.x.5.x.x.f.I.I.I.(.d.p.i.p.l.U ,                                   X X   ",
"}.XX}.}.].].^.]./.^.^.^.W.H.t.$X$X(.K.!./.]._.Y.{.(.(.c.x.5.1.<.<.<.6.t.b.e.e.e.t.A._ &                                       X ",
"].].]././.^.^.^.^.^.W.^.U.U.r.;X;X>X3X/._._.T.!.<X<X`.c.x.0.<.m M M <.2.l.e.e.c.A.A.E o                                   X . X ",
"^.^.^.^.^.^.^.P.U.E.E.U.L.t.^ SX7X7XgX3X_.!.U.[..XrX`.!.x.x.c.x.5.x M <.5.y.x.l.W.r.5                                       X X ",
"^.W.W.W.P.T.W.P.L.U.U.L.L.Y H SXSX>X7X3X.X_.Q.).[.{.{.n.x.c.n.N.f.e.<.<.5.0.l.n.Q.] 1                     X               X X X ",
"P.T.T.W.T.T.P.P.L.W.W.H.w.q q zXSXgX;X`.Y.H.U.).[.!.Y.l.k.v.n.n.n.e.<.5.4.4.q.U.G.r.%                                   X   .   ",
"P.P.P.W.P.L.P.L.P.J.H.H.D q w V.SXSX7XM.e.9.D.E.).U.q.q.q.k.k.0.t.l.4.W e.k.q.k.'.[ &                     X               X X X ",
"L.L.L.P.P.L.L.L.J.J.J.t.Z N w q fXSXAXc.6.T t.E.Q.Q.l.I k.k.W W 4.w.I T W k.l.z.F.[ $             X   X                 X   . X ",
"H.K.H.K.K.K.J.J.K.L.r.H Z V N N ~ SXzXfXw.L L ! C.~.w.` ] P P P W k.W W q.` z.k.C.F o           X     X   X                 . X ",
"H.K.H.K.J.J.J.K.T.r./ G G Z V N 7 G.zXsXlXq.n f L r.w.U W W n b W W n n W ] k.) 8 +         .     X X   X     X             X X ",
"b.b.M.I.n.J.J.J.] ' ) Y F Z N N q 8 OXOXOXsXz.s x j U P U W P b b P P P q.k.' 1 o                 X           X         X     X ",
"b.b.b.b.b.J.n._ ) ' ^ G F S V N q 7 Z OX5X X'.D.T s s b U W P b n P Q W [ C.( &                     X     X                   X ",
"f.M.M.b.b.n.` ) ' ' / F Z Z Z V q 8 1 [ sXoX'.G.Q.t.b d a J b b n n n Q k.'.) C 0 $                     X                   X X ",
"g.M.M.b.K.` ^ ) ^ ^ D N Z N N Z N q 7 & G.'.~.~.G.Q.S.A > a > i b d i v F.OX[ 8 N C 8 & . X             X         .       X . X ",
"m.f.M.b.9./ ( / ^ Z N N N N N Z B N 7 , < G.'.G.~.Q.Z.` J 4 ; : i i - b  XsXG.1 8 C C v B 3 $ X X                           X X ",
"a.a.g.9./ ) ) Y G N N N q N N N B N q 1 , V  XG.F.~.F.S.k.U b > * i : q. XfXOX$ 3 q v C 8 N Z N $         X X   .         X . X ",
"2.2.9.) ) / H F S Z h h 8 0 w h N w q 9 1 % [ G.).[.Q.Q.E.A.w.` Q P ! Z.fXzXfX8 $ 3 3 w 8 1 3 w Z &                       X . X ",
"@.U / / ) / ~ F Z B h h 0 8 9 h N B w 0 1 < , '.OX XF.G.Q.Q.~.E.Q.' & o H sXsXG.+ , 7 7 8 3 < , 8 N $             . X   X   . X ",
"A ^ ) ) / / H S Z N h 0 w 7 9 0 q 0 0 8 8 3 & 0 sX'.G.Q.).).[. X.XH X @ > g sXsX' + 1 3 7 3 & & , 8 6 o       X X   X       X X ",
"^ ' ) ) ^ ^ Y F V g N 9 8 9 3 9 9 9 9 8 6 6 1 % [ sX).).).[.oXoX6X3 X @ % < C.sXoX3 + 3 7 7 < & & < 3 & .     X   X   X X X X X ",
"^ ^ / ^ ~ H F Z v h 0 0 6 9 3 9 0 9 9 w 8 9 5 & 3 '.dXoXoXOX4X3X5X+   . # # N oXsX' % $ 8 7 7 < & & , , X         X X       . X ",
"^ ^ ~ ~ G U S B h 0 9 9 5 5 5 8 6 5 5 0 9 q 9 < 1 8 sXzXhXrXrXsX~.    . X % 3 S.sXZ.v + < 8 7 7 < & , , o                   X . ",
"Y ^ H D S Z S V 0 0 8 6 6 3 5 5 8 6 5 7 9 8 9 3 1 < U sXzXzXjXlXC.O X . X # % _ rX~.R 6 $ 7 8 7 7 , , , +             X X X X . ",
"Y Y H S h w h 0 0 9 9 5 5 3 2 2 8 8 8 8 8 3 5 8 5 < 6 z.jXzXzXzX^.D . : = X @ A [. XE D % , q 7 7 < & % $             X   X . X "
};
