/* XPM */
static char *result[] = {
/* columns rows colors chars-per-pixel */
"64 64 245 2 ",
"   c #261C19",
".  c #2D221E",
"X  c #36251B",
"o  c #1D1822",
"O  c #1A1628",
"+  c #1D1938",
"@  c #2B2428",
"#  c #372926",
"$  c #372B30",
"%  c #3D3636",
"&  c #5D2E18",
"*  c #442D25",
"=  c #46332C",
"-  c #5A3929",
";  c #483A35",
":  c #553A36",
">  c #663A37",
",  c #4C423D",
"<  c #5C4733",
"1  c #55433C",
"2  c #5A4539",
"3  c #5B453C",
"4  c #62442D",
"5  c #664A39",
"6  c #794B39",
"7  c #784F3B",
"8  c #6D533E",
"9  c #231E46",
"0  c #2A2349",
"q  c #32274B",
"w  c #3A344F",
"e  c #2C2555",
"r  c #342A5A",
"t  c #342A61",
"y  c #352D6E",
"u  c #382E68",
"i  c #3B3365",
"p  c #3D336C",
"a  c #3C3474",
"s  c #3E367C",
"d  c #473D5B",
"f  c #783E43",
"g  c #453869",
"h  c #503F69",
"j  c #443673",
"k  c #453B74",
"l  c #4C3C74",
"z  c #443C7C",
"x  c #4C3E7B",
"c  c #503F75",
"v  c #513F7B",
"b  c #4C4543",
"n  c #544642",
"m  c #574B47",
"M  c #5A4D4B",
"N  c #57514F",
"B  c #5C524C",
"V  c #5A5056",
"C  c #644C46",
"Z  c #6C4D44",
"A  c #774944",
"S  c #665344",
"D  c #6A5544",
"F  c #64524B",
"G  c #6A5649",
"H  c #63594F",
"J  c #6D5A4C",
"K  c #725543",
"L  c #735945",
"P  c #78574B",
"I  c #735C4B",
"U  c #644D58",
"Y  c #675757",
"T  c #645955",
"R  c #6E5C52",
"E  c #715E52",
"W  c #765A57",
"Q  c #7B5C54",
"!  c #76634C",
"~  c #6A625C",
"^  c #736155",
"/  c #7B6657",
"(  c #766459",
")  c #7A655C",
"_  c #7A685E",
"`  c #54486C",
"'  c #4D4175",
"]  c #47417F",
"[  c #4E417C",
"{  c #564679",
"}  c #52437D",
"|  c #5D4C7D",
" . c #67526E",
".. c #62517C",
"X. c #6A6665",
"o. c #766866",
"O. c #7C6C63",
"+. c #746D6C",
"@. c #7B726C",
"#. c #696478",
"$. c #7A7677",
"%. c #8F5637",
"&. c #8B5539",
"*. c #9B633C",
"=. c #875A47",
"-. c #945E46",
";. c #865D53",
":. c #88634C",
">. c #996447",
",. c #9A644B",
"<. c #8C6354",
"1. c #876759",
"2. c #986858",
"3. c #9B705D",
"4. c #A66B48",
"5. c #B0724D",
"6. c #A66C57",
"7. c #AA7359",
"8. c #B67858",
"9. c #876A66",
"0. c #986D66",
"q. c #83736B",
"w. c #8B7769",
"e. c #9B7364",
"r. c #987469",
"t. c #887873",
"y. c #837C7A",
"u. c #8B7D7A",
"i. c #937C74",
"p. c #997B76",
"a. c #A56D64",
"s. c #B16C60",
"d. c #A87666",
"f. c #AA7B6C",
"g. c #B77B65",
"h. c #A57973",
"j. c #B57C73",
"k. c #C47F59",
"l. c #C27E68",
"z. c #BE815E",
"x. c #85827D",
"c. c #8B837E",
"v. c #978376",
"b. c #93867C",
"n. c #94897D",
"m. c #998B7E",
"M. c #AA816D",
"N. c #BA826B",
"B. c #A6847A",
"V. c #B48472",
"C. c #B88776",
"Z. c #B4917D",
"A. c #C4835F",
"S. c #C88867",
"D. c #D08C6E",
"F. c #D1916C",
"G. c #C68A78",
"H. c #C9937C",
"J. c #D79977",
"K. c #E09F7D",
"L. c #DEA27D",
"P. c #453E83",
"I. c #493F82",
"U. c #453F8A",
"Y. c #503F81",
"T. c #4C4383",
"R. c #4C4489",
"E. c #4C488A",
"W. c #534482",
"Q. c #594682",
"!. c #534A86",
"~. c #5C4A85",
"^. c #5E4C88",
"/. c #5A5286",
"(. c #5D5893",
"). c #614E85",
"_. c #614D89",
"`. c #635184",
"'. c #665888",
"]. c #685790",
"[. c #6B6386",
"{. c #736A84",
"}. c #75708E",
"|. c #756B94",
" X c #847B8D",
".X c #8C8482",
"XX c #8B8788",
"oX c #938582",
"OX c #948B82",
"+X c #9B8D81",
"@X c #998E8A",
"#X c #9E9385",
"$X c #97928B",
"%X c #9D958B",
"&X c #9E988E",
"*X c #8C879A",
"=X c #928B9A",
"-X c #9F9A91",
";X c #9B9699",
":X c #A58B86",
">X c #B38D82",
",X c #A09486",
"<X c #A1968A",
"1X c #AD938D",
"2X c #A1998E",
"3X c #A39491",
"4X c #AE9090",
"5X c #A39D93",
"6X c #A39F98",
"7X c #A5A097",
"8X c #A4A099",
"9X c #B2A19C",
"0X c #9592AB",
"qX c #A093A6",
"wX c #A7A4AD",
"eX c #AAAAB5",
"rX c #B0ACB7",
"tX c #B4B3BC",
"yX c #B9B5B8",
"uX c #B9B5BA",
"iX c #C99786",
"pX c #D69C88",
"aX c #D29B95",
"sX c #D9A389",
"dX c #CBAB9C",
"fX c #DAA895",
"gX c #E1A583",
"hX c #E4AB8B",
"jX c #E5AD96",
"kX c #E3AD9A",
"lX c #E4B29C",
"zX c #E8B599",
"xX c #C4BCBC",
"cX c #CBBFBC",
"vX c #E2AFA1",
"bX c #E5B4A2",
"nX c #E9BAA3",
"mX c #E9BAA7",
"MX c #CCC0BC",
"NX c #B6B5C1",
"BX c #C4BEC1",
"VX c #CCC3C3",
"CX c #D4CBC9",
"ZX c #DBD1CF",
"AX c #E4D6D3",
/* pixels */
"G G G J J R ^ ^ ^ ^ ^ ^ ( ( ) ) _ _ _ o._ O.O.O.@.q.O.q.q.O.q.q.w.t.x.q.m.2X#X&X&X&X&X5X5X5X5X5X7X7X7X-X5X8X8X6X8X8X8X8X6X8X8X6X",
"G S G J J J J J J J I ^ ^ ^ ( ( ( _ _ _ _ _ O.O.O.O.O.O.O.O.O.q.@.@.@.q.m.2X%X$X&X$X&X2X&X&X-X5X&X-X5X-X-X6X8X;X8X5X8X5X6X8X8X6X",
"G S G J J J ! J ^ I ^ ^ ^ ^ ^ ( ( _ _ _ O.O.O.O.O.O.O.O.9.w.M.M.V.M.v.q.#X2X#X$X&X&X&X&X&X-X-X&X&X6X5X6X7X8X-X6X6X6X6X8X;X8X8X8X",
"G G G G J J J J J ^ R ^ ^ ^ ^ ( ( ( _ _ _ _ _ O.O._ O.e.N.H.J.sXsXsXH.C.B.<X$X$X&X&X&X&X&X-X-X7X-X-X6X5X-X-X6X7X5X6X6X5X8X8X8X8X",
"S S H D J J J E J E R ^ ^ ^ ^ / ( ) _ _ _ O._ ( _ e.N.F.F.sXsXhXzXsXsXiXH.C.m.n.+X$X&X&X2X-X-X-X-X-X5X5X7X7X-X7X7X8X8X8X6X8X6X6X",
"S S D J D J J J J J ^ ^ ^ ^ ^ ( ( ( ) _ ) ( Y I 7.S.F.L.L.sXzXzXnXzXzXfXsXiXG.v.o.x.OX&X&X-X-X-X-X7X7X-X7X-X6X6X7X5X7X5X5X8X6X6X",
"S S D D J J J J E E I ^ ^ ^ ^ ( ( / ( _ ^ H 5 6.S.F.J.gXhXzXzXzXnXnXbXlXfXsXH.G.e.S O.c.%X&X-X5X-X5X5X7X-X-X7X6X-X8X6X6X5X8X6X6X",
"S S H D D H J J E J ^ E ^ ^ ^ ( ( ( ) ( J m *.A.S.J.L.L.zXzXzXnXmXbXnXlXlXfXsXH.V.1.n @..X$X-X&X-X7X-X7X7X7X6X6X8X8X6X8X8X8X8X8X",
"S S D D J D H J J E ^ J ^ ^ ^ ^ ( ( ^ ^ Y <.5.A.F.J.K.hXzXnXnXmXmXnXbXbXlXfXfXiXV.M.J m x.$X&X-X2X5X5X7X5X7X5X7X5X7X8X8X7X5X5X8X",
"S S S G S J J J J J J ^ ^ ^ ^ ^ ^ ( _ q.w.8.A.A.F.K.K.hXzXzXbXnXbXnXbXkXfXfXsXJ.C.C.w.S ( c.&X&X5X2X2X5X5X5X5X5X5X5X-X7X7X7X5X8X",
"S S S S D H J J J J ^ ^ J ^ ^ ^ ^ 1.w.v.B.8.8.S.F.F.K.gXhXjXkXkXkXkXfXfXfXsXpXpXH.V.e.^ ~ x.%X&X&X&X5X2X2X5X5X7X8X7X5X7X7X7X8X8X",
"S S S G D J D J J J J ^ ^ ^ ^ ^ ^ w.v.m.M.5.8.S.F.K.K.hXjXjXkXjXlXlXlXlXjXjXfXpXH.C.d./ @.$.OX&X2X2X2X5X2X5X5X5X5X5X7X5X7X7X7X7X",
"B S S D S J S G J J J R ^ ^ ^ ^ _ w.v.B.7.5.8.N.F.L.hXhXzXkXlXbXlXkXlXlXbXfXfXfXiXZ.M./ X.$.OX&X&X&X5X2X5X2X5X2X7X5X5X7X7X7X2X7X",
"S S S S J S J J J J E J H ^ J ^ _ t.v.B.e.5.8.z.S.S.H.sXfXbXbXmXbXbXvXvXvXfXiX>Xr.3.0.) T @.x.$X2X2X2X2X2X2X5X5X5X5X5X7X5X7X5X7X",
"S S S D G G H J J J E ^ R ^ ^ ^ _ t.v.w.,.4.5.z.d.d.1.<.2.h.iXsXfXfXaXaXiXB.1.W I 1.1.1.N X.@.&X&X2X5X&X2X5X2X5X5X2X1X7X7X7X5X7X",
"S S H S S G G J J J J H ^ ^ ^ ^ O.v.v._ ,.5.8.5.N.C.C.e.0.r.h.iXaXpXiXiXZ.0.1.w.B.v.Q 1.m % ~ $X2X&X2X2X2X5X2X5X2X5X5X5X5X7X1X5X",
"S S S S D D H J J J J J ^ ^ ! ^ @.u.O.F ,.7.4.6.6.N.G.>XH.d.<.e.H.fXaXf.0.r.h.Z.>Xh.K G ,   m n.&X<X&X2X2X2X2X2X5X5X5X5X7X1X7X5X",
"S S S 8 H D J J J J J ^ J ^ E ^ @.@.F X &.5.>.=.>.k.N.d.f.V.2.>.7.iXC.=.1.h.2.Z P Q 5 S # . % x.%X&X2X<X2X2X5X2X5X2X2X5X5X5X1X7X",
"S B 8 B D D S J J J J J ^ ^ ^ ^ ( o.m   & - - 7 > > # . : A -.7.,.H.J.P :.A F * : = 4 G = # $ B #X&X&X%X2X2X<X5X<X5X5X2X7X7X7X7X",
"S 8 B 8 D S S J J J E E J ^ J ~ F ~ C : *.%.>.>.%.,.0.2.h.7.g.g.:.J.sX2.0.d.C.d.0.;.L ! < % @ , q.&X<X<X<X&X5X2X5X2X5X5X2X1X5X2X",
"S S S G D D J H J J J E J ^ J S 1 R F 5 >.5.5.>.4.l.G.G.j.g.g.8.6.J.pXj.;.g.j.Z.C.<.;.1.Z = $ , H %X#X<X2X2X2X2X2X2X7X1X5X7X5X5X",
"S 8 S S H S D J J J E J ^ J ^ < ; W F Z *.8.F.7.2.6.g.G.g.a.g.6.l.D.pXaX2.3.6.M.0.=.<.<.G = % b B n.&X<X&X<X5X<X2X2X2X7X5X1X2X7X",
"S S S S S G G J G J J E J E J * : I P A *.5.A.S.8.,.-.<.6.d.s.g.l.iXpXaXj.0.6.;.&.<.2.=.D = b N B c.#X<X&X<X<X5X2X2X2X2X7X7X5X7X",
"S S 8 S S D D G J J J J E J 5 X S _ / :.>.4.5.S.S.k.g.S.J.G.l.l.l.l.aXkXj.r.C.V.a.2.3.<.I 1 N V B c.,X#X,X<X<X<X2X2X2X2X2X1X2X2X",
"S S 8 S D J J J D J J I E E 3 * E q.) 2.-.4.5.8.S.D.J.J.sXiXs.l.s.s.iXaXa.9.h.iXC.d.2.=.P Y T T ! m.#X#Xm.7X7X7X2X2X2X2X5X5X2X2X",
"S 8 8 S D D J D L J J E J ^ 2 : W 9.1.>.*.4.5.S.S.J.pXpXG.a.2.-.f =.0.0.f f 0.j.G.V.3.P K R ~ N X.m.#X2X&Xm.Z.m.Z.2X2X2X2X5X2X2X",
"S S S S D D D J J J I E I E 1 < ^ / E :.%.%.4.8.l.D.G.iXa.j.G.2.A C : : : 0.a.a.V.V.3.;.Z F T B x.m.m.2X&Xm.m.7X2X2X2X2X2X2X2X2X",
"8 8 8 D D D D J J R I I E R 5 < E Q P 2.-.&.&.4.8.l.j.a.a.h.>Xj.h.1.U W o.:X Xp.f.f.<.P Z m N m x.m.#X&Xm.7X7Xm.2Xm.2X2X2X5X2X1X",
"8 8 D D D L D D G L J I E ^ C 2 G E 2 2.>.7 &.&.6.6.6.0.p.B.oX:X Xo.9.9. X=X6X3Xv.e.! 5 S , , , ! n.m.m.7Xm.m.7Xm.2X2X&XZ.&X2X2X",
"S 8 8 D D D D D J I I I I I S 1 G Z ; D -.=.6 =.6.6.a.9.b.q.W 9.;.W 9. .1.@.@. Xc.1.K 5 H , , , H @.m.&Xm.m.7Xm.2Xm.&X&X&X<Xm.2X",
"8 8 8 8 8 L D J L J I E E I I 3 F 3 # ; 7 &.6 &.6.s.f.9.T : > f f f f f > = = N X.! H < < % % , H @.n.m.m.7X-Xm.m.7X2XZ.&X,X2X2X",
"8 8 8 8 L D L L I I I I I ^ I S C 3 = = Z 5 6 =.-.d.e.( : ;.2.s.l.j.h.a.;.P C b ~ S S B , b , H B ! n.m.m.-Xm.-XZ.m.2Xm.<X&X&XZ.",
"8 8 8 8 8 L 8 ! L I I I I I L D : : # = F P A =.<.d.r.Z G r.a.f.h.a.a.a.p.9.Q n T G H Y d , 3 _ O.@.x.m.Z.&Xm.m.m.7Xm.7XZ.7Xm.7X",
"8 K 7 8 L L 8 L L L I I I I I 3 # ; ; . : Z Z Q <.0.0.Q 0.h.h.:X X X Xa. Xp.9.Y ~ Y W ~ 1 5 ! ! q.b.m.m.m.m.m.7Xm.m.m.7X7Xm.m.m.",
"L 8 8 L 8 L 8 L L I L I I I L U $ @ # X * K Z Z ;.p.w.r.h.d.h.:Xl.a. X X X9.t.q.T ~ T N 5 H ! w.v.v.m.m.m.7X7Xm.7XZ.7Xm.7Xm.7XZ.",
"8 8 L 8 K L L L L L ! P P L P U g @ . # # 6 A R q.i.p.:XB.f.j.B.j.j.l.h.r.9.q.y.X.N N $ % ! / 1./ v.m.m.m.m.m.m.m.m.m.m.m.m.7Xm.",
"7 8 8 8 L K L 8 L P ! L L L L Y { @ . # - &.6 Q t.q.:X:X>X>X:X>Xh.p.r.h.p.r.u.XXy.H % o 0 ( ! 1.v.v.v.m.m.m.&Xm.m.2X2Xm.m.m.2Xm.",
"5 4 8 8 D K L L L P L ! P P L U ..U 9.A %.=.P =.9.oX3X@X:X:X4XB. Xr.w.i. XoX XXXXX+.@ O e V / O.v.O.v.n.m.m.m.m.m.m.m.m.7Xm.m.2X",
"< 4 5 8 K K K L L P ! L A P  . .{ ..9X6.4.=.;.=.W oX@X3X3X3X3Xu.p.p.oX Xy.y.OXOXXX@.b + r ' { ( ! v.b.n.m.m.m.m.Z.m.7Xm.m.2Xm.2X",
"4 4 5 8 8 D D L L L I W  .| | ..h | qXdX7.-.;.P 9.t.3X<X@X3X@Xu..X.Xy..Xy.$.XX$XXXX.V ` r s T.{ O.v.v.v.m.m.m.m.m.m.m.m.m.m.m.m.",
"J 8 8 3 8 S S L =. . ...| | `.`.h | {.BXfX6.=.;.Q q.3X@XoX3XoX.X.Xy.y..X$.$.x.XXx.B X.#.y z ] T.!.[.$.n.m.+Xm.m.m.m.n.n.n.$Xn.n.",
"< 4 < 5 8 8 S T  .).).).....].).{ h ).=XAXvXa.;.;.)  Xp.oX@X.X.Xy.+.@.$.$.$.$.$.X.N XX}.a x R.T.T.{ /.'.$.n.n.n.m.m.n.n.n.n.n.$X",
". # < 3 F U ........).).).).].]._.h | ..rXAXcX0.;.E w. XXX.Xy.y.y.+.X.+.#.+.$.X.H X.eX'.a ] E.R.T.] T.!./.[.c.n.n.$Xx.n.n.n.n.n.",
"    @ V ../...`.)._.).).).c ).].].| ).| '.BXAXcXr.A P O.u..Xx.y.+.+.X.X.X.X.X.T Y wX0X!.s P.E.E.] ' R.E.E././.{.$Xx.n.x.x.XXx.$X",
"o w | `.~.| ).)._._.).).| h h Q.].].).{ |  XZXZXcXh.Z U o.+.+.+.X.+.X.~ T N N V XX0X*XP.U.P.R.T.k ' T.E.E.E.E.!.(.x.x.x.x.XXx.n.",
"` ..| | ).).).)._._._._.Q.c r g { _._.v c |  XBXCXBX4XW : m M m b N n m N N +.XX=XeX(.s R.U.T.R.s ' T.E.E.E.E.E.E.| }.x.x.x.x.x.",
"..| ).).).).)._._._._._._.| c q d c Q._.Y.Q.Y.|.VXVXyX9Xt.F b ; : ; m X.y.XXXX*XtXwXR.U.s U.P.a i p ] E.] E.E.] ] E.E.$.x.x.x.x.",
"`...)._.)._._._._._.Q._._.Q.Q.v q q c ).Q.Q._.Y. XCXCXyXwX=XXX.X Xx.*X*X*X;XwXNXNX(.R.P.U.R.e O 9 a T.T.E.E.] E.] E.] /.$.x.x.x.",
"`._.).)._.^.^.^._.^.~.~.~.~.Q.Y.c t 0 g g v Q.{ Q.qXMXVXVXyXrXeXeXwXeXwXeXNXtXNXeXE.P.E.T.P.R.y a ] E.T.E.T.T.T.T.T.[ !.| $.x.x.",
"_.).^.^.^.~.~._.^._.^.~.^.^.).Q.v c g + O c ~.).W.~.qXxXxXxXyXyXtXtXtXtXtXtXtXNX*Xz P.U.U.T.p a s ] ] E.T.E.T.T.T.T.[ !.[ '.$.x.",
").~.^.^.~.^.^.^.^.^.~.^._.Q.Q.Q.Q.v v l j Y._.Q.W.} v *XcXxXyXyXrXeXtXtXtXtXNX0XE.U.T.T.a 0 0 s P.T.T.T.T.T.T.T.T.T.[ } ] { $.x.",
").).~.^.^.^.^.^.~.^.~.^.Q._.Q._.Q.Q.v v j + q { Q.Q.v } =XxXxXxXyXyXtXtXtXtXeX/.T.T.i e e y s P.P.] T.E.T.E.[ T.] ] T.[ ' ' #.$.",
").^._.^.~.~.^.Q.^.^.^.Q.~.^.~.~.Q.Q.Q.v l g q 9 } Q.Q.x } qXcXxXyXyXtXtXtXtX|.E.y + 9 y a a z P.P.T.T.T.W.W.[ [ ] ' ] ' ' ' { $.",
"^.~.Q.Q.~.~.Q.^.Q.~.~.^.~.^.~.~._.Y.Q.v c l j e 9 r Q.Y.v Q.wXxXMXyXtXNXNX0XE.e + e a P.z z P.P.T.T.T.T.T.W.!.[ [ ] ] z a ' ' $.",
"~.Q.Q.).~.~.~.^.Q.^.^.~.^.Q.~.~.Q.).).Y.v c k j u e 9 l W.x '.uXxXBXBXNXeX/.e t y y P.z z I.P.I.P.P.T.T.W.W.W.E.[ ] ] ' p a i #.",
"{ } Q.Q.Q.^.^.Q.^.Q.Q.~.Q.~.~.~.).Y.).).Y.v v v l j t 9 i { [ |.BXBXBXNX*Xr y a a s ] ] I.I.T.I.T.T.T.] W.!.W.W.[ ' k k p i u d ",
"v v Y.Q.Y.).Q.Q.Q.~.Q.~.!.~.~.~.~.~.~.Q.Y.Q.Y.Y.v x j u 9 r W.v *XBXNXyX' p s P.z [ x x T.T.I.W.T.T.T.T.T.W.W.} !.' z p p i r p ",
"v v ).).Y.Q.Q.).~.Q.~.~.Q.~.Q.Q.Q.~.Q.Q.Q.Q.W.W.v v v j j r e x ] wXVX*Xa z x T.Y.W.x T.W.W.T.W.W.W.} W.W.} T.W.} [ ' k p r r t ",
"c v v Y.).v Q.Q.^.Q.~.Q.~.~.Q.~.Q.Q.W.Q.Q.Q.Q.R.Y.Y.Y.x x l g 0 ' [.tX{ z T.!.W.W.} x } W.W.T.[ W.} T.} } W.W.[ } [ ' k a e r t ",
"v c v v ).Y.Y.).Q.Q.Q.Q.Q.~.Q.Q.Q.Q.Q.Q.Q.Q.Q.Q.Q.Q.W.x x v x k 0 r '.z R.W.Q.W.W.x T.T.W.T.W.} } T.W.[ } T.W.[ } } { ' p r e t ",
"c c c v Y.{ Q.Q.).Y.).Q.Q.Q.!.Q.Q.R.Q.Q.Q.Q.Q.Q.Q.Q.Q.W.W.x } x p 0 k [ [ W.Q.!.x x W.[ W.T.} T.[ } T.v x [ [ } [ ] ' ' ' t e r ",
"h c v v Y.{ v Q.v ).Y.Q.Q.Q.~.Y.Q.Q.!.Q.W.Q.W.W.Y.Q.Q.Q.W.W.} [ i o g ] I.Q.Q.} x T.W.W.v W.} W.W.T.I.} [ [ [ x [ ' } ' ' i e e ",
"l c l x v { v { Q.Q.Y.Q.Q.Y.Q.Y.Q.Q.W.Q.W.W.W.W.Q.W.W.Q.Q.Q.Q.W.g O w V l x W.x x W.} W.W.[ Y.} [ W.} [ [ [ [ [ ' [ ' ' ' p e e ",
"h v j l v v Q.v ).v Q.Q.Q.Q.Q.Q.W.Q.W.} W.W.W.Y.W.W.R.Y.W.!.Q.W.{ } ' q w d j x x W.x T.v T.v W.T.[ W.v [ x l l x l s ' ' p e e "
};
