/* XPM */
static char *result[] = {
/* columns rows colors chars-per-pixel */
"64 64 251 2 ",
"   c #171517",
".  c #271A1C",
"X  c #2A2619",
"o  c #322A18",
"O  c #3B331D",
"+  c #20212B",
"@  c #282529",
"#  c #352728",
"$  c #3B3526",
"%  c #3C3525",
"&  c #2F2E34",
"*  c #383737",
"=  c #433A28",
"-  c #46373A",
";  c #4F3539",
":  c #3A403A",
">  c #50452F",
",  c #484739",
"<  c #5A5339",
"1  c #62593B",
"2  c #1A2742",
"3  c #373A47",
"4  c #2E3853",
"5  c #333D63",
"6  c #473B43",
"7  c #4A3C43",
"8  c #563E42",
"9  c #673E47",
"0  c #0D4855",
"q  c #394551",
"w  c #0C5669",
"e  c #3A4466",
"r  c #375667",
"t  c #2C6573",
"y  c #4B4547",
"u  c #584749",
"i  c #4F5346",
"p  c #585548",
"a  c #5D5A4B",
"s  c #454958",
"d  c #594B52",
"f  c #4A5557",
"g  c #585A57",
"h  c #644A4A",
"j  c #665848",
"k  c #635D4B",
"l  c #6C4951",
"z  c #675658",
"x  c #775758",
"c  c #5C6357",
"v  c #65614E",
"b  c #6B634D",
"n  c #706749",
"m  c #646352",
"M  c #6A6552",
"N  c #696958",
"B  c #6A6C5C",
"V  c #736B53",
"C  c #736C5B",
"Z  c #75725D",
"A  c #7A745B",
"S  c #444B66",
"D  c #464D6F",
"F  c #485567",
"G  c #545C67",
"H  c #4A5576",
"J  c #535E76",
"K  c #675C61",
"L  c #765D66",
"P  c #586567",
"I  c #5C6E75",
"U  c #696868",
"Y  c #776868",
"T  c #6B7366",
"R  c #7A7562",
"E  c #77796A",
"W  c #6C6D75",
"Q  c #687778",
"!  c #787977",
"~  c #88545F",
"^  c #85665D",
"/  c #896967",
"(  c #946D68",
")  c #847B67",
"_  c #98746C",
"`  c #8B6D74",
"'  c #877878",
"]  c #977677",
"[  c #AB7A75",
"{  c #A67A79",
"}  c #748077",
"|  c #7D8374",
" . c #7A837A",
".. c #88836B",
"X. c #878878",
"o. c #848A7B",
"O. c #948B76",
"+. c #A7857C",
"@. c #B7847B",
"#. c #266D82",
"$. c #495684",
"%. c #525E87",
"&. c #515F92",
"*. c #5A6688",
"=. c #5C6997",
"-. c #5F719C",
";. c #626A88",
":. c #787C83",
">. c #636E96",
",. c #697797",
"<. c #6B7893",
"1. c #5F6DA0",
"2. c #6977A4",
"3. c #6C7CAB",
"4. c #737EA6",
"5. c #6C7DB2",
"6. c #707EB6",
"7. c #8D7D84",
"8. c #A77982",
"9. c #6B8286",
"0. c #7D8686",
"q. c #748597",
"w. c #7A949C",
"e. c #7784AB",
"r. c #768DAD",
"t. c #6097AB",
"y. c #7584B3",
"u. c #7986B3",
"i. c #7C8AB6",
"p. c #7C8BBA",
"a. c #7E8FC2",
"s. c #868987",
"d. c #98878D",
"f. c #8A948A",
"g. c #93978B",
"h. c #888C93",
"j. c #8B9696",
"k. c #949B94",
"l. c #959A99",
"z. c #AB8986",
"x. c #B68988",
"c. c #B7958D",
"v. c #B09091",
"b. c #BB9896",
"n. c #8EA288",
"m. c #96A29A",
"M. c #9BA39C",
"N. c #A3A89C",
"B. c #BFA49D",
"V. c #818BAE",
"C. c #859BA7",
"Z. c #838BB4",
"A. c #818EBA",
"S. c #8492BD",
"D. c #8A94B9",
"F. c #959BB0",
"G. c #BA9EA1",
"H. c #9AA7A6",
"J. c #94A9B2",
"K. c #A3ABA4",
"L. c #A4A9A6",
"P. c #AAAEA4",
"I. c #A4ADAA",
"U. c #BBAEA9",
"Y. c #ADB0A6",
"T. c #A5B1AD",
"R. c #ACB2AB",
"E. c #B1B5AD",
"W. c #B4BBAA",
"Q. c #A5ACB5",
"!. c #ACB5B3",
"~. c #A9B6B8",
"^. c #B2B9B4",
"/. c #B5B8B5",
"(. c #B5BDBB",
"). c #C6918C",
"_. c #C69996",
"`. c #D39D99",
"'. c #C7A39B",
"]. c #D7A69C",
"[. c #E1A49F",
"{. c #C99DA2",
"}. c #CAA8A7",
"|. c #D6A9A7",
" X c #D8B2AC",
".X c #DAB4B5",
"XX c #E2ACAB",
"oX c #E3B5AC",
"OX c #E5B8B6",
"+X c #B6C0BE",
"@X c #B9C1BE",
"#X c #E6C1BC",
"$X c #8694C2",
"%X c #8A96C2",
"&X c #8C9AC6",
"*X c #8D9CC9",
"=X c #959BC4",
"-X c #939DC4",
";X c #929ECB",
":X c #95A2CD",
">X c #9BA5CC",
",X c #9CA8C8",
"<X c #93B6C7",
"1X c #97A5D2",
"2X c #9BA6D1",
"3X c #9DA9D3",
"4X c #A2A9CE",
"5X c #AABAC4",
"6X c #B3BEC6",
"7X c #A3ADD4",
"8X c #A4AED7",
"9X c #A5B1D6",
"0X c #AAB2D6",
"qX c #AEB8D2",
"wX c #A6B2D9",
"eX c #ABB5DB",
"rX c #AEB9DE",
"tX c #B3BADA",
"yX c #B2BBDD",
"uX c #AFBAE0",
"iX c #B3BDE1",
"pX c #B8BEE0",
"aX c #D6BCC1",
"sX c #E1BCC1",
"dX c #B6C2C2",
"fX c #BCC4C3",
"gX c #B4C3CA",
"hX c #BCC8CB",
"jX c #AEC6D1",
"kX c #B6CBD7",
"lX c #BDCBD2",
"zX c #B6C0E2",
"xX c #BAC1E1",
"cX c #B4D1E0",
"vX c #C2C8C7",
"bX c #C3CBCB",
"nX c #C4CED4",
"mX c #C4D1D4",
"MX c #CAD5D8",
"NX c #D1DBDD",
"BX c #E6C6C8",
"VX c #E9CFD2",
"CX c #CCD9E2",
"ZX c #D4DDE1",
"AX c #D8DFE2",
"SX c #DBE2E5",
"DX c #DCE4E7",
"FX c #E3E9EC",
"GX c #EDF0F1",
"HX c #F5F6F6",
"JX c #F8F8F7",
/* pixels */
"+ r U N i P } : i } > X X X X o X o $ o $ $ $ $ $ $ $ % = $ = = a V V V V V b b j k p < v v k v m C R Z N m i i i a p p a k U ! ",
"@ d T m i I } @ = } i = i a i : & X o $ @ $ O $ $ $ % = = = > = p V V V V V b b 1 p a k a v v v m B R R Z M a p i k N E K.vXAXGX",
"@ z Y N f } } : > | i : k | | r 0 3 : p i : $ $ % % = = - , p m b A V V V V b b j k a k v v v v m R X.| R B m a a  .H.fXGXHXHXHX",
"@ z E B r I } : > | c & f T | r w t f E  .c a a i i i y y f U s.A ) ) V V n n j k k a a v v v m M ..N.n.o.E N m a H.hXNXHXHXHXHX",
"@ z ! R g I 9.: , | c q f c P r w t Q 0.s. .E ! ! ! ! E g W 0.f...O...A A V n b b j a k v v M M N M.fX@XP.o.T B c J.lXNXJXHXHXHX",
"@ l ) E c Q 9., , ..P : c Q T r w t } f.0.f.s.o.o.X.f.0.Q f.j.l.o.n.....) A V b k j k v M v M M B I.NXmX(.f.E T c H.lXMXHXHXHXHX",
"@ h ' | g Q q.q i o.Q q G !  .P w t } w.w.f.f.s.s.s.s.h.9.J.H.m.g.N.O.O...A n b b j k v v M N M C ~.NXMX@Xm.| Z a H.lXNXHXHXHXHX",
"@ u X.s.P Q w.q , f.Q f P  .0.P w #.9.f.j.m.j.j.j.l.l.H.w.kXhXH.M.W.O.O...) Z n k k k k M M N V C T.ZXNXfXm.| T c H.lXNXHXHXHXHX",
"& 8 7.k.T 9.w.q , f.0.q.9.w.f.I #.t.t.m.H.H.m.~.Q.6X~.6XjXCXnXT.N.E.M.O.O...V V v k k v M V N B B T.DXNX@XN.| Z c m.lXNXHXHXHXHX",
"s 8 s.H. .J.w.r , k.j.w.w.~.J.9.t.a.J.J.J.~.K.gXbXMX6XgXjXnX}.).x.c.x.+.O...A n b v v v M M V B Z T.DXAXlXm.| } c m.kXMXHXHXHXHX",
"Q u f.I.m.5XJ.I q m.j.C.C.kX~.w.<XjXjX~.jX+XJ.lXnXCXgXL._._.`.`.`.`.).x.+.] R V b v v v M V V C Z T.DXZXmXK.| } c j.lXMXHXHXHXHX",
":.s w.T.m.jXw.} , m.C.J.C.lXlXC.<XcXcX~.jX+XT.jX~.h.x.`.`.|.XXXX[.|.`.).x.{ ] ^ b v b b M V C Z Z K.DXDXmXP.| | c n.lXNXHXHXHXHX",
"s.G j.~.H.dXJ.;.y M.J.w.r.MXlXC.<XcXcXdXqXgXJ.s.K x.`.|.XXoXoXOXoXXX{.`.).x._ ( R k m M V C Z Z Z T.ZXDXmXP.| | c j.lXMXHXHXHXHX",
"g.k.l.L.H.~.J.w.c H.H.C.w.kXlXC.<XcXcX5XdX5X! U v.].].XX#X#XOXOXXXXX[.[.`.@.[ ^ Y z m M V Z Z Z Z K.DXDXmXK.| | c f.lXMXHXHXHXHX",
"f.k.M.L.K.T.~.T.H.~.~.J.C.lXhXj.J.cXkX5X5XC.g X.].].].oX#XBXVXBX#XXXXX`.`.@.[ ( V z d R C C Z Z | H.DXDXMX+X| | B 0.lXmXHXHXHXHX",
"g.g.k.k.M.H.I.~.+XfXfX@XfXlXlX~.jXcXkX(.J.I U b.].].oXoXBXVXVXBXBXOXXX`.`.).[ / Y Y f U R R Z A V K.DXDXmX+X| } B f.lXMXHXHXHXHX",
"l.l.M.H.K.L.T.!.!.(.+X~.(.fXvXbXnXmXbXdXH.P d._.].].#X#X#XVXVXBXsXOX|.].`.@.( ( Y W g g E R R R Z m.SXDXMX^.o.| c o.hXMXHXHXHXHX",
"l.N.N.L.R.!.~.(.(.@X!.E X.g.m.I.~.(.~.~.j.:.z.'.].].oXoXBX#XBXBX.X.X|.|.).@.( ^ / 7.U f o.E ) A | n.AXFXMX^.f.| B  .lXcXHXHXHXHX",
"N.N.K.L.!.!.(.@XdX6XT.v < 1 j k m Y } s.! s.c._. X#XOXOX#XVXVX#X.X.X X'.).@.^ ^ Y h.:.d ! s...R R m.AXFXNX(.f.} B  .lXMXHXHXHXHX",
"L.M.K.T.!.^.(.dXdXdXT.p = > = > , a U W j.! c.'. X.X#XBXVX#X#XaX.X.XoX].).@.( ~ W 7.:.g P 0.s.) R n.AXFXNX+Xf.| T } hXlXHXHXJXHX",
"N.L.P.T.!.^.(.fXfXdX!.p O O = - u W :.j.j.Y c._. X.X}..XsXaXsX|..X.X.X{.c.[ ] / Y :.:.y U 0.h.s...m.AXFXNXdXf.| B } lXlXGXHXHXHX",
"H.K.T.!.^.(.6XfXfXdXQ.i o X % , z U 7.l.7.U _._.|.}.G.] ` v.{._.{._.{._.z./ / / 7.W W 6 f 0.l.l.o.m.AXFXNXdXg.| T | hXlXHXHXHXHX",
"N.L.T.!.^.(.(.dXfXdX~.j > = > p g U h.M.W u +.+.z.v.v.8.~ x ( ).`.8.{ x ; 8 h l W ! W 3 & W h.H.k.M.NXFXNXfXg.| B } hXlXHXHXHXHX",
"K.R.R.!.^.(.(.fXfX6X6XA j h h p c E h.l.z ' Z ( z.] ` x 9 9 x _.XX] 8 ; - d u y 7 z G * @ f :.m.K.K.NXFXSXfXg.| B } fXlXGXHXHXJX",
"K.L.R.!.^.(.(.fXfXfXfXX.R ' Y C ! :.:.s.x d.c.+.z.z.{ K d ~ ] ` x.z # ; y & ; * - f 6 * @ f U j.H.P.MXFXDX@Xn.| T } +XcXGXHXHXHX",
"K.Y.R.R.!.(.@XfXfXfXvXU.B.+.' s.7.! ! ' C d.b.'.B.b._._.b.x.b.{.|./ u ` 7.h 9 ; - U U y * z U h.K.W.MXFXDXhXm.o.m } +XmXGXHXHXHX",
"P.T.R.!.^.(.@XvXfXgXbXaXU.d.7.' s.7.! ! ^ d.z. XaX}.G.{.v.{.{.sX|.~ h / z.{ x z z Y K y - U T l.K.T.MXFXSXhXn. .} n +XlXHXHXHXHX",
"T.R.R.!.^.(.fXfXvXfXnXMX/.U.b.! 0.h.7.Y ^ M.+.'..X.X}.}..X|.XXsX{.` x ] 8.] Y ` ] ! z , y W U l.K.R.MXFXSXbXN.| B } ~.lXGXHXHXHX",
"P.R.!.^.(.+XfXfXhXdXbX~.j.aXaX0.h.l.s.Y ( v.v.c. X}.|..X|.x.{..X).` h ( c.8.{ { / Y z y z U ! k.M.M.MXFXDXhXN.| } T +XlXHXHXHXHX",
"T.!.R.(.(.fXfXfXvXfXhX0.w.Q.Q.0.s.:.j.s.b.b.c.z.'.}. X.X[ x.).8./ l l x x.x.( x h z z y U U g.g.g.f.NXFXDXbXm.o.} B +XjXGXHXHXHX",
"Y.R.~.(.+X@XfXfXvX@XvXH.j.j.s.! :.W ~.MXU.}.c.c.'.}. X).[ 8.9 x ; # ; ; [ @.( z u k Y ; ! g.M.O...O.MXFXDXbXN.| } m +X+XFXJXHXHX",
"P.R.!.(.+X@XfXfXfX6XvXfX(.(.6X(.6X~.bXSX!.v.c.B.'.}.'.x.|..X_.~ # . . ; ^ _ x z u z W u L.O.....| O.MXFXDXmXK.| | N +XgXDXJXHXJX",
"T.R.E.(.@X@X@X@XfX@X@Xm.| ..O.n.m.K.K.+X+X+Xc.c.}._._.8.{.{.).8.x 8 6 9 l ~ z d d U ! ) X.) ....) o.mXFXSXmXP.o.| B T.gXDXHXHXHX",
"P.R.!.^.+X@XfXvXvX@XfXo.> < < < < 1 1 b M B z.B.B.).[ ] 8.8.x.8.8.x 9 9 l l u u d Y 7.! ) ........X.bXFXSXmXP.o.| B T.jXDXHXJXHX",
"T.R.^.^.@X+X@XvXfX@X@Xo.O = O O $ O O O $ = ] c.B.x.8.] ~ ~ ~ l 9 ; # # - z h , z Y ;.I ..........X.bXFXSXMXP.f.| B T.dXSXJXHXHX",
"R.E.^.^.^.@XfX@XvX@X@Xo.o o o o o o o o o o k +.c.c.b.8.{.{.x.8.~ l ; ; u / h ; z L G G W ........| T.MXSXMXR.o.| T K.gXSXJXJXHX",
"R.!.^.^.^.@X@XvXbX@X@Xn., $ o O > 1 1 = o o $ / O.z.{ b.{.b.] 9 l ; 8 x x ( , y K K s J 3 q 3 s F S D *.<.J.Q.f. .B m.gXMXHXHXHX",
"T.E.^.^.^.@X@XvXfX@XdXT.s.a O n ......n > X X y / _ _ '.b.x.( L x h l C V l 8 d K - s D 3 3 s S e D J >.u.p.$XF.J.0.H.gXlXHXJXHX",
"R.R.E.^.(.@X@XfXvX@X@XH.c : > N. .} n V V , q 2.! / _ +._.{.|.{._.{ { ] z d u z u @ e 6 & 3 D S e *.u.&X:X7X7X7X2X3X,XdXlXJXJXHX",
"T.R.!.^.(.@XfXvXbX@XfXk.= > A W.n.o. .} h.i.$X1X7.d y k 8.v.b.` 8.{ +.l u y d d @ @ 3 3 3 S ;.>.%.u.*X3X9X0XeX7X3X9X>X<XMXJXHXHX",
"Y.R.E.+X+X+X@XvXbXfXfXM.i ! o.M.W.W.~.<X3X$X1X3X;.l 6 6 8 z l 8 L h h 7 7 S d 6   + 3 3 s %.<.>.u.;X4X0XeXuX8X4XrXrX,.;.,XHXHXHX",
"R.R.!.^.+X+XfXvXbX@XfXN.g  .| g.T.<XwX3X3X1XrX:XS z d u 7 * - * - 6 7 7 6 9 7 .   + 4 6 %.2.>.4.=X1X7XeXiX8X$X*X4X>.s *.q.mXJXJX",
"R.R.^.^.@X@XvXbXbXfXfXI.c  .h.2X<XwXuXwXwXwXiXD.& l L 8 7 7 7 6 6 d 7 7 8 6 #     & S *.4.4.1.A.;X4XuXuXeX1.$X;X*.e e.D.e.r.GXHX",
"Y.Y.W.^.@X@X@XvXvXfXfXK.<.D.wXuXcXjXwX<XeXpX0X4.3 L W z 7 7 y d d 8 7 7 6 #     + 6 %.4.u.4.6.$X4X8XuXpX4.3.0X<.H ,XJ.Z.e.q.SXJX",
"P.Y.R.!.+X+X@X@XfXfXdX,X1X8XuXiXpXiXeXwXrXiXwX%.>.8.7.L d u 7 7 7 6 7 6 # .   + & H 2.Z.e.3.3.2X7XeXuXuX=.4Xu.D 4X3XF.Z.e.,.lXJX",
"Y.Y.E.^.+X+X@X@XvXbX4XwXuXrXuXiXiXiXeXeXuXiX=X;.8XQ.7.L d d d 7 7 3 & # .     + S >.u.%.%.=.*X8X8XuXiX=X%XA.D 4X7X>X&XV.q.<.qXJX",
"K.N.P.Y.W.W.@X@X@X5XwXwXiXiXuXiXiXiXeXuXeXeXA.4XuXpX7.7.L K d 7 7 - # # .   + 6 =.>.4 D =.a.1X8XeXiXpX2X=X>.4X0X4X:XD.r.,.,.tXJX",
"N.P.K.R.Y.Y.W.@X+X2XrXrXiXiXiXiXzXzXuXeXiX;X4XeX8XuX7X7.7.L z u h 8 - # . & e *.4.4 e 1.3.;X8X8XiXuX1X4XD.7X7XwX0XF.D.e.;.D.qXJX",
"N.Y.R.R.E./.(.@X(.9XeXeXzXrXuXzXzXzXuXwXzX*X-.>.&XzXzXF.` x d l L h 7 3 4 %.,.u.6.5 >.1.;X7X0XeXiX$X8XeX>XD.0XtX4X=XD.4.>.;XtXJX",
"Y.Y.R.^.E./.(.@XQ.3XwXeXuXuXuXzXzXzXuXwXuX3Xr.e 4 J $XwXD.7.7.] K G >.1.=.y.$Xy.D &.&.&X1XeXeXtX=X&XeX$X=XpXpX4X4XD.Z.2.u.4X6XJX",
"Y.R.E.E.E./.(.(.-X:XwXeXuXuXuXzXzXzXzXeXzXeX:Xe.S 4 5 4 -.d.z.] L $Xp.y.u.e.e 2 %.$.Z.2X8XeXeXeX5.8X7XeXpXpX0X=X4XD.Z.4.:XZ.5XJX",
"Y.Y.Y.E.E.W.(.~.&X*X2XeXeXrXuXzXuXjXzXzXzXuX7X:XS.i.u.2.5 2.7.` 1X*X*X$X$.4 2 D H 4.2X8XeXeXeX$X6.iX8XtXxX0X=X4X0XD.A.$XD.<.Q.JX",
"P.P.P.E.E./.(.F.a.1X1XeXuXuXuXzXzXzXeXzXrXrXqX9XwXrXqX2X$Xa.i.,X1X:X>.5 5 5 =.2.%.2X7X0XeXeXeX5.*X8XtXpX0X4X4XtX0XA.=XZ.J <.C.JX",
"P.P.P.E.E.E.^.S.y.:X1XuXuXeXzXzXzXzXeXwXwX9X7X3X:X>X1X*X*X3X3X3X3.e 4 >.1.A.&XD ;X8X0X0X0X0X8X6.eXpXpXtX0XtXtX8X4X;X%X>.*.<.q.GX",
"N.Y.Y.P.E.E.Q.S.y.p.1X3XuXeXuXzXzXwX9X7X7X3X1X*XS.p.p.S.*X1Xe.e 4 5 >.p.&X7X=.>.2X7X0XwX8X7X:X1XpXpXtX7XtXtX0X0X0X=X4.>.*.<.<.MX",
"Y.Y.Y.W.E.W.V.D.r.y.1X*XwXeXzXrXeX3X,X:X:X%Xp.y.y.i.%X2X:XH 4 4 H 6.:X$XwX;X5 &X2X7X0X3X8X2X$X=XiX8X8XtXtXtXeXeX>XZ.q.<.*.q.;.H.",
"N.Y.E.Y.E.R.S.&Xp.y.&X*X3XwXuXwX3X:X*X%Xp.u.y.3.p.&X3XrX1.e &.6.$X2X2X3XwX=.H ;X2X8X8X4X2X3X6.&X0X0XpXpXpXtXtX0X=XZ.4.<.;.<.P ;.",
"Y.Y.Y.E.E.~.p.$X1X-.a.$X6.$X3X*X%X%XS.u.e.2.3.i.&XwXuX3X5.a.1X1X2XwX7XuX;X5 3.2X4X8X3X2X>X8X1.6.0XpXpXyXpXtX0X4X=XD.V.4.<.4.G J ",
"Y.Y.Y.E.^.4X$X3.7Xy.y.:Xy.y.p.$X$Xp.3.2.2.3.u.&X3XuXwX&X6.*X8X8X8XwXuXwX>.5 ;X8X8X8X2X:X>X8X&.$XpXiXpXtXpX0X0X=X>XD.,.;.*.q.F J ",
"P.W.E.W.!.,Xa.2.:Xp.t.:X6.p.p.p.i.2.-.-.2.y.$X3XuXwX*Xa.a.1XwX1X8XwXiX&Xe &.3XwX8X4X:X;X8X;X$.6.4X0XtXtXtX0X4X=X4XV.4.;.J <.s J ",
"E.Y.E.E.Q.7X*Xt.,Xp.e.*Xa.y.a.y.2.*.=.2.p.S.:XeX9X&Xi.$X$X3X3X8XwX7X2X=.5 A.4X8X7X:X;X:XeX6.$.6.0XtXeXpX0X0X4X4X4XV.4.<.<.q.S H ",
"Y.E.E.E.,X8X:X2.1Xa.&.p.p.y.p.-.H =.y.p.S.&X9X9X*Xp.%X*X1X1X8XwXwX1X$XD $.2X3X4X2X=X&X3X1X5.$.a.tXeXeXpX0X0X0X4XD.V.4.<.I <.F J ",
"E.E.E.E.:X8X&Xy.%X3X-.e.y.5.1.H =.i.p.$X$X1X9X*XA.S.*X&X$X3XwXwX8X:X2.5 2.2X3X3X2X;X1XwXa.2.&.*XtX0XtXpX0X0X4X=XZ.V.,.;.*.,.J h.",
"Y.E.E.Q.<X9X*Xy.r.9X&X&.y.5.&.&.y.$X%X$X&X3X;XA.i.S.*X;X1X1X1XwX3X&X$.5 $X2X2X1X;X;X1X8X1.1.7.tXtX0XtX0X0XqX4XD.D.Z.e.*.I 9.I .X"
};
