/* XPM */
static char *result[] = {
/* columns rows colors chars-per-pixel */
"64 64 34 1 ",
"  c #020202",
". c #0B0B0B",
"X c #141414",
"o c #1B1B1B",
"O c #201F1F",
"+ c #232323",
"@ c #2B2B2B",
"# c #343434",
"$ c #3C3C3C",
"% c #444343",
"& c #484747",
"* c #4B4B4B",
"= c #535353",
"- c #5C5C5C",
"; c #646463",
": c #6B6B6B",
"> c #747474",
", c #7B7B7B",
"< c #848484",
"1 c #8C8C8C",
"2 c #949494",
"3 c #9A9A9A",
"4 c #A4A4A4",
"5 c #ABABAB",
"6 c #B3B3B3",
"7 c #BBBBBB",
"8 c #C4C3C3",
"9 c #CCCCCC",
"0 c #D4D4D4",
"q c #DDDDDD",
"w c #E3E3E3",
"e c #ECECEC",
"r c #F4F4F4",
"t c #FEFEFE",
/* pixels */
"ttttttttttttetrrttttr9tttttttrwrrrrrrq7q094$. O5833442=X...o--*$",
"ttttttttttttrttttttte9tttttttwwrtrrttr6ew9=4-.:76664>+ .  X@&&*#",
"tttttttttttttrrererreerrtttttrrttttttr8tr7;e<X>6902#    X##@%=$$",
"ttttttttttttttttrtrtrreeeerrrrwrtttttr9tr;0t> ;q0-.    @**#o&*&@",
"tttttttttttttttrwwerrtrttterrrwqeerrrrrtw>rt< ;<o   .o*--&+o;::;",
"tttttttttttttrrq81,>27rttttttttttttttttr<6tr: .    o%==-=@oO;>:-",
"tttttttttttrrw4*o.@..o&4rttttttttttttttr:et0#    X$=&&*%$*&o-;%=",
"ttttttttttrw2&.        $<etttttttttttttw:e2o   .@**&@##@#$$o$-:$",
"tttttttttt8$            X,89rtttttttttt5-$    +&=*+oXOoo@$%X-;<#",
"ttttttttt9@               X.;rtttttttt0%    o&=&@+.O X.+$&*X;;::",
"tttttttte$      .           X8ttttttte@   X$-*#+O+.X O@#%&=X;;>>",
"tttttttt<.                   >tttttrtwo .#&&#+Xo.. .++$@@%*X%:>*",
"ttttttte@.  .            X.  X3rtttttr++&%@+oX . X+O@X=@@$*X%:;%",
"ttttttt7XXX.. .          +%@  oqtttttr&&#@++ . .++o O.X.@&*X-*%=",
"ttttttt<XXX.            o%<<=X=0tttttr$++@.. .XoO.. . +@$**X%:;-",
"ttttttt:..             X@-12>;9tttttr7o-X.  XoX.+.  X@#$$**X-<;*",
"ttttttt, .      .#X   .X$,21>,880tttte#o  XXoX .  o#@%$#@$%X@*%5",
"ttttttt1.    ...,,&.  X=1231:,rttttttr%@+o.X+   X@+@X$+@@$*X$#;%",
"ttttttt1       #2,;# X=2343,;<tttttttw$+..    XoOXX@.+ X#&*X*-:*",
"ttttttr;       #2>;:$-12<2:@o1tttttte%& .  .Xoo+ O X.o@$**=o*>,>",
"ttttttr&  .    $21<2;,631><=X4ttttttt4&X  X+o@X@.X o@%%%#%*o=>=;",
"ttttttr%     X%-<3<222441;X$&wtttttttr=#+oXo.@  .X++@O*$##&+%%#<",
"ttttttr$    X*22<:>233322:o@=rtttttttr*+Xo X  .X+oO.@X+o@@X+##+=",
"ttttttr5#  +=1332<,444321>#@2trtttttt9oo    .XOXO.+...X+#%%o%-*;",
"tttttttt6@X=<34355355432<:@@<rwrttttte#.  .XXXo.X...X+@$%==o%-:>",
"tttttttrw3*>144333333321,;#-<0wetttttr=++XXOX.. ..X+@$$**-=o%,>>",
"ttttttt2&=<2354333323211,=$=:7qwtttttr;XX.#    .o+#%$%%%&%*++-,,",
"tttttt0&$$>245333311321<:$$;<9wwtttte;+. .. .X+@#$**@-@$=**+%:=%",
"tttttr,$%$%,563323<112<>*+-669erttttr<#.   .+#$$%**$o;+@$#oX##%;",
"ttttt0&$%%$&163322<<<<,-$@3670rttttttt>oXXX+@%$#$$$#o+@@$$%+$;:>",
"tttr7;$%&%%$&33331>::,,;%>5579rtttttrt>X+OO+@#@##$#+o*-$$@$+#=;-",
"tr6,;=&&%&&&$*232,-$=:>>=45680tttttttt,oo+oo+@@#@@+#.@@+@+#+%:>=",
"e<;;--**&%$$%$;22;=$##*->45579rttttttt,+oXo++@oooX X.  .o+$++;:&",
"<-==*;**&$%$%%$,<$*11>:>334569rttttttt,X+oo@+oX      .oo+@$+@***",
";=-=*;==&$$$%$$%=+:2233334457qtttttttt,XXo#:..    .XX+++o@%+@=-;",
";-=-=-**&%$$$#$$# +<2222337258rttttrrq#..X +   .X.X@Xo#&++$+@---",
":;--***&%$$$#$$#Xo++++@@@#$$&=:,11,131.      .XX..o  ..XXo#@$*-2",
";;-=-*=*$$@@#@@XXo+oo                   .  .XoXX       .XO$#@$#-",
";-==--*&%$#+$oXXoXooX                ++oo.oXo .      .XXX+##o$#$",
"-;=*==*%%$#@@@+++o@o.              .@+$@$ .     ..X.oo@@+$#@+$$%",
"-;-****=$$@@+$@++@++.              %%=-*X.    ..X.X+XX@+@$@@X#*=",
"-=-***-*$@#@+$#@++@@.             +-;;o;;o  X.Xo.X.     .o+@o%*$",
"*--=&%&%$@@@o@$++++@.            .-:#X#&;*o..#          .XX@+#@@",
"=;=**%&%&#@+o#$++@+@o            $,=#$@O+<;+ooo.   . ...XX+@+@$&",
"=---=&&%&$#+X@$+++++o           .&;#:>==@X*-:,-$. ..+ X@X@O#o$&*",
"&=-=-==%$#@+X@$++++oo           +;;$:<%o     *54@.. $   .XX@X@*&",
"%==--==*%$#@o+$@o++oo.          $;=@>2-#  +@  *9<..X X ....@+$%*",
"%*-;-=*=%%$@++@#++o.X.         .&=&$36,o .;@X .5q&@XXXX;-;*++@$o",
"&=;;-=**%$$@+o@#o++oX.         X$=-,26>   ..   *w<X+X@+=4$oOX@$=",
"%=;=-=**%$$###+#@++oo.        ..o-:<,3<     o#->21X@oo@=95++o+#*",
"**---=%&*$%#$$O#@o+o+X       ..X.+-&+<5X  o,1331;;$*$   $56-X+#%",
"*===-=-%*%%$#+X@@oo+oo       .X.X.XX =6#  ;211<,>&@+X.oX.#49;%#%",
"%&*=**=%**%$@@o@+o+ooX       .X.XX   %8: o,13232<* .XXX.&o+1#o+o",
"#%%%&%&=%%%%##++@+o+oX.      .X. ..  X43 =<1231<<-X  .  o  XXXXX",
"#$&%%***%%%$$$@++o+oo..      ....     38+>1116312>@XX@@XoX.oXXXo",
"##&*=*%%%$$####@+X+oXo       .        ;8><2223211>+. Xo++$X@XXX@",
"%+#%&%*%*$$%$$@@ooo+XX .     .        $4<232222,%Xo.    .+ +X+Xo",
"%@@$$%**%%%%$%##+oo+XX.  .   .        o>23232<=X  XX       @X+oo",
"$#o#%&%*$%%%%###@oX+oo.. .          X#$:23321>o  .@.   X   $X@oo",
"#@++##$$%$%%#####oo+XX..  .      .o##$$%14332&   XX      .X#X@o+",
"$##X@##$%$$$$$$#+X++XXX   .    X@$###$#$-62<&.            X@Xo@@",
"%$#@X##$*%%$$%$@X.#+oX.    Xo+#$&$$$#####<1*              .@o$;%",
"$$##o+#$$%%%$%#o+@$ooo..X.o#$$$%$$$@@###@$@.        . .X.XX+Xo#o",
"$%%$#X#%$$$%%#@##$@++#+######$$%$%#@###@@+   XXooo& %.+o.oo@XXXX"
};
