/* XPM */
static char *_db9380a81c445d4bd464d5e77b1ac05KtzKdu9qvCq5rmKW[] = {
/* columns rows colors chars-per-pixel */
"64 64 255 2 ",
"   c #17241F",
".  c #35311C",
"X  c #101E26",
"o  c #0A202E",
"O  c #182728",
"+  c #0B2935",
"@  c #0D2E3B",
"#  c #162B35",
"$  c #0D323D",
"%  c #12333D",
"&  c #18373C",
"*  c #232C29",
"=  c #2A3428",
"-  c #363629",
";  c #3B3A2E",
":  c #2C2E32",
">  c #283736",
",  c #333C33",
"<  c #393A33",
"1  c #54311D",
"2  c #423B2B",
"3  c #4A3829",
"4  c #50362D",
"5  c #563B29",
"6  c #463D33",
"7  c #6A3A2A",
"8  c #753C2C",
"9  c #29423A",
"0  c #354630",
"q  c #3C4334",
"w  c #374539",
"e  c #3C4B3B",
"r  c #46442C",
"t  c #56442D",
"y  c #444335",
"u  c #4C4333",
"i  c #484639",
"p  c #444B3C",
"a  c #4C4B3B",
"s  c #544333",
"d  c #584736",
"f  c #544C3B",
"g  c #5B4D3B",
"h  c #4A533D",
"j  c #58553C",
"k  c #65442B",
"l  c #78462C",
"z  c #654936",
"x  c #6A4C3B",
"c  c #774C38",
"v  c #675539",
"b  c #64523C",
"n  c #6B533D",
"m  c #75553B",
"M  c #66643E",
"N  c #0C3443",
"B  c #0C3947",
"V  c #0D3C4B",
"C  c #123643",
"Z  c #153B44",
"A  c #193C47",
"S  c #133C4B",
"D  c #123C4F",
"F  c #0D3E51",
"G  c #293B44",
"H  c #0D414E",
"J  c #1D4442",
"K  c #14424D",
"L  c #1A434C",
"P  c #0E4455",
"I  c #124353",
"U  c #1B4553",
"Y  c #144956",
"T  c #1B4B54",
"R  c #144659",
"E  c #144B5B",
"W  c #1B4D5B",
"Q  c #18545B",
"!  c #1D535D",
"~  c #284748",
"^  c #374945",
"/  c #314F4F",
"(  c #38554A",
")  c #244A53",
"_  c #214D5A",
"`  c #22535C",
"'  c #29575A",
"]  c #395957",
"[  c #3C615E",
"{  c #184E63",
"}  c #165263",
"|  c #1C5364",
" . c #1D5A67",
".. c #1E5972",
"X. c #225463",
"o. c #245A64",
"O. c #2B5C62",
"+. c #235568",
"@. c #2E5569",
"#. c #245B6B",
"$. c #2A5D6A",
"%. c #355B66",
"&. c #1D646B",
"*. c #1C6876",
"=. c #29666A",
"-. c #2B646C",
";. c #376669",
":. c #39736C",
">. c #296A75",
",. c #376B74",
"<. c #2A7377",
"1. c #3C7274",
"2. c #387579",
"3. c #484C44",
"4. c #574C45",
"5. c #485848",
"6. c #545443",
"7. c #5B5442",
"8. c #595A48",
"9. c #455B55",
"0. c #545C55",
"q. c #675846",
"w. c #6A564D",
"e. c #765A45",
"r. c #4A634C",
"t. c #5A634D",
"y. c #58664C",
"u. c #4B6458",
"i. c #5B6453",
"p. c #566957",
"a. c #587259",
"s. c #67654A",
"d. c #78644A",
"f. c #73724E",
"g. c #676756",
"h. c #636B54",
"j. c #6C6C55",
"k. c #786953",
"l. c #6A755B",
"z. c #76765A",
"x. c #475E62",
"c. c #695866",
"v. c #466868",
"b. c #566964",
"n. c #48746C",
"m. c #597466",
"M. c #486C74",
"N. c #477878",
"B. c #547B77",
"V. c #6B6A68",
"C. c #687766",
"Z. c #787A66",
"A. c #687A74",
"S. c #8A3C28",
"D. c #89462A",
"F. c #95492B",
"G. c #99552B",
"H. c #884C33",
"J. c #88583A",
"K. c #915030",
"L. c #965838",
"P. c #A4572A",
"I. c #AF4B34",
"U. c #A6593A",
"Y. c #9D6139",
"T. c #A8682C",
"R. c #AC6B33",
"E. c #B57637",
"W. c #845B44",
"Q. c #925A54",
"!. c #AC594A",
"~. c #87664B",
"^. c #946448",
"/. c #876C53",
"(. c #986C55",
"). c #897559",
"_. c #987659",
"`. c #A76848",
"'. c #B36C4F",
"]. c #A6765B",
"[. c #B77858",
"{. c #8C6D6B",
"}. c #887B65",
"|. c #9B7A64",
" X c #A57C65",
".X c #B67B65",
"XX c #C66954",
"oX c #C67C58",
"OX c #C97D65",
"+X c #3E827B",
"@X c #78855C",
"#X c #4F817C",
"$X c #7A8468",
"%X c #6E8873",
"&X c #788775",
"*X c #B9813B",
"=X c #858569",
"-X c #988668",
";X c #868B77",
":X c #968A74",
">X c #8A937B",
",X c #959478",
"<X c #A9856A",
"1X c #B88669",
"2X c #AA8A74",
"3X c #B78B74",
"4X c #A89478",
"5X c #B7957A",
"6X c #C4844D",
"7X c #C68968",
"8X c #CD9071",
"9X c #C79878",
"0X c #D0A379",
"qX c #387882",
"wX c #316E96",
"eX c #4E7884",
"rX c #637E87",
"tX c #368389",
"yX c #3B95AD",
"uX c #4A8686",
"iX c #568987",
"pX c #528D90",
"aX c #648C84",
"sX c #73928B",
"dX c #4C92AC",
"fX c #6C98AE",
"gX c #53ACB1",
"hX c #70ABB3",
"jX c #6AAEC4",
"kX c #8B9787",
"lX c #969B89",
"zX c #8F9893",
"xX c #A89A84",
"cX c #B99A86",
"vX c #99A48C",
"bX c #8FA994",
"nX c #99A896",
"mX c #A5A78B",
"MX c #BAA589",
"NX c #A4AA96",
"BX c #B4B098",
"VX c #9AB0A8",
"CX c #B0B7A5",
"ZX c #C59E85",
"AX c #D39888",
"SX c #C8A589",
"DX c #D1AB8F",
"FX c #C9AB93",
"GX c #CCB498",
"HX c #D3B49B",
"JX c #CBBAA9",
"KX c #D3B8A3",
"LX c #BBC6AF",
"PX c #CECABD",
"IX c #D4D0C9",
/* pixels */
"n.v.n.B.B.iXaXB.pXpXiXiXN.1.2.,.qXeX%XkXsXkXnXCXBXNXkX%Xm.u.a.C.C.%X&X>XkXnXNXNXNXNXmXlXlXzXrX2.<.-.-.=.2.=.#XuX,.M.v.v.n.;.;.N.",
"v.v.B.aX#XB.n.iXsXpXiXuXuX,.-.2.qX1.&XlXvXvXmXNX>XC.A.%X%XA.A.m.9.r.r.r.p.C.&X>XlXvXvXmXvXzXeX>.<.>.2.:.=.:.#XN.1.,.] ' ' T O.;.",
"B.n.B.#XB.N.iXiXuXiXuXuXuXqXqXqX2.;.kXlX>X;X;XC.a.b.u.^ ^ ( ^ > 5.C.p.p.p.r.l.=XZ.;XvXvXlXzXrX>.<.,.2.=.=.:.iX2.,.` K ` ' 1.;._ ",
"B.v.B.#X#XaXsXN.uXiXuXuXtXuX<.2.,.v.;X>X=Xl.a.( ^ , ( ] ] ( / / r.p.5.( u.C.;X;X=X=X,X>XlXzXrX-.>.,. .&.<.+X2.=.` T T ` :.1.O.1.",
"%.v.N.#XuXaXiXuXuXpXuXqXtXtX<.2.:.( $XZ.z.h.a.u.( 9.v.] 9.] / ( u.u.u.b.x./ G : ^ < g.;XkXlXsX-.>.=.Q &.<.2.=.=.=.N.' N.#X1.,.B.",
"' ;.N.iXiXiXaX#XiXuX2.2.tXtXqX2.' a.$Xj.j.l.r.( ^ 9 5.a.C.C.%X&XkXbXnXNXnXzX&Xi.q *   , w &XsX%.| | &.&.<.<.=.<.2.-.=.N.uXN.N.;.",
";.;.uXiXaXaXsXzXbXsXaXuX+X<.<.O.& ( i.z.:X:Xh.5.y.$X,XvXmXlXlXkXlXvXvXNXmXBXCXCXCXCX;XV.: G sXM.O.-.-.>.>.>.>.<.>.>.,.uXiXN.;.;.",
";.N.1.N.%X>XNXBXBXBXCXCXVXkX&X9.w , 0.=X,XmXBXmXmXlXlX,X,X:X;XkXkXlXlXxXlXlXlXvXvXnXNXCXNXkXNXVXzXzXsXiX:.=.>.<.*.<.2.N.N.1.1.B.",
"v.1.,.n.%XmX:X,X4X4X4XMXmXBXBXmXmX;XmX,X@Xz.$X;X$X&X&XC.C.A.C.C.C.;X=X;X;X&XkXkXzXlXkXvXmXmXCXVXCXCXCXVXzXN.=...*.>.>.=.-.1.1.[ ",
";.1.:.n.aXlXz.=X=Xj.j.j.h.y.i.y.y.y.y.h.a.i.h.C.C.a.a.u.5.r.5.r.r.l.z.z.z.h.C.C.%X&X&XkXlXlXvXvXnXnXnXnXnXsXO. .>.>.>.&. .-.O.~ ",
":.1.:.1.aX>X$X-X:X@Xj 5.r.e e a.a.a.a.y.h 5.i.i.i.t.8.t.a 8.8.5.h.8.d.k.6.i.5.5.5.5.i.;X;X;XkXkXzXvXzXvXnXzX;.=.>.>.&. .} _ Z + ",
"N.N.:.:.uX%X$X}.-X,Xl.a.a.a.r.p.@XC.Z.l.l.i.t.t.i.t.q.q.d.e.k.k./.k.d.)./.}.Z.l.i.i.8.j.z.}.$XZ.;XkXlXkXlXnXsX,.-.&.} { W C + o ",
"N.N.,.:.N.n.a.h.z.=X=Xl.C.%Xl.y.y.h.j.j.d.7.f u j s.s.d.d.e.d.~.~.d.~.~././.).-X).}.k.s.j.Z.Z.g.C.C.Z.&XkXkXzXiX=. .} { D + o o ",
"B.:.=.-.-.1.v.p.a.$Xz.l.l.&Xl.y.h.s.q.n x n e.v d.k.).)./.)._.|.<X<X2X2X|.-X)./._._.}.}.j.Z.$XZ.Z.g.l.C.$X&XkXsX=.Q E W B o o + ",
"N.;.O.=.=.<.:.u.i.h.l.C.a.a.p.5.h f d z x m /._._.<X2X2X|.|.<X2XcXZXZXZXcX5X2X<X X X|.|.).z.Z.;XC.5.i.i.l.C.%XsX1.I I W @ + % Z ",
"U O.-.=.=.*.-.v.p.h.y.y.p.r.6.i y q.z k z J._.1X1X9XSXcX5X4X5XMXFXKXHXSXSXcXcXZX5X<X X|.).).}.;X%X%X9.C.m.u.m.aXM.K I K N S A A ",
"_ T -.=.=.>.=.=.n.m.p.r.5.8.8.; 2 q.x ~.~._.3X9XSXcXSXSX5XMXMXMXcXcXFXGXKXKXKXGXFXcX3X X|._.).q.0.&Xu.m.a.( 9.B.N.T ! W U S C K ",
"K W $.o.o.=.=.<.:.n.C.8.5.6.3.- s q./.-X<X2X4XxXcXxXMXMX4X4X4XxX-X-X:XcXFXFXKXKXHXFXcX2X X|./.x 2 i.A.C.( 9 ( n.N.T Q ! V S T K ",
"X.$.o.o.#.-.,.,.1.:.m.b.5.4.d d x e.d.e.k.d.e.d.~.e./.).-X4X}.=Xk.~./.d._. X5XSXZXSXZX3X2X|.).n 5 f V.C.w 9 ^ ( 1.Y Q Q V K K T ",
"-.O.O.W o.-.-.-.-.-.=.n.b.4.z m e.e.d.d.x n f.v e.m z q.-XGXBX:Xd.m W./.).s./._. X3X9X3X3X X).b 5 t 8.t.w w ^ / ,.Y Y H H K B K ",
";.1.-.O.$.-.-.$.-.>.=.=.v.0.z m W.(././.m /.=Xs.d.(.c q.}.GXJXMX2X<X(._.$Xh f.<X3X1X1X3X<X<X).e.c ^.Q.q.0 w 9 ' X.V V S V C N U ",
"N.N.O.O.o.$.-.X.=.-.#. . .] 4.x ^.(._.-X_./.-X-X<X1X Xd.).GXGXFXSXSX<X XxX4XMXDXDXDXZX9X3X1X|.^.'.XXXX Xh ( J O.I N V N N @ C S ",
"M.;.' ` o.-.$.$.-.#.#. .&.=.] 6.e.(.].5X5X-X<X5X1X[.(.e.|.GXKXHXGXHXDX5X5XSXDXHXHXHXDX9X3X7X].`.U.XX[.^.0./ ' K V V V N U U T I ",
";.O.O.` O.$.o.-.#. .o.o.-.o.` ] 8.(.].9X9X<X<X7X1X'.(./.|.FXKXHXHXGXKXSX5XSXDXGXHXHXSX9X7X[.`.`.U.'..Xq.9 A K V V H V B U U V K ",
"' ;.;.T ` O.X.$.o.! ! ` O.! ! ! ] k.].8X9X3X X].[.[. Xd.|.FXKXGXFXFXGXGXZX1X1X9XDXSX9X8X.X'.[.8XOX'..XV.A C N V F I I I S N @ % ",
") ) ' ` ! ` O.O.! Q ! ` ` ` O.` ' 0./.].<X1X]. X3X3X}.d.).FXHXFXSXSXDXDXSX8X7X7X7X7X7XoX'.`.8X3X8XOX|.^ A K P F I I I K N @ % @ ",
"' ' ' O.o.! | | ! | $.-.` O.O.! ! 9.b m ~.(.].<X3X<X)./.|.MXGXSX5X9X9X9X8X8XoXoX[.[.oX'.U.1X7X8X8X1X< A U R E R E E Y I N @ + @ ",
";.;.-.-.o. .#.|  .#.X.` ` X.` W X.%.8.z x ~._.<X<X_._./.|.SXGXSXSXZX3X9X8X8XoXoX'.'.!.L.`.7X7XOX1XZ.U W R F P R P E E I B N @ C ",
"O.O.o.#.-.#.} | +.#.| W X.` ` _ X.%.b.q.b n d._._.]._.W.(.9X5X2X2X2XSXSX9X0X7XoX'.`.F.D.'.AX9X7X:X%.} E P R | } E P R Y S C @ C ",
"T U R #. .+.+.{ +.X.X.W W W W ` }  .] 5.f t b /._.].].c c ].]._.<XcXFXDX9X9X7X[.Y.H.S.D.].AXcX4Xb.| } } } E E E E R E Y F N C C ",
"U D I } | #.#.| | | X.W W W W ` X.| O.9.a 3 d v (.].W.7 7 m J.~.J. XSXGXSX9X1X'.F.S.D.H.|.kXA.;. .} | } } E E Y I E E Y S C C Z ",
"U U I  .#.#.+.+.| X.! W X.W _ X.o.o.' 9.q.5 3 t ~.L.K.H.J.J.H.L.D.L.'.0XDX3X7X'.U.F.F.H.V.;.=. .} } } } { E E I E E E H V A U C ",
"T I W  .#.o.+.| | o.X.W X.W X.` X.` ] 0.d z 3 5 c D.F.L.L.Y.F.G.K.`.L.`.1X1X[.`.Y.K.H.e.x.>.*...+.| } | | E W W Y F P H S U C $ ",
"W W | | } | #.|  .| W T W ` W ` ` ' u.6 4 q.d 1 S.F.F.L.F.F.P.U.G.Y.Y.Y.Y.`.`.^.^.J.v g v.>...+.X.#.#. .} } W Y H R P B S C $ C ",
"o.X.! W W o.#.#.#.| T T _ _ _ X.' u.8.1 3 j.e.7 S.S.D.S.S.I.I.!.!.P.F.P.G.L.L.J.~.~.v r ( -.$.| |  ...| } E F H R I I I B C N $ ",
"' X.W W ! ! o.o.| ! W _ U U _ ' ` b.t . 6.l./.8 8 8 l F.U.'.oX7XoX7X[.'.H.D.K.J.W.W.7.i u.O.X.+.| | } E R F B D F P Y S $ @ @ % ",
"` ` T ! ! ! o.! W W _ U K U _ _ ' g.5 . p.j./.J.8 8 L.`.[.6X6X6X7X0X0X3XL.D.K.J.c 8 8.- 4.' #.+.| | | { R F F D F I H B % % $ C ",
"T L L _ ` W ` Y I T U K U U U ! ( d.3 * b.t.e.W.1 8 J.E.E.6X6X6X6X8X9X1X`.K.H.c k x r.= 6 ' X.| E } { E E R R I R I V N % + % Z ",
"L L L U U K K T T W K U U U U ' i.k.. = a.8.W./.5 7 K.T.T.E.*X*XE.6X6X'.L.D.l c x z.( - 2 ~ T Y Y | }  .} Y R I I I N $ + % $ @ ",
"~ A A A K S K U T K K U U _ ' ] s.g - q 5.7.W.).x 8 Y.T.E.E.E.*X*XE.E.E.L.l J.x k.C.q - u 3._ W W  . .} E R R F I N N $ + @ Z C ",
"~ A Z Z A A L L K U U R W ] 3.i a r 0 0 0 6.M ).c H.Y.R.E.E.E.E.6XR.R.R.`.J.k /.xXp.; - u p ~ T ! ! W Y Y H I I N N A N @ C % C ",
"~ Z Z Z A L T T U U R W ~ 3.7.- 7.j q q - ; q.}.~.D.G.T.R.R.R.T.R.T.T.R.G.J.(.5X>Xp a s u i & ) ) ) T ! Y I I B $ N @ @ $ % $ $ ",
"~ Z Z A L K K K U U ) 9 9 0 i O p r ; q i ; < l.}.l H.G.G.G.G.P.R.T.P.T.Y.].SXMXi.y 6.j s 7./ # > ~ ] ) K I V N $ @ % % @ $ $ % ",
"~ & Z A A K K L J ~ w = * > O O p r q q e , p.u.y.e.c D.D.F.D.F.P.P.P.P.[.KXJX:Xj.6.j g u 4.] # , ; , 9 / L S N $ + + @ % % C $ ",
"~ & Z A Z A L ~ ~ 9 = O O # O * j t a i w y xXvX%XA.g.x c c H.D.D.F.K.`.HXJX{.q.z.8.; a 6 3.G O 2 s 3 6 e ~ L N @ + + % % % Z @ ",
"~ Z A % J J ~ ^ ^ > O O O O O , f g b f 4.d .XxXnXbXsXC.&X$X:XcXcXMXcXKXPX{.4 ; 8.w - i i 3.& X - t t v a 3.( Z Z $ @ + # % % $ ",
"L Z % & 9 ~ 9 9 O O * * # O > 6.f g q.f 3.s (.:XnXnXbXbXbX%XCXIXIXIXIXIXcXe.5 q = , a 2 6 3.O   6 d z d 3 ; w 9 G & % + % % $ % ",
"A & > ~ ^ w = * O = ; > # O 4.7.7.7.f u < 6.~.2XmXvXnXnXbX&XLXIXIXIXPXBX|.x 3 ; ; - s t u < X * s b 5 s 3 6 2 a 3.^ ^ & % % $ @ ",
"G > ^ 3.w w 0 , < y p : # G 7.u 7.8.a 6.a 3.~..XxXNXnXnXbXkXPXIXIXPXGX X Xx 3 2 2 g z m g *   = g e.t d 4 s 2 - < p 3., > % C % ",
"w 3.8.p e 0 , , 6 6.w # > 3.7.7.7.t.a w.7.8.x !.cXNXNXNXbXbXIXIXCXVXkXQ.Q.s s n 5 t k m 7.# O ; g n n z g y ; ; - - 2 i , > G A ",
"3.6.6.e e 0 - ; i 3.~ C @.b.5.h 6.j.g.4.4.4.z F.{.fXhXhXfXfXfXfXhXdXV.e.7.w.q.t 5 t k m 8./ 9 6.d g z t r 2 6 - - = = ; , # > A ",
"q h p e ^ e ; 2 i p ^ ,.>.M.v.9.5.8.f.s.f 5 b H.Q.eXdXgXgXdXdXfXgXeXc.7 5 b e.m l c l W.w./ > y . 2 j b r 2 q.; - - = - > : > G ",
"e p 0 0 3.p i y i 3.w A X.$.qXeXv.i.f.d.v e.7.c !.V.wXjXjXjXfXdXyXrX7.4 4 7.d.d./.m ~.e.g.] > s g - 2 3 s f w.- - - = - > : : < ",
"e p e h 3.i 6.i a 6.^ / G & R wX,.u.q.q.q.d a e.`.!.zXhXjXhXdXdXdXA.t - = 9.] ( p.h.l.5.u.] : d 5 3 3 s 3 d u 6 i - q ; , , > , ",
"5.5.5.t.6.j 6.a a 6.< > 3.g.9.$.,.b.7.f i 2 y j ~.XX`.sXdXgXgXgXiXa . ; u ^ ;.' ' / [ ] ;.%.9 f 4 4 t s 1 4 ; ; 6 - q y - , , > ",
"r.y.8.t.8.h a 6.4.q.i = 6.).=XaXv.b.5.y . y i h q.9XI.Q.pXdXgXpX5.2 - 2 d 3.v.M.;.' %.%.M.) / i 4 u 3 d 5 1 d 6 2 i ; < = = , w ",
"h.t.8.h.5.p a i u u 6.< q M f.b.v.( r.i.r h j r d.).~.U.Q.iXpXsX4.5 2 4.b.b.A.0.u.9.] v.v./ 9.d 5 g q.z n k b 2 ; - ; ; - - q e ",
"s.j.h.C.p y i a i u 7.6 a j 6.^ ] ( u.h.s.s.8.j b s.l._.I.(.kX8.s r u 3.x.b.C.g.8.0.0.9.u.0.w.z z b x x m n n a - - - ; 2 ; q y ",
"h.h.t.t.p u f a u d s u 6.s.p 5.( / b.a.j j 7.7.j @X$X;X~.[./.k t s b 6.( r.g.4.d d 4.i.8.g c k x d 7 x x m t f r a f 2 i y 6 u ",
"C.y.l.j.7.d 7.8.f 4.d f q.t.q u./ ] B.m.l.h.8.u f s.@X$XlXz.b w.w.w.4.i.( r.j.z 5 x z w.b z c k z 5 q.n k k 5 g u 7.g 6 y i u s ",
"p.i.h.j.k.q.d.s.f 7.q.6.8.y.h.&Xv.v.] ( r.y.t.s.j f.=X@X;Xi V.b.u.u.9.n.;.u.z.e.k m z z m c d.e.e.q.d q.x n t b q.d s 7.y q ; u ",
"a.a.l.j.s.q.q.q.7.q.w.7.y.a.h.z.i.b.p.( / ( 5.t.j z.$X=X5.5.9.] ] 9.] 9.v.h.k.x 7 n z x m m d.d.e.q.q.z n n z v q.g 6 y e w e 5.",
"p.C.Z.z.j.Z.j 7.q.k.q.g.y.a.r.6.w , p p.v.' ] ( 5.h.=X5.^ m.9.5.9.0.3.0.u.j./.~.e.d.v v b g q.j q.7.g.b q.n z n w.f f y e w ( 5.",
"C.Z.Z.}.f.j.8.h.g.7.6.s.i.p.5.e ^ >   * / %.%.) ( 5.5.> 9.m.0.5.3.3.3.8.s.s.d.d.m d.m g q.6.h h 8.6.s.k.s.e.n e.q.f j p e 0 e ( "
};
