/* XPM */
static char *_0adc7e150094f4e82e0912a9f887e84Wr9KXJHUigaUt7wM[] = {
/* columns rows colors chars-per-pixel */
"64 64 256 2 ",
"   c #090D0B",
".  c #0A140D",
"X  c #11100E",
"o  c #0C1717",
"O  c #161916",
"+  c #121C1C",
"@  c #251C17",
"#  c #351F17",
"$  c #0F2016",
"%  c #18231C",
"&  c #27251B",
"*  c #342719",
"=  c #0E1A28",
"-  c #151C25",
";  c #2A1E29",
":  c #192627",
">  c #1C2424",
",  c #182D2E",
"<  c #1A2A37",
"1  c #282A26",
"2  c #222C2C",
"3  c #362826",
"4  c #26322B",
"5  c #37352B",
"6  c #242D32",
"7  c #272B38",
"8  c #362935",
"9  c #283437",
"0  c #363637",
"q  c #3B3C3C",
"w  c #452F1E",
"e  c #4C322F",
"r  c #473836",
"t  c #563936",
"y  c #673C33",
"u  c #304334",
"i  c #3B453C",
"p  c #48453C",
"a  c #504C34",
"s  c #55473A",
"d  c #6D4C37",
"f  c #695639",
"g  c #705F31",
"h  c #162B47",
"j  c #1A3546",
"k  c #172C51",
"l  c #1B3658",
"z  c #2B2C43",
"x  c #273647",
"c  c #353A46",
"v  c #273A57",
"b  c #373D56",
"n  c #1F3B68",
"m  c #443B44",
"M  c #433D58",
"N  c #663A44",
"B  c #1F4048",
"V  c #384547",
"C  c #284457",
"Z  c #364757",
"A  c #324E51",
"S  c #1C456F",
"D  c #284767",
"F  c #354969",
"G  c #2E5569",
"H  c #3A5867",
"J  c #294A76",
"K  c #354B75",
"L  c #2C537A",
"P  c #375577",
"I  c #3D6272",
"U  c #474747",
"Y  c #564945",
"T  c #49534B",
"R  c #58564A",
"E  c #474A55",
"W  c #534D58",
"Q  c #485556",
"!  c #575958",
"~  c #714A48",
"^  c #65574A",
"/  c #745A4A",
"(  c #665B56",
")  c #735C55",
"_  c #4F6D5C",
"`  c #5A615B",
"'  c #79644B",
"]  c #676458",
"[  c #6C635C",
"{  c #706B52",
"}  c #776759",
"|  c #485C66",
" . c #4D516C",
".. c #565A65",
"X. c #465A76",
"o. c #635D66",
"O. c #46636E",
"+. c #57656A",
"@. c #4A6577",
"#. c #576978",
"$. c #59727A",
"%. c #686966",
"&. c #776966",
"*. c #70706F",
"=. c #797568",
"-. c #686B77",
";. c #69747B",
":. c #777778",
">. c #85523A",
",. c #926639",
"<. c #AA7337",
"1. c #E85A32",
"2. c #DA703B",
"3. c #E8673A",
"4. c #F16C3A",
"5. c #EA753C",
"6. c #855649",
"7. c #8F534E",
"8. c #B0514F",
"9. c #87695A",
"0. c #926F51",
"q. c #AF7150",
"w. c #965F61",
"e. c #876C66",
"r. c #996362",
"t. c #877569",
"y. c #977969",
"u. c #867A77",
"i. c #967C76",
"p. c #AE6F67",
"a. c #C85B56",
"s. c #E15D56",
"d. c #DE7548",
"f. c #D46E54",
"g. c #E56B46",
"h. c #EE6D4C",
"j. c #E77749",
"k. c #F4774A",
"l. c #E77953",
"z. c #F27954",
"x. c #D96966",
"c. c #D2746C",
"v. c #DD7977",
"b. c #E3726B",
"n. c #74827A",
"m. c #BA8239",
"M. c #ED9B2F",
"N. c #EB8938",
"B. c #EB9A39",
"V. c #DCA431",
"C. c #F0B02E",
"Z. c #E9A837",
"A. c #F3A739",
"S. c #F0C930",
"D. c #948755",
"F. c #AF8953",
"G. c #8E8D6F",
"H. c #98866B",
"J. c #89847A",
"K. c #978578",
"L. c #9A9676",
"P. c #A6876A",
"I. c #B88F6C",
"U. c #A7986A",
"Y. c #A88875",
"T. c #A59776",
"R. c #B5977A",
"E. c #B5A672",
"W. c #CD8E50",
"Q. c #D98959",
"!. c #DB935A",
"~. c #E88949",
"^. c #F18F4B",
"/. c #EB9748",
"(. c #E88757",
"). c #F28658",
"_. c #E79857",
"`. c #D6AF51",
"'. c #DAB559",
"]. c #E8A748",
"[. c #E9B94A",
"{. c #F2B04F",
"}. c #E8A759",
"|. c #E5B958",
" X c #CF8D6A",
".X c #DB9565",
"XX c #E68C64",
"oX c #E99765",
"OX c #E9946F",
"+X c #CCAC6F",
"@X c #D8B96A",
"#X c #D6B876",
"$X c #EAA668",
"%X c #E8B868",
"&X c #EDAA71",
"*X c #EAB774",
"=X c #DEC959",
"-X c #EBCB4B",
";X c #E9C959",
":X c #D8C677",
">X c #E8C768",
",X c #EECB70",
"<X c #1E4E87",
"1X c #254C85",
"2X c #2A5688",
"3X c #365786",
"4X c #285895",
"5X c #355C95",
"6X c #3A6B91",
"7X c #376599",
"8X c #2D5BA1",
"9X c #396EB0",
"0X c #475D89",
"qX c #596B85",
"wX c #5A7585",
"eX c #436797",
"rX c #4F7091",
"tX c #687687",
"yX c #6A748F",
"uX c #777B86",
"iX c #436FAA",
"pX c #377CC0",
"aX c #807C82",
"sX c #6A878D",
"dX c #798588",
"fX c #788895",
"gX c #878889",
"hX c #988B87",
"jX c #959589",
"kX c #868A96",
"lX c #889896",
"zX c #959093",
"xX c #969598",
"cX c #AE9386",
"vX c #A49A88",
"bX c #A59999",
"nX c #98A88A",
"mX c #95A897",
"MX c #A8A586",
"NX c #B8AB88",
"BX c #B4B093",
"VX c #8E92A2",
"CX c #9DA4A4",
"ZX c #AEAEA4",
"AX c #E48483",
"SX c #CBB88A",
"DX c #E9B384",
"FX c #C6BBA6",
"GX c #BDC79C",
"HX c #D9C488",
"JX c #D7CA96",
"KX c #D0C998",
"LX c #E6CB8E",
"PX c #C6C8A6",
"IX c #D0CBAB",
"UX c #E7D0AD",
/* pixels */
"3.3.3.k.).).(.oX$X$X.X!..X.X.XQ.Q.Q.(.(.XXoX.XoX$X$XoX(.j.3.3.3.4.3.3.j.l.z.z.k.k.k.k.z.).).).oXoXoXoXXXoXoXoX).).z.h.h.b..XQ.f.",
"3.1.1.4.j.j.j.j.(.(.oXXXQ.!..X!.!.!.!.!.oXoX.X.XQ.Q.l.j.g.g.k.k.k.l.l.(.(.(.~.j.j.).).).).(.(.oX&XDXDX&X&X&XoXoX(.l.z.h.g.Q.(.c.",
"M.2.g.g.2.g.g.3.4.4.5.j.~.~.~.(.(.l.j.j.g.g.d.g.j.g.5.j.j.j.l.l.!..XDXDXDXDX*X*X,X*X$X$X$X&X*X*X*X%X%X%X*X*X$XoX_.).z.h.XX.X(.b.",
"~.~.W.+XcXhXJ.L.I.c.l.j.d.j.j.5.3.3.3.3.j.j.(.).~.j.(.(.Q..X.X&XDXDX*X%X>X,X>X>X;X%X%X%X*X*X:X,X,X;X-X-X-X[.}.$X$X^.l.(..X.Xf.x.",
"}.!.W.#XHXKXIXPXPXFXBXMXMXT.T.P.I. X!.(.(.XXXX(.(._.OX&X&X#X*X*X%X|.;X>X>X-X-X=X@X#X#X:XHXLXLXLXLX,X,X,X>X;X{.[.Z.].}.}..X.Xf.x.",
"Z.V.].|.=X>X:XLXUXUXJXHXSXHXHXSXSX#X#X+X#X#X%X%X'.|.;X|.|.[.[.{.].].].-XS.-X=X:XHXHXLXLXLXLX*X*X&X$X$X$X}._././.B.{.>X%X%X!.f.x.",
"!..X+X|.;X-X;X,X,X>X>X>X;X;X;X;X|.|.|.|.'.|.-X-X-X-X|.|.}.].].].C.S.-X-X>XLXJXJXLXLXLXDX$X_.).).l.l.z.l.z.k.k.^.N.^./.|.,XW.a.a.",
"l.l.(.XXXX(.(.oX$X$X%X,X,X>X>X%X'.'.'.|.;X|.|.].V.Z.Z.Z.Z.[.-X=X:XHXJXJXHXHXHXLX*X$X(.(.j.j.k.k.z.j.).).).z.z.z.l.l.l.(.$XQ.a.a.",
"d.3.j.l.z.k.h.h.h.h.j.j.(._._.!.$X*X%X>X#X#X#X@X@X'.'.@X#XNXGXPXPXIXJXJXDX&XoX(.j.g.j.l.(.(.(.(.(._._.(.(.(.).XXXX(.l.l.OX X8.a.",
"l.g.g.l.l.j.j.l.j.j.j.g.g.3.3.2.2.~._.}.%X@X:XHXKXPXZXPXPXKXJXLX#X$XoXXXl.l.d.j.j.l.~.~.~././.].{.{.{.]././._.$XoX(.l.l.XXf.8.a.",
"f.g.h.l.j.j.j.j.5.5.d.d.d.d.d.g.3.2.5.j.~.^./.].}.}.}._./.~.N.5.j.g.g.g.g.g.j.~.~./.B.A.A.C.C.S.S.C.C.C.C.C.{.%X*X&XOXXXOXa.8.a.",
"d.g.3.g.5.5.N.N.N.N.N.N.N.N.N.j.j.j.h.g.g.3.5.k.g.h.j.g.d.d.d.g.g.d.d.d.j.~.N.N.M.M.C.C.Z.Z.Z.V.V.m.m.<.<.,.6./ / 6.6.7.p.p.8.a.",
"!.2.(.}.].A.{.{.{.{.{.].A.A.A.B.B.B.N.N.5.5.5.4.g.5.5.j.g.g.g.g.j.).^.~.M.M.M.M.B.~.W.q.>.d y t e r r m c c v v v 8 r N ~ 6.8.x.",
"/._._.~.W.<.<.0.,.q.q.F.W.W.!.}.}.{.{.A.A.M.M.M.M.M.M.A.B.B.B.B.M.C.C.Z.].].W.q.>.y e 8 z x x x x x x x x l l n l k z ; 8 e 8.x.",
"/.q.>.y N r 8 0 0 0 0 r t y d 6.8.q.f.~._.}.}.].B.A.M.M.M.B.B.B.].].W.q.6.d t m b C v x x x v v v v C Z C v v n l k x z z e 8.x.",
"r.6.N m c 0 c c V q c c 9 9 9 7 q t y ~ 6.7.8.q.q.q.q.q.q.q.0.7.6.d t r m c b C x x < = < < h k v v v Z F F F D v v b M z e 8.x.",
"} 9.&.Q Z C C v v x 6 2 9 7 x x c c c 0 0 0 0 r r t t t t t r r c z 7 6 6 7 z 7 7 z 7 7 z z j l J L J K K D J J K F F  .M 8 8.x.",
"E E ..+.@.X.@.@.+.V 4 2 6 0 r U U U U U U m 0 0 m m 0 0 q q c c z x < < < 7 z z 7 7 0 7 c X.F K 3X3XD D J 1X1X1XeXL 3XK b ; 8.x.",
"I @.tXsX-.:.dXsXsX@.H H H P 6X@.#.qXqXrXsXrXrXrXrXrX@._ +.X.| | #.@.G I wXwXwX#.O.@.#.;.E b v n J K F D J 1X<X5XiX3X0XP b 8 p.x.",
"lX:.FXFXbXcXSXE.E.NXE.U.T.L.G.G.G.L.jXlXfXsXfXfXfXkXjXNXNXbXhXu.:.+.#.$.$.O.| @.#.wXqXW U E Z Z E  . . .F K J 5XeXK qXX. .e p.b.",
"..Z =.vXfXJ.+X@X|.%X'.'.|.|.`.`.`.'.'.+XE.+XNXP.E.E.E.+XE.G.*.] ` ! V 9 6 6 x v v x 9 8 c b U E E .... .E b 0X0X3XK qX .W 3 p.b.",
"6 0 W | G G lXNXU.T.MXMXU.E.E.E.+X+XSXMXMXBXxXJ.L.T.U.E.vXtXfX:.q 6 9 7 6 7 h D J n k = - 7 x c c b b b b F K J D D J K b 5 p.v.",
"9 p ^ Q C j #.hXU.E.#X#X+X@X@X'.'.+X#XSXSX#XSX+X+X+X`.+XNXJ.dX;.T Q E V V U T C S <Xl : = : x c c b  . . .X.K 3XL J n k 9 1 w.v.",
"5 p ^ V Z j ` vXE.UXUXIXIXSXSXFXFXFXFXFXFXBXBXMXNXSXSX+XSXNXMXMXMXMXL.G.u.:.dX@.l 2Xh + o = 7 z c F K J J K 3X0XK n l v < O 6.v.",
"1 s s 5 c A ..bXNX:X@X@X@X@X@X:XLXUXJXJXJXSXKXGXPXPXBXNXR.NXBXBXbXvXE.U.=.+.P 2X4XJ = X o - z v v J J <X1X1X3XF l k D @.< . ~ v.",
"1 R 9.5 6 x +.jXMXCXmXnXnXnXBXBXGXPXPXZXBXBXBXZXZXZXmXxXmXmXmXlXG.P.G.#.J 2X4X4X<Xk o X o < h l J J J 1X3XL v k x H tX;.: o ~ v.",
"1 3 y.p 2 5 ^ H.U.T.L.jXnXmXlXlXmXmXmXmXnXlXlXfXsXsXwXsXdXdX:.*.] ..5X8X9X4X4X4X8XD . X = v D 3X3XD l x x < x v  .fXdXlX6 o ~ v.",
"5 3 / R > 5 Y s ! U Z P 6X6XiXiXrXrXrXrXwXwXwX#.| H D G G L L 2XL P 3X7X4X2X2X<X2XJ = o = k D v h h j < j C H ;.CXzXuXVX9 O ~ v.",
"p Y d r 2 1 / / p &.W K 5XiX9X9X9X9X9X9X8X4X5X5X5X5X5X7X9XiXiX5XP J L 2XL L S 2X5XD < - : v j j j j C Z | $.uX:.bXu.yXyXV % 6.AX",
"Y &.y.3 2 5 e ' s a e.*.eXpX9X7X7X9X9X9X9X7X7X7X7X7X6X5X2XL D v C D D D S S L D l h < = x x x B G H H @.dXgX:.zXu.*.yXF A 2 7.v.",
"r ) I.s 2 0 &.s Y r r 9.*.6X9XrXeX7X7X7X2XL G G L L L J J D D K J D D G S L J l h < < x x Z H O.P P #.$.+.%.jXzXo.uXyXv 9 % r.AX",
"U } I.s : 0 &.e.r Y U 3 ^ H.#.eX3XL P 7X4XL G D D D J 1X1XS S D Q Q Q Q Z C D l l k C j A I $.@.@.X.$.#.#.jXbX:.-.uXqXn < + r.AX",
"R ' I.s 9 9 ~ R./ t ) m 5 s 9.-.0XeX3XL 3XL L J J J L J S l Z =.G.D.D.D.=.T j h v D C A H wX#.O.@.X.X.#.gXjXzX;.tXqX0Xh < > w.v.",
"Y f F./ q %.d 0.9.t Y Y Y 5 5 ^ %.X.7X3XD v v D J 3XJ F l j ` D.U.F.F.D.G.=.V j v C C I O.$.#.O.@.X.#.fXkXgXuXuX#.yX0Xl < > w.v.",
"s f D.9.T i.0.e ~ Y e e ^ Y q 2 s ' W rXL D Z F P J F b x V =.T.+X`.+XE.U.T.! c C v H H @.#.H H tX-.uXxXuX;.uXqXqXyXX.H < 2 w.v.",
"' ' 9.P.{ H.I.d & Y p 3 r ^ Y q 1 r / %.0X0XP K P F | 0 +.%.J.H.+X@X+XE.U.H.] E C H @.H @.O.G @.kXaXbXbXdX$.kXkXtXqXwX$.9 2 r.v.",
"0.9.9.I.P.R.P.H.5 s Y 1 5 s } U 5 % 1 ^ e.-.0X3XD Z Z U ;.%.G.T.U.E.E.R.U.H.^ T Z | @.X.@.H H tXhX:.xXbX:.#.xXxX#.qXVX-.9 2 w.v.",
"f 9.9.P.P.P.P.H.Y 3 Y 0 2 5 e ^ U q 4 1 s 9.&.rXX.M E p :.` H.L.T.NXE.U.U.P.] V A ..$.@.@.G O.:.:.%.J.hX;.sXZXgXtXtXVX;.9 > r.v.",
"' ' y.y.I.P.R.y.( 0 5 U 1 2 & 3 R U 0 1 & a D.9...E U W u.R G.T.T.T.U.U.H.cX} Q A +.tX@.$.H @.:.-.&.vXgX;.fXbXgXuXtXVXkXc > p.b.",
") / e.0.R.P.R.K.} U 2 1 r 1 4 1 * R R p 3 % 5 0.0.Y q U t.^ G.BXT.H.T.U.T.H.&.A A +.;.H O.H #.;.*.i.vX;.;.fXbXgXuXtXkXVXW > p.x.",
") } y.9.P.P.Y.cX} ! 9 : 1 s 1 6 & & f ( 3 8 : & g m.g 9 ] H.{ MXT.} G.U.L.} =.V A ..#.A | O.wX*.%.u.hX;.tXdXxXkXuXuXfXzX( % p.x.",
"} 9.9.e.y.Y.y.y.t.W 6 : % Y q > 2 & @ s r E c 1 * f D.0.s K.9.=.vX=.[ U.=.=.! V A +.+.A | O.wX;.%.hXhX#.dXgXzXkXuXkXfXbX&.5 p.x.",
"0.' } e.y.Y.H.} =.( i + > 6 Y 0 % 2 O @ e =.U V 2 > a 0.D.t.t.T J.^ { G.] =.V u A ! | A | +.wX#.%.hXgX+.dXkXdXuX:.kXfXbXhXY p.x.",
"0.' } 9.y.P.H.} } &.U 9 : + 4 R 1 : 4 & * ' =.p U 4 1 ^ R ^ J.i *.=.t.L.R %.u u T Q Q H | #.wX@.%.J.-.+.dXuXdXkXdXkXuXbXi.Y p.x.",
"p.y.} ) i.t.t.} ( e.%.U V , + q ( 1 > 4 @ * ' { U V c 0 & 5 *.9 i =.t.{ 5 %.0 u Q Q ..| | | $.#...gX-.-.lXuXdXVXgXkXuXbXi.p p.x.",
"P.y.) ( t.i.e.[ ( =.t.( E V : $ Y ^ 1 1 1 @ * f { U c 9 6 r [ > u ] } p % R 0 4 T T ! Q Q Q +.+.! u.-.-.kXgX;.kXdXkXyXzXu.p c.x.",
"P.y.{ ] &.e.e.:.( %.t.t.%.! i % 1 ( ^ 3 & 5 & & ^ %.6 9 > Y ( > 4 =.=.u . p U 4 i p U T Q T Q | ..gX;.:.kXgX:.dX:.kXyXzXu.p c.b.",
"P.P.} ] ( e.) &.! W %.=.=.] ] 5 $ 5 e.~ * 0 i 1 1 U 9 < > R R > $ ] T % . O 1 5 a 5 0 U ! ! T Q ..;.-.;.dX:.n.dX;.kXtXzXt.p c.b.",
"H.y.} R ( e.) ( %.! %.:.=.} =.Y : $ Y ) # 5 T U 5 9 6 < 2 s i % O 4 > o o   O & 0.a p V R ( T Q Q +.;.;.;.uXdXdXuX;.-.zXt.p c.b.",
"Y.P.y.R [ e.} ( %.! +.:.t.} } R 4 % O 3 w r p U Q 0 6 < 9 1 O + + 2 > .     O X f <.,.a i T T ! Q ! ;.uX;.uX;.dXlXkXuXbXhXp p.x.",
"Y.Y.Y.R [ e.e.( o.....*.t.} ( ` i 2 o O 3 / Y U E U 2 < 0 2 o + + > 2 .     X X * 0.m.<.s i p T ` %.:.;.uX-.;.kXxXxXgXbXcXp p.x.",
"i.Y.Y.^ [ e.e.&.+.+...=.t.e.&.] R V : O p K.9.p Q E , x c 6 > + % 2 2 .     . o X w ,.F.F.g i p R ] :.:.:.tX;.uXzXZXzXZXcXU p.x.",
"y.Y.cX&.[ e.e.:...-.%.t.y.e.u.%.*.T 4 + o ( i./ U c < x V : > o > 4 : o     o : O O @ d F.W.0.u p ` *.n.dX;.+.%.gXbXzXZXhX5 8.x.",
"y.Y.R.e.[ e.9.:.%.*.-.&.e.t.u.*.%.%.U 2 o % [ r.[ < 9 x V : 2 + 6 2 > +   . o 2 % + + @ y q.W.F.a p %.:.dX%.%.` gXzXuXhXvXr 8.s.",
"i.y.Y.e.[ =.y.i.u.t.aXo.&.&.*.:.%.=.( V , + 4 } ( = x Z x : 2 - 9 6 : : . o : , % : o : O 3 6. XI.' a ;.dX+.%.%.:.aX:.vXjXr 8.a.",
"K.H.Y.e.&.] e.y.J.K.u.....[ ( :.*.*.:.! 9 : o 5 W < c x < : + 2 9 6 2 > . o : : 2 0 + o > - 3 / +XI.D.=.*.] *.%.=.u.:.K.K.5 8.x.",
"t.y.Y.t.&.! ) y.u.hXi.-.Q [ ! :.-.uX:.%.V 9 + O 6 1 9 = 6 + - 6 2 6 6 >     + o 1 q 1 - o - 7 9 } Y.+X+X0.f ^ } &.:.u.i.J.1 7.x.",
"t.y.y.i.&.( ! i.i.hXi.;.#.( [ -.kX;.-.*.T c , o : 1 > - 6 o > 2 2 2 6 >   X o 1 1 0 4 1 > o - 6 c U hX X XF.,.} { &.:.hXu.& 7.a.",
"t.t.e.i.e.` T t.i.hXK.e.uX! =.! ;.-.uX%.*.E x : : - + + + o 2 , 1 6 6 O   + > U 9.^ c 9 : + > , c 6 U e.I. X XF.f ( :.i.u.& 7.f.",
"e.} ) i.i.%.T [ i.i.hXi.:.o.&.! +.;.-.:.%.! c 9 > : o + + o 4 9 5 8 6 . . O X 3 w.p.J.Z 9 6 9 : : 6 0 5 } p. X Xq.f ^ } =.& 7.f.",
"i.&.^ e.i.[ ( ! :.i.hXK.t.:.%.%.! :.;.dXJ.=.Y 0 , o + % O 1 q 0 q 4 ,   1 1 X O Y 6.Y.&.U V V 0 2 + 2 1 8 m 0.Q.Q.F.g f ) 8 8.a.",
"&.&.^ 9.H.} &.R *.y.Y.hXi.aX+.*.! %.gX;.gX:.%.U c > + % O 0 U 0 q 2 : O i 0 O . . s r.p.} U V E 0 1 + ; - 6 5 7.Q.!.W.F.d t 8.a.",
"e.=.^ } H.} &.R ] K.y.zXK.u.#.-.%.] :.;.uXgX%.W c : + % O 0 0 q q 9 = > 9 5 1 . X - s 0.q.&.E E U q + X O @ @ 3 ~ p.W.W.W.F.8.x.",
"e.e.( ) y.e.&.( ( K.y.hXK.t.-...*.] &.:.;.dX*.! V , o 2 O 0 2 V q 9 + % 2 9 5 & X X % Y r.q.&.U U U 4 O O X X @ @ e p.q. X X8.x."
};
