/* XPM */
static char *_740547fb132477cbe52ad0f43a34b5eEsmSl4sR9FdSynn9[] = {
/* columns rows colors chars-per-pixel */
"64 64 255 2 ",
"   c #0E130D",
".  c #14150D",
"X  c #181A0E",
"o  c #0C0E12",
"O  c #0F1511",
"+  c #141513",
"@  c #151B13",
"#  c #1A1C14",
"$  c #161919",
"%  c #1B1D1B",
"&  c #211B0F",
"*  c #241D14",
"=  c #1B2115",
"-  c #1B221B",
";  c #19251A",
":  c #242315",
">  c #2C2B17",
",  c #23241B",
"<  c #282718",
"1  c #2B251A",
"2  c #2B2A1D",
"3  c #33291A",
"4  c #191D25",
"5  c #1D2626",
"6  c #1D322A",
"7  c #1B2837",
"8  c #252B23",
"9  c #262829",
"0  c #352C26",
"q  c #283529",
"w  c #353529",
"e  c #252C37",
"r  c #283537",
"t  c #353837",
"y  c #483B2E",
"u  c #663633",
"i  c #29423A",
"p  c #3B4138",
"a  c #4B4E30",
"s  c #474739",
"d  c #615830",
"f  c #706424",
"g  c #1B2945",
"h  c #1E3451",
"j  c #283746",
"k  c #2B364C",
"l  c #343B45",
"z  c #273956",
"x  c #1C3B6F",
"c  c #253D69",
"v  c #2C4348",
"b  c #394547",
"n  c #35544D",
"m  c #2A4458",
"M  c #374957",
"N  c #395359",
"B  c #1D437B",
"V  c #2C4668",
"C  c #2F4F6E",
"Z  c #354A66",
"A  c #385569",
"S  c #274978",
"D  c #2A5379",
"F  c #345474",
"G  c #385777",
"H  c #3C5B7D",
"J  c #3A636B",
"K  c #3A647A",
"L  c #3E7079",
"P  c #464B45",
"I  c #514D47",
"U  c #4A534C",
"Y  c #53584B",
"T  c #434C54",
"R  c #485557",
"E  c #565856",
"W  c #526651",
"Q  c #57655B",
"!  c #676B59",
"~  c #465A67",
"^  c #505A63",
"/  c #455C75",
"(  c #496569",
")  c #54656B",
"_  c #476578",
"`  c #566A78",
"'  c #4C777A",
"]  c #587278",
"[  c #6F736A",
"{  c #6A7879",
"}  c #807460",
"|  c #6E8C7F",
" . c #E3B911",
".. c #F0C815",
"X. c #DFCB2A",
"o. c #E6CA2C",
"O. c #A7AC5C",
"+. c #899776",
"@. c #AFB972",
"#. c #C9B74C",
"$. c #B7C776",
"%. c #DFD157",
"&. c #C7CF6B",
"*. c #D9E871",
"=. c #E7E567",
"-. c #E5EC78",
";. c #EAF47C",
":. c #184285",
">. c #294B84",
",. c #2A5588",
"<. c #375A86",
"1. c #335B8C",
"2. c #2A5A96",
"3. c #355C96",
"4. c #39658A",
"5. c #386D8B",
"6. c #2B6499",
"7. c #3C6393",
"8. c #35639B",
"9. c #396998",
"0. c #3A719A",
"q. c #3D729C",
"w. c #2F5CA2",
"e. c #2C64A5",
"r. c #386AA7",
"t. c #3B74A7",
"y. c #3771B2",
"u. c #405E8A",
"i. c #456889",
"p. c #546D8C",
"a. c #49768B",
"s. c #577688",
"d. c #456A97",
"f. c #4C7394",
"g. c #44749C",
"h. c #497798",
"j. c #577997",
"k. c #537A9C",
"l. c #667987",
"z. c #767E84",
"x. c #657C96",
"c. c #456DA6",
"v. c #447BA3",
"b. c #4B7CA3",
"n. c #4777A8",
"m. c #547BA6",
"M. c #4679B4",
"N. c #537DB8",
"B. c #617FA4",
"V. c #4C7CC0",
"C. c #5C8689",
"Z. c #4B839B",
"A. c #54839B",
"S. c #588698",
"D. c #67878C",
"F. c #75878A",
"G. c #76958A",
"H. c #63839C",
"J. c #688998",
"K. c #748B98",
"L. c #6A9499",
"P. c #779799",
"I. c #79A599",
"U. c #4C82A9",
"Y. c #5483A4",
"T. c #5483AB",
"R. c #5888A8",
"E. c #5C8BAB",
"W. c #5A92A7",
"Q. c #4A84B3",
"!. c #588AB5",
"~. c #5B93B7",
"^. c #648CA3",
"/. c #6889A6",
"(. c #638CAC",
"). c #728DA5",
"_. c #6995A6",
"`. c #6493AB",
"'. c #6B92AB",
"]. c #7797A4",
"[. c #7394AD",
"{. c #739AAC",
"}. c #7B9AAC",
"|. c #668CB3",
" X c #6996B7",
".X c #739AB4",
"XX c #7B9CB3",
"oX c #7699B9",
"OX c #79A3A8",
"+X c #77B1AF",
"@X c #7AA4B9",
"#X c #548DC3",
"$X c #6C9AC3",
"%X c #789FC3",
"&X c #5DA1C0",
"*X c #6DA0C8",
"=X c #7AA4C5",
"-X c #8F9990",
";X c #869A99",
":X c #92AB8B",
">X c #88A499",
",X c #98AA99",
"<X c #99B699",
"1X c #A6B989",
"2X c #B1B88E",
"3X c #A7B999",
"4X c #B4BC9D",
"5X c #849CA6",
"6X c #869DB1",
"7X c #89A7A7",
"8X c #84A2AC",
"9X c #96AAA8",
"0X c #89B2AE",
"qX c #98B5A6",
"wX c #87A6B6",
"eX c #92AAB7",
"rX c #99B3B7",
"tX c #A6BAA8",
"yX c #AEB8AD",
"uX c #A5B9B8",
"iX c #9CC598",
"pX c #B1CE8E",
"aX c #A8C499",
"sX c #B9C499",
"dX c #B7E19B",
"fX c #96C6AD",
"gX c #ABC4A8",
"hX c #B9C7A7",
"jX c #ACCEB2",
"kX c #B8C6B6",
"lX c #C8D490",
"zX c #E6D98B",
"xX c #CBE788",
"cX c #EBF18A",
"vX c #C6D6A7",
"bX c #CBD0AE",
"nX c #C9D5B5",
"mX c #D9E5AD",
"MX c #ECEDAF",
"NX c #E6E8BA",
"BX c #86AAC5",
"VX c #94ADC5",
"CX c #8BB2C9",
"ZX c #98B5C6",
"AX c #8FB5D5",
"SX c #AABCC6",
"DX c #ABC2C8",
"FX c #B9CAC6",
"GX c #B3C8D7",
"HX c #D7DAC8",
"JX c #CED7D1",
"KX c #DEE6D8",
"LX c #E5E7C5",
"PX c #ECEED3",
"IX c #EAEDE5",
/* pixels */
"j.k.p.s.m.L.].D.x././.j.x.wXuXjXDXgXrXCXwXhXsXpXuX|.|.^.(.}.[./.N.N.N.|.$XBXXXwXP.8X8Xj./.XX(.(.'.R.|.x.s.H.).J.K.J.wX^.j.j.J.].",
"2.8._ b 3.1.u.i.c.M.<.A 3.|.VXuX,XrX}.@X^.1X#.@.,XT.b.c.m.i.<.3.3.d.d.3.m.0XtX3X3XqXK.^.d.q.i.u.,.x.k.7.V 7.h.i.K s.J.!.(.`.@X+X",
"d.6.T q 3.3.3.7.8.d.d.7.w.m.m.c./.XX|.c.`.tX@.2X9Xj.8.#X#XM.r.i.3.8.3.w.T.fX$.&.$.@.<X>Xm.d.m.d.<.k.7.<.C n.n.j.H _ D.E.+XjXjXlX",
"7.d.t w F u.3.u.w.r.M.m.M.Q.!.!.w.,.1.w.w.j.j.k.i.8.r.n.8.d.M.N.8.p.3./.CXfXpX&.#.$.:X:Xn.g.b.1.1.<.V D D Q.c.c.<.a.iXfXjXiXdXxX",
"i.1.w w ,.<.1.3.d.r.8.c.c.d.c.M.e.7.c.r.y.r.r.y.e.3.8.7.V.N.c.u.,.8.c.x.BX0XpX1X$.1X1X:XK.3.4.V 7.2.,.,.n.M.c.M.b.+XqXdXpX$.cX;.",
"f.4.0 t i.J.D.s.f.w.3.8.w.c.d.q.b.t.n.d.i.4.3.8.d.1.8.c.m.j.3.w.2.i.f.k.`.wXrXqX<X>X<X>XC.D C >./ ,.,.9.M.r.Q. X X+XgXdXpX-.cXcX",
"<._ w P -X+.O.@.4XF.3.2.8.r.t.g.c.q.7.7.f.g.d.i.H.s.i.f.x.j.p.i.f.d.d.7.j.].8XwX>X8XD.S.9.S z V G C D D e.n.#X~.fXfXpXxXxX*.-.=.",
"8.] t Y 1X2X$.lX@.+.d.8.r.c.n.t.i.l.H./.R.~.~.'.J.F.s.K.-XK.K.x.7.k.7.3.1.b.[.L..Xk.t.g.D <.,.,.1.2.,.S e.e.y.&XI.fXpXxXxXcX%...",
"d.) w [ 2X&.o.o.O.:Xg.0.t.c.7.d.p.^.R. X X X X'.}.wXwXBX6X].P.k.p.F.k.3.3.9.k.d.g.t.t.0.K 1.3.r.2.e.2.,.r.n.t.U.I.iXdXxX;.=.....",
"9./ w F.&.#.X.X.@.3Xc.t.r.t.g.c.m.N. XS.`.uXkXbXbXJXSXGXGXSXuX].wX}.wXBX(.m.7.g.g.i.K 4.G r.E.q.g.b.r.3.4.y.M.R.OXiXxXcXcXo.....",
"8.H w s.O.O.&.pX@.7X9.r.g.T.Y.E.E. X`. XrXjXvX2X4XyXSXDXSXJXGX'..XwXVXBXCXXX X9.C 4.4.4.n.f.7X>X8XeX(.t.y.t.n.E.0XdXcX-.-.......",
"7./ t f.H.9X-XqX].b.y.r.Q.E.(.`. X].].9XhX4X,X-X9X;X;X,X-X9XeX6X8XXX_.@XXXSXSX!.4.D C _ S.OX1X:X7X>X7XR.t.y.r.W.+XdXxX-.cXo.....",
"4.G w 1.r.r.0.t.c.8.m.Y. X X^.5XXX@X].;X4XhXOX`.'.}.7XtX9X5XZXeX^.|.'.T.[.wXSX$X^.i.S D S.1XsXhXhX3X>XOXt.t.y.U.fXpXdX-.;.=... .",
",.H q G y.m.J.T./.'.%X X*X[.9XOX].-X9XqXkXgX{.R.(.'.].].E.'.8XXXFX}.!. X|..XwXoXCX0.,.D R.3XhXlXcXbX,X_.t.6.e.y.L.I.xXpX;.;.%. .",
"2.H t E .X~.'.=XAX=X|.[.9XqXBXXXXX>XuXDXrX{.S.T.!.b.j.f.n.k.XXE.CXDX!.g.g.k.ZXwX%XS.3.D Y.1X4XvXzXkXyX7X!.0.r.0._.S.iXdXxX-.-.#.",
"H.^.R t ].wX[.|.oX=X=XZXtXqXoX=X5XeXSXJ._ ( 4.v.A.R.!.~.M.(.Y.).h.eXBX|.h.q.i.eX[./.t.6.6.G.:X:XyXFXqXOXY.t.q.2.A.S.C.I.xX*.*.-.",
"=X~.) q ! rXDXCX.X5XuXuX8X X XoXAXwXK A A 4.Y.R./.j.f.R.@XQ.(.d.Y.8XeXrX[..Xg.7.5X(.0.8.0.R.P.>X7XDXwXOXR.!.M.e.f.G.D.L.aX&.xX&.",
"{.$XQ q i 5X{.}.wX7XeXeX|.wX7XrX^.<.A N j.'. X`.tXyX6X XU.~. XE.!.s..X9Xk.eX|.4.q.k.e.4.y.t.Y.~..XR.~.E.T.(.M.2.4.A.t.a.jXpXdXlX",
"CX9XY q q F..X}.wX}.VX|.(.3X1X<XOX` Z s. X6X{.}.OX7X.X XT.!.$X XE.b.{.@XE.5X.Xj.,.1.9.t.t.0.q.n.Q.n.|.*X~.Q.t.6.6.s.A.S.1X:X>XfX",
"@XE w 6 q l.=X8X].}.[.@XP.<XzXvX3Xi.F R.OXK.wX8XXXrXFXwX X#X~.CXE.R.(.=XBXuXwX%Xd.d.C M.q.8.g.t.y.M.Q.U.b.j.t.c.7.9.S.k.h.C.S.W.",
" XP q q q ] wX8XoXGX.Xf.>X1XzXlX:Xg.f.R.[./.wX].wXXXJXVXR.[.E.$X$X[. XCX=XwXZXBXY.<.z Q.h.9.0.v.q.t.n.E.T.7.>.7.k.t.e.t.t.Z.R.E.",
"'.s w r q { VXVXVX).A f.s.fX2X:XP.v.g.b.j.(.XX5XXXY.8XZX{.L.{.!.Q.[.oX}.}.eXBXCXf.7.C U.g.5.4.b.b.h.U.A.f._ 4.,.9.9.8.4.8.n.Q.M.",
".Xs w r q { @XY.A.~ A 4.b.L.8XP.v.0./.8X/.!..X/.T.'.H.{.wXS.T.!.%X=XZXAXBXwXVX%Xk.!.b.Q.Y.Y.f.k.b.g.g.b.h.i.7.5.t.0.v.t.b.y.v.0.",
"K.p q 6 q ] q.D d.S j C 3.b.4.g.4.b.oXoXuX$X~.'.A.E.1.{.R.A.v.XXwXT.`.VXCX=X/.1.n._.U.Y.l.[ [ { l.f.a.q.f.5.f.g.Z.v.t.r.v.0.0.0.",
"U w q 6 q ^ a.k.s.F j A _ G C 4.g.b.XXXXZXBX.X}.P.E.5.S._.E.`.q.R.6X@XXX=X[.B.g.[.@XP.rXyXrX,X9XJ.j.J.Z.U.0.g.A.Q.g.0.g.v.Q.v.t.",
"q q 8 6 q m K i.i.m / C C 4.g.r.8.M.E.VXZXAX XeX5X5XR.K T.v.^.{.=XoX.XXX6X}.(.wX X_.7XGXSX7XuXrXkXeXS.L.g.5.4.6.Z.E.U.n.v.b.Q.v.",
"8 8 0 6 ; r R i.4.i.<.4.z F 9.6.t.T.U.BX|.@XT.eXk.7X7Xa.h.v.4.S..XT.m.k.f.g.g.L.;X,X7XwXrX'.^.).'.eXeX'.!.t.,.5.c.b.T.T.g.v.Q.E.",
", 2 0 5 6 e t F Z 4.8.4.<.q.q.9.n.!.n.=XwXBXwXk.5XeX9XwX^.'.f.F _ H.f.j.K.].;X>X0XOXS.A.k.f.H.f.i.J.wX/.A.S.4.a.q.!.Q.v.U.@XCXDX",
", 8 1 : ; 5 t 4.m 0.g.b.v.n.R.XXVX{.E. XoX|.BXwX].[.eX7X_. XE.^.J.D.^.S.K.;X].OX'.wX(.R.^.U.F.i.4.R.XXE.Z.g.5.5.4.f.b.].4XsXyXFX",
"8 , , , ; ; w a.i.R.T.T.^.W.uXtXuXFXFX@X@X(.|. XXXXX}.`.'. X_.OX9X9X].5X^._.^.v.T.E.T..X_. X^.K.j.].K.oXq.6.K 6.g.j.;XvXvXvXvXlX",
"w , 5 , ; - 0 ` Z j.Z.J.rXkXKXnXHXJXJXFXDX@XT.!.m.|.wXBX~.`.OX_.wXuX7X}._.R.T.m.v.T.XX9XrX~.n.j.8XwXx.|.5.,.D 8.h.].vXvXnXmXhXhX",
"0 - - 1 8 , 3 A a.g.d.5XkXHXmXPXPXPXKXJXIXwX!.U.7.i.`.8XCX^.`.0X0XL.g.m.b.'.@Xg.g.oX.XZX}.T.Q.j.BXeX{ '.t.,.D 5.tXhXhXqXvXgXkXnX",
"2 = - , ; - 2 4.Y.^.^.>XkXnXmXPXNXmXNXLXIXJXT.t.n.i.f.[..X5.i.i.h.q.b.H.^.k.`.A.q.`.{.oX`.T.~.!.`.H.{ [.7.S 4.:X3XmXnX3X3XhX,XyX",
"1 = $ 1 - % 1 7.v.b.}.9XHXNXmXMXcXMXMXLXLXHX5Xi.d.i.p.[.BXwXY.T.q.v.Y.R.5.K a.Z.a.S._..XVX[.}.}.).F.z.j.,.V L.vXvXbXvXaXtX<X>XP.",
"2 ; $ 8 - % , G T.f.H.9XbXPXmXMX=.%.MXLXnX9XuXH.d.f.p.f.8XoXR.Y.U.Q.R.S.5.5.S.W.f.A.{.OX).wXeX[.5X;XF.p.H ;XhXhXsXmXvXhXhX<XD.C.",
"1 ; $ # $ % 8 / 4._ s.;XJXNXNXLXMXcXMXLXNXuX7XS.(..X}.S.Y.Y.U.`.T.U.Z.Z.A.a.a.5.S.L.OX7X^.k.k.j.j.J.J.A.,XhXvXvX<XsXhX<XP.L.D.s.",
"1 , $ $ ; - 2 ~ 4.K / l.nXLXLXmXPXKXLXPXPXuXrX).[.(.7XA.^.R.!.{.`.Z.a.Z.'.P.P.Z.^.>X<XqXkXkX9X7X9X7X7XhXtXgX<XaXgX<XiX| >XD.G.Q ",
": 3 $ @ ; ; ; R a.i.s.j.yXbXLXPXPXIXPXPXHXSXeXS.H.K.}.Y.W.E.].{.^.A.h.OXqXaXiXtX<X<XgXnXHXLXmXnXvXhXgXbXtX<XhXaX:X>XF.:X7XP.e j ",
", 3 1 # ; 5 ; t ) M _ ~ 5XkXKXJXIXIXFXFX9X5XJ.P.}.8XuXqXyXhXhX3X_.^.tXsXpXsXnXnXqX0XqXyXgXgX7X0X7XqX7X<X>X>XI.>Xa.D.>XG.>X-X4 g ",
"= : * @ = 5 ; , M M s.l f.qXyXDXHXDXSX6XP.$.$.4X3XtXyX,X:X1X1XsX<XqXgXhXjX3XgXkXgXgXtXqXqX0XeX7XqX;XP.L.P.L.S.L.P.-X+.Y j 5 7 7 ",
"; $ 1 % = $ 2 2 b M A l p.m.H.K.K.P.+.@.pXlX2X3XsX>XtXbX4X:X<X1XhX3X3X3XP.a.D.7X7XqX7XrXtX9XeX9XyXL.P.J.;XD.z.A M r j g 7 7 7 e ",
"; $ 2 @ @ + : 2 q v l 0 l.D.;X,XtXsXvXvXhX4X3X3X1X,X,XP.K.;X,XaXtXtX>X;Xs.s.S.S.J.] ) ~ ^ T R -XH.i./ H G M j h g 9 4 7 4 j S i.",
"@ O @ @ % @ 1 2 $ r 5 1 E ,X7X9X9XqX7XtX,XP.K.;XP.J.J.H.>XqXqXS.R.j.L.] qXJ.s.C z V / / l k z j j / i./ m 9 9 g e e 4 e z <.1.4.",
"$ O @ # * 2 = 2 + r 4 : 3 [ ;X>X9X9X,X}.H.d.f.A.L.s.F.F.L.L.^.A.A.S.L.( A c C Z V F H / Z z k j e g m l l e b z Z S x S 1.,.4.i.",
"$ = O @ , 1 = : + r 5 * 2 1 } -X>X>XP.S.a.j.k.A.A._.5Xj.p.j.S.P.J.J.` ~ S <.G S G F C Z Z z e e 7 h S Z V c S 1.,.>.:.<.,.2.7.<.",
"@ @ @ X : 1 , 1 # r e - 2 : - ^ H F a.j.k.f.s.A Z Z G J.P.J.D.f.a.Z V ~ G F F / / ~ ~ x V m j z >.>.>.>.<.<.<.1.,.,.>.D G i.d.d.",
"= - @ @ 3 : 1 , # 8 T $ 3 , 0 9 R / 4.i.i.A x c z z g j s.D./ Z V G i.` H <./ F V ~ Z S Z m V u.<.>.<.1.1.H A >.S :.C V / i.d.i.",
"% X   O 3 X % # # # 9 8 * # - 1 w N F C x :.B S V V z z V Z V G 1.i.1.` <.1.1.F Z ~ T l ~ <.3.2.G ] s.G G / ^ k A A M j ) K.] _ ",
"@ 1 . @ : + O # # . + : : @ # - , 3 h S x h c c m C C A u.F S A D <.<.p.A ~ G A m z V <.<.<.G V v N A _ b _ ( ( R ( ( N T ] ( n ",
"@ = # # + @   @ + X + X 2 @ , # - : 9 t l l l j h z _ ] J A b b F H G ] k V V C F <.G / C V ^ b r r i i q q 6 6 j i b n r [ N n ",
"# @ = =   & @ # :   + @ % # - @ @ 8 , e j r e 7 l r M ' C.' s.( N K K l.R D.C.a.a.A ] _ ~ ( J A N N R W W [ E U Y T N U U T [ ! ",
"2 # # . * O 3 $ % + 1 @ @ # # # $ = , k M j j w b R P v N n v A K J A K.( C.a.J L J J J A j r v j N ' ' ] G ) F.[ z c V R R { A ",
"> @ @ . : + . * * @ , + @ @ % # % # 9 t l j 9 l J J ( / ) P b R n N b ^ R D.C N ' A Z M M M b w 9 7 7 r e v A i.z m N N n ( C.( ",
"% X X > 1 = + : 1 3 3 + # @ @ @ : @ 1 r e 9 l A K ` ) / ~ v v T R m P t t M j v V K G A A A A A v e 5 5 e 7 r r j N N N n m ) ` ",
"X @ % 1 3 @ @ . : 0 & & X : @ @ = @ 1 w # U b j m k j t s [ -XI R ^ T [ e b j e r _ / A A Z A j e d b t z j j m v m M N R v M ( ",
"+ O $ . : - X . & . # X , 1 # # # X 2 & * P P y u u 9 t 9 Q U I s ^ ] ) e e ~ ^ j M r t 6 5 r r j s b M e e 7 7 7 7 r A Q Q b e ",
"X       , # . $ &   O 1 = . , : X X 1 % % b t * 0 w e s w Q s P s w { j 9 b Z / t e 7 9 8 a 9 j l l ] ) ~ M $ % 4 5 5 v N N e 4 ",
"X . O = 2 + . = &   + > @ O : % : * * % $ 8 9 e e r e w f [ p 9 s U { M e R e e + % 5 8 s d l b z e w b P l a w w 0 w 7 8 r $ 4 ",
". # # = @ + % + X 2 * : : # , % * @ = - $ % , q 6 7 5 $ 6 q r q q e ) l l t q p q 4 4 9 4 e 5 $ o % b ~ W N a P I Y t 5 , % l Z ",
"@ @ # @ . . w @ . # = > = X @ : & @ q ; + + @ 0 r r q q i i r b b b b 0 s P P P 4 9 $ 9 $ 9 # w r t v n b 9 8 ~ ` ^ l U r T R t ",
"% , @ @ @ . . + X @ # 1 1 % X 0 1 X 6 ; @ @ @ ; # 2 8 q 9 e w ! [ ! s w y t t w e e 9 i q 9 % j j r v n v v r U +.[ t b 5 R W q ",
": , : @ @ # @ * X + # = ; # @ 1 : * 1 1 $ = ; - @ 1 s w p 8 P ~ N M p 9 u y f y t t 0 9 0 0 1 4 h v v 9 r V v g r b 9 4 4 t a 5 ",
"# % - X 2 - # X + @ - : ; @ O * X @ @ * 1 - = $ = & 2 t s p t w w r t s a s f y a I I U P s 9 y 5 e 9 9 r v j g g r ^ R R N T r ",
"w , 8 , w 5 8 , - 8 q 2 2 , % , 3 - 8 8 - 0 w 1 8 2 P Q R U U U U P Y s s 9 w s Y s I E s s Y [ ! E E b 9 r k l e j R M M ~ R t "
};
