/* XPM */
static char *c46110329a1c478ff5cf89a74fdf170atv0uXMzqcB2njGEC[] = {
/* columns rows colors chars-per-pixel */
"64 64 85 1 ",
"  c #7D7D7D",
". c #7F7F80",
"X c #838383",
"o c #888887",
"O c #8C8C8C",
"+ c #939494",
"@ c #969897",
"# c #979798",
"$ c #989798",
"% c #969898",
"& c #9B9B9C",
"* c #9EA09F",
"= c #9E9FA0",
"- c #A4A4A4",
"; c #A6A7A9",
": c #A7A9A9",
"> c #ACACAC",
", c #AEB0AF",
"< c #AEAFB0",
"1 c #AFB0B0",
"2 c #B4B4B4",
"3 c #B8B7B7",
"4 c #B7B8B7",
"5 c #B6B7B8",
"6 c #B7B8B9",
"7 c #BBBBBC",
"8 c #BFC0BF",
"9 c #C0C0BF",
"0 c #BEBFC0",
"q c #C0BFC0",
"w c #BFC0C1",
"e c #C3C4C4",
"r c #C6C8C7",
"t c #C8C8C7",
"y c #C5C6C9",
"u c #C7C8CA",
"i c #CBCCCC",
"p c #CFD0CF",
"a c #D0D0CF",
"s c #CECED1",
"d c #CFD0D1",
"f c #D3D3D4",
"g c #D6D8D7",
"h c #D5D6D9",
"j c #D7D8DA",
"k c #DBDBDC",
"l c #DEE0DF",
"z c #DDDEE0",
"x c #DDDEE2",
"c c #DEDFE4",
"v c #DFE0E0",
"b c #DFE0E5",
"n c #E1E1E0",
"m c #E2E3E4",
"M c #E2E3E6",
"N c #E3E4E7",
"B c #E5E6E6",
"V c #E2E3E8",
"C c #E3E4E9",
"Z c #E5E6E8",
"A c #E5E7EC",
"S c #E6E8EA",
"D c #E7E8ED",
"F c gray91",
"G c #E8E9EB",
"H c #E8E9EC",
"J c #EAEBED",
"K c #EBECEF",
"L c #EDEDEF",
"P c #EAEBF0",
"I c #ECEDF2",
"U c #EDEEF3",
"Y c #EEEFF4",
"T c #EFF1F3",
"R c #EFF3F5",
"E c #F0F2F5",
"W c #F2F3F6",
"Q c #F2F3F9",
"! c #F3F4F8",
"~ c #F3F5F9",
"^ c #F6F7FB",
"/ c #F4F7FC",
"( c #F5F7FC",
") c #F6F8FC",
"_ c #F8FAFC",
/* pixels */
"nknE))h7>3efgnZUYZZVZBMZni:rfhgkggkvjkNBrikMHffhfr5etr55rihah>23",
"tvK^(Reh:7rhzZUUAHCMNjzzk03fhhgkkkvnkzHM5rBKN0ihi5eatrt2rfgii5>3",
"nSY^~Mii>7rgZTHcPUCZMhzzn6fhhgkkkzcMMHU75zLk0tfai7tieti7ehkete:3",
"GMQ)Ria727rvUGkVRUMZkkMMz7khgkkkzzbZPYi>tHg3iifiarifttitehM1ir:7",
"hH(^H5g357iSKkkAEPzDhZZZeskgkzzzMZZPUye>hk5tfhfhtiffitafifz-ee2r",
"zE^^ueG73ehUkgnHQPbZkMzf7hkkMcCZHHHZei:ikirfhhhftitiftihkk0$2253",
"M~)Eigkr7ekSkzMU~UMhjdufizZHUHAZzkzufe3kyiihhhgrffffhiinMs--532>",
"M^RkhfgieeMHkzZY~DueksMcjKHzfhkgfs67i2t0ffafffifgihihhgzre7>3315",
"Z^NMkfghttMHkkHR(hszZMZZkiiishhrwezhi>fkkihggnh73egffkgfhze2e3re",
"ZEZZhhhgtiMBjCRENefhfkkkitipfhffkZZh5rt7etifgkh57thaihgkgh7e55f:",
"ZTTftitiidZnHYHfidMHTEghftfhgkvNZHZ>&53iihhfaiit3ifreifhffh7&7e;",
"SEBstifhhjVHUVcHhnUREZfihifgkvCHUB;@5thhfhggkhfg3tithzhis22>>727",
"EEkfrfzKYREEUZRZeHEEUgithfhknGUEk@&rtitfifnkkfhkfrtrfg<33e7522ir",
"TkMkinR~~~ERMTn6hUTEgrrtfhkNKEEs+&rhttiiiknkghfghe7tfnethtr:&3re",
"HkKvhNUUR~~EMt55NETNeetfgkBU~Te+&efgfiifgzvBffhhht3igf7th37>3err",
"MSKGkvHE~)^g655rUEKt7tfgknK^T7+&7fgkketigMnvtirtet7rfifrir>377rf",
"ZGHUBMGE^(K6537kEEk7eignZL~E2O&2ijkvkerthgkfertg3>337qtri337eeei",
"SHGHLvNE~~Ue9rhU~Ht0tgBKTE~>O&>rgkkzkteihkkirtk3237r7ett35r2533r",
"HHGGHzvH~~Zeetn^EzergLTERH-O@:rhkkgznietzvzsik5>2:7reefirth57rii",
"HKKLShkZE_fr7tN(TirfTEEz2OO&:efgnghkni7dUgvkfn53ihiiitireri77tre",
"R^^(BdkvTE7tefK^nujS(b5+O@&2rifgNggkvf7zUfMzfk3r75r7337ffte23te7",
"^^Q_kfNSEg3itkREfkSB7&+@&;3fgffkvghkMfrHCfBvit--5ff77rr757;-::>5",
"_~H(fvGEE73fhZ~zZMi&@&&:5thznffgkkhkCffGkgGge:-efff7ettree:er777",
"EkKKkLUTk5ehgzjkf2&&&-5tfkMnnfihkkhkSttBMvh553rfiht73eitttifr6er",
"tfvfiiti57tgznn7-&&-:8gkkZBgiiifkvfnkritihrireehff3>7rttgkhh35tt",
"2e5qe7etikKLEf:&&;>3evMNkZh7riifkjfvr7rfkZf3:3rf2;>9tfrkhedr>eit",
"itre7etffgjni-*->3eiNzjtnk37tiihhtge9edkLZe2rir5:>7riereikj53tff",
"etfhkvhknhgn4;;27tsZMr7hkgweihfhekrtthkBHk525tr;;5tifetjjk7eshgk",
"rknSUvBSHGLn:20eikGM05igkve7fhhtrkeihknMni>3ih2-17tifrtkzitfghfi",
"kBBBBNNnGGB757rukSN33ehkBMe7fhteztsgkvzvSe5thr-;3eiffegkg73rf2>:",
"nnnnfgnGGv2>eeehKkf3etkNGMr3frtjfgzMNgkMM73it5-2etiiitlh823af2>i",
"gnkgrhhgBgweiikEHig77inSGvr5ihSnzhhdizZGBertt;>ehfhhhhhe337fir72",
"kkhtrhhfkgefnHLE3eh>2fBSHke3kGkjhhhhkZvh7>532:ehgfhhftt577efdde&",
"knieihgvBNjnGLB72k3>ekZHHg7tZghfffhfzBfi52232rhgt7eee733erikkfk>",
"vnfgkklSBLGlk7&;i527hnSHDf7kuhhhhhhjzkte3tgi9it33ee75reeikZZvvu-",
"nkknnnBSSTL>@O-tr7rhnBZHZeh3rhijhknnghhfggherreeeee7tgeihNDNz2:2",
"nnkknGLUTTB-+-7frrfnZSGGk8r3rfgkgllnnhtriii9rtahhfiifhufkZDM5@33",
"knBklLTLTTZ-&3rfttkSHSHL3r3erfhr37ee537errrefhhhgrtihjfkMZcy+:>-",
"gnGHLGkHTg-@>7ihifMHHLg;5trrriht777255>5err73etftthgghdvNf2>o:&:",
"gnLLlgTEg;&:rihhfkUEL0&>iie5eiht525237e7reertfhieereedbz7-7+#;::",
"gBLkvUEv>&:rfhgnNTEB2-3ihf2rnri7>er7353efrrttgi357eeiBv<=2eO->25",
"gGnkLEM2->7fvkkZGEZ2;>hfktrMs70rfittiitrertit72530tizM7&;s>O>233",
"ZkMLEM5-;rrkBgkGKGe::tnfssMS77tifitiiitiiiitr53ruifkZ7#&3d-+2233",
"hZTEB<&&rtkNShkZZi>;7gnfzZMi5etiiitiiitiiffre7ttifzS0@+-uu+;3455",
"kEGe-&&efkBBBhkBz2;>fkvjke77erttiiirrrtiidfe7ryidkSe#O$3f6+>5333",
"St-&&-tkBGkknhkBr;;rjnnzhetterttttiuuuttidfrwytshZe+O+:if=&>5533",
";&&&>fvvhfiitfkk;;ehknvi7tffitttiiiitipffffewihzZr@OO&7dr#>3733e",
"@&->thatrttii9e5:7gzMBg255:53erttrrttuuyeerijzMSr+OO@1rp2*557773",
"@&:7itffaiiffft7eighhh3265>5>->53wtdpfsyuifhjzNe+XX+;8it&:533555",
"$:3rittfffittffhtere2:-2rte8155::>52373wyfjzMZ6OXXO-5yi7+>555253",
";57riiiiiffittrtr5t--;>:>2ii7errr735337ijzbZZ<OXXO&2eyy2+>552253",
">37tiffffhififii7r5>:552eteesfggfseueydkzCZM<OXXO&:3333:+>2522ei",
"27tfhiiihf7eifit2e>:>3rtti70ysjfte7tudkMZCv2OX O+-:>225:@>226eff",
"5etiitafhf7rffgt5r35>ruifdtyydrweerufzMMMz2OX.XO&;:>255:&27ryuii",
"5e7rtifhjf8ir3e37re-5fhfisssfy;15eetkMVCM2O .X+&;:>2222:-3iiise2",
"3rrttetfgf<52eirii-:tgghie7dki->>2wsMMbj>X XO@-:>255522>;ri6767e",
"5ertttiffe;>3fgtr&-375226wwheu&:176yjhy@  X+;>25777777767t0si71:",
"5erttiffh;;7fji3>&3r273227e60e@:57euy6O  XO;;:>357eyyyths0<+X+&:",
"77rttifjr&2sfde9@:7r5wyree77ii+>266;+XXXO+-;;:>>7eyutdf>O X%;,2>",
"e3rffhkk:;5eii5@@2rr7tiirryfz2&537>*--&-;;>>>266:-:>;=X X@;>22>>",
"e3iiefie;>efs7+@&578were7escf;>37rw6<:253>533337:>:-=&@&:>>2222:",
"33irete72eusfO@&>377wey07yhz&++-533707e73:236637>22222:<52>2552>",
"37i77rw27etkdO-23ee70wr03yji&=--&;:1<5:;;;536630122222>55>>53735",
"3et5riidsrif>O;253370eye4yhw;;:>:;;-23:>>27000e7222222>22:>37e75"
};
