/* XPM */
static char *_b2dda0d6a4f4f3f903852fbf3945826Y2EzKUXtERKBt14c[] = {
/* columns rows colors chars-per-pixel */
"64 64 156 2 ",
"   c #271910",
".  c #2A1E15",
"X  c #2C2017",
"o  c #2E231B",
"O  c #31261E",
"+  c #312720",
"@  c #352B24",
"#  c #382E27",
"$  c #362E2A",
"%  c #392F28",
"&  c #36302F",
"*  c #3B332D",
"=  c #3B2F33",
"-  c #3E3631",
";  c #3F3834",
":  c #3E3738",
">  c #3F3B3E",
",  c #403633",
"<  c #423A35",
"1  c #443D3B",
"2  c #483E3C",
"3  c #46413D",
"4  c #49423E",
"5  c #443E40",
"6  c #464242",
"7  c #4A4543",
"8  c #4D4946",
"9  c #47444A",
"0  c #4B4648",
"q  c #4D4B4C",
"w  c #504A46",
"e  c #524D4C",
"r  c #54504F",
"t  c #59524F",
"y  c #4E4E51",
"u  c #514E50",
"i  c #4F5152",
"p  c #545353",
"a  c #595655",
"s  c #5B5857",
"d  c #555659",
"f  c #595759",
"g  c #57595B",
"h  c #5C5B5C",
"j  c #615E5E",
"k  c #63605F",
"l  c #575D60",
"z  c #5E5F60",
"x  c #5D5E60",
"c  c #615E60",
"v  c #615F60",
"b  c #625F60",
"n  c #615F60",
"m  c #5E6061",
"M  c #5F6061",
"N  c #5E6062",
"B  c #5F6062",
"V  c #5F6163",
"C  c #5E6164",
"Z  c #5F6264",
"A  c #5E6163",
"S  c #606060",
"D  c #606061",
"F  c #616061",
"G  c #626060",
"H  c #626161",
"J  c #636161",
"K  c #606062",
"L  c #616062",
"P  c #606162",
"I  c #616162",
"U  c #606163",
"Y  c #626162",
"T  c #606263",
"R  c #616263",
"E  c #626263",
"W  c #636263",
"Q  c #666161",
"!  c #666261",
"~  c #646263",
"^  c #606264",
"/  c #616264",
"(  c #626365",
")  c #616366",
"_  c #626366",
"`  c #616467",
"'  c #626466",
"]  c #626567",
"[  c #656465",
"{  c #666565",
"}  c #656566",
"|  c #646567",
" . c #646667",
".. c #676767",
"X. c #636364",
"o. c #6A6362",
"O. c #686665",
"+. c #6B6666",
"@. c #6C6665",
"#. c #686666",
"$. c #6B6867",
"%. c #616568",
"&. c #626568",
"*. c #636568",
"=. c #636668",
"-. c #62666A",
";. c #656568",
":. c #646669",
">. c #666769",
",. c #676769",
"<. c #646669",
"1. c #696768",
"2. c #686769",
"3. c #686768",
"4. c #65686A",
"5. c #65686B",
"6. c #65696D",
"7. c #666A6E",
"8. c #66696B",
"9. c #696868",
"0. c #686869",
"q. c #696869",
"w. c #6A6969",
"e. c #6B6868",
"r. c #68696B",
"t. c #6B696A",
"y. c #6A6A6B",
"u. c #6B6A6A",
"i. c #6C6968",
"p. c #6C696A",
"a. c #6D6A6B",
"s. c #6E6B6A",
"d. c #6F6C6B",
"f. c #686A6C",
"g. c #6A6B6C",
"h. c #6B6B6C",
"j. c #6B6A6C",
"k. c #6C6B6C",
"l. c #6B6C6E",
"z. c #6C6C6D",
"x. c #6E6D6D",
"c. c #6D6D6F",
"v. c #6A6A6B",
"b. c #726F6E",
"n. c #716F6E",
"m. c #666C71",
"M. c #6D6E71",
"N. c #6F6F70",
"B. c #6B6E71",
"V. c #706F70",
"C. c #6C7074",
"Z. c #6E7479",
"A. c #747170",
"S. c #727274",
"D. c #717679",
"F. c #777D81",
/* pixels */
"h 0.k.s 6 h h h g h h 6 0 6 7 0 0 q q 8 q q 6 4 r p p p p 7 o.A.c.M.c.n.O.a ..h W h z h h h d e < 6 z p a / ..e e c.8.8.m.8.,...",
"W ..c.M.p h h h h g h p p p i 6 0 q q i q q 7 p d e r p p e @.s.s.c.s.$.s.W h h W W C h h h h V 8 p ..h h W W j 2.8.8.8.&.&.] / ",
"~ 0.l.0.y h h a a d d p i p 0 6 q i i q q e 8 p g d p p p 8 j d.s.c.s.c.0.h z z W W V h h h z z d h / W b W / z &.&.] ] &.&.] / ",
"b 0.g.g.p h h a f h h y y y q p p i i p i p q q g d d d a 8 j s...0.0.g.,.h z h V W W h h h h x h h W h W W W h W W W W / &.&.] ",
"b 0.0.0.p g g f h h h u i p p i i i i i i p q q p p d h d u ~ O.0.g.0.c.,.h V V V W V V h d h h h z W h h j j h j W j j V C &.,.",
"b 0.0.2.e g d d d g d 8 y p d i i i i i i i 0 q d p p d d 7 ~ 0.g.g.g.M...d z V / W V V z V h V h h z W W j j a W W j j z h &.&.",
"h 0.0.,.p d p d d d d y y i p i y y y y q q 0 p d r p e p 1 s s.0.0.0.M...d h h W W / C C / / W p h h ] W j j h b j h h V &.&.,.",
"W X.0.g.q d d d d d d q y y i y y y y y q q 0 p p p e q e 1 a c.0.0.0.c.X.p j h h W &.&./ z / h 8 h h z h j W p W h a h W ] &.,.",
"0.0.0.a 7 h h h f h h p u y i y q q q q y p q 8 p p q q q 6 a g...0.2...e 7 h h h h V &.V d h f 7 e h h W W r , p h h j h W C ,.",
"8 a h h h V V V z z W / z z z V a d h h h h h h h d d p d a d d h h h a f a e a h h z V h h h W h a f h V z p 8 q e p p p u q 1 ",
"q h h h h h x h h h h h h h h h h h h h h h h d h h g d p p d d h h h h a p e p a h x h h g g p a z h h x x g h h h a h a d d 6 ",
"p h h h h h h h h h h h h d d d g g h h h h h f h h h g d d h h h h h a p a p a a h h h g g g d p h h h z z h h h h h h s h h y ",
"e h h h h a a f h h h h h g d d g d d d h h h h h V V C z h h x x g h d p a a f a a h h g g p q q h h h h z z d h h h h h h h q ",
"8 h h h h h h h h h h h h h d d g g g h h h h h h h V C x x V h g g g h a h f a a p h x h h y 7 g x x d d h p d h h h h h h h e ",
"p h h h h h p p z h h h h z h g h g g h h h h h h h x z V z z h h g d d h h a a h h h h g h h g g g g d h h h h h h h h h h h d ",
"e h h h h h h p h h h h h h h h h h h g h h h h h h h h V C V h h h d d a h h a h x x h x h h g l g h h g h h h h h h h h g d d ",
"e x h x z h z z h h h h h h h z h h h h h h h h h a f h h C V h d d h h h h h f h x x x x h h h h h g p h h f p h h h h h x h h ",
"4 h h h p h h h h h h h h h h x h h h h h h h h f d d p p d g g d d h h h h h h g h x x x h h x h h g p h h p h d d h g d x p 0 ",
"4 p a p r d d h h h h h z W W W z C V z b b b W b d h a p f h z h h h h h h h h z z V z h h z V z h h p h h h h h h h z z d e < ",
"h ../ j h h b W ..0.O...,.g.g.g.,.8.,.../ ..0.k.c.,.c.M.g.g.g.l.g.0.0.l.0...O.0.8.8.8.8.,...,.8.8.8.O.O.....2.g.8.g.g.l.8.W ] h ",
"a W W W h j W W W W ] ] ,...,.8.,.] W W V ] ../ ] ../ / / W / ] W W / ] W / ,.,.&.C ] / V z V ] ] &...X.....X.,.&./ / V V z C p ",
"h ~ j h h h h W z h h / ........,.,.] ....,.......X.~ X.~ ~ ......] ..,.,...8.8.&.C V / V h h W / / ............C &.] W V h V e ",
"j O...,.Z h h ~ X.j h W ,.........,.8.8.8.,.....~ j j W ..~ ..8.8.,.g.g.8.,.8.8.&.C h h W j j W W / ,.0.~ ~ W ,.8.8.] W V ] ,.z ",
"6 w z h h W b f j ..W b b h b z W ..h h W ~ ..p s s.~ h h W ..f f h h h h h f h / ,...h e a a 8 e W h 8 s X.~ a u p h p e p d 7 ",
"6 & @ * W D.8., a c.0.~ e h h p h j e 8 W W ] q j n.n.j p 8.0.q q d 7 , p p q = p B.8./ 1 q q 7 h 8.e < ,...0.e $ 9 y e : q p 6 ",
"y y $ 7 M.8.g.1 7 c.0.O.a h h p a a p u h h h e f 0.8...a W ~ h p d e 6 h a 0 e h ] C ,.0 q i p ] / f f O.k j a 8 q p p 0 d g q ",
"i y > h M.0.h 1 8 ~ 0.0.p a h p e p p e h h 7 8 p 8.g.g.h h ~ h 8 d e e a a e / z / m.C.g q p u W ] z W ..~ a a h y p p u d d p ",
"i i : j 8.g.e 1 q h O.O.a e h a e p p d h h q q y h ..O.j h W ~ e r 8 q d d f W h / m.C.-.q p y h &.h / ..~ a a h q i p q p d d ",
"i i 5 W W l.q 6 q u 0...W 6 a f e h d h h h 1 q p u ..0...e W W a e 8 p d d e W W f 8.C.B.q d d h ] f ,...~ e p h q q p q 8 d d ",
"p q p ../ ,.8 8 y 0 ....O.e p h f q p h h h - 0 d p ..8.0.8 W W h 7 p f h p e h W p / B.Z.h y g d h h 8.8.X.7 p h d 0 p d 6 0 d ",
"q 1 2.2...h / f 0 6 8 g.2.s p h h 6 h z h d 6 0 d 8 j 0.0.h d W W 8 q h d a V.a h a j 0.l./ y g d 7 W 8.,.b S.2.h h q p d q q p ",
"u 6 2.,.W p h p q y 6 8.l.X.e h h e h z / q q 6 p q a 0.8...p h W h p h p h ..h d h e ..g./ u g p u g.] ,...F.M.d z p p p y q p ",
"q u M.8.W a W h q y 8 g.8.g.e a h p h z z < q 0 8 p p 0.,.g.p h W h p f u h / h d h e W B.,.7 g p p g.&...b S.S.h x p y p q 7 p ",
"7 h C.,.j p W W p i 7 h 8.g.h h h e h h h < i i q d e b O.g.e 8 X.p d h q h / h q z f W B.l.f d p h 8...b / S.S.,.g d 8 p p 6 p ",
"q W ..0.a 6 / W a p q e 0.0.b p d 8 h W a 6 p i 0 p q a c.0.W 7 a p h x 6 p &.V q g p p B.B.g.y 8 W ~ ..e p M.S.g.d h q p p 7 7 ",
"1 ~ ~ ..e 2 h h p 8 0 1 ~ { h 1 6 0 h / 7 , 0 0 6 q q 8 l.l.c.2 1 h h p - 1 &.&.7 y d 7 ,.C.W < e W ~ j * , B.D.O.e d 8 8 q 7 - ",
"e O.~ j k.c...W O.~ h j ~ k s W O.X.X./ O.O.h h h j h p 8 p h h h / h f h W ,.&.h h C ,.8.,.j O.0.W j h ....l.g.O.j b ..~ h ~ h ",
"O...W ~ O.,.8...O.O.0.0...~ ..X.W / ] / W W ............b h z V z z W ..8.8.-.8.8.] ] B.g.8.,...] ..W ..8.7.B.......W W ....O.0.",
"h W W j W ..,...~ ,.8...~ { ../ W W W h h W ..W W ~ k ~ ..W / h e h j j / &.8.8.,.......,.,...X.../ ] 8.,.&.8...W W z W W W W h ",
"h W h j j ..,.0.0.0.0.$.0.0.,...W W W h X.j ....~ ~ ~ / / ] / W V W ~ W W ..8.8.g.0.0.~ ..,.W W ..&.8.,.8./ C h b W z W / W ~ b ",
"0 p p h h h h h h h W ~ ....../ W h h h h W W W ..../ W z / h r h h j W W h h W W b h h h z W W / ,.&./ / V z W h a h W / j h f ",
"7 h 2.~ a h h h W ~ j ~ ~ X.,.2...O.~ d p j p e a b b j r 8 8 e h j h j ~ f e h h h s h p a h W W ] / h h z b W j j 0.O.2.0.b 8 ",
"h ] W h p h h a W 8.....8.,...] W / ,.,.,.W e a a h h f h h W ] &.] W W / X.j ....,.,...W W ..] ,.&.&.z h h V W V z h h W / 8.p ",
"a W / h p p h d h X......./ / W z W z f a h a j b h p e k ~ W W C ] W W W W W W / ....] ] W W h / ] W f d h W W W W V W W C &.d ",
"z ] / h r p d d h ........b W V z h h a r a a h ~ ..h h ..W h h z V j j h W W W W X.~ ../ h h a h W z p p h h W W W W W h V / W ",
"h ,.] W e 8 8 p h ,.....W h b h z C V p a j a h j W ../ ~ b h j h a j s e a j b W / ] ..] h V z j W a e p j h h W ] W j h j W r ",
"h &.h h 8 7 8 e h h / / W C / h V ] h a r s a W j W W b X.z h j h h j a 7 e h j W X./ ../ h h / W z e 7 e h h h z V j j j j W e ",
"z h 8 q 7 7 7 e r f ] ,./ ] &./ W ] V h a h f W ..~ ~ ] ,./ W h z / / p 4 7 p W W W / ..h e a / z h e 7 8 h a h h h W j j j j h ",
"z p 4 7 8 7 7 8 d j ..,.] &.] C C / z h h f e p W / z / ,.&.] h h h C u 1 4 a W W ~ W W h 8 a ....h e 7 e h p h h a j W W j / p ",
"h 8 1 8 8 6 1 7 r e W ....&.h p h z h h h p 7 8 h h p / ,./ z / z d d e 1 1 a W W W W h p 8 p ,.../ r 4 e W e h p r W W h h ] q ",
"d 6 4 7 1 1 ; 6 a e j ~ W C h q h C W b W a 7 7 p h e V / W h W z e 4 7 4 < r ~ h h h h h 8 e h ..,.r 7 p V a a 8 e W h r a / e ",
"h 4 1 4 < 4 < 4 f h h j h h C p h z W ] a 7 8 0 p V r z W W W V a 7 1 4 1 , e j e d d h W d 8 p ,.z 8 4 7 h h a 6 e p e r h ] h ",
"h 7 4 6 1 6 7 8 h h h h h z g p h h h V 7 1 7 q p h r p a p h z h 7 1 1 - - 8 h 8 d h h h e 8 h ,.h 7 < - 6 h d 6 4 8 e h W ,.h ",
"d p 4 1 ; ; 8 h h h h j a h p 7 p p d h 1 - 1 8 h z p d d 7 e W h e 4 * * ; q z p f h / V e 8 h ,.h 8 < - ; p e 6 4 p z W ] &.e ",
"4 e ; * * - 7 a e e a h h b a 4 7 8 p p < * * 4 p p e e f 7 1 e h 6 < * * < 8 h p 8 e d d 8 7 e h e < * # # 7 6 4 7 f W d h p - ",
"..a * * * - 8 a e 7 e a j O.j e 8 p W p , * * 4 8 8 a a h s a k j 3 , * * - r X.h 8 p h h p e p W e < * # , 4 4 8 h b / p / h 7 ",
"h 8 $ # # - 1 7 e 8 p ..W h h q 4 8 h r - # # * 1 < d h 8 7 e h h 1 * * * $ 7 ,.h 7 q h V h d r j e < * , < 4 r W W ,.,.h 8.l.e ",
"h 7 @ # * * * 1 7 8 a 0.8.] x p 7 4 p q * + o $ < , p h r e 7 h f < * * * * 1 h h 0 7 h V h w e h w - * - * 4 p W p h h r z ..h ",
"s e # # # @ # * 1 4 8 h 8.6.Z p 3 1 0 8 * O + $ < < e e e d e j p ; * # # + * 7 p 6 ; d h a 4 4 a w ; * , * 7 p h p p h e h ..h ",
"e r # @ @ # # @ * 1 7 s ..g.8.h d e 4 7 , # * < 4 < 7 r e 8 4 e e 1 * @ O O * 7 7 7 7 X.2.j 4 2 e 7 * # * * 4 w h e 6 e e a ..a ",
"W a @ + @ - # o # 1 a O.s.S.C.S...a w p < * 1 7 w 4 a ~ a 4 4 s h 4 @ + O O , e a 7 e S.S.@.1 1 w 4 , * , , r h s w 7 e r s n.O.",
"h 8 o o + * o o # 4 e a ~ W 8.,.h 0 4 r , # ; 7 4 1 a W e < < h h * . . o # , 7 7 < 8 j k h , * 4 7 3 1 1 < 1 a a e e s a t O.X.",
"W 8 O + * o   X * w w e h h l.W p 7 4 p 1 * < 4 4 , e O.e , - a W * . . . * * 4 < * < e h a - * 4 a 8 4 8 1 4 p p e r h j t j O.",
"p 4 @ # * .   . # , 7 h h h W e p 7 ; 7 1 - 1 6 4 # 8 k 7 < # 4 p # O O + @ o < - # * a h e # * 7 a 4 1 7 < 8 p p 7 e h W t a k "
};
