/* XPM */
static char *e1c23269b51b450a8c2f7b0cbfa8e37bSyJkjtMVo0eTLvyH[] = {
/* columns rows colors chars-per-pixel */
"64 64 245 2 ",
"   c #010A5D",
".  c #09135F",
"X  c #030C65",
"o  c #040D6B",
"O  c #080E6A",
"+  c #061166",
"@  c #06116C",
"#  c #0A146C",
"$  c #0D1769",
"%  c #121C65",
"&  c #131C6C",
"*  c #131A6C",
"=  c #030E73",
"-  c #090E72",
";  c #040C7B",
":  c #061273",
">  c #0B1474",
",  c #0D1974",
"<  c #05137C",
"1  c #0B157B",
"2  c #0D197C",
"3  c #07197A",
"4  c #131C73",
"5  c #1B1D73",
"6  c #11167C",
"7  c #121B7C",
"8  c #191D7C",
"9  c #121675",
"0  c #16206C",
"q  c #19216D",
"w  c #162175",
"e  c #1B2274",
"r  c #16217C",
"t  c #1C237C",
"y  c #1E287B",
"u  c #33356B",
"i  c #363B6D",
"p  c #38386D",
"a  c #212376",
"s  c #22247C",
"d  c #242A7C",
"f  c #292C7D",
"g  c #29337C",
"h  c #353B72",
"j  c #3B3D73",
"k  c #3B3E7B",
"l  c #34397A",
"z  c #2E3266",
"x  c #403F78",
"c  c #3C4374",
"v  c #3D447B",
"b  c #3B4578",
"n  c #39416E",
"m  c #42447C",
"M  c #434A7C",
"N  c #404576",
"B  c #534E76",
"V  c #080E82",
"C  c #061483",
"Z  c #0B1583",
"A  c #0C1A83",
"S  c #05168C",
"D  c #0A158A",
"F  c #0C1A8C",
"G  c #071889",
"H  c #111682",
"J  c #121C83",
"K  c #1B1E83",
"L  c #121E8C",
"P  c #1A1E89",
"I  c #061592",
"U  c #0A1692",
"Y  c #0C1B94",
"T  c #0C1B9B",
"R  c #07189A",
"E  c #111D93",
"W  c #121D9B",
"Q  c #181F91",
"!  c #152285",
"~  c #1B2484",
"^  c #1D2983",
"/  c #16238C",
"(  c #1A248C",
")  c #1D2A8C",
"_  c #152393",
"`  c #1A2593",
"'  c #1D2A93",
"]  c #14239B",
"[  c #1B269B",
"{  c #1B299B",
"}  c #192D92",
"|  c #232583",
" . c #242B84",
".. c #2A2C84",
"X. c #21258A",
"o. c #212B8B",
"O. c #292F8D",
"+. c #263284",
"@. c #2B3485",
"#. c #2D3A86",
"$. c #26348B",
"%. c #2B358C",
"&. c #2E3A8C",
"*. c #333C85",
"=. c #323D8D",
"-. c #383A88",
";. c #222D93",
":. c #232B97",
">. c #253194",
",. c #2C3593",
"<. c #2E3B93",
"1. c #26329B",
"2. c #2B359C",
"3. c #2D3B9C",
"4. c #25389E",
"5. c #313593",
"6. c #333C94",
"7. c #323D9C",
"8. c #3B3E9B",
"9. c #32369A",
"0. c #0B1BA2",
"q. c #0C1EA8",
"w. c #111FA2",
"e. c #1524A4",
"r. c #1A2AA4",
"t. c #1B29AC",
"y. c #1826A8",
"u. c #1B2BB6",
"i. c #0F22A6",
"p. c #2433A3",
"a. c #2A34A4",
"s. c #2C3AA3",
"d. c #2D3BAC",
"f. c #2735AA",
"g. c #333DA3",
"h. c #3A3EA3",
"j. c #343DAB",
"k. c #373CAB",
"l. c #2D3CBC",
"z. c #2939B4",
"x. c #323DB4",
"c. c #353EB8",
"v. c #242FA6",
"b. c #3D4285",
"n. c #36428E",
"m. c #3D438B",
"M. c #354185",
"N. c #354194",
"B. c #394494",
"V. c #35419C",
"C. c #3A449C",
"Z. c #3C499C",
"A. c #3B4896",
"S. c #2D409F",
"D. c #3542A3",
"F. c #3A44A3",
"G. c #3D49A5",
"H. c #3442AC",
"J. c #3A44AC",
"K. c #3C49AB",
"L. c #2E41B3",
"P. c #3542B3",
"I. c #3B43B3",
"U. c #3B49B4",
"Y. c #3442BB",
"T. c #3A45BB",
"R. c #3A4AB8",
"E. c #2F42A2",
"W. c #434683",
"Q. c #454B84",
"!. c #41458B",
"~. c #454C8C",
"^. c #494D8B",
"/. c #494B86",
"(. c #4A528D",
"). c #495287",
"_. c #444C93",
"`. c #494E93",
"'. c #444C9B",
"]. c #434697",
"[. c #4B5393",
"{. c #4B539B",
"}. c #495398",
"|. c #54599A",
" X c #54548A",
".X c #65658D",
"XX c #646993",
"oX c #696795",
"OX c #6E7397",
"+X c #73739C",
"@X c #757A9C",
"#X c #706E99",
"$X c #434DA3",
"%X c #484BA7",
"&X c #4C54A4",
"*X c #4B54AA",
"=X c #4A55A7",
"-X c #5255A4",
";X c #5454AC",
":X c #535BAD",
">X c #565AA7",
",X c #424CB4",
"<X c #494CB8",
"1X c #4D54BC",
"2X c #4D5ABB",
"3X c #4A57B5",
"4X c #5355B3",
"5X c #545CB3",
"6X c #5A5BB4",
"7X c #5254BD",
"8X c #535CBC",
"9X c #5D5DBC",
"0X c #5861AC",
"qX c #5662B4",
"wX c #5C61B4",
"eX c #5C63BA",
"rX c #5864BE",
"tX c #6669A7",
"yX c #6E73A8",
"uX c #7A7DA4",
"iX c #7677A8",
"pX c #6265B5",
"aX c #6265BB",
"sX c #646ABA",
"dX c #797BB3",
"fX c #635E86",
"gX c #2C3AC1",
"hX c #3442C3",
"jX c #3A47C5",
"kX c #4C59C5",
"lX c #535CC4",
"zX c #535DCA",
"xX c #5A5BC5",
"cX c #525BD1",
"vX c #4655CA",
"bX c #5A64C3",
"nX c #5A65CC",
"mX c #5965C8",
"MX c #5663D3",
"NX c #6464C4",
"BX c #616FCF",
"VX c #817EA9",
"CX c #7C82A6",
"ZX c #8286AC",
"AX c #878BB2",
/* pixels */
"yX*.v.z.l.f.f.kX<Xa.z.l.l.a.m.dXyXl 2 G ' 2.,.%X&X..,.>.( y z uXVXu +.3.>.,.%.%X$X,.1.f.f.>.g iXtXl o.1.,.%.+.&X*XO.2.a.f.;.m.dX",
"m.$XL R 0.0.Y T.I.D T w.I _ *X_.m.A.! / L 1 - C.8.> 1 J 7 w ^.k ^.`.& : A J X C.8.> Q Y < ~ &X*.b.}.4 : 1 7 X Z.C.o J L C J &Xm.",
"f.` MX] i.u.0.hXc.w.u.0.{ BX_ j.J.1 3X! F ] < 7.g.= E L , B.# G.V.r qXt C [ : 7.8.; ] T ) rXA s.2.r eX| < _ > V.3.A ] Y ' mX! 4.",
"z.T { vXt.0.R jXhX0.0.t.MXp.I hXY.G ' kX{ F A J.K.1 L _ ,X7 < H.H.< ~ 3X! A > V.F.A F [ zX' G L.d.< ^ 8X/ < 3 E.D.A D _ zX' C f.",
"gX0.q.t.cX{ w.hXjXI { MXt.0.w.hXc.Y ] r.2X! 1 s.g.: t 3X{ _ C H.H.A G / :Xy @ 3.3.: ! 2X] Y Y P.H.L G ( rXy @ E.D.3 ) lXr.R ] f.",
"z.R u.q.] MX{ x.Y.F nX[ 0.y.T c.T.Y e.S ) bXr 6.6.4 *X~ Y Y D ,Xj.< { C e 0X& #.6.4 qX) ] y.S J.D.A ] C | qX, ,.<.7 bXP T y.] p.",
"a.D T 0.Y / $XB.m.$XL I w.T D I.k.C F F F r !.m j ~.4 < G F Z 9.F.o L C @ % Q.N j `.4 = Y W < g.D.= A 1 > 4 ~.k k '.! C W U C a.",
"<Xj.x.hXhXs.-.yXyXm.j.hXjXjXI.lXxXj.j.P.d.7.W.+X#Xh V.d.j.H.g.7X4X7.g.s.F.#.p VXuXj 6.H.Y.x.k.2X3X9.D.J.J.6.v iXyXb.g.Y.T.x.j.,X",
"<Xk.x.Y.l.d.-.tXyXm.H.l.jXjXj.xXlXJ.P.x.R.F.W.+X+Xv 7.d.P.j.k.7X4X9.k.j.D.=.m +XiXW.6.P.x.c.k.lX8X9.H.J.I.7.!.dXdX!.J.x.c.Y.f.R.",
"2.C U U Y A B.m.b.].J S T Y C s.g.C Y F < r `.W.W.{.~ C E E V k.J.= D F : , !.W.k '.7 G T W V k.J.= F L < 7 '.!.!.$XH U W T Y p.",
"f.Y y.Y ' 8XA H.j./ 8X/ T t.Y d.f.Y y.Y ( bX8 F.V.7 bX( U y.Y j.j.F e.T ) qX, K.g.J bX' 0.u.W x.d.Y e.Y ( bX7 F.H.( 1X:.w.u.e.f.",
"z.Y Y ] 1X/ D z.Y.F ! kXr.T Y Y.Y.Y S ] mX) < P.P.< ( zXe.R Y Y.P.E U [ lX) < T.T.D ` cXe.0.] jXY.Y I r.zXo.< L.Y.F _ cXt.0.T z.",
"f.D / 1X] Y Y c.Y.I T r.mX;.S Y.R.< / kX] S F j.P.F Y ] zX' S Y.P.C ' kX{ Y E Y.Y.T R y.MX{ S Y.Y.C ' zXr.U F d.L.Y T t.zX[ Y z.",
"a.J bX( Y y.Y d.x.Y u.R ' BX/ U.J.7 bX! S e.L j.g.L t.I ' nX/ j.H.J bX( T e.Y x.x.W u.0.:.nX( H.H.! nX( Y e.G p.:.] y.w.{ mX' p.",
"-.].J F Y Y D g.k.D T I S / $X`.!.'.r < F F < g.h.< E Y C ( &X-.*.'.r < Y Y ; J.,XV W T S ! *X!._.&X! < F A = g.2.C G E F J $X*.",
"oX!.H.l.Y.Y.I.lX7Xk.x.jXY.s.m.yXdXW.7.H.H.J.9.%X<Xg.k.P.d.g.*.oX|.b.F.P.x.Y.k.7X7Xj.c.hXT.D.!.iXdX_.F.I.k.g.7.3XbX2.k.T.x.J.m.yX",
"yXm.H.z.Y.T.k.1X1Xk.d.x.L.V.k XX+Xv 6.H.I.k.9.h.<Xh.J.d.Y.9.l  XoX!.7.P.P.P.g.8X8Xg.d.T.Y.D.b.yXiX!.7.J.D.7.5.5X8X2.I.x.jX9.k XX",
"*.*X! S T Y C a.a.V E Y C 2 ~.h k _.r 3 C A 1 ,.5.= D D A ~ B.!.!.:X! C F F = h.g.= F F C ! '.-.b.}.8 : 2 1 X F.7.< D E C ! &Xg ",
"p._ nX{ T y.] a.a.E t.R / 8X7 V.3.r rX~ F ] F k.g.A r.Y ) *X~ 3.D.~ bX' S e.G a.2.F r.G ( bXr 7.V.r eX| C _ 1 D.J.L y.T 2.2XA ;.",
"l.S p.MXr.w.Y x.x.Y I e.zX/ C P.H.3 ! 2X{ F L j.j.< Y ` ,X>.< P.d.C ' nX{ F F j.s.A D _ lX( < H.H.< ~ lX` C A H.H.C W W MX{ F z.",
"l.T q.y.MX:.C z.z.C ` MXt.R Y P.P.C Y _ 3X~ ! ' 1.: ~ J._ D C s.j.F F ] lX! < j.H.= ~ 8X/ C A D.H.A C _ lX~ < H.U.C ;.nXe.w.R z.",
"z.w.y.R ' bX~ 3.3.! nX{ R y.W x.I.C r.Y ~ 5Xr  .4 t 6.r G ] / 2.2.F r.S ( 8X4 <.N.4 5X~ < / 1 7.3.A ] C o.eXr V.V.4 5X;.W y.w.l.",
"d.D U Y C 7 |.k k &XJ C Y Y C I.J.< F G A @ b.p j W.* : A 1 - ,.5.- L A A 8 `.j j W.* o 1 > X B.N.o J Z 1 4 `.W.v [.t = E D U v.",
"zXk.T.T.P.F.W.uXiX^.F.Y.vXT.c.1X7XF.H.s.H.6.k .X.Xj =.g.g.7.,.%X$X9.2.2.j.<.k #XoXj =.3.7.6.-.-X:XB.F.J.J.6.m uX@Xj 6.J.I.T.x.cX",
"lXI.j.s.I.6.j VXuXQ.V.R.Y.,XI.1X7X%XJ.a.H.%.Q.oXoXj =.3.D.3.%.;X%X,.3.s.1.6.j .XoXj *.7.7.6.-.>X0XB.G.J.j.7.m uX@Xc =.g.,XI.T.kX",
"2.< Q C 1 e [.p v [.^ < Y G V J.h.= ; L = t [.M m W.4 > 1 2 - 5.6.o 1 A , 4 b.j p ~.& @ > , X B.A.  > 1 o 5 ~.c b ^.& - L D C d.",
"j.C ] G ^ 0Xw =.%.t qX) Y r.D I.,XC e.Y ~ qX4 6.6.& qXt A { 2 3.9.1 _ F ) wX* =.=.& :X^ 3 / 2 C.Z., / 1 s sXw N.&.0 sX| D ] F s.",
"a.A G / 5Xt : ) ;.2 ~ mX_ Y G R.H.C Y / mXt 1 s.2.= t 3X_ C 1 H.D.1 C / 3X~ > 7.D.o r rX( 1 2 K.G.3 1 ( 5X| @ S.3.:  .bX{ D F s.",
"s.1 ^ 2X) A J o.>.A S _ mX) A 1.p.A ~ lX` C 1 2.g.< F ` 8Xr 1 s.j.1 ~ 2X/ A A J.K.2 < _ bX^ : F.D.o ^ eX( 1 , D.D.A F _ bX~ : 1.",
"<.4 =Xr A / 2 o.~ J ] G ) BXr ^ r 4 $X! D [ Z J.h.Z { C o.eXw <.6., 5X~ A _ 2 F.D.1 _ C o.rXr C.N.4 sX .< ` 1 3.3.C ] C o.eXw $.",
"u `.w > J J 9 9 > > A / = r _.i h [., = J 1 o F.8.- J < 2 4 ~.k h k $ : 1 1 : 8.8.o A C 3 r {.W.W._.t : 1 7 X 6.7.o A A < 4 |.c ",
"#Xu  .3.>.^ %.t 5.F.2.s.U.F.v .XuX).G.K.K.%XC.6X6X5.F.H.k.,.m +X.Xj <.3.J.F.8.5X6XC.J.H.J.C./.iXZXQ.Z.D.J.$XC.*X4Xh.J.J.j.6.).CX",
"iXh %.2.>.~ ^ N.:X<.,.D.K.Z.b uXAX).Z.K.K.G.B.5X:X6.g.J.j.6.m uXiXm 6.s.H.K.6.4X5X7.F.,XH.C./.uXiXQ.V.K.D.G.N.:X:X6.7.J.3.N.(.CX",
"b [.4 : J J @ Z.Z.X 2 A : w }.Q.Q.[.4 @ : >   B.C.X 2 J : 4 [.v Q.!.4 2 C J o C.6.: 2 1 : 4 ~.W.v }.w : 2 J @ C.N.@ 1 1 : t [.b ",
"%.y eX8 H _ > F.F.> ' Z 8 eXt Z.C.4 pX| : ( > C.F.1 ` A | eX4 N.N., 5X~ C _ 1 F.g.A ` C ~ 6X4 6.6.4 aX| Z ( 2 7.V.> ( H t aXt +.",
">.> t <X( Z 1 D.D.1 Z ( 9X| : D.D.o s 9XX.1 1 F.K.2 Z X.xX~ - D.s.1 ~ 2X_ A 1 J.J.1 C ( 2X~ : 3.g.o | 9X:.1 1 7.7.J 2 ( NX| - 3.",
"3.J Z P xX .: 7.7.@ | 9X:.H 1 J.J.2 1 X.aXd o V.J.: | xX( < J D.H.A A _ 2X~ > 3.3.: t 3X( 1 1 g.D.1 < X.eX .o 7.F.o ~ NX( Z L 2.",
",.1 ` Z | aX4 #.#.& eXt 2 _ : F.J.2 ' 1 ..pXq B.N.4 aXX.Z ` 6 7.9.1 _ C ~ 5X4 6.=.4 qXt 1 _ 2 7.V.2 / 2 | sX4 N.N.& :X~ J ` < 2.",
"%.X 2 2 @ e [.M v ~.4 o 2 1 X Z.Z.X 2 > # & (.M v ^.5 : 2 2 o 6.6.: 1 1 2 4 ~.j p v & > 1 > + =.B.X 2 > @ & [.M M !.* : 2 2 @ %.",
"=XC.V.g.7.=.v ZXAXM B.K.K.J.C.:XqXC.G.F.F.n.M ZXuXm N.g.g.g.6.'.&X6.g.g.2.@.x fXB z @.7.F.5.@.-X-X=.C.7.D.#.M uXCXQ.C.F.J.g.C.*X",
"=XN.G.g.7.B.i CXZX).N.K.,XV.C.qXqXC.$XF.F.B.M CXCXQ.C.3.F.7.6.$X&X6.7.3.3.#.u B N u @.7.7.6.f |.&X=.C.3.G.+.c OXCXM '.3.g.9.,.*X",
"%.X > < @ & Q.N M [.q o 2 > o C.B.X > > X & Q.b M [.w - 2 1 o =.6.X J A > * ^.j p k & > 2 > X @.=.  , 2 > & [.M M [.4 - J < : ,.",
",.7 ( 1 | wX& B.B.e pXs 1 ( 1 F.F.1 J 1 s pX& B.B.4 aX| Z _ 2 ,.7.1 ' 1 ^ :X& =.=.& e 4 : / > 6.%., ! 6 5 wXe B.A.e pX| H Q J >.",
"g.1 J K 6Xs X F.F.X s NXO.H < ,X,X2 < X.6Xd X F.F.o | 9XX.< 2 7.g.2 C J 8Xt @ 3.7.@ 4 r ! 2 > 7.,.7 > | 4Xt X V.G.X ..9XP H J g.",
"3.o | 6XP 6 > D.F.: 1 X.NX| o K.F.@ | 6X| > , V.F.1 Z ( xXt : D.D.: ^ 3X/ 1 2 7.,.2 ! o $Xy o o.^ @ e 6X~ > : G.J.o H K 4X| : 3.",
"@.e 6X| 6 ( 7 %.,.> ( 1 | sXe A.Z.e sXt 1 ( , 6.7.> ` 1 | wXw N.N.& wXt A ! > 6.,., A ! t {.5 s d 5 wX5 6 ! # V.C.7 ( 1 | wXe +.",
"p [.& o 1 : + f +.X , > o e |.Q.Q.(.e o > ,   =.B.X 2 2 : & (.c j W.& @ J 2 X -.-.# 7 : # e Q.u c (.& @ 7 , X =.*.X 2 1 @ * [.h ",
"uXM B.7.V.Z.B.'.m.*.6.F.7.#.M uXAXM =.V.F.F.=.0X=X&.7.D.D.=.v OX#Xj =.>.7.,...-.@...O.o.3.@.p +X@Xi +.<.,.6.=.].#.s V.7.3.N.M CX",
"ZXQ.#.D.F.V.B.-X_.@.6.F.7.*.c uX@Xv =.V.K.F.N.:X0X&.7.D.g.B.b iXuXh =.<.g.,. .n.@. .~ o.2.&.u OXXXb d o.7.,.6.].f w 7.7.3.=.M @X",
"j (.5 o > >   f g   > > X & ^.b v (.& o 2 , X N.&.X > 2 @ & (.h b ~.& # : 1 , w 4 , 2 6 : e !.u z b $ > : 7 * $ e # > : > & Q.z ",
"@.e sXt : ~ 4 +.+.# ~ : 5 0Xq n.B.0 pXs : ! , 6.7.> A 6 s &X$ n.=.0 -Xa > ( 4 ^ t 2 J J t -.y & g . -Xa 1 J 4  .t 8 J > a pXq f ",
",.@ s 6X~ : 4 N.<., > t 6Xe # V.V.X d aX| > 7 V.7.4 6 7 %Xa X V.V.+ 5 ;XK 6 : V.7., J K 8.s 4 r , 4 e $X~ 6 # <.$.> 6 K ;Xd + %.",
",., : X.wXe X <.V.X e 6X~ < 2 F.C.> 6 | aXa # <.,.X ..:X8 7 , 7.V.> > ~ &Xa # 3.7.X ..].K 6 > ~ r 8 7 8 ;Xa @ %.<.# d ;XX.1 @ 7.",
"$.7 L 1 s pX0 M.n.% 0Xs 2 ( 2 V.V.> ( - d >X& #.=.% -X .7 J > 6.,.7 J 6 5 -X& #.=.e -X..J ( 2 $.<.> ! 1 e >X& n.=.& -X5 J L 7 %.",
"@.@ > : X q (.b c ~.& @ 6 2 o N.N.X 1 : > & (.v j (.& o 1 > @ %.&.# : 2 7 + b.c h b.w o = 2 # %.@.@ > : # e ~.c v b.$ : : : >  .",
"'.B.C.F.G.=.c @XOXv B.7.g.7.6.=X&X6.C.7.J.=.M CXOXp N.7.F.F.%.'.'.%.7.2.3.N.v XXXXv &.g.3.7.6.$X'.=.<.7.7.=.v uXOXh =.g.g.V.6.$X",
"{.N.C.F.7.=.c @X@XN n.V.7.7.6.&X'.6.7.F.7.=.b uXOXj *.7.F.6.%.].=X@.7.3.3.&.h .XXXv =.3.3.7.=.'.'.*.6.7.7.N.b @X@Xj +.D.D.V.6.$X",
"g   , > X & Q.n c ).q # : , X 6.=.X : > # q Q.i c ^.& X > >   =.#.X 2 1 o & |.i c (.& : 2 , X =.#.. > > # % b c n Q.& @ 2 > X %.",
"+., ~ : a pX% *.*.% pXs - ~ > =.6., J - a 0X% M.*.& pXa > ~ , 6.6.> ! 7 5 m.. #.*.% -Xe : ~ > #.6.$ ~ > * -X% *.#.% pXe 1 ! 4 $.",
"<.> > 8 ;Xe X 6.6.X a 6X~ > 4 V.6., > | pXs + V.N.+ d wX| 9 4 N.V.@ 7 ~ ;X5 + V.<.+ 5 ;X8 > 4 <.&.@ > t -Xe $ $.<.+ d 6X| > r <.",
"<.o t 6X~ 1 7 F.7.: : ~ 9Xs @ 3.V.X 5 ;X~ 1 > 7.V., : 8 :Xa + V.G.o a 6XK 6 > %.<.> : 8 ;X5 X <.$.+ * '.t > @ V.<., > ~ 6Xt @ $.",
"+.$ 5X~ Z ` 1 7.7.1 _ 2  .aXw &.N.& 6X8 < ( 2 V.7.1 / < s pX& n.=.* -X| H L 6 6.<.> ( 1 a -X$ #.=.% {.$ > / : V.<., ( Z | qX* +.",
"M.'.7 C _ L : J.F.= L F 1 r {.b.h _.t 1 / J o V.V.o 2 J > w `.v v 0Xt < Z 2 o 6.C.o J J : # ~.b i v & , J 2 o N.C.o J A 1 4 }.v ",
"tXg ;.p.z.a.2.3X,X2.d.d.s.2.m.yXyXl ~ / 1.2.,.%X$X$.;.2.;. .h iXiXl o.1.j.2.o.*X$X,.>.1.1.$.l XX.Xu +.>.2.>.%.*X*Xo.2.1.s.^ b.iX"
};
