/* XPM */
static char *_5001c4dae2242cc83aa0320a007e7d2DMrIUYV3wuQi1NF6[] = {
/* columns rows colors chars-per-pixel */
"64 64 20 1 ",
"  c #74421C",
". c #7B421A",
"X c #6D401D",
"o c #81441A",
"O c #7C461D",
"+ c #83491C",
"@ c #8A4B1C",
"# c #874619",
"$ c #754722",
"% c #6C4424",
"& c #64452C",
"* c #554536",
"= c #643D1E",
"- c #5C4028",
"; c #944D1A",
": c #503F2D",
"> c #454844",
", c #454239",
"< c #8F4819",
"1 c #7D491F",
/* pixels */
">$  .@#@+&*&&&-->>-::-**:---::*,>&1#;;#;;+&*&*-:,,:-&&%&*-&%== -",
"=+  OoO<<<o  X .*%.=.o.  .o  .o :+;;<;@;;<<;<<#=,-X..#<o.##oXX#o",
"X@+X O.;<#oXXX  -%.X  o#OOo. .##-+;@;;+@;;#;<+ X:-...<;#o#oo.X##",
"=++XX$ <<# XXXO *%oX Xo<#oo.  ..-+;+@;+#;<#<<#X=:X  o<#<##oooX.o",
"=.OXX= ##. X X. ,%oX. o;#o##oOo.-@;+@<O;<#..##X=:Xo.##<<<###O  .",
":XX===-&---:::=->&.  XOooOO+OOO%*+<OOO+#$ X  .=-,*O o++O oo.oo#O",
"*&--:,:>>>>>>>,,>,:::,,,>*&&&%%-*&    .:,--&-=-:,*-***,>>,*&O@#-",
"O+1$$$+&>-=-==%X.  XoO.%,O##+  OO@+. O --oooo.=XX.ooo<#&>*+;@@@$",
"$$$%%$+$,..=X oo<OOOOO##,Oo.o XX%OO   X==...#.=XX.  ..o.>%<@+O+$",
"O+$$$%+&*.oXXo+XO.O O#OO*@#.# . = .. XX=-. o#.= =XX= X .>%#+1OO ",
"O@$1@$O&*o+  O+%OO+O++<@O;@o#o.XXO . ==--o.oooXX:=XX=X  >$#OO1$$",
" .OoO  **<+O .O +o+O@@;@.;<<<o. X ..X==:-.oo#oX===XXXXX=>X# . XX",
",>,*>>>>>&$*,*,,**%O@;@O*O#<<o ::,::,,:,>:**-*,,,::-:::>>>,**>>,",
"*>::::**&$%&&*-%>>%$@@@$+;@;;@+%$>:=====::==---:,>==&%%%%&&&%---",
" : === O+;@+@O%O&-+$@@;1;;;@;++O%:X =XXX===X.X X::..Oooooooo.XX ",
"%*$%=%111@@$++$$$&;+++@O@;@@;+$+$=X===X==X=X. XX&- Oo#OOOOOOO% %",
"$* %%%$1+++$+@$$1&@1@+@OO;+@@O% %=======XXX ..  -- O++OOOOOO$ O=",
"O* O@$$@;;+$+;111&@++++OO@1+++OO$:======XX..oo  %-oO+++@@oo@OO+%",
"&>*$+111@;@%$$%%&>O1%$$&%$<+O %$&>:=-==-:-X%X %X&,%%$1$$$$%$$%$%",
">>,,,,,,>>*:,,,,*&%%&%-:>,##.=-&**---:-,>>,,,,:::*::**,,>>*&&:*,",
" OO1++<o**o   X=oo####o.:&@@+OO#O#   X.X*,X.X o=XX . .X=>&+@@+# ",
"++@@@@;;@##XOo  ++#o#oOo:%+++  +++.XX=XX-:XXX..= X  ... ,$1++1@1",
"@;@+@@;;@##Oo+Oo#o##o#Oo*&@@@$OOO@+  XXX-:XXX.O=X O OOOX,$+@@1@1",
"@;;+@;;;;#oOo#Oo#oo###Oo*&<+%$1+O@++$O  -- XX.#XX  .oO. ,%@@@1@1",
"@@;@@;;;;OOO##+<#o#<@@#o**.$%%+;++##1@1.-:XXX.. .  o#oO%>&;@@1;@",
"&*&&&1<#%&oX&&&&&**&***,>,,:::-&*>***&*:,,:-**,,,>*:*&&*>*OO+%%&",
"$*..o#<#o##..O.O@*&O..  X  X = #o*$@@O%%%% $%$%%->&$@@+++1+@++@%",
"1*.Xo#.oo###..o<< #<#o.#.  XO  <o$;;@+oo     O.  :+@@@++++++1$@%",
"$*X= ...#<<oo..## o<oo.o.. X  X#O%@;++O+O    OX= -%11++1+++11$+$",
"$*XX .o.o#o....o#&O# .Ooo#oXXX=o %+@+++O.    OX= -$+@1111+1+@$+$",
"%,X  . oo.  .o.oo*o;#.o#<<#XXXo#<%@##o# oo.  OXX :$111+O++1+<O@O",
">>,:::-=%XX---:**>*&%%  %%oXX ##$>%&-&&**--=X.==:>-X.O#O&%O%$&%-",
"&&&&%%&&*XX---**&$$1$&X&>XoX o##$$$%$%%*>:-% O= &*&X+O#.>&.%$&&&",
";;<+$.oO=.. .oo.o#<<<#o -.o..#;<<<<###.X: ++$$%1+@@1@+@+-$@@@+;;",
";;;+1.o$-## .o. o##<#. .*X#oo<<<#<##.o.=:111$$$111+@@@@+-$++1O;@",
";;;+OOO1-#o..oo.####oX  >=ooo#oo##ooooo%-O$$$1111$+@;+11:O+1@1@@",
";;@OO++1-oo..o#ooo.oo  X>X#oo#.o##ooo.o--+$$%$$$11@;;@$$,$++@@;@",
"11.XO11&,X &&X  . =X%&-,>*=-- X . XX--X**+$%$$%$11$$@@$&>-O$+111",
"::>*-*-*>**&&&&-&&>>*>>>>>>**:*&&*>>>>,*,::-XX=  %,,:*:,>,,,,,::",
"XX:$+O@O$1;;@@@+;;*%#.X....o##o#;<**X.#.  ===X%$%O--o.X = #   .X",
"X =%OOO$OO@@+@+@@;*.oo.o#o...ooo#<&-..#o  ====X X%:-O  .Oo;@#oO.",
" .&% ++OOOO@+++@1;& .o..ooo.o#####%&ooo.XX==X=XX  :-O=  Oo##;+OO",
" #%%XO++OOO@OO++O<* #. .ooooo#.o<<&%o.o.X===-=    :X XO OOO@<OOO",
" #&- =O+O+o<<##.O#*- ==X...#oo.o#o*-X.  =====o .. :XO$OOO#<;<o.+",
"-&*>==. X%*&&&:::*>>>>>>:-* .. oo->>,-:,,:,,::,,,,>*&XX. **&*&*&",
":&%%%%$@O$>1$$&$$$%$%%&%$&,oo oo#oO$O1%%:,>-X%=---:&ooOO *>*&*--",
"$+11%$$@1@%;@@11@;+@+<##++ #. #o##<<#<o. =, .. X.o #<#+O#&*#@+  ",
"1111$$$@+@$;@@1$1@1+@@@@;$-o. ..###o##oO.X,%oXXX.  ###oo#&*@+O%$",
"1++111+@+@$;@@111@@@;;@@;$:o =X.#oo#o#oo X,%o==X O #@<oo#&*;@1$1",
"++1111+;@;$@;@1$1;+;;;@@;+:..=X.oooo##o..=,ooX X oo#<;<o#-*;@+O+",
"$%$$&$$+1&>$@1%$$1%@;;@$$->:-:--***:&&&&-*>&%-%%-::&%%%--,>&$$&$",
"-*>*-:*&&&*&%%----,*;@@$*,*,>>>**>>>,******,*:,,,,>>,::,******&*",
"%O*OX=.++#ooOO  =@%1;@;@@O +#.##; >-. ... XX..  X=,*  +O#@#;<oO$",
"X$>OOXXOOOO   XXX+.+@++++1$+@oo#@O>X.....X X  X OX,%O%@%O++@++$ ",
" %>O# X.OOO     XOX1@+11@1$OOO+#@$>Xoo.oo .o.XX= X,$O$OOO@@+@@$ ",
".%>o# XOo.        XXO++;+1X$+++<+o> ##.ooooo.  XX=,%XXOO@+@@;;o ",
"=:>=o. o#.XX XXX .=%OOO;O   OOoo.X>-.o o..o.oX X==,*=XO    O+%%X",
",>>* . o#&>,-===XX:-X-:::,,,,,,>>>>>>>>>>>>**--:,,>,,,,,,,>>,,>>",
"$OO@+@@@;+** XXXXX=XO$$X =,>%O1$%%&%$OO$&%>&    ===---%XX **@;;1",
"%O1++@@;;+-% XXX$$ %$OO+@+$-<<<#<####<###o*$OO@OX XX. .OO<-$;@@@",
"$O@+@@+@;+*&O% XO  X  $+@+$*#+##<###@;#<oo>%#O++-=$  XOOO#&&@@;@",
"1@@;@;+@;O:-O%%O$$%X  $++O$:oO#<<##<;;;<o#*1@$1@%=X$%O+OO@$&@@;+",
"1;@@@;;;;#,:O%O111$ OOO@1O&&o#<<<o#+@;;;;<*$;+++%=%O%O@+1@1&@@;@",
"&$+OX<$&&&>>-&$&&%%&$&1$$&>>%$%&*&&%O<<;;&>*@1$ =-$1$1+1$+$>-%$$"
};
