/* XPM */
static char *_b857083986e45b28ac6030a93da289aggDjTuiVHe8d2120[] = {
/* columns rows colors chars-per-pixel */
"64 64 254 2 ",
"   c #0A0907",
".  c #160B08",
"X  c #16170B",
"o  c #0C0F12",
"O  c #081617",
"+  c #181916",
"@  c #230D09",
"#  c #28140A",
"$  c #37160A",
"%  c #271813",
"&  c #371A15",
"*  c #142E10",
"=  c #283807",
"-  c #272717",
";  c #302D11",
":  c #09192A",
">  c #0F1C2C",
",  c #08282A",
"<  c #182727",
"1  c #082A35",
"2  c #033236",
"3  c #05363A",
"4  c #113233",
"5  c #282926",
"6  c #313128",
"7  c #283638",
"8  c #383836",
"9  c #451A0A",
"0  c #521B0F",
"q  c #781C0B",
"w  c #4C3709",
"e  c #502D12",
"r  c #702D10",
"t  c #4C332C",
"y  c #6C3530",
"u  c #0E4F14",
"i  c #2B4711",
"p  c #164629",
"a  c #06473E",
"s  c #314C32",
"d  c #0B6423",
"f  c #346E33",
"g  c #534C16",
"h  c #6D5512",
"j  c #736C1D",
"k  c #53522C",
"l  c #47463A",
"z  c #764832",
"x  c #537133",
"c  c #726F26",
"v  c #093945",
"b  c #12334D",
"n  c #283B46",
"m  c #113D6B",
"M  c #533C41",
"N  c #064845",
"B  c #154C4D",
"V  c #085957",
"C  c #155A58",
"Z  c #2F4E52",
"A  c #0F655A",
"S  c #307351",
"D  c #10526F",
"F  c #094777",
"G  c #365A6B",
"H  c #13716E",
"J  c #096C75",
"K  c #07787A",
"L  c #316972",
"P  c #51524B",
"I  c #595648",
"U  c #6A5851",
"Y  c #506552",
"T  c #6E6F52",
"R  c #696558",
"E  c #726C58",
"W  c #4F716F",
"Q  c #717068",
"!  c #797668",
"~  c #861C04",
"^  c #892405",
"/  c #972704",
"(  c #8B3709",
")  c #923603",
"_  c #953A05",
"`  c #9A3E05",
"'  c #913509",
"]  c #953B0A",
"[  c #993D0A",
"{  c #883B13",
"}  c #A23F07",
"|  c #9A4106",
" . c #9C420C",
".. c #8C4519",
"X. c #9A4313",
"o. c #A1440D",
"O. c #A24811",
"+. c #8C4B2D",
"@. c #946832",
"#. c #925547",
"$. c #A85845",
"%. c #A46B57",
"&. c #89756A",
"*. c #CD5E42",
"=. c #CB6E54",
"-. c #31843E",
";. c #638633",
":. c #1D8D46",
">. c #378546",
",. c #339552",
"<. c #27A35D",
"1. c #34A35C",
"2. c #09827E",
"3. c #19857A",
"4. c #358B71",
"5. c #2DA763",
"6. c #37A765",
"7. c #4F944E",
"8. c #708F4C",
"9. c #679F5E",
"0. c #4F8D6A",
"q. c #4CA967",
"w. c #68AA6A",
"e. c #938F29",
"r. c #A99B2E",
"t. c #AAA62B",
"y. c #B7B02C",
"u. c #CD980F",
"i. c #D39B16",
"p. c #D4A80C",
"a. c #CCA618",
"s. c #D7A816",
"d. c #CCB611",
"f. c #DAB717",
"g. c #E2AF10",
"h. c #E4B916",
"j. c #CE9C26",
"k. c #D0AC27",
"l. c #C7B928",
"z. c #D7B626",
"x. c #E3B922",
"c. c #D9C80A",
"v. c #DAC715",
"b. c #D7CF10",
"n. c #E6CC0E",
"m. c #E7D50A",
"M. c #E3D40D",
"N. c #E4C916",
"B. c #E4D313",
"V. c #E8D619",
"C. c #F3D915",
"Z. c #CFCB2A",
"A. c #D8C827",
"S. c #E5C624",
"D. c #E4D425",
"F. c #9D9B68",
"G. c #908C71",
"H. c #074A85",
"J. c #075A8B",
"K. c #0B5896",
"L. c #07638D",
"P. c #097A83",
"I. c #086995",
"U. c #07729A",
"Y. c #0A739D",
"T. c #167194",
"R. c #2E7589",
"E. c #287A94",
"W. c #1F6DA8",
"Q. c #0D79A3",
"!. c #1375A4",
"~. c #507882",
"^. c #6C7F81",
"/. c #058483",
"(. c #078787",
"). c #0B8B85",
"_. c #068C89",
"`. c #0C8C8A",
"'. c #158B88",
"]. c #099388",
"[. c #0C938D",
"{. c #12938C",
"}. c #19948A",
"|. c #0B8B93",
" X c #148C95",
".X c #0D9493",
"XX c #0C9A94",
"oX c #139593",
"OX c #159A97",
"+X c #2E938B",
"@X c #2B849A",
"#X c #348699",
"$X c #1AA39B",
"%X c #26A59C",
"&X c #189DA1",
"*X c #348DA6",
"=X c #3592AC",
"-X c #1BA6A6",
";X c #26AAA6",
":X c #31B2AC",
">X c #508B93",
",X c #678A93",
"<X c #4C95A9",
"1X c #6999A9",
"2X c #54A4A8",
"3X c #6CA8B7",
"4X c #52AFD3",
"5X c #68B7C9",
"6X c #71B8D0",
"7X c #64C1CF",
"8X c #69C6DB",
"9X c #75C4DA",
"0X c #70C7E3",
"qX c #95928B",
"wX c #99978A",
"eX c #A5998A",
"rX c #90AB9F",
"tX c #B0AC96",
"yX c #B1AFA6",
"uX c #B7B4A8",
"iX c #C7BC9C",
"pX c #C4BAAD",
"aX c #BEC5AE",
"sX c #CECC9A",
"dX c #EFEC9E",
"fX c #CAC4A9",
"gX c #D2C5A9",
"hX c #D7DAAA",
"jX c #CBC5B5",
"kX c #D6CBB8",
"lX c #D9D4B9",
"zX c #E3D8B9",
"xX c #EDE9A8",
"cX c #F2EEA6",
"vX c #F5F2A4",
"bX c #F8F3A9",
"nX c #EAE3B6",
"mX c #F5ECB8",
"MX c #F7F3B8",
"NX c #9CBEC9",
"BX c #A1CBC9",
"VX c #DBD8C5",
"CX c #D3D3C8",
"ZX c #E4DCC7",
"AX c #E4DED2",
"SX c #DBE1C9",
"DX c #E7E4C9",
"FX c #F4ECC9",
"GX c #F9F5C8",
"HX c #E8E7D4",
"JX c #ECEDDA",
"KX c #F4ECD7",
"LX c #F9F5D7",
"PX c #F6EEE4",
/* pixels */
"N , 4 V V A C C C 3 N H H 3.'.'.2.K V v H '.'.K 3.'.'.'././.2.'.`.`.].].`.(.D H [.{.[.{.[.{. XP.D J OXXXXXoXoX$X$X{.K J `.).{.$X",
"3 1 3 V A A A A A v N H H K K K 2.K V v B 4 , < < , 4 B C H 2._.]._.`.`.`.K V J `.{.[.{.].[.{.2.J K oXXX[.OXOX$XXX`.K J ).).{.$X",
"4 : : , 4 N C A V v N J K K K K 2.H N o @ 9 0 r r r 0 $ X < C '._._.`.)._.K V J _.[.[.[.[.[.{.2.J P.OXoXOXOXOXXXXX(.K J ).).{.%X",
"O 4 Z Z Z B 1 a B v N J K 2.K K H 4 # 9 q ~ ~ / / / / / r 0 % B 3.).`.).].P.D J ].`.].[.{.{.}.3.J K %XoXXXOXOXXX[.(.K J ).).{.%X",
"v L E.E.@X#XL B , 4 v H K K H A < 9 q q ~ ^ ^ / / / / / / / r # B 3.).].[.P.D J 3.3.3.H A A B a 2 B L +X}.$X;XXX].(.K J ).).`.$X",
"L R.E.E.@X@X#X#XL 4 1 A H K A < 0 q ~ ~ ^ ^ ^ / / / / / / / ^ r - H ).[.'.H C B C 4 < 6 8 l I I I I Y Z s S :X;X[.).K J `.).`.OX",
"L R.E.@X@X@X#X*X<X>XZ v A A < 0 q q ~ ^ ^ / / / / / / / / / / ^ e p H H C Z s P G.tXfXlXnXDXFXFXKXFXHXSXyXW C +X{.).K J `._.{.OX",
"E.E.E.@X@X#X#X*X=X*X<XL b > & q ~ ~ q q ~ / / / / / / / ^ r r 0 & 6 W qXyXjXVXHXLXLXLXGXGXMXMXMXGXGXGXLXLXHXwXC 3.).K K oX].{.OX",
"R.E.E.@X@X@X*X*X=X=X=X=X>Xn % 0 q ~ ~ ^ ~ / / / ^ ^ r 0 9 $ t U eXCXJXKXKXLXFXGXFXmXMXMXbXbXbXbXbXbXbXMXGXGXDXY H `.K K oX[.{.OX",
"G R.E.@X@X@X*X*X*X*X=X=X<X<XL < 9 q ~ ~ ^ ^ q r 0 $ # 5 P wXkXFXKXFXFXmXmXbXcXvXvXbXvXbXbXbXbXbXbXbXbXbXMXGXDXY H |.K K {.[.{.oX",
"b R.E.@X@X@X*X*X*X*X*X=X=X=X<XR.< $ q q r 0 $ & 6 R wXkXDXFXFXFXmXmXcXcXbXbXbXbXbXbXbXbXbXvXvXvXbXvXbXMXGXGXlXs H `.K K `._.{.OX",
", B R.@XE.#X#X*X*X@X#X*X=X=X=X=X>XZ % $ % t ! tXkXDXFXFXnXnXxXxXcXvXbXvXvXvXvXvXbXvXvXvXvXdXvXvXvXvXMXMXGXDX! B '.(.P.K `.(._.oX",
"3 : Z R.@X@X@X#X*X*X@X=X=X=X<X#XL n 5 P eXlXZXZXDXnXnXxXxXxXcXdXdXcXvXdXdXcXcXcXcXvXcXcXcXcXcXcXvXvXvXxXtXY B 3.`.(.K K `.(._._.",
"3 , O Z R.E.@X*X*X*X*X*X>XL Z n R qXuXkXZXzXzXzXnXnXnXxXxXxXcXxXxXcXvXcXcXxXdXdXcXdXvXvXvXcXxXxXxXsXF.k p H }..X|.(.K K `._._..X",
"3 , , , B R.#X#XR.R.L Z Z R qXpXkXVXkXkXkXjXjXfXiXtXeXF.G.G.G.G.G.G.G.G.G.! T I I U E ! T U I l 6 + < C '.{..X.X_./.K K `._._..X",
"3 2 v B 4 v Z n < O + P ! qXqX! Q R P P l R E ! G.qXqXwXwXtXyXyXuXuXyXyXyXwX8 X l g w g g g g k j c p +XOX.XOXOX`.2.K /.(._..X[.",
"a 2 v C C 2     5 8 s l P P P P 6 X 8 5 % R pXCXCXVXVXVXVXVXAXHXHXHXHXAXAXAXwX+ r.k.j.k.d.d.l.l.d.l.c S %X-X-XOX_.2.K /.(.(..X.X",
"a 2 v A V N O O n &.uXpXuXuXeX&.#.U tX&.&.#.&.kXZXDXKXKXKXKXKXPXPXPXPXPXPXPXkX6 c f.p.u.v.c.d.u.d.a.t.s +X;X-XOX_./.K /._._..XXX",
"a 2 v A V B : D B 4 8 E wXtXt U %.&.kXeX%.&.U pXZXDXJXAXCXCXpXyXyXuXuXjXjXaXyX8 g v.f.u.f.c.c.u.s.s.a.c B ;X-X-X(./.K (.(._..XXX",
"N 2 v V V B 1 J.L.L.C 1 < 8 U P t t Q U M E tXVXHXyXP Z n n b b b b m m D F m b - y.f.u.u.c.c.p.a.f.a.j.s 4.;XOX_./.K (.(.(.[..X",
"N 2 v V V N : D L.I.T.L.D v > 7 R qXqXeXtXkXZXDXHXtX< F H.H.H.H.K.K.K.K.K.K.K.D O e.c.f.u.g.c.f.u.f.s.i.@.C ;X-X_./.P.(./.(._.[.",
"N 3 3 V V 3 : D L.I.I.I.Y.T.D b > 8 &.pXVXZXZXDXAXpX< J.K.W.W.W.W.=X=X=X4X4X4X<X+ j b.c.p.s.c.c.s.p.x.j.y.s %X$X_.(.K (././._.[.",
"N 3 3 V V , : D J.I.I.I.I.U.T.T.D v > 8 &.uXVXDXAXCX7 E.=X0X8X6X9X9X9X9X9X9X8X6XZ g Z.c.p.i.c.c.f.p.h.a.k.c +X$X_.P.K (.(./._.[.",
"N 2 3 V V , > D J.L.L.L.U.U.U.Y.Q.T.D : o 5 R kXAXVX7 L @X7X7X6X6X6X3X,X,X1X6X6XW ; l.c.N.u.c.c.v.p.g.s.a.e.4.-X]./.K ).(.(._.[.",
"N 2 3 V N O > D J.L.L.I.I.U.Q.Q.Q.Q.T.R.B , o Q VXHXP G #X5X3X1XW 7 5 5 5 + Z 1X,X+ t.b.n.p.h.c.v.f.s.s.a.t.4.-X[.P.J `.(.(.[.oX",
"a 2 2 V v o : D J.L.I.I.I.Y.Y.Q.Q.Q.Q.!.T.R.> I lXDX&.Q BXrXZ 7 Q F.iXtXqXwXl 7 ,X5 e.b.M.f.g.M.v.f.s.f.a.y.>.;X[./.J `.(.(..XOX",
"a 2 2 B 4   O D J.L.I.I.I.Y.Y.Y.Y.Q.Q.Q.Q.E.1 P lXDXeXR CXjXP + &.hXxXT 6 iXhXI < + j b.M.N.g.c.b.c.p.N.v.y.S OX.X/.J `.(.(.`.OX",
"a 2 2 N , . o m J.L.L.I.I.U.Q.Y.Q.Q.Q.Q.Q.T.1 P kXZXpXl lXVXjX! + R sXsXtXnXnXyX7 5 g v.c.B.p.c.c.c.d.N.c.y.S $X.X(.K `.`././.oX",
"a 2 3 B O % % b F J.L.L.I.I.Y.Y.Y.Q.Q.Q.Q.T.1 P jXZXkXI kXDXDXSXwX- P G.G.G.I Z 1XZ g v.c.V.p.c.c.n.f.N.c.y.S %X.X(.K `.`.(./.oX",
"N 2 3 B O 9 9 : D J.L.L.I.I.U.U.U.Y.Q.Q.Q.T.1 P jXZXZXT tXDXDXHXDXtXl Y ^.W >X6X9XG ; Z.b.B.p.f.B.n.f.v.b.t.S $X.X(.P.`.`././.oX",
"N 2 2 4   e e . b F J.J.L.I.U.U.U.U.U.Q.Q.T.: P jXZXDXG.G.HXHXHXHXFXaXP G 6X9X8X0X~.; l.b.V.g.f.B.B.f.f.v.t.4.$XXX(.P. X`././._.",
"N 2 2 4 . r r @ : m J.J.L.I.I.U.U.U.Y.Q.Y.L.: P jXZXDXF.G.DXHXHXHXHXKXVXR n 5X9X0X>X- y.b.V.f.p.B.B.z.f.v.e.4.-XOX|.P. X`./././.",
"N 2 2 4 . r r 9 o b F J.L.L.I.U.I.Y.Y.Y.!.J.: I jXZXDXtXE VXDXDXJXHXJXJXSXQ 7 3X0X<X% y.B.M.h.p.B.M.f.f.A.;.>X$X&X|.|.OX`.(././.",
"N 2 2 , . r ( r . 1 F J.L.L.I.I.I.Y.Y.!.I.F : R jXZXZXfXT lXZXHXJXJXJXJXJXHX9.Z 6X1XX t.N.B.f.p.m.M.f.f.l.;.2X;X-XoX|.&X.X(._._.",
"N 2 3 , @ { ) ..e o b F J.I.I.I.I.Y.Y.Y.I.F : R pXVXZXkXT fXVXHXJXJXJXJXJXJXDXR Z ,X+ t.v.B.s.p.M.c.s.f.t.f :X;X-XoX|.&X.X`._._.",
"N 2 3 : # { ) | h # : D F I.I.I.I.I.I.I.K.F : E pXVXZXlXT uXVXDXJXJXJXJXJXJXDXlXY 5 X t.N.B.s.p.M.v.s.f.e.S :X;X$XoX.X&X.X.XoX_.",
"N 2 2 O # { ) ` X.r @ b D H.I.I.I.I.I.T.J.F : ! fXVXZXkX! eXZXDXJXJXJXJXJXJXDXhX! . X y.B.M.s.s.M.v.s.z.c 4.:X-X$XoX|.&X.X|..X_.",
"N 2 1 O $ { _ | | ( r . b F H.J.L.I.I.I.H.F > &.pXlXZXkXG.G.VXAXHXJXJXJXPXJXfXI - 5 ; l.M.n.s.p.M.h.p.z.x +X:X-X-XOX|.&X.X.X.X[.",
"a 2 , O $ ( _ |  .] { e . b F F H.J.I.I.H.m : &.iXkXfXpXeXE VXSXHXHXHXHXCXwX6 n ,XP w v.M.N.p.p.n.f.p.z.k +X:X-X-XOX|.&XXX.X[._.",
"a 2 , O $ ( _ | o. .] { r @ > m F H.K.K.H.m : Q pXuXtXqXE I fXlXSXHXCXqXs 7 W 3XNXn k D.M.N.u.f.N.s.s.l.k +X:X;X-XOX|.-XOXoXoX`.",
"a 2 , o $ ( ` | | ` _ ` ] r & : b m H.H.H.F : 6 ! wXI 8 R 6 tXfXtX! 6 7 W 5X9X8X5X7 @.B.m.h.u.f.v.i.s.l.s +X:X;X;XOX|.;X.XoXoX{.",
"a 2 , o 9 ] ` | |  .] [ [ ] ..e @ : b F F F : E E 8 5 &.R l I P 5 n ~.5X0X0X8X0X3X< r.M.m.h.i.N.f.i.k.l.6 +X:X;X-XoX X-XoXOXoX).",
"a 2 , o 9 ] _ | ` ] ] ] ] [  .X...9 o 1 m B + R T l l E t t - 7 <X6X8X8X9X0X8X0X,X- y.M.m.p.i.v.f.j.z.l.6 +X:X-X-XoX X&XoXOXoX'.",
"N 2 , O 0 ( _ | | ) ) ` _ ] _  . ...e & P 5 + l 6 6 t z %.=.%.8 2X5X8X8X9X9X0X0XG g Z.B.n.i.s.v.d.a.f.l.i 0.:X:X:X+X%X:X;XOX}.'.",
"B 2 , o 0 ( ) ` ` ) ) [ ) ) )  . . ...e +.$.y y z $.=.=.=.=.#.- G 5X5X9X8X8X8X6X7 @.N.m.h.i.h.v.p.s.d.Z.k l T 8.8.8.7.0.0.0.0.,.",
"5 + *   0 ( _ ` ` ) _ | ) ) ) [ } _  ...e $.=.=.=.=.=.=.#.U G.qX5 2X5X6X6X8X0X1X- r.n.n.s.s.N.f.p.h.c.v.@.e j c c c c j j c c x ",
"; # *   9 ( _ | ` ) _ | ) ) ) ] ) ]  .X.e y $.*.*.=.$.z &.pXlXVXR G 6X6X6X6X6XZ w A.n.h.i.h.N.p.s.N.c.v.r.; x x x x x x x x x x ",
"* * *   0 ( _ ` ` ) _ | ) ) ' ] { ) `  .{ 9 #.*.*.$.y G.kXzXzXDXuX7 >X5X5X6X3X< e.N.N.s.s.n.v.s.f.B.v.f.l.; S >.>.S >.>.>.>.>.f ",
"* * *   0 ( ] _ ) ) `  ._ _ _ [ ' _  . .X.r e $.$.k F.gXlXzXZXZXDX&.Z 3X5X6XW ; l.v.h.i.h.N.f.s.N.B.z.f.A.g f ,.,.,.>.,.,.>.>.f ",
"u u *   0 ( _ _ ) )  . ._ ) _ ] ) [ O. .X.+.& #.z U gXgXlXzXzXzXzXuX7 1X5X6XZ c A.N.s.s.N.N.s.s.N.B.f.z.A.c s 1.1.6.6.1.1.1.1.:.",
"u u *   e ( ` _ ) _  . ._ ) [ ) ) [ O.O.X...e t 6 G.gXgXlXzXzXzXtXR ~.5X6X,X6 y.B.h.j.h.C.n.s.x.B.M.v.f.S.r.i ,.<.<.5.5.5.5.1.:.",
"u u *   r _ ` _ ) _  .` _ ) [ ) ) o.O.O. .X.r # + F.iXgXkXlXlXlXT W 3X4X5XZ j v.N.s.s.V.m.N.s.N.B.M.N.s.S.y.= ,.5.<.<.6.6.6.1.:.",
"u u * . r _ _ _ ) `  .` _ _ [ _ [ o.O. . .X.( $ o G.iXfXgXkXkXlXiXZ 1X5X>X- t.N.f.a.g.m.m.h.h.B.B.M.A.k.S.l.i >.6.5.6.5.1.1.1.:.",
"u u * @ ( _ | _ _ `  ._ [ [ [ ] `  . . . .[ ] e . ! iXiXgXgXgXkXG.s 3X3Xs g Z.v.p.i.h.V.V.h.h.B.M.M.N.z.S.Z.g x 7.1.1.1.1.1.1.:.",
"u u O $ ( ` ` ` _ [  .[ [  .] ] [  .[ [  . . .r . 8 tXiXfXgXgXeX7 >X3X~.- r.v.f.i.i.N.B.V.h.N.V.B.B.S.z.S.A.g x 8.8.8.7.7.7.7.>.",
"= = X $ { ` | _ ) _ [ [ ]  . . . .o.o. .o.O.o.{ @ o ! iXiXgXfXR Z 1X1Xn g l.v.f.i.s.m.M.V.h.S.B.V.V.A.k.S.A.h x 8.8.8.8.8.8.F.8.",
"= = X 9 ( ` | ) ) _ [ [ [  .[  .[ [  . . . .o...$   % G.iXiXiXI G 1XG - r.c.c.f.j.f.M.M.V.h.S.V.V.N.f.z.S.Z.j f ,.7.7.7.7.7.7.;.",
"u i X e _ | ` ) ] [  . . .[ _ ] ] [ [ ] ] X.] ..&   . 5 G.iXiXG.s ~.< j d.c.c.d.u.f.M.M.V.h.S.C.V.V.v.z.S.A.c 7.6.6.6.6.6.6.1.-.",
"d u X e ` | ) ) ( ] ] _ _ ) ] ] ] ( ( { { r r r #   5 o % E G.&.6 5 6 t.d.c.c.d.u.f.M.M.V.f.S.V.V.V.f.x.D.Z.;.,.5.6.6.6.6.6.6.:.",
"d p X e { ( ( ( ( ( ( r r r r 0 9 9 9 $ # @ @ .     . .   . X + . . % w h e.y.l.a.v.b.B.V.N.N.V.V.V.z.S.V.Z.x 1.<.6.6.6.6.6.6.:.",
"d p X % $ 9 9 9 9 9 9 $ @ . . . # .   o X X . . X X @ % X   & & # ; ; $ $ # ; g e.t.Z.b.B.B.V.V.D.N.z.S.B.y.f 6.<.6.6.6.6.6.6.,.",
"u u = - - X X X X X X X X * ; w h z & . # $ & $ $ $ $ & . & #.y $ e w w w w w e ; ; g e.l.A.D.V.V.V.S.D.D.e.f q.6.1.6.q.q.q.q.,.",
"i i i i = = = = = = = = ; w h j h +.#.y @ . # $ 9 9 9 # . z $.y $ w w w w g g g g ; - - s c e.l.Z.b.D.D.Z.;.8.9.w.w.q.q.q.q.w.7.",
"i i = = = = * * * * * = g z h h h h ..+.+.& . # $ 9 9 # % +.$.e ; w w w w w w ; - * * s S S s i c t.Z.Z.Z.c 8.9.w.9.w.w.w.w.w.7."
};
